<svg width="60" height="60" viewBox="0 0 60 60" fill="none" xmlns="http://www.w3.org/2000/svg">
<g clip-path="url(#clip0)">
<path d="M30.09 59.57C46.4984 59.57 59.8 46.2684 59.8 29.86C59.8 13.4516 46.4984 0.149994 30.09 0.149994C13.6816 0.149994 0.380005 13.4516 0.380005 29.86C0.380005 46.2684 13.6816 59.57 30.09 59.57Z" fill="white"/>
<path d="M33.09 12.91C32.0992 12.7385 31.0956 12.6515 30.09 12.65C29.0845 12.6527 28.081 12.7397 27.09 12.91C26.94 12.91 26.89 12.79 27 12.7L30.1 10.35L33.19 12.7C33.3 12.79 33.24 12.94 33.09 12.91ZM27.92 27.7C27.8746 27.7147 27.8331 27.7395 27.7985 27.7723C27.7639 27.8052 27.7371 27.8454 27.72 27.89C28.35 28.37 28.78 29.47 30.09 29.47C31.4 29.47 31.83 28.37 32.45 27.89C32.4329 27.8454 32.4061 27.8052 32.3715 27.7723C32.3369 27.7395 32.2954 27.7147 32.25 27.7C31.5385 27.8374 30.8146 27.9011 30.09 27.89C29.3621 27.9014 28.6349 27.8378 27.92 27.7V27.7ZM30.09 25.85C29.72 25.85 29.64 25.71 29.4 25.71C29.0973 25.7321 28.8129 25.8636 28.6 26.08C28.6097 26.1649 28.6446 26.245 28.7 26.31C29.23 26.39 29.47 26.69 30.09 26.69C30.71 26.69 30.94 26.39 31.47 26.31C31.5255 26.245 31.5603 26.1649 31.57 26.08C31.3596 25.8658 31.0792 25.7345 30.78 25.71C30.53 25.71 30.45 25.85 30.09 25.85V25.85ZM59.9 31.5C59.9 32.21 59.8 32.92 59.71 33.62C56.33 34.18 55.12 31.17 51.66 31.32C51.8678 32.0569 52.0347 32.8047 52.16 33.56C55.02 33.56 56.16 36.23 59.35 35.84C59.18 36.65 58.98 37.46 58.75 38.25C56.24 38.5 55.35 36 52.45 36.07C52.45 36.49 52.45 36.9 52.45 37.32C52.45 37.56 52.45 37.79 52.45 38.02C54.93 38.02 55.73 40.28 58.1 40.18C57.8 40.98 57.47 41.76 57.1 42.53C55.4 42.44 54.82 40.26 52.23 40.44C52.16 40.99 52.06 41.55 51.94 42.09C54.18 41.93 54.67 44 56.27 44.16C55.8633 44.9133 55.4233 45.6433 54.95 46.35C54 45.84 53.2 44.3 51.4 44.2C51.59 43.63 51.75 43.05 51.89 42.46C50.033 42.4363 48.2511 41.7235 46.89 40.46C47.39 37.63 42.99 34.75 42.99 32.67C42.99 30.42 44.13 29.17 44.13 26.13C44.0509 23.7375 43.0725 21.4628 41.39 19.76C41.0909 19.4474 40.7551 19.1721 40.39 18.94C42.0351 20.7868 42.9862 23.1485 43.08 25.62C43.08 28.48 41.74 29.99 41.74 32.62C41.74 35.25 45.6 37.54 45.6 40.26C45.6 41.34 45.26 42.38 44.13 44.44C45.57 45.9517 47.503 46.8987 49.58 47.11C49.7654 47.1376 49.9547 47.1024 50.1178 47.01C50.2809 46.9176 50.4084 46.7732 50.48 46.6C50.62 46.28 50.76 45.95 50.89 45.6C52.46 45.66 53.18 47.08 54.05 47.65C53.57 48.3167 53.07 48.9367 52.55 49.51C51.9234 48.6155 51.0518 47.921 50.04 47.51C49.83 47.91 49.62 48.3 49.39 48.69C50.2961 49.0868 51.0575 49.7539 51.57 50.6C51.01 51.19 50.42 51.75 49.81 52.28C49.3915 51.5886 48.8328 50.9925 48.17 50.53C47.93 50.86 47.67 51.19 47.41 51.53C47.9799 51.9766 48.4529 52.5346 48.8 53.17C48.09 53.73 47.36 54.27 46.61 54.77C46.24 51.77 42.1 49.66 43.21 46.14C42.7392 46.8308 42.4628 47.6356 42.41 48.47C42.41 51.02 45.12 53.04 45.34 55.57C44.78 55.91 44.2 56.22 43.62 56.52C43.52 53.74 40.62 50.7 40.62 48.41C40.62 45.86 43.95 43.3 43.95 40.29C43.95 37.28 40.1 35.2 40.1 32.56C40.1 29.92 41.74 28.4 41.74 25.01C41.7235 23.7637 41.4484 22.5344 40.932 21.4C40.4155 20.2656 39.6691 19.2508 38.74 18.42C38.4385 18.1414 38.1024 17.9027 37.74 17.71C39.4835 19.5281 40.4548 21.951 40.45 24.47C40.45 27.65 38.58 29.42 38.58 32.54C38.58 35.66 42.36 37.39 42.36 40.29C42.36 43.19 38.84 45.65 38.84 48.64C38.84 51.35 41.94 54.06 41.98 57.29C41.3133 57.5833 40.6233 57.8533 39.91 58.1C40.31 54.84 36.82 51.48 36.82 48.83C36.82 45.92 40.47 43.43 40.47 40.29C40.47 37.15 36.76 35.71 36.76 32.49C36.76 29.27 39.03 27.49 39.03 23.95C39.0241 22.6356 38.7183 21.34 38.1361 20.1616C37.5538 18.9832 36.7104 17.9532 35.67 17.15L35.54 17.05C35.36 16.91 35.2 17.05 35.33 17.25C36.7994 18.9709 37.5732 21.1784 37.5 23.44C37.5 26.69 34.89 29.32 34.89 32.44C34.89 36.16 38.4 37.22 38.4 40.26C38.4 43.3 34.64 45.74 34.64 49C34.64 52 38.21 55.33 37.64 58.8C36.92 58.98 36.2 59.14 35.46 59.27C36.13 54.96 32.64 51.86 32.64 49.05C32.64 45.99 36.53 43.27 36.53 40.28C36.53 37.47 33.74 36.55 33.37 33.67C33.3618 33.5756 33.334 33.484 33.2883 33.4011C33.2427 33.3181 33.1802 33.2455 33.1049 33.1881C33.0296 33.1307 32.9431 33.0896 32.851 33.0676C32.7589 33.0455 32.6632 33.0429 32.57 33.06C31.7807 33.3242 30.9606 33.4856 30.13 33.54C29.2798 33.4705 28.4426 33.2889 27.64 33C27.5468 32.9829 27.4511 32.9855 27.359 33.0076C27.2669 33.0296 27.1805 33.0707 27.1051 33.1281C27.0298 33.1856 26.9673 33.2581 26.9217 33.3411C26.876 33.424 26.8482 33.5156 26.84 33.61C26.48 36.49 23.68 37.41 23.68 40.22C23.68 43.22 27.58 45.93 27.58 48.99C27.58 51.8 24.08 54.9 24.75 59.21C24.02 59.08 23.29 58.92 22.58 58.74C21.96 55.27 25.58 51.94 25.58 48.94C25.58 45.71 21.81 43.27 21.81 40.22C21.81 37.17 25.32 36.12 25.32 32.4C25.32 29.25 22.71 26.62 22.71 23.4C22.6368 21.1384 23.4106 18.9309 24.88 17.21C25.01 17.04 24.88 16.87 24.67 17.01L24.54 17.11C23.5013 17.9147 22.659 18.945 22.077 20.1231C21.4949 21.3011 21.1882 22.596 21.18 23.91C21.18 27.46 23.46 29.24 23.46 32.45C23.46 35.66 19.75 37.12 19.75 40.25C19.75 43.38 23.39 45.88 23.39 48.79C23.39 51.44 19.9 54.79 20.3 58.06C19.6333 57.8133 18.9433 57.5433 18.23 57.25C18.23 54.02 21.37 51.31 21.37 48.6C21.37 45.6 17.86 43.16 17.86 40.25C17.86 37.34 21.64 35.62 21.64 32.5C21.64 29.38 19.76 27.61 19.76 24.43C19.7552 21.911 20.7265 19.4881 22.47 17.67C22.1076 17.8627 21.7715 18.1014 21.47 18.38C20.5409 19.2108 19.7945 20.2256 19.278 21.36C18.7616 22.4944 18.4865 23.7237 18.47 24.97C18.47 28.36 20.11 29.88 20.11 32.52C20.11 35.16 16.26 37.24 16.26 40.25C16.26 43.26 19.6 45.82 19.6 48.37C19.6 50.66 16.72 53.7 16.6 56.48C16.01 56.18 15.44 55.87 14.87 55.53C15.09 53 17.8 50.98 17.8 48.43C17.7472 47.5956 17.4709 46.7908 17 46.1C18.11 49.62 14 51.7 13.6 54.73C12.85 54.23 12.12 53.73 11.41 53.13C11.7571 52.4946 12.2301 51.9366 12.8 51.49C12.54 51.18 12.28 50.85 12.04 50.49C11.3772 50.9525 10.8185 51.5486 10.4 52.24C9.79 51.71 9.2 51.15 8.64 50.56C9.1525 49.7139 9.91389 49.0468 10.82 48.65C10.6 48.26 10.38 47.87 10.18 47.47C9.16539 47.8809 8.29053 48.5752 7.66 49.47C7.14 48.87 6.64 48.25 6.16 47.61C7.03 47.04 7.75 45.61 9.32 45.56C9.45 45.88 9.59 46.21 9.73 46.56C9.80302 46.7322 9.93078 46.8755 10.0935 46.9677C10.2562 47.0599 10.4448 47.0958 10.63 47.07C12.6751 46.8501 14.5769 45.9151 16 44.43C14.87 42.37 14.53 41.33 14.53 40.25C14.53 37.53 18.39 35.25 18.39 32.61C18.39 29.97 17.06 28.46 17.06 25.61C17.1502 23.1396 18.0978 20.7777 19.74 18.93C19.3746 19.1616 19.0388 19.437 18.74 19.75C17.0573 21.4486 16.0786 23.7203 16 26.11C16 29.11 17.14 30.4 17.14 32.65C17.14 34.73 12.74 37.65 13.24 40.44C11.881 41.7068 10.0977 42.4201 8.24 42.44C8.37 43.03 8.54 43.61 8.72 44.18C6.92 44.28 6.09 45.82 5.14 46.33C4.66667 45.6167 4.22667 44.8867 3.82 44.14C5.48 44 6 41.93 8.2 42.09C8.08 41.55 7.99 40.99 7.91 40.44C5.33 40.26 4.74 42.44 3.04 42.53C2.68 41.76 2.35 40.98 2.04 40.18C4.42 40.29 5.22 38 7.7 38C7.7 37.77 7.7 37.54 7.7 37.3C7.7 36.88 7.7 36.47 7.7 36.05C4.82 36 3.94 38.5 1.42 38.25C1.19 37.46 0.990003 36.65 0.830003 35.84C4 36.23 5.15 33.56 8 33.56C8.12526 32.8047 8.29218 32.0569 8.5 31.32C5.04 31.17 3.83 34.18 0.500003 33.62C0.410003 32.92 0.350003 32.21 0.310003 31.5C4.24 31.94 5.71 28.71 9.31 29.1C9.64911 28.2503 10.0398 27.4221 10.48 26.62C6 25.84 4.48 29.62 0.300003 29.01C0.545797 21.2584 3.79788 13.9065 9.36807 8.51016C14.9383 3.1138 22.3895 0.096344 30.145 0.096344C37.9005 0.096344 45.3517 3.1138 50.9219 8.51016C56.4921 13.9065 59.7442 21.2584 59.99 29.01C55.82 29.58 54.3 25.84 49.81 26.62C50.2542 27.42 50.6451 28.2485 50.98 29.1C54.5 28.71 56 31.94 59.9 31.5ZM17.25 19C16.0873 18.5453 14.832 18.3779 13.5907 18.5119C12.3495 18.646 11.1589 19.0776 10.12 19.77C9.9693 18.747 9.61567 17.7644 9.07988 16.88C8.54409 15.9956 7.83695 15.2272 7 14.62C6.9578 14.5846 6.90579 14.563 6.85094 14.558C6.7961 14.553 6.74104 14.5649 6.69316 14.5922C6.64528 14.6194 6.60686 14.6606 6.58306 14.7102C6.55926 14.7599 6.55121 14.8156 6.56 14.87C6.91 19.34 4.3 23.22 1.08 26.63C4.39 27.63 7.21 23.36 11.51 24.85C13.0494 22.5653 14.995 20.5825 17.25 19V19ZM30.09 16.3C27.31 16.3 24.99 17.87 24.38 19.89C24.38 20.05 24.38 20.15 24.58 20.07C25.1111 19.8447 25.6832 19.7323 26.26 19.74C26.7695 19.7106 27.2792 19.7939 27.7528 19.984C28.2264 20.1742 28.6523 20.4664 29 20.84C29.2757 21.7598 29.2757 22.7402 29 23.66C28.53 23.56 28.36 23.19 27.91 23.19C27.46 23.19 27.1 23.52 26.33 23.52C25.56 23.52 25.47 23.15 24.97 23.15C24.47 23.15 24.26 23.77 24.26 24.46C24.26 27.55 27.1 31.8 30.12 31.8C33.14 31.8 35.97 27.55 35.97 24.46C35.97 23.77 35.83 23.17 35.21 23.09C34.8421 23.3914 34.375 23.5448 33.9 23.52C33.13 23.52 32.9 23.19 32.46 23.19C32.02 23.19 31.97 24.35 31.32 24.42C30.8859 23.2717 30.8507 22.0107 31.22 20.84C31.5628 20.4637 31.9841 20.1674 32.4542 19.9721C32.9242 19.7768 33.4315 19.6873 33.94 19.71C34.517 19.7005 35.0895 19.813 35.62 20.04C35.8 20.12 35.86 20.04 35.82 19.86C35.18 17.84 32.86 16.27 30.09 16.27V16.3ZM34.5 20.7C34.1428 20.6883 33.787 20.7487 33.4537 20.8775C33.1203 21.0064 32.8164 21.2011 32.56 21.45C32.4952 21.6173 32.4952 21.8027 32.56 21.97C33.76 21.56 34.83 21.54 35.34 22.11C35.4514 22.0236 35.5417 21.9129 35.6041 21.7865C35.6665 21.66 35.6993 21.521 35.7 21.38C35.73 21 35.32 20.7 34.5 20.7ZM24.81 22.11C25.39 21.53 26.61 21.56 27.88 22.03C27.94 21.39 26.81 20.7 25.67 20.7C24.85 20.7 24.44 20.98 24.44 21.38C24.4412 21.522 24.4752 21.6618 24.5394 21.7884C24.6036 21.915 24.6962 22.0251 24.81 22.11V22.11ZM43.91 11.66C41.8537 11.7737 39.8847 12.5291 38.28 13.82C38.9068 12.0523 39.757 10.372 40.81 8.82C38.2556 8.98697 35.8429 10.0534 34 11.83L32.67 8.35L35.62 5.74L31.62 5.46L30.09 1.78L28.51 5.46L24.51 5.74L27.51 8.35L26.18 11.83C24.3404 10.0366 21.9231 8.95554 19.36 8.78C20.413 10.332 21.2632 12.0123 21.89 13.78C20.2901 12.4875 18.3237 11.7318 16.27 11.62C17.5929 13.2869 18.7109 15.1066 19.6 17.04C19.6197 17.0906 19.6504 17.1363 19.6897 17.1737C19.7291 17.2112 19.7762 17.2395 19.8278 17.2567C19.8793 17.2739 19.934 17.2795 19.988 17.2732C20.0419 17.2668 20.0938 17.2487 20.14 17.22C23.233 15.6874 26.6382 14.89 30.09 14.89C33.5419 14.89 36.9471 15.6874 40.04 17.22C40.0854 17.2486 40.1366 17.2668 40.1898 17.2731C40.2431 17.2794 40.2972 17.2737 40.348 17.2565C40.3988 17.2392 40.4451 17.2108 40.4835 17.1734C40.5219 17.1359 40.5515 17.0903 40.57 17.04C41.4617 15.1182 42.5832 13.3117 43.91 11.66V11.66ZM48.68 24.85C52.98 23.36 55.8 27.62 59.11 26.63C55.9 23.22 53.28 19.34 53.63 14.87C53.6388 14.8156 53.6307 14.7599 53.6069 14.7102C53.5831 14.6606 53.5447 14.6194 53.4968 14.5922C53.449 14.5649 53.3939 14.553 53.3391 14.558C53.2842 14.563 53.2322 14.5846 53.19 14.62C52.3542 15.2236 51.6464 15.9868 51.1074 16.8656C50.5685 17.7445 50.2091 18.7214 50.05 19.74C49.0086 19.0525 47.8168 18.6262 46.5756 18.4974C45.3344 18.3686 44.0804 18.541 42.92 19C45.1822 20.5806 47.1347 22.5635 48.68 24.85V24.85Z" fill="#006241"/>
<path d="M49.44 56C49.9313 55.9921 50.4138 56.1303 50.8264 56.3971C51.239 56.6638 51.5631 57.0472 51.7575 57.4984C51.9519 57.9496 52.0079 58.4484 51.9184 58.9315C51.8289 59.4146 51.5979 59.8603 51.2547 60.2119C50.9115 60.5635 50.4716 60.8053 49.9908 60.9065C49.5101 61.0077 49.01 60.9638 48.5542 60.7804C48.0984 60.5971 47.7073 60.2824 47.4306 59.8764C47.1539 59.4704 47.004 58.9913 47 58.5C46.996 58.1756 47.056 57.8537 47.1765 57.5525C47.297 57.2513 47.4756 56.9768 47.7022 56.7446C47.9288 56.5125 48.1989 56.3272 48.497 56.1995C48.7952 56.0717 49.1156 56.0039 49.44 56V56ZM49.44 60.6C49.8636 60.624 50.2846 60.5204 50.6487 60.3025C51.0127 60.0847 51.303 59.7626 51.482 59.3779C51.6611 58.9933 51.7205 58.5637 51.6528 58.1449C51.5851 57.7261 51.3932 57.3372 51.1021 57.0286C50.8109 56.72 50.4339 56.5059 50.0197 56.4139C49.6056 56.3219 49.1733 56.3562 48.7789 56.5126C48.3845 56.6689 48.046 56.9399 47.8073 57.2907C47.5686 57.6414 47.4407 58.0558 47.44 58.48C47.4293 58.7522 47.4727 59.0238 47.5677 59.2791C47.6627 59.5345 47.8074 59.7684 47.9934 59.9674C48.1794 60.1664 48.403 60.3266 48.6513 60.4386C48.8996 60.5506 49.1677 60.6123 49.44 60.62V60.6ZM48.49 57.03H49.59C50.27 57.03 50.59 57.3 50.59 57.86C50.5941 57.9632 50.5771 58.0661 50.5401 58.1624C50.5031 58.2588 50.4469 58.3466 50.3748 58.4206C50.3028 58.4945 50.2164 58.553 50.121 58.5924C50.0256 58.6319 49.9232 58.6515 49.82 58.65L50.66 60H50.19L49.4 58.7H48.93V60H48.49V57.03ZM48.93 58.32H49.39C49.78 58.32 50.16 58.32 50.16 57.84C50.16 57.36 49.81 57.39 49.51 57.39H48.93V58.32Z" fill="#006241"/>
</g>
<defs>
<clipPath id="clip0">
<rect width="60" height="60" fill="white"/>
</clipPath>
</defs>
</svg>
