<svg width="60" height="60" viewBox="0 0 60 60" fill="none" xmlns="http://www.w3.org/2000/svg">
<path d="M10.0126 11.6186H15.6467C15.9679 11.6179 16.2281 11.3579 16.2291 11.0367C16.2291 11.0345 16.1609 6.20824 16.1609 4.8676V4.85121C16.1609 3.74974 16.3916 2.7891 16.7956 1.98303L16.9873 1.62207C16.9628 1.62665 16.9403 1.6389 16.9231 1.65706L5.98362 12.5049C5.96358 12.5214 5.94931 12.5439 5.94287 12.5691C6.16919 12.457 6.47877 12.3034 6.52218 12.2843C7.47396 11.8538 8.62947 11.6186 10.0126 11.6186Z" fill="#74BB44"/>
<path fill-rule="evenodd" clip-rule="evenodd" d="M50.6621 6.39995C51.9491 6.8641 53.373 8.04397 53.8204 10.4374C54.5844 14.5328 55.5485 30.7622 55.0529 36.1381C54.2695 44.6426 52.9718 49.7066 52.4354 51.3661C49.7254 59.7732 47.4139 59.9875 40.8524 59.9875C32.4822 59.9875 29.9205 58.7443 29.9205 52.05C29.9205 44.6744 33.3905 44.5186 39.2868 44.6815C39.774 44.6933 39.6838 44.9719 39.5198 45.4792C39.399 45.8527 39.2381 46.3501 39.2381 46.9562C39.2381 47.4889 39.3142 47.9018 39.3711 48.2106C39.4677 48.7345 39.509 48.9586 39.0295 48.9586C38.884 48.9586 38.7341 48.9568 38.5817 48.955C36.9483 48.9356 35.023 48.9127 35.023 51.0415C35.023 53.8287 36.3199 53.8276 39.6962 53.8248C39.8046 53.8247 39.9151 53.8247 40.0277 53.8247C44.497 53.8247 45.3518 53.267 45.3518 49.1968C45.3518 42.5052 43.4597 41.4803 40.8524 41.1796C37.967 40.8412 35.1293 40.4081 33.7603 39.9235C30.4872 38.7622 30.5261 34.6067 30.5406 33.055C30.5415 32.9634 30.5423 32.8808 30.5423 32.8084C30.5423 32.6131 30.2681 32.6211 30.2681 32.8084C30.2681 34.6442 30.1366 37.1824 29.1923 40.0418C28.8983 40.8682 28.6834 41.4271 28.6799 41.4342C27.773 43.3364 26.3523 43.1073 24.2181 42.7632C23.7947 42.6949 23.3432 42.6221 22.862 42.5605C19.9491 42.1894 13.7362 40.8935 11.0159 39.7286C9.79577 39.1617 9.38122 38.6245 8.75984 37.3392C7.157 34.0335 5.46957 23.1639 5.26097 21.6085C5.01073 19.5973 5.0001 18.5587 5.0001 18.5587C4.997 17.2867 5.12766 16.0409 5.87925 15.032C6.25704 14.5235 6.75441 14.0939 7.4564 13.775C8.1575 13.4566 9.07562 13.2551 10.2763 13.2551H15.9073C17.1319 13.2538 18.1245 12.2617 18.1262 11.0371C18.1262 11.0358 18.1258 11.0083 18.125 10.958C18.1207 10.6652 18.1048 9.59903 18.0912 8.42796C18.0744 7.05897 18.0562 5.51903 18.0562 4.86532C18.0584 3.70981 18.3516 2.88336 18.8038 2.23718C19.4774 1.27123 20.6892 0.644532 21.7845 0.338049C23.161 -0.0477119 28.5284 -0.385198 31.9998 1.01169C33.3037 1.53696 34.4685 3.05432 34.7108 4.71518C36.7313 4.65361 40.0765 4.62615 42.9225 4.96187C46.4586 5.37819 49.2745 5.89815 50.6621 6.39995ZM40.0645 28.5146C40.7913 28.3976 41.5708 28.3467 42.3813 28.3746C43.9026 28.4282 45.2991 28.7488 46.4267 29.2511C46.4174 27.5393 46.0436 25.0108 43.3681 24.9183C40.9512 24.8332 40.2696 26.8626 40.0645 28.5146Z" fill="#74BB44"/>
</svg>
