<svg width="32" height="32" viewBox="0 0 32 32" fill="none" xmlns="http://www.w3.org/2000/svg">
<rect opacity="0.01" width="32" height="32" fill="#777777"/>
<path fill-rule="evenodd" clip-rule="evenodd" d="M16 6C10.4779 6 6 10.4779 6 16C6 21.5221 10.4779 26 16 26C21.5221 26 26 21.5221 26 16C26 10.4779 21.5221 6 16 6ZM10.6579 22.6958C11.3265 21.7715 12.885 20.2858 16 20.2858C19.1165 20.2858 20.675 21.7729 21.3429 22.6958C19.8772 23.8672 18.0222 24.5715 16 24.5715C13.9779 24.5715 12.1229 23.8672 10.6579 22.6958ZM16 18.8572C19.5614 18.8572 21.4693 20.5187 22.3828 21.7065C23.7923 20.1401 24.5719 18.1073 24.5714 16.0001C24.5714 11.2665 20.7336 7.42866 16 7.42866C11.2664 7.42866 7.42856 11.2665 7.42856 16.0001C7.42807 18.1073 8.2077 20.1401 9.61713 21.7065C10.5307 20.5187 12.4386 18.8572 16 18.8572Z" fill="#777777"/>
<path fill-rule="evenodd" clip-rule="evenodd" d="M19.8776 13.653V15.0815C19.8776 17.0544 18.2333 18.653 16.2041 18.653C14.1749 18.653 12.5306 17.0544 12.5306 15.0815V13.653C12.5306 11.6801 14.1749 10.0815 16.2041 10.0815C18.2333 10.0815 19.8776 11.6801 19.8776 13.653ZM17.3061 16.9375C17.9881 16.5547 18.4082 15.8473 18.4082 15.0817V13.6531C18.4082 12.4697 17.4214 11.5103 16.2041 11.5103C14.9868 11.5103 14 12.4697 14 13.6531V15.0817C14 15.8473 14.4201 16.5547 15.102 16.9375C15.784 17.3203 16.6242 17.3203 17.3061 16.9375Z" fill="#777777"/>
</svg>
