<svg width="1708" height="1708" viewBox="0 0 1708 1708" fill="none" xmlns="http://www.w3.org/2000/svg">
<g clip-path="url(#clip0)">
<path d="M725.809 885.599C725.809 861.926 749.095 842.736 777.82 842.736C806.546 842.736 829.832 861.926 829.832 885.599H725.809Z" fill="#A1B7E1"/>
<path d="M1438.56 885.598H829.728C818.185 873.765 811.277 858.738 811.277 842.378C811.277 804.247 848.793 773.332 895.063 773.332C906.202 773.332 916.825 775.124 926.549 778.381C943.522 735.379 992.56 704.291 1050.41 704.291C1119.07 704.291 1175.33 748.091 1180.28 803.633C1206.79 791.937 1238.81 785.102 1273.31 785.102C1361.22 785.102 1433.13 829.505 1438.56 885.598Z" fill="#A1B7E1"/>
<path d="M681 885.599H1468" stroke="#A1B7E1" stroke-width="5" stroke-miterlimit="10"/>
<path d="M960.498 874.369C963.578 874.369 966.075 872.311 966.075 869.773C966.075 867.235 963.578 865.178 960.498 865.178C957.419 865.178 954.922 867.235 954.922 869.773C954.922 872.311 957.419 874.369 960.498 874.369Z" stroke="#A1B7E1" stroke-width="4" stroke-miterlimit="10"/>
<path d="M84.5742 199.713C84.5742 183.56 100.463 170.466 120.064 170.466C139.664 170.466 155.554 183.56 155.554 199.713H84.5742Z" fill="#B9CCF1"/>
<path d="M570.912 199.713H155.482C147.606 191.638 142.893 181.385 142.893 170.222C142.893 144.204 168.491 123.109 200.063 123.109C207.663 123.109 214.912 124.332 221.547 126.554C233.128 97.2126 266.588 76 306.06 76C352.914 76 391.297 105.887 394.674 143.785C412.767 135.805 434.617 131.14 458.156 131.14C518.141 131.14 567.207 161.438 570.912 199.713Z" fill="#B9CCF1"/>
<path d="M54 199.713H591" stroke="#B9CCF1" stroke-width="5" stroke-miterlimit="10"/>
<path d="M244.713 192.051C246.815 192.051 248.518 190.647 248.518 188.915C248.518 187.183 246.815 185.779 244.713 185.779C242.612 185.779 240.908 187.183 240.908 188.915C240.908 190.647 242.612 192.051 244.713 192.051Z" stroke="#B9CCF1" stroke-width="4" stroke-miterlimit="10"/>
<path d="M1249.38 1549.84H187C187 1501.44 245.043 1445.92 341.675 1461.05C339.765 1453.21 338.803 1445.18 338.808 1437.12C338.808 1374.86 395.424 1324.39 465.255 1324.39C474.374 1324.39 483.471 1325.29 492.416 1327.06C496.637 1311.64 502.488 1296.71 509.87 1282.53C568.3 1169.92 709.481 1124.71 825.22 1181.56C921.719 1228.94 970.068 1332.3 949.6 1430.59C979.417 1414.76 1012.56 1406.23 1046.31 1405.7C1080.06 1405.16 1113.45 1412.64 1143.76 1427.51C1196.72 1453.56 1233.39 1498.59 1249.38 1549.84Z" fill="#A9D8D5"/>
<path d="M728 1535.85C727.986 1558.42 731.027 1580.89 737.038 1602.65H1252.42C1258.44 1580.89 1261.48 1558.42 1261.46 1535.85C1261.46 1393.43 1142.04 1278 994.71 1278C847.381 1278 728 1393.46 728 1535.85Z" fill="#FFC200"/>
<path d="M728.122 1527.91L836.681 1490.51L991.073 1532.03V1602.74H998.385V1446.77L1114.31 1305.33C1112.06 1304.24 1109.79 1303.17 1107.48 1302.13L998.385 1435.21V1278.04H991.073V1366.48L903.325 1293.56C900.663 1294.54 898.026 1295.51 895.413 1296.49L991.058 1375.97V1524.38L740.67 1457.03C739.895 1459.35 739.208 1461.69 738.476 1464.03L824.645 1487.21L728.473 1520.05C728.326 1522.68 728.195 1525.29 728.122 1527.91Z" fill="white"/>
<path d="M447.999 308C420.666 288.667 353.099 258.3 301.499 291.5C236.999 333 212.499 412.5 230.499 461.5C248.499 510.5 347.5 562.5 354.5 559C360.1 556.2 427.167 481.833 460 445L481 415L447.999 308Z" fill="#FF7667"/>
<path d="M519.5 297.5C520.833 288.833 516.6 274.6 489 287C461.4 299.4 455.5 322.833 456 333H443.5C440.5 334.167 435.4 338 439 344C442.6 350 451.833 352.167 456 352.5L469 419.5C449.667 433.667 409.7 464.6 404.5 475C398 488 404 498.5 428 500C452 501.5 592 487 584 441.5C577.6 405.1 571 390 568.5 387H554.5L535 395.5L519.5 370C524.666 371 535 370.1 535 358.5C535 346.9 524.666 313 519.5 297.5Z" fill="#F6ACC1"/>
<path d="M487.405 323.137C481.967 322.993 476.901 325.872 474.819 330.832" stroke="#573240" stroke-width="5" stroke-miterlimit="10" stroke-linecap="round"/>
<path d="M520.696 313.881C515.612 311.948 509.879 312.991 506.274 316.985C506.274 316.985 501.759 321.517 511.863 344.613" stroke="#573240" stroke-width="5" stroke-miterlimit="10" stroke-linecap="round"/>
<path d="M487.705 341.737C486.108 342.307 484.087 340.734 483.191 338.224C482.296 335.715 482.865 333.218 484.462 332.649C486.059 332.079 488.079 333.651 488.975 336.161C489.87 338.67 489.302 341.167 487.705 341.737Z" fill="#573240"/>
<path d="M518.04 332.34C516.581 332.861 514.736 331.424 513.918 329.132C513.1 326.84 513.619 324.56 515.077 324.039C516.536 323.519 518.382 324.955 519.2 327.247C520.018 329.539 519.498 331.82 518.04 332.34Z" fill="#573240"/>
<path fill-rule="evenodd" clip-rule="evenodd" d="M1517 726C1517 684.579 1483.42 651 1442 651H1226.63C1194.55 651 1166.03 671.396 1155.66 701.746L1089.03 896.708C1086.36 904.516 1085 912.71 1085 920.962V1646C1085 1687.42 1118.58 1721 1160 1721H1442C1483.42 1721 1517 1687.42 1517 1646V726ZM1386 997C1386 979.327 1371.67 965 1354 965H1310C1292.33 965 1278 979.327 1278 997V1036C1278 1053.67 1292.33 1068 1310 1068H1354C1371.67 1068 1386 1053.67 1386 1036V997ZM1201 965C1218.67 965 1233 979.327 1233 997V1036C1233 1053.67 1218.67 1068 1201 1068H1157C1139.33 1068 1125 1053.67 1125 1036V997C1125 979.327 1139.33 965 1157 965H1201Z" fill="#12C35B"/>
<path d="M1450.08 716.642C1458.74 691.751 1442.46 668 1416.75 668H1214.08C1195.44 668 1177.79 680.783 1171.52 698.823L1125.21 831.927C1116.55 856.818 1132.83 880.569 1158.54 880.569H1361.21C1379.85 880.569 1397.5 867.785 1403.78 849.745L1450.08 716.642Z" fill="white"/>
<path d="M1372 903H1156L1152 915H1368L1372 903Z" fill="white"/>
<path d="M1143 903H1114.53L1110.58 914.501H1139.05L1143 903Z" fill="white"/>
<circle cx="1247.5" cy="1244.5" r="124.5" fill="#12C35B"/>
<path fill-rule="evenodd" clip-rule="evenodd" d="M1199.27 1296.12C1187.88 1283.93 1181.17 1268.2 1181.17 1256.01H1200.42C1200.42 1262.23 1204.44 1273.47 1213.33 1282.98C1221.89 1292.13 1234.1 1298.77 1249.75 1297.67C1265.93 1296.53 1277.03 1289.15 1284.21 1280.47C1291.66 1271.45 1294.58 1261.42 1294.58 1256.01H1313.83C1313.83 1266.5 1308.94 1280.76 1299.05 1292.73C1288.88 1305.03 1273.09 1315.33 1251.1 1316.87C1228.59 1318.45 1210.99 1308.66 1199.27 1296.12Z" fill="#FDFEFB"/>
<path fill-rule="evenodd" clip-rule="evenodd" d="M1317.6 1212.07C1317.6 1230.33 1302.8 1245.13 1284.54 1245.13C1266.28 1245.13 1251.48 1230.33 1251.48 1212.07C1251.48 1193.81 1266.28 1179.01 1284.54 1179.01C1302.8 1179.01 1317.6 1193.81 1317.6 1212.07ZM1284.54 1225.88C1292.16 1225.88 1298.35 1219.69 1298.35 1212.07C1298.35 1204.44 1292.16 1198.26 1284.54 1198.26C1276.91 1198.26 1270.73 1204.44 1270.73 1212.07C1270.73 1219.69 1276.91 1225.88 1284.54 1225.88Z" fill="#FDFEFB"/>
<path fill-rule="evenodd" clip-rule="evenodd" d="M1243.94 1182.98V1241.36C1243.89 1241.5 1243.84 1241.67 1243.79 1241.86C1243.51 1242.93 1243.09 1244.5 1240.59 1244.5C1240.14 1244.5 1239.31 1244.5 1238.25 1244.51C1234.93 1244.52 1229.37 1244.55 1226.36 1244.5C1225.11 1244.5 1224.02 1243.37 1223.85 1242.2C1223.68 1241.02 1223.78 1238.5 1223.85 1237.8C1222.52 1240.03 1218.64 1243.52 1214.22 1244.5C1212.34 1244.92 1205.44 1245.75 1197.28 1242.62C1191.07 1240.23 1178.03 1229.64 1178.03 1212.9C1178.03 1192.82 1188.28 1182.56 1202.93 1179.63C1214.64 1177.29 1222.25 1182.42 1223.85 1185.28V1182.35C1223.86 1182.32 1223.86 1182.29 1223.87 1182.25C1224.02 1181.47 1224.37 1179.63 1226.57 1179.63H1240.59C1242.89 1179.63 1243.94 1181.14 1243.94 1182.98ZM1210.46 1224.2C1217.17 1224.2 1222.6 1218.77 1222.6 1212.06C1222.6 1205.36 1217.17 1199.93 1210.46 1199.93C1203.76 1199.93 1198.33 1205.36 1198.33 1212.06C1198.33 1218.77 1203.76 1224.2 1210.46 1224.2Z" fill="#FDFEFB"/>
<path fill-rule="evenodd" clip-rule="evenodd" d="M1233.87 803.817C1228.95 796.344 1227.76 786.697 1230.19 779.219H1242.6C1241.36 783.032 1241.72 789.925 1245.55 795.758C1249.25 801.371 1255.8 805.441 1266.11 804.768C1276.77 804.071 1285.4 799.543 1291.76 794.218C1298.35 788.69 1302.24 782.539 1303.31 779.219H1315.73C1313.64 785.651 1307.65 794.396 1298.88 801.739C1289.87 809.283 1277.64 815.598 1263.15 816.544C1248.32 817.512 1238.92 811.51 1233.87 803.817Z" fill="#12C35B"/>
<path fill-rule="evenodd" clip-rule="evenodd" d="M1326.91 752.274C1323.28 763.47 1310.78 772.547 1299.01 772.547C1287.24 772.547 1280.64 763.47 1284.28 752.274C1287.92 741.077 1300.41 732 1312.18 732C1323.96 732 1330.55 741.077 1326.91 752.274ZM1302.85 760.742C1307.76 760.742 1312.98 756.951 1314.5 752.274C1316.02 747.596 1313.27 743.805 1308.35 743.805C1303.43 743.805 1298.21 747.596 1296.69 752.274C1295.17 756.951 1297.93 760.742 1302.85 760.742Z" fill="#12C35B"/>
<path fill-rule="evenodd" clip-rule="evenodd" d="M1285.21 734.437L1273.58 770.237C1273.52 770.325 1273.45 770.429 1273.39 770.543C1272.99 771.198 1272.41 772.161 1270.8 772.161C1270.51 772.161 1269.97 772.164 1269.29 772.167C1267.14 772.177 1263.55 772.194 1261.62 772.161C1260.81 772.161 1260.33 771.468 1260.46 770.75C1260.59 770.031 1261.15 768.483 1261.34 768.055C1260.04 769.424 1256.84 771.56 1253.8 772.161C1252.5 772.418 1247.88 772.931 1243.24 771.006C1239.72 769.543 1233.41 763.051 1236.75 752.786C1240.75 740.468 1249.41 734.18 1259.43 732.384C1267.46 730.947 1271.34 734.095 1271.8 735.848L1272.38 734.052C1272.39 734.032 1272.41 734.011 1272.42 733.988C1272.67 733.513 1273.26 732.384 1274.68 732.384H1283.72C1285.2 732.384 1285.58 733.308 1285.21 734.437ZM1255.42 759.713C1259.74 759.713 1264.32 756.381 1265.66 752.271C1267 748.161 1264.57 744.829 1260.25 744.829C1255.93 744.829 1251.35 748.161 1250.01 752.271C1248.67 756.381 1251.1 759.713 1255.42 759.713Z" fill="#12C35B"/>
<path fill-rule="evenodd" clip-rule="evenodd" d="M453.248 304.686C453.248 304.686 394.565 258.819 329.18 275.074C301.168 282.037 271.854 300.329 245.46 338.638C238.449 348.814 209.726 406.604 230.301 463.722C243.93 501.558 279.122 539.354 357.161 562.377C359.081 562.944 361.096 561.835 361.652 559.905C362.219 557.974 361.109 555.947 359.202 555.381C284.33 533.293 250.184 497.535 237.108 461.237C217.626 407.153 244.772 352.429 251.41 342.793C276.517 306.352 304.27 288.775 330.915 282.152C393.057 266.702 448.794 310.44 448.794 310.44C450.375 311.675 452.656 311.389 453.876 309.801C455.107 308.213 454.817 305.921 453.248 304.686Z" fill="#FF7667"/>
<path fill-rule="evenodd" clip-rule="evenodd" d="M408.729 472.181L403.394 472.219C403.394 472.219 400.558 475.392 399.773 476.379C384.288 495.683 326.366 565.412 255.201 940.033L347.467 970.252L442.379 643.14C442.379 643.14 457.611 667.721 497.851 664.303L610.472 594.38C610.472 594.38 658.087 522.251 633.9 476.416C633.9 476.416 693.592 533.808 772 547.5C815.568 555.108 834.288 544.499 895.194 522.569C949.877 497.414 988.999 459.016 988.999 459.016L920.09 382.744L792.942 445.59L599.108 369.059L551.875 382.744C551.875 382.744 563.377 473.41 408.729 472.181Z" fill="#FFD47B"/>
<path d="M990.919 457.662C974.886 461.433 955.946 455.177 947.043 445.69L928.114 425.52C917.202 413.892 913.185 395.036 921.489 380.749C922.403 381.017 923.298 381.307 924.207 381.646C925.116 381.985 926.059 382.371 926.966 382.793C930.129 384.252 933.082 386.13 935.745 388.376L938.322 390.557L940.419 392.324L942.932 394.45L943.47 394.896L956.028 405.508L958.543 407.627L970.168 417.453L971.622 418.675L974.135 420.801L975.303 421.789L977.441 423.625C981.125 426.726 984.195 430.489 986.492 434.721C987.246 436.091 987.908 437.509 988.473 438.967C990.808 444.904 991.648 451.324 990.919 457.662Z" fill="#573240"/>
<path d="M935.699 416.607C929.855 410.436 926.269 402.471 925.523 394.006C924.777 385.54 926.914 377.07 931.588 369.973C945.212 349.354 967.339 321.776 980.121 325.752C986.524 327.756 974.548 350.25 984.184 353.065C995.515 356.378 1057.38 300.782 1066.92 311.105C1076.47 321.428 1077.32 380.096 1058.65 401.285C1048.5 412.809 1021.21 431.62 998.751 443.367C991.477 447.167 983.161 448.489 975.066 447.131C966.972 445.773 959.543 441.809 953.907 435.843L935.699 416.607Z" fill="#F6ACC1"/>
<path d="M1070.2 365.574C1066.01 370.325 1043.33 392.372 1035.88 398.777" stroke="#1A0C12" stroke-width="5" stroke-miterlimit="10" stroke-linecap="round"/>
<path d="M1071.96 343.334C1067.77 348.09 1038.11 374.468 1030.05 380.518" stroke="#1A0C12" stroke-width="5" stroke-miterlimit="10" stroke-linecap="round"/>
<path d="M1070.27 324.161C1066.08 328.917 1032.53 353.465 1024.46 359.547" stroke="#1A0C12" stroke-width="5" stroke-miterlimit="10" stroke-linecap="round"/>
<path d="M978.893 363.555C978.893 363.555 982.277 394.064 964.299 415.232" stroke="#1A0C12" stroke-width="5" stroke-miterlimit="10" stroke-linecap="round"/>
<path fill-rule="evenodd" clip-rule="evenodd" d="M441.971 644.746C441.971 644.746 444.916 626.68 447.161 612.941C447.523 610.733 449.285 609.03 451.494 608.761C453.702 608.494 455.814 609.726 456.683 611.784C463.829 627.055 473.895 650.866 473.267 663.438C473.267 663.438 453.57 658.943 441.971 644.746Z" fill="black"/>
<path fill-rule="evenodd" clip-rule="evenodd" d="M630.817 475.851C630.817 475.851 623.357 464.876 616.816 455.239C615.428 453.207 615.56 450.496 617.13 448.608C618.711 446.719 621.33 446.113 623.563 447.127C631.082 450.425 639.881 454.853 646.93 460.157L630.817 475.851Z" fill="black"/>
<path fill-rule="evenodd" clip-rule="evenodd" d="M542.274 403.266L524.798 370.405C524.037 368.963 522.251 368.418 520.815 369.19C519.378 369.963 518.835 371.76 519.608 373.202L537.084 406.063C537.845 407.505 539.631 408.048 541.067 407.277C542.504 406.505 543.047 404.707 542.274 403.266Z" fill="#573240"/>
<path fill-rule="evenodd" clip-rule="evenodd" d="M490.92 359.051C491.475 361.414 493.755 364.705 498.01 365.476C500.409 365.913 503.544 365.557 507.402 363.338C508.729 362.573 509.183 360.867 508.418 359.528C507.653 358.19 505.951 357.725 504.623 358.489C499.525 361.424 496.742 359.554 496.328 357.791C495.977 356.289 494.482 355.352 492.985 355.701C491.497 356.047 490.568 357.549 490.92 359.051Z" fill="#573240"/>
<path fill-rule="evenodd" clip-rule="evenodd" d="M456.158 329.531C456.158 329.531 449.592 327.495 444.112 328.699C439.804 329.648 436.05 332.319 435.567 338.592C435.302 342.169 436.484 346.333 439.973 349.468C443.111 352.299 448.264 354.374 456.254 353.909C457.775 353.82 458.946 352.497 458.861 350.958C458.777 349.418 457.461 348.241 455.928 348.329C444.619 348.988 440.757 343.598 441.107 339.025C441.228 337.485 441.674 336.361 442.435 335.59C443.666 334.328 445.512 333.991 447.299 333.909C450.944 333.74 454.492 334.863 454.492 334.863C455.953 335.326 457.522 334.506 457.968 333.034C458.439 331.563 457.618 329.993 456.158 329.531Z" fill="black"/>
<path fill-rule="evenodd" clip-rule="evenodd" d="M498.848 662.855L614.97 594.314C614.97 594.314 862.204 571.148 861.141 1055.8L884.146 1612.46L685.492 1595.85L611.252 990.99L459.706 1554.14L293.846 1591.56C293.846 1591.56 340.851 750.01 498.848 662.855Z" fill="#FF7667"/>
<path fill-rule="evenodd" clip-rule="evenodd" d="M638.736 595.757C655.73 598.257 669.767 603.201 678.94 607.442L712.904 663.989L712.964 664.098C713.302 664.671 713.568 665.287 713.761 665.935L713.858 666.277C714.027 666.932 714.111 667.599 714.123 668.264V668.39C714.123 669.908 713.725 671.334 713.037 672.568C712.337 673.805 711.335 674.884 710.044 675.668L709.935 675.733C709.368 676.069 708.752 676.34 708.112 676.535L707.774 676.631C707.123 676.798 706.459 676.886 705.795 676.894L705.674 676.896H604.978C601.936 676.896 599.124 675.242 597.627 672.568C596.131 669.895 596.179 666.616 597.748 663.989L638.736 595.757ZM690.696 659.885L655.332 601.012L619.968 659.885H690.696Z" fill="#F5F5F5"/>
<path fill-rule="evenodd" clip-rule="evenodd" d="M698.673 770.792L610.389 770.88C606.304 770.884 606.288 770.884 610.384 770.88C614.466 770.876 621.101 770.87 625.186 770.866L713.47 770.777C717.555 770.773 717.57 770.773 713.488 770.777C709.393 770.781 702.758 770.787 698.673 770.792Z" fill="#F5F5F5"/>
<path fill-rule="evenodd" clip-rule="evenodd" d="M641.214 735.518L642.561 809.252C642.632 813.375 639.229 816.624 634.964 816.503C630.71 816.375 627.189 812.933 627.111 808.798L625.542 722.706C625.496 720.088 626.864 717.704 629.152 716.417C631.441 715.131 634.314 715.13 636.732 716.414L716.239 758.686C720.055 760.719 721.588 765.279 719.67 768.877C717.753 772.474 713.105 773.751 709.308 771.723L641.214 735.518Z" fill="#F5F5F5"/>
<path fill-rule="evenodd" clip-rule="evenodd" d="M582.706 705.912L500.402 706.004C496.594 706.008 496.581 706.008 500.4 706.004C504.208 706 510.394 705.993 514.203 705.989L596.506 705.896C600.315 705.892 600.328 705.892 596.52 705.896C592.701 705.9 586.514 705.907 582.706 705.912Z" fill="#F5F5F5"/>
<path fill-rule="evenodd" clip-rule="evenodd" d="M506.195 631.519L528.004 631.477C529.096 631.474 526.363 631.48 521.901 631.489C517.451 631.498 512.942 631.507 511.84 631.509L487.827 631.555C487.248 631.557 488.69 631.554 490.117 631.551C491.543 631.548 494.081 631.543 498.077 631.535C504.296 631.522 510.631 631.51 510.631 631.51C511.712 631.508 515.488 631.5 516.53 631.498L592.611 631.346C596.986 631.338 599.405 631.333 597.999 631.336C596.604 631.339 591.919 631.348 587.544 631.357L513.025 631.505L506.195 631.519Z" fill="#F5F5F5"/>
<path fill-rule="evenodd" clip-rule="evenodd" d="M586.249 608.725L566.226 654.013L566.177 654.128C565.9 654.732 565.55 655.306 565.139 655.837L564.91 656.11C564.476 656.623 563.981 657.075 563.438 657.463L563.341 657.535C562.098 658.403 560.71 658.89 559.31 659.023C557.91 659.159 556.449 658.944 555.073 658.326L554.965 658.274C554.361 657.996 553.794 657.646 553.263 657.226L552.997 657C552.49 656.557 552.032 656.059 551.646 655.52L551.573 655.416L538.574 636.623L553.239 628.045L556.884 633.318L561.301 623.326L586.249 608.725Z" fill="#F5F5F5"/>
<path fill-rule="evenodd" clip-rule="evenodd" d="M396.039 859.956L463.327 922.907L463.423 922.993C463.894 923.442 464.316 923.964 464.69 924.536L464.872 924.839C465.209 925.423 465.475 926.042 465.668 926.674L465.704 926.796C466.115 928.254 466.127 929.736 465.789 931.121C465.463 932.494 464.787 933.806 463.761 934.924L463.677 935.009C463.218 935.495 462.711 935.921 462.144 936.285L461.842 936.48C461.263 936.82 460.647 937.087 460.02 937.269L459.899 937.306L371.127 962.834C372.37 957.22 373.855 950.781 375.46 943.891L440.853 925.095L390.981 878.364C392.852 870.867 394.808 864.743 396.039 859.956Z" fill="#F5F5F5"/>
<path fill-rule="evenodd" clip-rule="evenodd" d="M517.562 807.948L538.644 808C539.66 808.002 537.14 807.996 533.028 807.985C528.916 807.975 524.76 807.964 523.745 807.962L502.666 807.909C501.658 807.907 504.166 807.913 508.279 807.924C512.391 807.934 516.553 807.945 517.562 807.948Z" fill="#F5F5F5"/>
<path fill-rule="evenodd" clip-rule="evenodd" d="M513.624 807.976L596.722 808.067C600.567 808.071 606.814 808.078 610.67 808.082C614.514 808.086 614.5 808.086 610.655 808.082L527.557 807.991C523.712 807.987 517.465 807.98 513.621 807.976C509.765 807.972 509.779 807.972 513.624 807.976Z" fill="#F5F5F5"/>
<path fill-rule="evenodd" clip-rule="evenodd" d="M606.776 832.371L521.028 832.153C516.917 832.143 514.406 832.136 515.414 832.139C516.43 832.142 520.592 832.152 524.703 832.163L610.447 832.381C614.564 832.392 617.07 832.398 616.062 832.395C615.044 832.393 610.883 832.382 606.776 832.371Z" fill="#F5F5F5"/>
<path fill-rule="evenodd" clip-rule="evenodd" d="M815.064 762.186C802.366 774.434 787.412 789.112 772.82 803.388C772.337 803.874 771.782 804.312 771.178 804.664L771.058 804.737C770.382 805.126 769.658 805.405 768.921 805.588C767.485 805.952 766.049 805.916 764.709 805.551C763.369 805.199 762.102 804.494 761.04 803.473C760.485 802.939 760.002 802.331 759.604 801.651L759.543 801.542C759.193 800.922 758.928 800.278 758.747 799.61L732.109 705.468L732.073 705.346C731.904 704.705 731.807 704.039 731.783 703.362V703.007C731.795 702.331 731.88 701.664 732.049 701.021L732.085 700.899C732.483 699.434 733.231 698.164 734.221 697.157C735.211 696.147 736.466 695.373 737.915 694.958L738.035 694.924C738.675 694.751 739.339 694.652 740.015 694.633L740.244 694.631L740.365 694.632C741.041 694.642 741.692 694.734 742.332 694.899L742.453 694.932L789.162 707.985C792.481 713.571 796.657 720.801 800.266 728.443L752.458 715.313L771.142 781.311C784.214 768.517 797.092 755.917 807.979 745.487C810.911 751.336 813.313 757.533 815.064 762.186Z" fill="#F5F5F5"/>
<path fill-rule="evenodd" clip-rule="evenodd" d="M765.279 830.724L705.644 830.602C702.402 830.595 702.391 830.595 705.641 830.602C708.882 830.608 714.148 830.619 717.39 830.626L787.45 830.769C789.572 830.774 790.387 830.776 789.592 830.774C788.776 830.772 786.484 830.768 783.566 830.762L690.665 830.573C686.211 830.564 681.702 830.554 680.601 830.552C679.51 830.55 682.23 830.555 686.684 830.564L765.279 830.724Z" fill="#F5F5F5"/>
<path fill-rule="evenodd" clip-rule="evenodd" d="M691.438 830.639L712.52 830.691C713.536 830.694 711.016 830.687 706.904 830.677C702.792 830.666 698.637 830.655 697.621 830.653L676.544 830.601C675.535 830.598 678.043 830.605 682.156 830.615C686.268 830.626 690.429 830.636 691.438 830.639Z" fill="#F5F5F5"/>
<path fill-rule="evenodd" clip-rule="evenodd" d="M609.42 1023.82L620.427 970.468L620.584 969.836L620.789 969.217L620.995 968.731L621.284 968.136L621.659 967.516L622.021 966.993L622.395 966.532C622.443 966.495 622.479 966.447 622.515 966.41C623.517 965.317 624.748 964.551 626.052 964.126L626.221 964.065C627.536 963.664 628.973 963.567 630.421 963.871L631.049 964.029L631.664 964.223L632.159 964.43L632.738 964.721L633.366 965.098L633.873 965.462L634.332 965.851C634.368 965.888 634.416 965.924 634.452 965.961L708.222 1034.96L708.68 1035.41L709.103 1035.91L709.417 1036.34L709.767 1036.89L710.104 1037.54L710.358 1038.12L710.551 1038.69C710.563 1038.74 710.575 1038.8 710.599 1038.85C710.998 1040.28 711.022 1041.73 710.708 1043.09L710.672 1043.26C710.334 1044.61 709.67 1045.89 708.656 1046.98L708.21 1047.43L707.715 1047.85L707.292 1048.18L706.737 1048.53L706.097 1048.88L705.518 1049.12L704.963 1049.32C704.902 1049.34 704.854 1049.35 704.794 1049.37L615.865 1074.95L609.42 1023.82ZM620.029 1056.06L685.748 1037.15L633.933 988.694L620.029 1056.06Z" fill="#F5F5F5"/>
<path fill-rule="evenodd" clip-rule="evenodd" d="M858.031 997.932L801.533 1049.29C799.324 1051.27 796.246 1051.94 793.422 1051.07C790.586 1050.18 788.425 1047.88 787.713 1044.99L764.238 949.938L764.202 949.816C764.057 949.172 763.984 948.504 763.984 947.824L763.996 947.471C764.033 946.791 764.141 946.135 764.334 945.491L764.371 945.369C764.805 943.923 765.602 942.672 766.628 941.7C767.654 940.728 768.933 939.999 770.393 939.634L770.514 939.598C771.166 939.452 771.83 939.379 772.494 939.379L772.856 939.391C773.519 939.428 774.183 939.537 774.811 939.719L774.932 939.756L856.16 964.664L858.031 997.932ZM800.736 1027.24L851.815 981.517L784.249 960.472L800.736 1027.24Z" fill="#F5F5F5"/>
<path fill-rule="evenodd" clip-rule="evenodd" d="M836.086 825.92C837.329 830.853 838.621 836.576 839.888 842.554L827.915 846.393L843.389 860.002C845.44 870.779 847.19 880.767 848.241 886.879L805.514 849.273L805.417 849.188C804.935 848.751 804.488 848.24 804.102 847.681L803.909 847.39C803.559 846.807 803.269 846.199 803.064 845.567L803.028 845.446C802.569 844 802.521 842.53 802.798 841.144C803.088 839.747 803.728 838.411 804.717 837.269L804.802 837.183C805.236 836.685 805.743 836.236 806.299 835.859L806.588 835.665C807.155 835.3 807.771 835.021 808.387 834.802L808.507 834.765L836.086 825.92Z" fill="#F5F5F5"/>
<path fill-rule="evenodd" clip-rule="evenodd" d="M628.74 1155.58L643.936 1135.59L644.02 1135.49C644.431 1134.97 644.901 1134.5 645.432 1134.07L645.71 1133.87C646.253 1133.46 646.845 1133.15 647.448 1132.89L647.52 1132.87L647.569 1132.85C648.969 1132.3 650.429 1132.14 651.829 1132.35C653.217 1132.54 654.593 1133.09 655.788 1134.01L655.885 1134.1C656.404 1134.5 656.874 1134.97 657.297 1135.51L657.502 1135.8C657.9 1136.34 658.214 1136.93 658.468 1137.55L658.516 1137.67L693.964 1228.8C694.218 1229.42 694.387 1230.06 694.483 1230.73L694.52 1230.97C694.604 1231.73 694.592 1232.49 694.483 1233.22C694.266 1234.69 693.687 1236.01 692.854 1237.12L692.818 1237.16C691.973 1238.26 690.85 1239.17 689.511 1239.76C688.835 1240.06 688.111 1240.27 687.362 1240.39L687.121 1240.41C686.445 1240.5 685.781 1240.5 685.129 1240.41L638.517 1235.24L636.392 1217.89L673.168 1221.97L648.245 1157.91L631.697 1179.66L628.74 1155.58Z" fill="#F5F5F5"/>
<path fill-rule="evenodd" clip-rule="evenodd" d="M793.165 1189.15L812.051 1189.11C813.119 1189.1 817.512 1189.09 821.85 1189.09C826.189 1189.08 828.833 1189.07 827.764 1189.07L805.445 1189.12C804.74 1189.12 802.57 1189.13 799.75 1189.13C796.94 1189.14 793.927 1189.15 791.862 1189.15L723.685 1189.29C720.53 1189.3 720.523 1189.3 723.682 1189.29C726.85 1189.29 731.979 1189.28 735.134 1189.27L793.165 1189.15Z" fill="#F5F5F5"/>
<path fill-rule="evenodd" clip-rule="evenodd" d="M732.183 1190.8L828.425 1190.63C833.038 1190.62 835.86 1190.61 834.733 1190.62C833.596 1190.62 828.928 1190.63 824.315 1190.63L728.077 1190.8C723.456 1190.81 720.641 1190.82 721.768 1190.82C722.906 1190.81 727.572 1190.81 732.183 1190.8Z" fill="#F5F5F5"/>
<path fill-rule="evenodd" clip-rule="evenodd" d="M864.566 1158.19L865.41 1178.61L847.487 1191.72L866.291 1199.69L867.064 1218.48L827.126 1201.55L827.005 1201.5C826.401 1201.23 825.822 1200.89 825.291 1200.48L825.013 1200.26C824.494 1199.83 824.036 1199.34 823.637 1198.81L823.565 1198.7C822.672 1197.48 822.165 1196.09 822.008 1194.68C821.839 1193.27 822.032 1191.8 822.612 1190.41L822.66 1190.3C822.925 1189.68 823.263 1189.11 823.674 1188.56L823.891 1188.28C824.313 1187.76 824.808 1187.29 825.327 1186.91L825.436 1186.82L864.566 1158.19Z" fill="#F5F5F5"/>
<path fill-rule="evenodd" clip-rule="evenodd" d="M875.936 1430.93L806.403 1445.85L806.27 1445.88C805.63 1446.01 804.966 1446.07 804.29 1446.03L803.94 1446.02C803.264 1445.96 802.613 1445.82 801.985 1445.62L801.864 1445.57C800.44 1445.07 799.233 1444.23 798.304 1443.16C797.374 1442.1 796.686 1440.79 796.373 1439.31L796.348 1439.19C796.216 1438.53 796.167 1437.86 796.192 1437.18L796.216 1436.83C796.276 1436.15 796.409 1435.5 796.614 1434.86L796.65 1434.75L828.514 1342.28C828.719 1341.65 828.997 1341.04 829.359 1340.47L829.492 1340.26C829.914 1339.63 830.409 1339.06 830.976 1338.57C832.087 1337.6 833.378 1336.98 834.73 1336.69L834.778 1336.68C836.13 1336.38 837.566 1336.42 838.978 1336.86C839.678 1337.08 840.366 1337.38 841.006 1337.79L841.211 1337.93C841.779 1338.3 842.273 1338.74 842.72 1339.23L873.51 1372.24L874.596 1398.24L839.92 1361.07L817.531 1426.07L875.223 1413.69L875.936 1430.93Z" fill="#F5F5F5"/>
<path fill-rule="evenodd" clip-rule="evenodd" d="M660.939 1439.46L724.208 1407.14C724.788 1406.83 725.415 1406.59 726.067 1406.43L726.308 1406.38C727.045 1406.21 727.793 1406.15 728.541 1406.2C730.002 1406.27 731.366 1406.72 732.548 1407.45L732.585 1407.49C733.755 1408.22 734.769 1409.26 735.481 1410.55C735.843 1411.21 736.121 1411.91 736.302 1412.64L736.35 1412.88C736.495 1413.55 736.555 1414.22 736.543 1414.88L735.24 1512.75C735.192 1515.81 733.514 1518.62 730.834 1520.09C728.167 1521.57 724.908 1521.47 722.313 1519.84L666.516 1484.84L663.848 1463.11L718.548 1497.43L719.465 1428.64L663.148 1457.41L660.939 1439.46Z" fill="#F5F5F5"/>
<path fill-rule="evenodd" clip-rule="evenodd" d="M648.062 1292.72L723.667 1343.55C724.21 1343.91 724.717 1344.35 725.187 1344.84L725.344 1345.02C725.851 1345.59 726.274 1346.22 726.599 1346.89C727.251 1348.22 727.529 1349.64 727.468 1351.02V1351.07C727.396 1352.47 726.998 1353.85 726.225 1355.12C725.839 1355.75 725.368 1356.34 724.813 1356.87L724.632 1357.04C724.137 1357.49 723.582 1357.86 723.003 1358.17L660.675 1392.36L658.382 1374.24L702.714 1349.93L650.887 1315.08L648.062 1292.72Z" fill="#F5F5F5"/>
<path fill-rule="evenodd" clip-rule="evenodd" d="M673.822 1540.71C674.196 1540.78 674.571 1540.85 674.921 1540.96L675.041 1540.99L767.989 1569.71C768.617 1569.9 769.233 1570.16 769.812 1570.5L770.029 1570.63C770.669 1571.03 771.248 1571.5 771.755 1572.05C772.757 1573.13 773.433 1574.42 773.771 1575.77L773.783 1575.81C774.121 1577.17 774.121 1578.61 773.747 1580.05C773.566 1580.76 773.276 1581.47 772.89 1582.12L772.769 1582.33C772.419 1582.91 771.997 1583.44 771.538 1583.9L753.265 1602.46L731.286 1600.62L749.752 1581.87L684.407 1561.69L693.339 1597.45L680.654 1596.39L673.822 1540.71Z" fill="#F5F5F5"/>
<path fill-rule="evenodd" clip-rule="evenodd" d="M875.906 1538.88L818.974 1587.91C818.479 1588.34 817.936 1588.72 817.332 1589.03L817.115 1589.14C816.439 1589.48 815.727 1589.71 814.991 1589.85C813.555 1590.13 812.118 1590.02 810.803 1589.58L810.754 1589.55C809.439 1589.12 808.22 1588.35 807.23 1587.27C806.723 1586.72 806.289 1586.1 805.939 1585.42L805.83 1585.2C805.54 1584.6 805.323 1583.97 805.178 1583.32L783.525 1487.9L783.489 1487.78C783.356 1487.13 783.296 1486.46 783.308 1485.78L783.32 1485.43C783.369 1484.76 783.501 1484.09 783.694 1483.46L783.731 1483.34C784.213 1481.9 785.034 1480.66 786.072 1479.71C787.11 1478.75 788.401 1478.05 789.874 1477.71L789.995 1477.69C790.647 1477.55 791.31 1477.49 791.986 1477.5L792.336 1477.52C793 1477.56 793.664 1477.7 794.291 1477.89L794.412 1477.93L874.482 1504.57L875.906 1538.88ZM803.332 1498.82L818.551 1565.89L870.487 1521.16L803.332 1498.82Z" fill="#F5F5F5"/>
<path fill-rule="evenodd" clip-rule="evenodd" d="M800.831 1140.22L763.53 1071.14C761.448 1067.28 762.814 1062.26 766.583 1059.94C770.344 1057.64 775.093 1058.89 777.187 1062.76L820.738 1143.42C822.061 1145.87 822.039 1148.91 820.68 1151.43C819.32 1153.96 816.822 1155.6 814.09 1155.76L724.239 1161.04C719.924 1161.29 716.356 1157.85 716.261 1153.35C716.165 1148.85 719.582 1144.99 723.877 1144.74L800.831 1140.22Z" fill="#F5F5F5"/>
<path fill-rule="evenodd" clip-rule="evenodd" d="M730.866 1164.65L767.352 1070.06C769.04 1065.68 767.405 1060.64 763.682 1058.82C759.97 1056.99 755.587 1059.08 753.899 1063.46L717.414 1158.04C715.725 1162.42 717.36 1167.46 721.072 1169.28C724.795 1171.11 729.178 1169.02 730.866 1164.65Z" fill="#F5F5F5"/>
<path fill-rule="evenodd" clip-rule="evenodd" d="M594.669 1042.02L521.647 1044.76C520.996 1044.78 520.332 1044.73 519.668 1044.61L519.427 1044.56C518.69 1044.39 517.99 1044.12 517.326 1043.78C516.035 1043.09 514.973 1042.11 514.213 1040.94L514.188 1040.9C513.428 1039.74 512.957 1038.38 512.837 1036.89C512.788 1036.15 512.824 1035.4 512.969 1034.65L513.018 1034.4C513.162 1033.75 513.38 1033.12 513.669 1032.52L555.599 944.21L555.66 944.101C555.949 943.506 556.311 942.947 556.746 942.424L556.975 942.157C557.434 941.659 557.941 941.209 558.484 940.845L558.593 940.772C559.848 939.946 561.248 939.484 562.66 939.399C564.06 939.302 565.508 939.557 566.872 940.213L566.981 940.262C567.572 940.553 568.14 940.93 568.646 941.355L568.912 941.586C569.419 942.048 569.853 942.558 570.216 943.105L570.288 943.214L606.364 998.523L600.462 1020.47L564.386 965.158L534.912 1027.23L599.291 1024.82L594.669 1042.02Z" fill="#F5F5F5"/>
<path fill-rule="evenodd" clip-rule="evenodd" d="M423.03 970.041L446.053 969.984C447.163 969.981 444.429 969.987 439.959 969.998C435.49 970.009 430.969 970.02 429.86 970.023L406.841 970.08C405.739 970.083 408.461 970.076 412.932 970.065C417.401 970.055 421.928 970.043 423.03 970.041Z" fill="#F5F5F5"/>
<path fill-rule="evenodd" clip-rule="evenodd" d="M473.568 1058.6L434.272 985.639C432.136 981.672 433.404 976.742 437.126 974.635C440.836 972.535 445.583 974.06 447.719 978.027L493.885 1063.74C495.283 1066.33 495.264 1069.47 493.846 1071.94C492.409 1074.41 489.801 1075.83 486.994 1075.67L397.652 1070.33C393.37 1070.07 389.966 1066.22 390.055 1061.73C390.151 1057.26 393.7 1053.82 397.982 1054.08L473.568 1058.6Z" fill="#F5F5F5"/>
<path fill-rule="evenodd" clip-rule="evenodd" d="M347.432 1069.05L403.271 1142.96C405.106 1145.41 405.492 1148.67 404.273 1151.49C403.054 1154.29 400.423 1156.23 397.393 1156.54L332.486 1164.46L335.483 1145.33L380.761 1141.17L343.867 1090.7L347.432 1069.05Z" fill="#F5F5F5"/>
<path fill-rule="evenodd" clip-rule="evenodd" d="M430.549 1109.36C429.844 1109.36 430.689 1109.36 432.779 1109.36C434.869 1109.37 437.897 1109.37 440.768 1109.38L535.163 1109.55C538.128 1109.55 540.457 1109.56 541.287 1109.56C542.095 1109.56 541.267 1109.56 539.112 1109.56L467.939 1109.42C465.783 1109.42 462.64 1109.41 459.709 1109.41C456.767 1109.4 454.504 1109.4 453.771 1109.4L430.549 1109.36ZM450.281 1109.39L516.585 1109.51L466.594 1109.42L450.281 1109.39Z" fill="#F5F5F5"/>
<path fill-rule="evenodd" clip-rule="evenodd" d="M519.561 1321.34L492.888 1363.29C492.538 1363.85 492.115 1364.37 491.644 1364.84L491.464 1365.01C490.908 1365.54 490.293 1365.96 489.629 1366.31C488.325 1366.99 486.925 1367.3 485.537 1367.26H485.489C484.113 1367.22 482.725 1366.85 481.458 1366.1C480.818 1365.72 480.227 1365.26 479.696 1364.71L479.527 1364.53C479.068 1364.04 478.682 1363.49 478.356 1362.91L430.198 1277.88C428.69 1275.22 428.726 1271.94 430.295 1269.3C431.852 1266.68 434.712 1265.09 437.754 1265.17L534.009 1267.66L519.561 1321.34ZM486.153 1342.33L523.001 1284.4L452.298 1282.56L486.153 1342.33Z" fill="#F5F5F5"/>
<path fill-rule="evenodd" clip-rule="evenodd" d="M402.748 1367.27L461.013 1406.75C463.796 1408.65 466.803 1407.27 467.715 1403.68C468.627 1400.09 467.105 1395.65 464.308 1393.75L406.045 1354.27C403.253 1352.38 400.253 1353.75 399.341 1357.34C398.429 1360.93 399.955 1365.38 402.748 1367.27Z" fill="#F5F5F5"/>
<path fill-rule="evenodd" clip-rule="evenodd" d="M403.658 1415.92L454.842 1375.59C457.625 1373.4 461.9 1373.6 464.389 1376.06C466.869 1378.5 466.615 1382.27 463.833 1384.46L403.7 1431.83C401.879 1433.27 399.321 1433.73 397.015 1433.05C394.712 1432.35 393.01 1430.62 392.56 1428.5L378.32 1361.11C377.64 1357.88 380.064 1354.76 383.733 1354.15C387.392 1353.55 390.926 1355.67 391.607 1358.9L403.658 1415.92Z" fill="#F5F5F5"/>
<path fill-rule="evenodd" clip-rule="evenodd" d="M476.913 1480.74L472.242 1498.12L419.86 1501.76L453.256 1554.81L434.911 1558.81L398.183 1498.76C397.821 1498.2 397.543 1497.61 397.326 1496.96L397.253 1496.73C397.036 1496 396.915 1495.25 396.891 1494.51C396.843 1493.03 397.181 1491.62 397.809 1490.38L397.833 1490.33C398.46 1489.1 399.414 1488.01 400.633 1487.18C401.249 1486.77 401.912 1486.43 402.636 1486.19L402.866 1486.11C403.506 1485.91 404.169 1485.8 404.821 1485.76L476.913 1480.74Z" fill="#F5F5F5"/>
<path fill-rule="evenodd" clip-rule="evenodd" d="M307.086 1440.2L364.535 1440.02C367.194 1440.01 371.516 1440 374.186 1439.99C376.848 1439.98 376.842 1439.98 374.184 1439.99L316.735 1440.17C314.077 1440.18 309.755 1440.2 307.093 1440.2C304.422 1440.21 304.428 1440.21 307.086 1440.2Z" fill="#F5F5F5"/>
<path fill-rule="evenodd" clip-rule="evenodd" d="M295.055 1528.85L364.436 1527.75C369.107 1527.67 372.945 1531.43 373.018 1536.12C373.09 1540.81 369.373 1544.68 364.702 1544.76L293.846 1545.88C294.185 1540.78 294.588 1535.11 295.055 1528.85ZM301.514 1450.64L303.58 1446.52C305.681 1442.33 310.766 1440.64 314.929 1442.75C319.093 1444.87 320.767 1450 318.666 1454.18L297.632 1496.14C298.747 1482.57 300.041 1467.4 301.514 1450.64Z" fill="#F5F5F5"/>
<path fill-rule="evenodd" clip-rule="evenodd" d="M321.471 1243.14L370.151 1229.82L370.272 1229.78C370.911 1229.61 371.575 1229.52 372.251 1229.51H372.42H372.601C373.277 1229.54 373.941 1229.63 374.569 1229.8L374.689 1229.84C376.138 1230.25 377.393 1231.03 378.382 1232.04C379.372 1233.05 380.133 1234.32 380.519 1235.79L380.555 1235.9C380.724 1236.55 380.809 1237.22 380.821 1237.9V1238.25C380.796 1238.93 380.7 1239.6 380.531 1240.23L380.495 1240.36L352.831 1337.82C351.998 1340.77 349.644 1343.03 346.678 1343.75C343.714 1344.47 340.595 1343.52 338.52 1341.27L313.168 1313.8L315.773 1291.64L340.702 1318.65L360.133 1250.18L319.329 1261.36L321.471 1243.14Z" fill="#F5F5F5"/>
<path fill-rule="evenodd" clip-rule="evenodd" d="M448.406 715.701L468.2 813.195L468.225 813.317C468.345 813.973 468.394 814.641 468.369 815.322L468.333 815.674C468.273 816.342 468.14 816.998 467.923 817.63L467.887 817.752C467.38 819.185 466.523 820.388 465.461 821.324C464.399 822.247 463.095 822.928 461.611 823.232L461.49 823.256C460.85 823.377 460.174 823.426 459.51 823.389L459.16 823.365C458.484 823.304 457.833 823.171 457.205 822.952L457.084 822.916L409.771 805.941C411.739 800.352 413.658 795.018 415.541 789.951L448.648 801.822L436.095 740.046C441.032 729.407 445.208 721.42 448.406 715.701Z" fill="#F5F5F5"/>
<path fill-rule="evenodd" clip-rule="evenodd" d="M609.42 994.148C609.42 994.148 627.198 936.931 644.313 881.829C645.568 877.807 649.684 875.426 653.764 876.374C657.843 877.321 660.51 881.27 659.883 885.438C645.001 984.391 624.869 1118.17 624.869 1118.17L609.42 994.148Z" fill="#8D1B1C"/>
<path fill-rule="evenodd" clip-rule="evenodd" d="M427.7 1686.24L453.952 1555.18L459.661 1553.68L434.206 1690.84C433.856 1692.68 432.19 1693.96 430.331 1693.79L416.065 1692.55C414.303 1692.39 412.915 1690.99 412.77 1689.22L408.932 1642.98L259.924 1690.91C258.702 1691.3 257.363 1691.02 256.406 1690.16C255.45 1689.29 255.019 1687.98 255.273 1686.72C259.837 1663.98 282.159 1651.37 289.151 1647.94L293.443 1591.31L300.357 1589.84L296.228 1650.59C296.134 1651.98 295.263 1653.19 293.985 1653.72C293.985 1653.72 271.906 1662.65 264.245 1681.87L411.056 1634.64C412.106 1634.3 413.253 1634.47 414.17 1635.08C415.087 1635.7 415.679 1636.71 415.763 1637.81L419.734 1685.55L427.7 1686.24Z" fill="#426FC0"/>
<path fill-rule="evenodd" clip-rule="evenodd" d="M733.905 1630.7L729.041 1691.73C728.957 1692.75 728.438 1693.7 727.617 1694.33C726.808 1694.96 725.758 1695.2 724.745 1695.01L702.657 1690.74C701.136 1690.45 699.966 1689.21 699.748 1687.67L686.701 1595.82L694.196 1596.72L706.568 1684.07L722.137 1687.09L727.086 1625.02C727.183 1623.85 727.834 1622.8 728.836 1622.19C729.838 1621.58 731.069 1621.51 732.143 1621.97L910.025 1700.03C909.253 1692.77 905.426 1679.09 888.408 1668.06C887.503 1667.46 886.9 1666.49 886.779 1665.41L878.366 1612.17L885.644 1612.83L893.779 1662.89C921.008 1681.48 917.279 1706.13 917.279 1706.13C917.122 1707.26 916.446 1708.24 915.468 1708.8C914.479 1709.36 913.284 1709.42 912.246 1708.96L733.905 1630.7Z" fill="#426FC0"/>
<path fill-rule="evenodd" clip-rule="evenodd" d="M448.75 306.482C447.64 316.433 449.366 324.098 452.443 330.673C455.232 329.947 457.863 329.736 460.301 330.143C458.418 318.094 458.997 307.509 463.342 299.142C457.283 300.31 452.588 302.933 448.75 306.482Z" fill="#8D1B1C"/>
<path fill-rule="evenodd" clip-rule="evenodd" d="M446.812 306.031C446.812 306.031 424.254 263.674 442.926 257.044C442.926 257.044 459.69 254.216 454.259 294.099C454.259 294.099 463.722 254.296 477.771 260.407C480.148 261.44 484.88 267.655 477.264 279.95C474.113 285.03 469.539 292.123 460.74 298.777L446.812 306.031Z" fill="#8D1B1C"/>
<path fill-rule="evenodd" clip-rule="evenodd" d="M499.159 288.428C499.159 288.428 500.258 313.56 463.663 327.148C461.78 327.844 460.826 329.943 461.514 331.83C462.202 333.718 464.29 334.685 466.161 333.989C508.731 318.182 506.389 287.975 506.389 287.975C506.268 285.968 504.555 284.438 502.551 284.563C500.56 284.688 499.039 286.42 499.159 288.428Z" fill="#FF7667"/>
<path fill-rule="evenodd" clip-rule="evenodd" d="M516.606 291.831C511.476 282.875 500.771 278.39 490.62 281.466C480.699 284.494 461.291 297.061 461.291 297.061L475.714 280.728C475.714 280.728 477.235 277.933 488.532 274.488C503.643 269.906 519.672 277.996 525.079 292.925C525.441 293.93 525.658 294.532 525.658 294.532C526.032 295.578 525.924 296.742 525.332 297.69C524.753 298.639 523.775 299.268 522.677 299.399C511.489 300.731 500.638 291.424 500.638 291.424C499.129 290.104 498.972 287.799 500.288 286.282C501.591 284.763 503.885 284.602 505.393 285.923C505.393 285.923 510.39 290.415 516.606 291.831Z" fill="#FF7667"/>
<path d="M458.5 326.5C454.1 315.3 463.333 297.5 468.5 290C472 284.302 497 275 509.5 278.5C519.5 281.3 520.667 292.333 520 297.5C514.167 290.166 503.5 285.5 503.5 290C503.5 301.627 485.833 319.166 476.5 326.5C472.333 331.166 462.9 337.7 458.5 326.5Z" fill="#FF7667"/>
<path d="M335.822 987.888L306.999 1030.98C302.871 1037.15 297.017 1041.98 290.166 1044.85C283.316 1047.71 275.772 1048.5 268.477 1047.11L203.688 1034.77C198.751 1033.83 194.284 1031.22 191.034 1027.39C187.784 1023.55 185.946 1018.72 185.827 1013.69L185.547 1001.23L201.129 1004.2C203.317 1004.62 205.578 1004.37 207.623 1003.49C209.668 1002.6 211.402 1001.13 212.603 999.256L230.748 970.936C236.107 962.573 243.847 956.005 252.971 952.079C262.095 948.153 272.186 947.048 281.943 948.907L322.735 956.679C326.029 957.302 329.118 958.733 331.724 960.842C334.33 962.951 336.373 965.673 337.669 968.765C338.966 971.857 339.476 975.222 339.154 978.559C338.831 981.896 337.687 985.101 335.822 987.888Z" fill="#F6ACC1"/>
<path fill-rule="evenodd" clip-rule="evenodd" d="M243.794 1040.65C250.758 1041.98 257.959 1041.23 264.498 1038.49C271.037 1035.75 276.626 1031.15 280.567 1025.26C281.097 1024.47 282.168 1024.25 282.959 1024.78C283.751 1025.31 283.963 1026.38 283.433 1027.18C279.115 1033.63 272.993 1038.67 265.829 1041.67C258.666 1044.67 250.778 1045.49 243.149 1044.04C242.214 1043.86 241.6 1042.96 241.778 1042.02C241.956 1041.09 242.859 1040.47 243.794 1040.65Z" fill="#59221D"/>
<path fill-rule="evenodd" clip-rule="evenodd" d="M218.787 1035.89C225.751 1037.22 232.951 1036.46 239.49 1033.73C246.03 1030.99 251.618 1026.39 255.559 1020.49C256.089 1019.7 257.16 1019.49 257.951 1020.02C258.743 1020.55 258.955 1021.62 258.426 1022.41C254.108 1028.87 247.986 1033.91 240.822 1036.91C233.658 1039.91 225.77 1040.73 218.141 1039.28C217.206 1039.1 216.592 1038.19 216.77 1037.26C216.949 1036.32 217.851 1035.71 218.787 1035.89Z" fill="#59221D"/>
<path fill-rule="evenodd" clip-rule="evenodd" d="M197.631 1033.42C197.661 1032.46 198.456 1031.72 199.408 1031.75C205.533 1031.94 211.605 1030.57 217.055 1027.77C222.504 1024.97 227.15 1020.82 230.557 1015.73C231.086 1014.94 232.157 1014.73 232.949 1015.25C233.74 1015.78 233.953 1016.86 233.423 1017.65C229.691 1023.23 224.601 1027.76 218.632 1030.83C212.662 1033.9 206.009 1035.4 199.3 1035.19C198.348 1035.16 197.601 1034.37 197.631 1033.42Z" fill="#59221D"/>
<path fill-rule="evenodd" clip-rule="evenodd" d="M969.363 302.315L1082.29 278.635L1094.08 420.873C1094.7 428.262 1089.23 435.083 1081.37 436.731L1033.72 446.723C1025.86 448.37 1018.11 444.321 1015.7 437.308L969.363 302.315ZM973.219 304.33L1018.55 436.389C1020.5 442.072 1026.78 445.353 1033.15 444.018L1080.8 434.026C1087.17 432.691 1091.6 427.163 1091.11 421.175L1079.57 282.029L973.219 304.33Z" fill="#606C6C"/>
<path fill-rule="evenodd" clip-rule="evenodd" d="M1028.97 348.406C1027.86 348.639 1027.14 349.656 1027.35 350.678C1027.57 351.7 1028.64 352.34 1029.75 352.108C1030.86 351.875 1031.58 350.858 1031.37 349.836C1031.15 348.814 1030.08 348.174 1028.97 348.406ZM1026.49 350.859C1026.18 349.397 1027.22 347.943 1028.8 347.611C1030.39 347.279 1031.92 348.194 1032.23 349.655C1032.53 351.117 1031.5 352.571 1029.91 352.903C1028.33 353.235 1026.8 352.32 1026.49 350.859Z" fill="white"/>
<path fill-rule="evenodd" clip-rule="evenodd" d="M1023.05 383.994C1021.94 384.227 1021.21 385.244 1021.43 386.266C1021.64 387.288 1022.71 387.928 1023.82 387.696C1024.93 387.463 1025.65 386.446 1025.44 385.424C1025.23 384.402 1024.15 383.762 1023.05 383.994ZM1020.56 386.446C1020.26 384.985 1021.29 383.531 1022.88 383.199C1024.46 382.867 1026 383.782 1026.3 385.243C1026.61 386.705 1025.57 388.159 1023.99 388.491C1022.4 388.823 1020.87 387.908 1020.56 386.446Z" fill="white"/>
<path fill-rule="evenodd" clip-rule="evenodd" d="M1005.99 331.955C1004.32 332.304 1003.23 333.834 1003.55 335.372C1003.88 336.91 1005.49 337.873 1007.16 337.523C1008.82 337.174 1009.91 335.644 1009.59 334.106C1009.27 332.568 1007.66 331.605 1005.99 331.955ZM1002.69 335.553C1002.28 333.576 1003.68 331.609 1005.82 331.159C1007.97 330.71 1010.04 331.948 1010.45 333.925C1010.87 335.902 1009.47 337.869 1007.32 338.319C1005.18 338.768 1003.11 337.53 1002.69 335.553Z" fill="white"/>
<path fill-rule="evenodd" clip-rule="evenodd" d="M1071.54 352.433C1069.87 352.783 1068.78 354.313 1069.11 355.851C1069.43 357.388 1071.04 358.351 1072.71 358.002C1074.38 357.652 1075.47 356.122 1075.14 354.585C1074.82 353.047 1073.21 352.084 1071.54 352.433ZM1068.24 356.031C1067.83 354.054 1069.23 352.087 1071.38 351.638C1073.52 351.188 1075.59 352.427 1076.01 354.404C1076.42 356.381 1075.02 358.348 1072.88 358.797C1070.73 359.247 1068.66 358.008 1068.24 356.031Z" fill="white"/>
<path fill-rule="evenodd" clip-rule="evenodd" d="M1048.3 381.046C1047.44 381.226 1046.88 382.013 1047.05 382.803C1047.21 383.594 1048.04 384.09 1048.9 383.91C1049.76 383.73 1050.32 382.943 1050.15 382.152C1049.99 381.362 1049.16 380.866 1048.3 381.046ZM1046.19 382.984C1045.93 381.754 1046.8 380.53 1048.13 380.25C1049.47 379.971 1050.76 380.741 1051.02 381.972C1051.27 383.202 1050.4 384.426 1049.07 384.705C1047.73 384.985 1046.44 384.214 1046.19 382.984Z" fill="white"/>
<path fill-rule="evenodd" clip-rule="evenodd" d="M1078.09 359.823C1077.61 359.923 1077.3 360.36 1077.4 360.8C1077.49 361.239 1077.95 361.514 1078.42 361.414C1078.9 361.315 1079.21 360.877 1079.12 360.438C1079.03 359.999 1078.57 359.724 1078.09 359.823ZM1076.53 360.981C1076.35 360.102 1076.97 359.228 1077.92 359.028C1078.88 358.828 1079.8 359.379 1079.98 360.257C1080.17 361.136 1079.54 362.01 1078.59 362.21C1077.64 362.41 1076.72 361.859 1076.53 360.981Z" fill="white"/>
<path fill-rule="evenodd" clip-rule="evenodd" d="M1056.19 321.774C1055.24 321.974 1054.62 322.848 1054.8 323.727C1054.98 324.606 1055.91 325.156 1056.86 324.956C1057.81 324.757 1058.43 323.882 1058.25 323.004C1058.07 322.125 1057.14 321.575 1056.19 321.774ZM1053.94 323.908C1053.66 322.59 1054.6 321.279 1056.02 320.979C1057.45 320.679 1058.84 321.505 1059.11 322.823C1059.39 324.141 1058.45 325.452 1057.03 325.752C1055.6 326.052 1054.21 325.226 1053.94 323.908Z" fill="white"/>
<path fill-rule="evenodd" clip-rule="evenodd" d="M1001.28 341.934C1000.8 342.034 1000.49 342.471 1000.58 342.91C1000.67 343.349 1001.13 343.625 1001.61 343.525C1002.09 343.425 1002.4 342.988 1002.31 342.548C1002.21 342.109 1001.75 341.834 1001.28 341.934ZM999.718 343.091C999.534 342.212 1000.16 341.338 1001.11 341.138C1002.06 340.939 1002.98 341.489 1003.17 342.368C1003.35 343.246 1002.73 344.121 1001.78 344.32C1000.82 344.52 999.903 343.97 999.718 343.091Z" fill="white"/>
<path fill-rule="evenodd" clip-rule="evenodd" d="M1010.36 378.837C1009.89 378.937 1009.58 379.374 1009.67 379.813C1009.76 380.252 1010.22 380.528 1010.7 380.428C1011.17 380.328 1011.49 379.891 1011.39 379.451C1011.3 379.012 1010.84 378.737 1010.36 378.837ZM1008.81 379.994C1008.62 379.115 1009.24 378.241 1010.2 378.041C1011.15 377.841 1012.07 378.392 1012.26 379.27C1012.44 380.149 1011.82 381.023 1010.86 381.223C1009.91 381.423 1008.99 380.873 1008.81 379.994Z" fill="white"/>
<path fill-rule="evenodd" clip-rule="evenodd" d="M1001.49 163.967L1004.77 163.249C1004.77 163.249 1062.7 181.579 1064.67 219.777C1065.55 236.787 1070.52 247.433 1075.2 257.468C1081.03 269.967 1086.41 281.518 1082.92 303.238L1029.44 314.928L1029.4 314.773L980.723 325.406C968.486 307.123 968.563 294.379 968.647 280.588C968.714 269.516 968.785 257.77 962.491 241.942C948.357 206.4 993.355 165.583 993.355 165.583L1001.46 163.812L1001.49 163.967Z" fill="#B9CCF1"/>
<rect x="976.681" y="152.463" width="35.4629" height="23.3425" transform="rotate(-13.3949 976.681 152.463)" fill="white" stroke="black" stroke-width="2"/>
</g>
<defs>
<clipPath id="clip0">
<rect width="1708" height="1708" fill="white"/>
</clipPath>
</defs>
</svg>
