<svg width="774" height="573" viewBox="0 0 774 573" fill="none" xmlns="http://www.w3.org/2000/svg">
<g clip-path="url(#clip0)">
<circle cx="292" cy="337" r="245" fill="#A7BFED" fill-opacity="0.8"/>
<path d="M167.828 141.302C167.828 131.361 175.887 123.302 185.828 123.302H222.464C232.405 123.302 240.464 131.361 240.464 141.302V236.604C240.464 246.545 232.405 254.604 222.464 254.604H185.828C175.887 254.604 167.828 246.545 167.828 236.604V141.302Z" fill="#573240"/>
<path d="M558.276 205.799H356.103C317.783 205.799 282.763 227.484 265.685 261.788L164.35 465.328C140.023 514.19 175.562 571.583 230.145 571.583H683.039C741.867 571.583 781.072 510.847 756.849 457.238L678.224 283.225C656.927 236.091 609.998 205.799 558.276 205.799Z" fill="#FF6E00"/>
<mask id="mask0" mask-type="alpha" maskUnits="userSpaceOnUse" x="156" y="205" width="609" height="367">
<path d="M558.276 205.799H356.103C317.783 205.799 282.763 227.484 265.685 261.788L164.35 465.328C140.023 514.19 175.562 571.583 230.145 571.583H683.039C741.867 571.583 781.072 510.847 756.849 457.238L678.224 283.225C656.927 236.091 609.998 205.799 558.276 205.799Z" fill="#FF6E00"/>
</mask>
<g mask="url(#mask0)">
<path fill-rule="evenodd" clip-rule="evenodd" d="M210.307 600.283C215.002 597.627 220.969 599.28 223.626 603.975C226.283 608.671 224.627 614.637 219.932 617.294C215.237 619.95 209.269 618.298 206.612 613.602C203.956 608.906 205.612 602.939 210.307 600.283ZM272.105 580.333C256.268 574.501 247.753 560.087 246.186 546.262C244.797 534.015 248.988 522.35 257.76 516.733C259.928 515.346 262.815 515.977 264.204 518.148C265.594 520.318 264.96 523.205 262.792 524.593C256.737 528.465 254.499 536.761 255.458 545.214C256.8 557.059 264.742 569.448 279.639 572.801L272.105 580.333ZM357.595 459.854C348.84 457.316 338.942 460.426 331.03 467.377C316.987 479.714 309.27 503.896 326.497 524.913C328.128 526.902 331.069 527.194 333.063 525.566C335.052 523.931 335.343 520.988 333.713 518.999C320.357 502.705 326.3 483.952 337.189 474.388C342.535 469.688 349.079 467.097 354.997 468.814C357.47 469.531 360.062 468.11 360.776 465.633C361.495 463.163 360.068 460.571 357.595 459.854ZM356.049 504.109C352.265 504.536 348.417 502.729 346.426 499.21C343.769 494.515 345.425 488.548 350.12 485.892C354.815 483.236 360.782 484.889 363.439 489.584C363.496 489.686 363.552 489.788 363.606 489.892C361.009 494.523 358.474 499.316 356.049 504.109ZM140.342 553.059C151.948 536.065 171.324 532.857 186.408 537.538C198.18 541.191 207.178 549.718 208.791 560.006C209.191 562.549 207.453 564.944 204.908 565.339C202.366 565.741 199.978 564.001 199.578 561.458C198.462 554.354 191.767 548.968 183.644 546.448C171.048 542.539 154.606 545.756 145.97 561.751C144.084 558.966 142.201 556.051 140.342 553.059ZM349.834 372.987C366.521 385.026 369.231 404.475 364.166 419.433C360.213 431.107 351.457 439.884 341.13 441.235C338.578 441.569 336.234 439.767 335.899 437.214C335.566 434.662 337.367 432.319 339.92 431.984C347.047 431.052 352.602 424.497 355.33 416.441C359.336 404.611 357.041 389.169 343.396 379.887C345.695 377.611 347.843 375.29 349.834 372.987ZM217.206 484.768C221.901 482.112 227.869 483.767 230.526 488.462C233.183 493.157 231.528 499.125 226.833 501.782C222.138 504.438 216.17 502.783 213.513 498.088C210.857 493.393 212.512 487.425 217.206 484.768ZM241.939 413.676C245.193 413.782 248.478 413.726 251.427 413.601C250.298 417.784 250.491 422.675 251.763 427.459C255.271 440.647 267.428 453.263 286.668 451.049C289.225 450.756 291.54 452.593 291.835 455.15C292.129 457.708 290.291 460.024 287.734 460.318C262.922 463.173 247.271 446.864 242.748 429.857C241.278 424.332 241.014 418.753 241.939 413.676ZM306.113 415.297C310.808 412.641 316.776 414.296 319.433 418.99C322.089 423.685 320.434 429.654 315.739 432.31C311.044 434.967 305.076 433.312 302.419 428.617C299.763 423.922 301.418 417.954 306.113 415.297ZM396.564 383.875C385.74 381.719 376.819 375.324 373.661 366.373C372.805 363.945 374.08 361.279 376.508 360.422C378.936 359.566 381.602 360.841 382.459 363.268C384.583 369.29 390.79 373.177 398.07 374.668L396.564 383.875ZM204.701 443.253C194.866 439.821 183.102 443.73 174.326 452.386C161.798 464.744 155.391 486.42 170.168 506.555C171.691 508.63 174.613 509.079 176.688 507.555C178.764 506.032 179.212 503.111 177.689 501.035C166.231 485.422 171.163 468.61 180.878 459.028C186.934 453.055 194.841 449.693 201.627 452.061C204.058 452.909 206.72 451.624 207.568 449.193C208.416 446.763 207.131 444.101 204.701 443.253ZM400.482 320.194C402.786 320.693 404.903 322.019 406.352 324.038L404.12 337.685C403.837 337.887 403.54 338.077 403.23 338.252C398.535 340.909 392.567 339.254 389.91 334.558C389.085 333.1 388.676 331.519 388.645 329.952L400.482 320.194Z" fill="white"/>
<path fill-rule="evenodd" clip-rule="evenodd" d="M506.152 410.427C510.848 407.77 516.815 409.423 519.472 414.119C522.129 418.815 520.473 424.781 515.777 427.437C511.083 430.094 505.115 428.441 502.458 423.745C499.801 419.049 501.458 413.083 506.152 410.427ZM567.95 390.477C552.114 384.645 543.599 370.23 542.032 356.405C540.643 344.158 544.834 332.493 553.606 326.876C555.774 325.489 558.661 326.121 560.05 328.291C561.44 330.462 560.806 333.348 558.638 334.736C552.583 338.609 550.345 346.905 551.304 355.358C552.646 367.202 560.588 379.591 575.485 382.944L567.95 390.477ZM653.441 269.998C644.685 267.459 634.788 270.57 626.876 277.521C612.833 289.857 605.116 314.039 622.342 335.056C623.974 337.045 626.915 337.337 628.908 335.709C630.898 334.074 631.189 331.132 629.558 329.142C616.203 312.849 622.146 294.095 633.034 284.531C638.381 279.831 644.925 277.241 650.843 278.957C653.316 279.675 655.908 278.253 656.622 275.777C657.34 273.306 655.914 270.715 653.441 269.998ZM651.895 314.253C648.11 314.679 644.263 312.872 642.272 309.354C639.615 304.658 641.271 298.692 645.966 296.035C650.661 293.379 656.628 295.032 659.285 299.728C659.342 299.829 659.398 299.932 659.451 300.035C656.855 304.666 654.32 309.459 651.895 314.253ZM436.187 363.203C447.794 346.209 467.17 343 482.254 347.681C494.026 351.334 503.023 359.861 504.637 370.149C505.036 372.692 503.299 375.087 500.753 375.482C498.212 375.884 495.823 374.145 495.424 371.602C494.308 364.498 487.613 359.112 479.489 356.591C466.893 352.682 450.452 355.899 441.816 371.894C439.93 369.109 438.047 366.194 436.187 363.203ZM645.679 183.13C662.366 195.17 665.077 214.619 660.012 229.577C656.059 241.251 647.303 250.027 636.976 251.378C634.423 251.712 632.079 249.911 631.745 247.358C631.411 244.805 633.213 242.462 635.766 242.128C642.893 241.195 648.447 234.641 651.175 226.584C655.181 214.755 652.887 199.312 639.242 190.03C641.541 187.754 643.689 185.433 645.679 183.13ZM513.052 294.912C517.747 292.255 523.715 293.91 526.372 298.605C529.028 303.3 527.373 309.269 522.678 311.925C517.984 314.581 512.016 312.926 509.359 308.231C506.702 303.536 508.357 297.568 513.052 294.912ZM537.784 223.82C541.039 223.926 544.323 223.869 547.273 223.744C546.143 227.927 546.337 232.818 547.609 237.603C551.117 250.79 563.273 263.406 582.513 261.193C585.071 260.899 587.386 262.737 587.681 265.294C587.975 267.852 586.137 270.167 583.58 270.461C558.768 273.316 543.117 257.007 538.593 240.001C537.124 234.475 536.86 228.897 537.784 223.82ZM601.959 225.441C606.654 222.784 612.622 224.439 615.278 229.134C617.935 233.829 616.28 239.797 611.585 242.454C606.89 245.11 600.922 243.455 598.265 238.76C595.609 234.065 597.264 228.097 601.959 225.441ZM692.41 194.018C681.586 191.862 672.665 185.468 669.507 176.516C668.65 174.088 669.926 171.422 672.354 170.565C674.782 169.709 677.448 170.985 678.305 173.412C680.429 179.433 686.636 183.32 693.916 184.811L692.41 194.018ZM500.546 253.396C490.712 249.964 478.948 253.874 470.172 262.529C457.644 274.887 451.237 296.563 466.014 316.698C467.536 318.774 470.458 319.222 472.534 317.699C474.61 316.176 475.058 313.254 473.535 311.179C462.076 295.565 467.009 278.753 476.724 269.171C482.779 263.198 490.686 259.837 497.473 262.204C499.904 263.052 502.566 261.767 503.414 259.337C504.262 256.906 502.977 254.244 500.546 253.396ZM696.327 130.337C698.632 130.837 700.749 132.162 702.198 134.181L699.965 147.828C699.683 148.031 699.385 148.22 699.075 148.396C694.381 151.052 688.413 149.397 685.756 144.702C684.931 143.244 684.521 141.662 684.49 140.095L696.327 130.337Z" fill="white"/>
<path fill-rule="evenodd" clip-rule="evenodd" d="M280.113 367.213C284.809 364.557 290.776 366.21 293.433 370.905C296.09 375.601 294.433 381.567 289.738 384.224C285.044 386.88 279.076 385.228 276.419 380.532C273.762 375.836 275.419 369.869 280.113 367.213ZM341.911 347.263C326.075 341.431 317.56 327.017 315.993 313.192C314.604 300.945 318.795 289.28 327.567 283.663C329.735 282.276 332.622 282.907 334.011 285.078C335.401 287.248 334.767 290.135 332.599 291.522C326.544 295.395 324.306 303.691 325.264 312.144C326.607 323.989 334.549 336.377 349.446 339.731L341.911 347.263ZM427.402 226.784C418.646 224.246 408.749 227.356 400.837 234.307C386.794 246.644 379.076 270.826 396.303 291.843C397.934 293.832 400.876 294.124 402.869 292.496C404.859 290.861 405.15 287.918 403.519 285.929C390.164 269.635 396.107 250.882 406.995 241.318C412.342 236.618 418.886 234.027 424.804 235.744C427.277 236.461 429.868 235.04 430.583 232.563C431.301 230.093 429.875 227.501 427.402 226.784ZM425.856 271.039C422.071 271.466 418.224 269.659 416.233 266.14C413.576 261.444 415.232 255.478 419.927 252.822C424.622 250.166 430.589 251.819 433.246 256.514C433.303 256.616 433.359 256.718 433.412 256.822C430.816 261.453 428.281 266.246 425.856 271.039ZM210.148 319.989C221.755 302.995 241.13 299.787 256.215 304.468C267.987 308.12 276.984 316.648 278.598 326.936C278.997 329.479 277.26 331.874 274.714 332.269C272.172 332.671 269.784 330.931 269.385 328.388C268.269 321.284 261.574 315.898 253.45 313.378C240.854 309.469 224.413 312.686 215.777 328.68C213.891 325.896 212.008 322.981 210.148 319.989ZM419.64 139.917C436.327 151.956 439.038 171.405 433.973 186.363C430.02 198.037 421.264 206.814 410.937 208.165C408.384 208.499 406.04 206.697 405.706 204.144C405.372 201.592 407.174 199.249 409.727 198.914C416.854 197.982 422.408 191.427 425.136 183.371C429.142 171.541 426.848 156.099 413.203 146.817C415.502 144.541 417.65 142.22 419.64 139.917ZM287.013 251.698C291.708 249.042 297.676 250.697 300.333 255.392C302.989 260.087 301.334 266.055 296.639 268.712C291.945 271.368 285.976 269.713 283.32 265.018C280.663 260.323 282.318 254.354 287.013 251.698ZM311.745 180.606C315 180.712 318.284 180.656 321.234 180.531C320.104 184.714 320.297 189.605 321.57 194.389C325.078 207.577 337.234 220.193 356.474 217.979C359.032 217.686 361.347 219.523 361.642 222.08C361.936 224.638 360.098 226.954 357.541 227.247C332.729 230.102 317.078 213.794 312.554 196.787C311.085 191.262 310.821 185.683 311.745 180.606ZM375.92 182.227C380.615 179.571 386.583 181.226 389.239 185.92C391.896 190.615 390.241 196.584 385.546 199.24C380.851 201.897 374.882 200.242 372.226 195.547C369.57 190.852 371.225 184.884 375.92 182.227ZM466.371 150.805C455.547 148.649 446.626 142.254 443.467 133.303C442.611 130.875 443.887 128.209 446.315 127.352C448.743 126.496 451.409 127.771 452.266 130.198C454.39 136.22 460.597 140.107 467.877 141.598L466.371 150.805ZM274.507 210.182C264.673 206.751 252.909 210.66 244.133 219.316C231.605 231.674 225.197 253.35 239.975 273.485C241.497 275.56 244.419 276.009 246.495 274.485C248.57 272.962 249.019 270.04 247.496 267.965C236.037 252.352 240.97 235.54 250.684 225.958C256.74 219.985 264.647 216.623 271.434 218.991C273.864 219.839 276.527 218.554 277.375 216.123C278.223 213.693 276.938 211.03 274.507 210.182ZM470.288 87.1239C472.593 87.6233 474.71 88.949 476.159 90.9681L473.926 104.614C473.644 104.817 473.346 105.007 473.036 105.182C468.342 107.839 462.374 106.184 459.717 101.488C458.892 100.03 458.482 98.4488 458.451 96.8816L470.288 87.1239Z" fill="white"/>
<path fill-rule="evenodd" clip-rule="evenodd" d="M679.006 601.009C683.701 598.352 689.668 600.005 692.325 604.701C694.982 609.397 693.326 615.363 688.631 618.02C683.936 620.676 677.969 619.023 675.312 614.327C672.655 609.632 674.311 603.665 679.006 601.009ZM740.804 581.059C724.967 575.227 716.452 560.813 714.885 546.987C713.496 534.741 717.688 523.076 726.459 517.459C728.628 516.071 731.515 516.703 732.904 518.874C734.293 521.044 733.66 523.931 731.491 525.318C725.436 529.191 723.198 537.487 724.157 545.94C725.499 557.784 733.441 570.173 748.338 573.526L740.804 581.059ZM826.295 460.58C817.539 458.041 807.641 461.152 799.729 468.103C785.687 480.44 777.969 504.621 795.196 525.638C796.827 527.627 799.768 527.919 801.762 526.291C803.752 524.656 804.042 521.714 802.412 519.724C789.056 503.431 794.999 484.678 805.888 475.113C811.234 470.413 817.778 467.823 823.696 469.539C826.169 470.257 828.761 468.835 829.475 466.359C830.194 463.889 828.767 461.297 826.295 460.58ZM824.748 504.835C820.964 505.261 817.116 503.455 815.125 499.936C812.468 495.24 814.124 489.274 818.82 486.617C823.514 483.961 829.481 485.614 832.138 490.31C832.196 490.412 832.252 490.514 832.305 490.618C829.709 495.249 827.174 500.042 824.748 504.835ZM609.041 553.785C620.648 536.791 640.023 533.582 655.108 538.263C666.88 541.916 675.877 550.443 677.491 560.732C677.89 563.275 676.152 565.669 673.607 566.064C671.065 566.466 668.677 564.727 668.278 562.184C667.161 555.08 660.467 549.694 652.343 547.174C639.747 543.264 623.305 546.481 614.669 562.476C612.783 559.692 610.901 556.777 609.041 553.785ZM818.533 373.712C835.22 385.752 837.93 405.201 832.865 420.159C828.912 431.833 820.156 440.609 809.829 441.96C807.277 442.294 804.933 440.493 804.599 437.94C804.265 435.387 806.066 433.044 808.619 432.71C815.746 431.777 821.301 425.223 824.029 417.167C828.035 405.337 825.74 389.894 812.096 380.612C814.394 378.336 816.542 376.015 818.533 373.712ZM685.905 485.494C690.601 482.837 696.569 484.492 699.225 489.188C701.882 493.883 700.227 499.851 695.532 502.507C690.837 505.164 684.869 503.509 682.212 498.813C679.556 494.118 681.211 488.15 685.905 485.494ZM710.638 414.402C713.892 414.508 717.177 414.451 720.126 414.327C718.997 418.509 719.19 423.401 720.462 428.185C723.97 441.372 736.127 453.988 755.367 451.775C757.924 451.481 760.24 453.319 760.534 455.876C760.828 458.434 758.99 460.749 756.433 461.043C731.621 463.898 715.97 447.59 711.447 430.583C709.977 425.057 709.713 419.479 710.638 414.402ZM774.812 416.023C779.508 413.366 785.476 415.021 788.132 419.716C790.788 424.411 789.134 430.379 784.438 433.036C779.743 435.692 773.775 434.037 771.118 429.342C768.462 424.648 770.117 418.68 774.812 416.023ZM865.263 384.6C854.439 382.444 845.519 376.05 842.36 367.098C841.504 364.671 842.779 362.004 845.208 361.148C847.635 360.291 850.301 361.567 851.158 363.994C853.283 370.015 859.489 373.902 866.77 375.394L865.263 384.6ZM673.4 443.978C663.565 440.546 651.801 444.456 643.025 453.111C630.497 465.469 624.09 487.146 638.867 507.28C640.39 509.356 643.312 509.805 645.388 508.281C647.463 506.758 647.912 503.836 646.388 501.761C634.93 486.148 639.862 469.335 649.577 459.754C655.633 453.781 663.54 450.419 670.326 452.786C672.757 453.634 675.419 452.35 676.267 449.919C677.115 447.488 675.83 444.826 673.4 443.978ZM869.181 320.92C871.486 321.419 873.602 322.745 875.051 324.764L872.819 338.41C872.536 338.613 872.239 338.803 871.929 338.978C867.234 341.634 861.266 339.979 858.61 335.284C857.785 333.826 857.375 332.244 857.344 330.677L869.181 320.92Z" fill="white"/>
<path fill-rule="evenodd" clip-rule="evenodd" d="M415.461 652.573C420.156 649.916 426.123 651.569 428.78 656.265C431.437 660.961 429.781 666.927 425.086 669.584C420.391 672.24 414.424 670.588 411.767 665.892C409.11 661.196 410.767 655.229 415.461 652.573ZM477.259 632.623C461.422 626.791 452.908 612.377 451.341 598.552C449.951 586.305 454.143 574.64 462.915 569.023C465.083 567.635 467.97 568.267 469.359 570.438C470.748 572.608 470.115 575.495 467.947 576.882C461.891 580.755 459.654 589.051 460.612 597.504C461.954 609.349 469.897 621.737 484.793 625.091L477.259 632.623ZM562.75 512.144C553.994 509.606 544.096 512.716 536.184 519.667C522.142 532.004 514.424 556.186 531.651 577.202C533.282 579.192 536.224 579.484 538.217 577.855C540.207 576.221 540.497 573.278 538.867 571.289C525.511 554.995 531.454 536.242 542.343 526.677C547.689 521.978 554.233 519.387 560.151 521.103C562.624 521.821 565.216 520.399 565.93 517.923C566.649 515.453 565.223 512.861 562.75 512.144ZM561.204 556.399C557.419 556.826 553.571 555.019 551.58 551.5C548.923 546.804 550.579 540.838 555.275 538.182C559.969 535.525 565.936 537.178 568.593 541.874C568.651 541.976 568.707 542.078 568.76 542.182C566.164 546.813 563.629 551.606 561.204 556.399ZM345.496 605.349C357.103 588.355 376.478 585.147 391.563 589.827C403.335 593.48 412.332 602.007 413.946 612.296C414.345 614.839 412.607 617.233 410.062 617.629C407.52 618.031 405.132 616.291 404.733 613.748C403.616 606.644 396.922 601.258 388.798 598.738C376.202 594.829 359.76 598.046 351.125 614.04C349.238 611.256 347.356 608.341 345.496 605.349ZM554.988 425.277C571.675 437.316 574.385 456.765 569.32 471.723C565.367 483.397 556.612 492.174 546.284 493.525C543.732 493.858 541.388 492.057 541.054 489.504C540.72 486.952 542.521 484.608 545.075 484.274C552.201 483.341 557.756 476.787 560.484 468.731C564.49 456.901 562.196 441.459 548.551 432.177C550.849 429.901 552.997 427.579 554.988 425.277ZM422.36 537.058C427.056 534.402 433.024 536.056 435.68 540.752C438.337 545.447 436.682 551.415 431.987 554.072C427.292 556.728 421.324 555.073 418.668 550.378C416.011 545.682 417.666 539.714 422.36 537.058ZM447.093 465.966C450.347 466.072 453.632 466.015 456.582 465.891C455.452 470.074 455.645 474.965 456.918 479.749C460.425 492.936 472.582 505.553 491.822 503.339C494.379 503.045 496.695 504.883 496.989 507.44C497.283 509.998 495.446 512.314 492.888 512.607C468.076 515.462 452.426 499.154 447.902 482.147C446.432 476.621 446.168 471.043 447.093 465.966ZM511.267 467.587C515.963 464.931 521.931 466.586 524.587 471.28C527.244 475.975 525.589 481.943 520.893 484.6C516.198 487.257 510.23 485.602 507.574 480.906C504.917 476.212 506.572 470.244 511.267 467.587ZM601.719 436.165C590.894 434.009 581.974 427.614 578.815 418.662C577.959 416.235 579.234 413.569 581.663 412.712C584.09 411.856 586.757 413.131 587.614 415.558C589.738 421.579 595.944 425.467 603.225 426.958L601.719 436.165ZM409.855 495.542C400.02 492.111 388.256 496.02 379.481 504.676C366.952 517.033 360.545 538.71 375.322 558.845C376.845 560.92 379.767 561.369 381.843 559.845C383.918 558.322 384.367 555.4 382.843 553.325C371.385 537.712 376.317 520.9 386.032 511.318C392.088 505.345 399.995 501.983 406.781 504.351C409.212 505.199 411.874 503.914 412.722 501.483C413.57 499.052 412.286 496.39 409.855 495.542ZM605.636 372.484C607.941 372.983 610.058 374.309 611.506 376.328L609.274 389.974C608.991 390.177 608.694 390.367 608.384 390.542C603.689 393.198 597.721 391.543 595.065 386.848C594.24 385.39 593.83 383.809 593.799 382.241L605.636 372.484Z" fill="white"/>
</g>
<path d="M685.194 387.119L366.5 251C360.466 248.291 317.582 225.4 311.5 228C304.981 229.862 309 244.5 347.577 260.88L338.148 271.357L340.243 287.42C338.148 317 359 325 362 307.5C370.491 310.462 375.695 311.126 375.863 314.309C376.212 320.944 398.212 338.754 417.419 337.357C436.625 335.96 612.677 507.269 612.677 507.269C648.824 535.56 701.928 522.431 720.729 480.556C736.718 444.941 720.808 403.108 685.194 387.119Z" fill="white"/>
<path fill-rule="evenodd" clip-rule="evenodd" d="M351.728 302.205C352.167 301.502 353.093 301.289 353.795 301.728L361.795 306.728C362.498 307.167 362.711 308.092 362.272 308.795C361.833 309.497 360.908 309.711 360.205 309.272L352.205 304.272C351.503 303.833 351.289 302.907 351.728 302.205Z" fill="#573240"/>
<path d="M156.198 489.558L153.232 259.81C152.984 240.552 145.546 218.287 178.721 171.493C197.229 166.604 202.346 167.055 218.88 189.652C229.356 203.969 210.687 233.293 203.703 239.229C203.703 239.229 218.02 243.42 218.02 260.182C218.02 276.944 215.925 291.611 215.925 291.611L289.869 461.001C304.427 494.677 290.387 533.873 257.758 550.647C211.724 574.312 156.867 541.315 156.198 489.558Z" fill="white"/>
<path d="M169.826 215.07C169.362 215.915 168.3 216.224 167.455 215.76C166.61 215.296 166.301 214.234 166.765 213.389L190.942 169.398L193.037 169.398L187.794 182.349L169.826 215.07Z" fill="#573240"/>
<path d="M183.217 219.599C182.752 220.444 181.691 220.753 180.846 220.289C180 219.824 179.691 218.763 180.156 217.918L204.332 173.927L206.428 173.927L201.185 186.877L183.217 219.599Z" fill="#573240"/>
<path d="M196.808 228.134C196.395 228.905 195.427 229.174 194.646 228.734C193.864 228.295 193.566 227.313 193.979 226.542L215.492 186.399L217.412 186.429L212.797 198.274L196.808 228.134Z" fill="#573240"/>
<path fill-rule="evenodd" clip-rule="evenodd" d="M384.7 276.277C384.421 277.178 383.608 277.631 382.885 277.289L354.877 264.024C348.508 261.008 341.393 265.36 339.401 273.49C339.174 274.414 338.39 274.938 337.648 274.661C336.906 274.384 336.488 273.411 336.715 272.487C339.183 262.415 347.998 257.023 355.887 260.76L355.382 262.392L355.888 260.76L383.895 274.025C384.619 274.367 384.979 275.376 384.7 276.277Z" fill="#573240"/>
<path fill-rule="evenodd" clip-rule="evenodd" d="M382.648 287.479C382.389 288.38 381.637 288.834 380.968 288.492L355.065 275.25C349.175 272.239 342.588 276.598 340.738 284.729C340.528 285.653 339.801 286.178 339.115 285.902C338.429 285.626 338.044 284.653 338.254 283.729C340.546 273.654 348.706 268.255 356.003 271.985L355.534 273.618L356.003 271.985L381.905 285.227C382.575 285.569 382.907 286.577 382.648 287.479Z" fill="#573240"/>
<path fill-rule="evenodd" clip-rule="evenodd" d="M386.163 301.547C385.913 302.339 385.184 302.737 384.535 302.435L359.418 290.774C353.706 288.122 347.327 291.945 345.542 299.089C345.339 299.901 344.636 300.361 343.971 300.118C343.306 299.874 342.931 299.019 343.134 298.207C345.345 289.357 353.248 284.62 360.323 287.906L359.871 289.34L360.323 287.906L385.441 299.567C386.09 299.869 386.413 300.755 386.163 301.547Z" fill="#573240"/>
<path d="M364.435 194.485C378.54 176.121 352.339 100.211 354.319 97.1113C357.906 91.5002 425.057 79.9001 440.361 80.0006C449.125 80.0579 513.559 116.696 513.559 147.048C509.368 192.947 481.162 183.51 442.395 192.947C403.626 202.385 364.435 194.485 364.435 194.485Z" fill="#FFDB43"/>
<path d="M393.381 205.799V156.014L449.182 151.452L485.615 205.799C485.615 205.799 485.275 240.352 438.345 240.352C391.415 240.352 393.381 205.799 393.381 205.799Z" fill="white"/>
<path d="M380.407 140.032C381.524 151.926 385.226 164.078 388.117 172.152C390.059 177.564 395.8 180.603 401.373 179.185L423.199 173.625C433.13 171.097 440.394 162.821 441.797 152.903L454.097 151.108C462.813 149.837 468.854 141.743 467.583 133.026L467.122 129.849C465.851 121.132 457.756 115.091 449.033 116.362L443.606 117.151C440.917 117.543 438.571 118.8 436.804 120.602C432.571 108.84 425.147 97.1767 412.415 97.9449C410.501 98.0636 408.699 98.2452 406.995 98.4897C406.304 104.063 403.915 113.01 395.96 118.73C389.269 123.542 383.668 124.087 380.344 123.793C379.694 128.927 379.883 134.458 380.407 140.032Z" fill="white"/>
<path fill-rule="evenodd" clip-rule="evenodd" d="M453.849 124.205C453.71 123.251 452.823 122.59 451.869 122.729C445.375 123.676 440.877 129.707 441.824 136.202C441.963 137.156 442.849 137.817 443.803 137.678C444.757 137.539 445.418 136.653 445.279 135.699C444.611 131.112 447.787 126.853 452.373 126.185C453.327 126.046 453.988 125.16 453.849 124.205Z" fill="#573240"/>
<path fill-rule="evenodd" clip-rule="evenodd" d="M409.297 120.64C415.271 116.942 422.567 118.465 425.72 123.557C426.228 124.377 427.304 124.63 428.124 124.123C428.944 123.615 429.197 122.539 428.689 121.719C424.358 114.723 414.796 113.128 407.459 117.671C406.639 118.179 406.385 119.255 406.893 120.075C407.401 120.895 408.477 121.148 409.297 120.64Z" fill="#573240"/>
<path fill-rule="evenodd" clip-rule="evenodd" d="M395.553 126.159C391.251 122.241 385.753 121.288 380.104 121.946C379.337 122.035 378.788 122.729 378.878 123.495C378.967 124.261 379.66 124.81 380.427 124.721C385.576 124.121 390.161 125.027 393.672 128.225C397.215 131.451 399.917 137.234 400.766 146.944C400.833 147.713 401.511 148.281 402.279 148.214C403.048 148.147 403.617 147.469 403.549 146.701C402.669 136.64 399.825 130.049 395.553 126.159Z" fill="#573240"/>
<path d="M385.811 137.564C385.473 135.24 386.366 133.187 387.806 132.977C389.247 132.767 390.689 134.48 391.028 136.804C391.366 139.127 390.473 141.18 389.033 141.39C387.592 141.6 386.15 139.887 385.811 137.564Z" fill="#573240"/>
<path d="M413.201 132.145C412.862 129.82 413.756 127.765 415.198 127.555C416.639 127.344 418.083 129.059 418.422 131.384C418.76 133.709 417.866 135.765 416.425 135.975C414.983 136.185 413.54 134.47 413.201 132.145Z" fill="#573240"/>
<path fill-rule="evenodd" clip-rule="evenodd" d="M441.281 149.168C440.317 149.168 439.535 149.949 439.535 150.914C439.535 161.555 432.319 170.841 422.008 173.469L399.41 179.026L399.403 179.028C394.701 180.225 389.86 177.66 388.225 173.099C387.899 172.191 386.9 171.719 385.992 172.045C385.084 172.37 384.612 173.37 384.938 174.278C387.182 180.537 393.82 184.049 400.257 182.414L422.856 176.857L422.863 176.855C434.725 173.835 443.027 163.154 443.027 150.914C443.027 149.949 442.246 149.168 441.281 149.168Z" fill="#573240"/>
<path fill-rule="evenodd" clip-rule="evenodd" d="M413.545 147.844C412.779 147.754 412.085 148.302 411.995 149.068C411.506 153.227 407.751 155.808 403.297 155.286C402.531 155.196 401.837 155.744 401.747 156.51C401.657 157.276 402.205 157.97 402.972 158.06C408.654 158.727 414.067 155.372 414.77 149.394C414.86 148.628 414.312 147.934 413.545 147.844Z" fill="#573240"/>
</g>
<defs>
<clipPath id="clip0">
<rect width="774" height="573" fill="white"/>
</clipPath>
</defs>
</svg>
