<svg width="1430" height="1724" viewBox="0 0 1430 1724" fill="none" xmlns="http://www.w3.org/2000/svg">
<g clip-path="url(#clip0)">
<rect width="1430" height="1724" fill="white"/>
<path d="M215.531 332.599C215.531 304.319 243.35 281.394 277.667 281.394C311.984 281.394 339.803 304.319 339.803 332.599H215.531Z" fill="#B9CCF1"/>
<path d="M1067.02 332.599H339.679C325.889 318.462 317.637 300.51 317.637 280.966C317.637 235.413 362.454 198.479 417.731 198.479C431.038 198.479 443.729 200.621 455.346 204.512C475.623 153.139 534.206 116 603.314 116C685.347 116 752.548 168.326 758.461 234.679C790.138 220.707 828.393 212.541 869.605 212.541C974.63 212.541 1060.53 265.587 1067.02 332.599Z" fill="#B9CCF1"/>
<path d="M162 332.599H1102.19" stroke="#B9CCF1" stroke-width="5" stroke-miterlimit="10"/>
<path d="M495.902 319.183C499.581 319.183 502.564 316.725 502.564 313.693C502.564 310.661 499.581 308.203 495.902 308.203C492.223 308.203 489.24 310.661 489.24 313.693C489.24 316.725 492.223 319.183 495.902 319.183Z" stroke="#B9CCF1" stroke-width="4" stroke-miterlimit="10"/>
<path d="M513.102 784.66C513.102 770.342 527.186 758.735 544.56 758.735C561.934 758.735 576.018 770.342 576.018 784.66H513.102Z" fill="#B9CCF1"/>
<path d="M944.194 784.66H575.955C568.973 777.503 564.795 768.414 564.795 758.519C564.795 735.457 587.485 716.758 615.471 716.758C622.208 716.758 628.633 717.842 634.514 719.812C644.78 693.803 674.44 675 709.428 675C750.959 675 784.982 701.492 787.976 735.085C804.013 728.011 823.381 723.877 844.246 723.877C897.418 723.877 940.91 750.733 944.194 784.66Z" fill="#B9CCF1"/>
<path d="M486 784.66H962" stroke="#B9CCF1" stroke-width="5" stroke-miterlimit="10"/>
<path d="M655.049 777.867C656.911 777.867 658.421 776.623 658.421 775.088C658.421 773.553 656.911 772.309 655.049 772.309C653.186 772.309 651.676 773.553 651.676 775.088C651.676 776.623 653.186 777.867 655.049 777.867Z" stroke="#B9CCF1" stroke-width="4" stroke-miterlimit="10"/>
<path d="M191 1650.31C191 1571.57 254.839 1507.76 333.58 1507.76C368.2 1507.76 399.96 1520.12 424.655 1540.66C422.802 1529.52 421.851 1518.08 421.851 1506.44C421.851 1390.77 515.624 1297 631.314 1297C730.171 1297 813.04 1365.5 835.007 1457.63C866.37 1447.47 900.777 1441.88 936.852 1441.88C1053.15 1441.88 1152.08 1500.03 1188.56 1581.13C1198.69 1579.75 1209.28 1579.04 1220.19 1579.04C1292.68 1579.04 1351.41 1610.96 1351.41 1650.31H191V1650.31Z" fill="#A9D8D5"/>
<path d="M908.906 1552.39C895.737 1575.16 868.462 1588.85 868.462 1588.85C868.462 1588.85 862.537 1565.61 875.704 1542.84C888.871 1520.07 906.979 1503.75 916.148 1506.38C925.317 1509.02 922.076 1529.62 908.906 1552.39Z" fill="#FF6E00"/>
<path d="M377.952 1399.38C399.183 1428.87 394.801 1468.33 394.801 1468.33C394.801 1468.33 355.997 1459.96 334.767 1430.46C313.536 1400.96 305.993 1370.09 317.92 1361.51C329.845 1352.92 356.724 1369.88 377.952 1399.38Z" fill="#FF6E00"/>
<path d="M383.703 1582.88C405.11 1606.1 408.631 1637.67 408.631 1637.67C408.631 1637.67 377.444 1631.61 356.037 1608.39C334.63 1585.17 323.468 1560.64 331.109 1553.6C338.748 1546.55 362.294 1559.66 383.703 1582.88Z" fill="#573240"/>
<path d="M622.188 1561.14C601.696 1583.81 569.346 1594.68 569.346 1594.68C569.346 1594.68 575.813 1560.42 596.305 1537.75C616.797 1515.07 636.404 1506.11 643.554 1512.57C650.701 1519.02 642.681 1538.46 622.188 1561.14Z" fill="#FF6E00"/>
<path d="M1061.87 1580.56C1053.87 1602.83 1031.69 1615.24 1031.69 1615.24C1031.69 1615.24 1022.48 1591.54 1030.48 1569.28C1038.48 1547.01 1052 1531.49 1060.67 1534.61C1069.33 1537.72 1069.87 1558.3 1061.87 1580.56Z" fill="#573240"/>
<path d="M847.685 1577.77C860.152 1604.43 852.644 1631.02 852.644 1631.02C852.644 1631.02 824.919 1614.38 812.452 1587.72C799.984 1561.06 797.763 1537.22 807.492 1534.47C817.221 1531.72 835.217 1551.11 847.685 1577.77Z" fill="#573240"/>
<path d="M583.669 1480.04C586.605 1522.45 566.783 1562.58 566.783 1562.58C566.783 1562.58 541.943 1526.24 539.004 1483.83C536.068 1441.42 544.53 1409.79 556.142 1408.99C567.754 1408.19 580.73 1437.63 583.669 1480.04Z" fill="#573240"/>
<path d="M1328.35 1503.45L1300.25 1649.97L1252.89 1723.64C1234.47 1674.81 1198.41 1671.49 1198.41 1671.49C1206.26 1615.26 1174.23 1503.45 1174.23 1503.45H1328.35Z" fill="#F6ACC1"/>
<path d="M1322.21 1535.46L1328.35 1503.45H1174.23L1175.24 1507.08L1322.21 1535.46Z" fill="#573240"/>
<path d="M1252.89 1723.65H1154.93C1154.93 1723.65 1198.09 1694.06 1198.41 1671.49C1198.41 1671.49 1234.47 1674.81 1252.89 1723.65Z" fill="#96CFCE"/>
<path d="M1300.26 1649.96C1300.26 1649.96 1329.22 1670.72 1314.59 1723.65H1306.99C1306.99 1723.65 1304.84 1688.16 1269.66 1697.57L1300.26 1649.96Z" fill="#96CFCE"/>
<path d="M1300.26 1649.96L1252.89 1723.65H1154.93" stroke="#573240" stroke-width="5" stroke-miterlimit="10" stroke-linecap="round"/>
<path d="M1306.99 1723.65H1314.6" stroke="#573240" stroke-width="5" stroke-miterlimit="10" stroke-linecap="round"/>
<path d="M1023.41 1503.45L990.916 1649.97L934.741 1723.64C916.76 1675.98 881.994 1671.68 880.324 1671.5C889.386 1615.27 878.994 1503.45 878.994 1503.45H1023.41Z" fill="#F6ACC1"/>
<path d="M1016.87 1532.94L1023.41 1503.45H878.992C878.992 1503.45 878.864 1501.61 879.21 1505.8L1016.87 1532.94Z" fill="#573240"/>
<path d="M934.739 1723.65H836.779C836.779 1723.65 879.935 1694.06 880.26 1671.49C880.26 1671.49 916.316 1674.81 934.739 1723.65Z" fill="#96CFCE"/>
<path d="M990.915 1649.96C990.915 1649.96 1019.87 1670.72 1005.25 1723.64H997.648C997.648 1723.64 992.154 1686.8 955.025 1697.57L990.915 1649.96Z" fill="#96CFCE"/>
<path d="M990.917 1649.96L934.741 1723.65H836.781" stroke="#573240" stroke-width="5" stroke-miterlimit="10" stroke-linecap="round"/>
<path d="M997.648 1723.65H1005.25" stroke="#573240" stroke-width="5" stroke-miterlimit="10" stroke-linecap="round"/>
<path d="M828.004 941.132H713.574C697.793 941.132 685 928.339 685 912.558V880.229C685 864.448 697.793 851.655 713.574 851.655H828.004C843.785 851.655 856.578 864.448 856.578 880.229V912.558C856.578 928.338 843.785 941.132 828.004 941.132Z" fill="#573240"/>
<path d="M927.437 440.286V526.778C927.437 526.778 904.848 629.028 882.948 747.504L882.939 747.531L829.222 851.649L802.043 899.848C787.568 899.848 788.518 877.066 790.526 862.828C791.359 856.918 786.733 851.649 780.765 851.649H723.535C787.193 819.199 892.431 395.321 892.431 395.321C894.114 398.318 896.062 401.208 898.265 403.949L927.437 440.286Z" fill="#F6ACC1"/>
<path d="M1068.97 1005.17L1050.25 1127.98C1050.25 1127.98 1101.08 1373.62 1043.23 1503.45H878.311C878.311 1503.45 842.256 1237.94 842.354 1053.13C842.424 911.578 927.436 526.778 927.436 526.778V440.286L898.264 403.949C882.55 384.375 879.738 357.415 891.081 335.021L934.142 249.974C939.571 239.239 949.107 231.149 960.581 227.544L1007.22 212.87L1010.77 373.551L1130.96 199.853L1225.89 246.39L1135.64 522.679C1135.64 522.679 1352.03 808.666 1362.55 1503.45H1174.23L1068.97 1005.17Z" fill="#FF6E00"/>
<mask id="mask0" mask-type="alpha" maskUnits="userSpaceOnUse" x="842" y="206" width="521" height="1305">
<path d="M1068.97 1012.17L1050.25 1134.98C1050.25 1134.98 1101.08 1380.62 1043.23 1510.45H878.311C878.311 1510.45 842.256 1244.94 842.354 1060.13C842.424 918.578 927.436 533.778 927.436 533.778V447.286L898.264 410.949C882.55 391.375 879.738 364.415 891.081 342.021L934.142 256.974C939.571 246.239 949.107 238.149 960.581 234.544L1007.22 219.87L1010.77 380.551L1130.96 206.853L1225.89 253.39L1135.64 529.679C1135.64 529.679 1352.03 815.666 1362.55 1510.45H1174.23L1068.97 1012.17Z" fill="#FF6E00"/>
</mask>
<g mask="url(#mask0)">
<path fill-rule="evenodd" clip-rule="evenodd" d="M1391.88 1074.71L1356.82 1088.68C1354.09 1089.77 1352.76 1092.88 1353.84 1095.62C1354.92 1098.36 1358.02 1099.71 1360.75 1098.62L1395.8 1084.65C1398.54 1083.57 1399.88 1080.46 1398.79 1077.71C1397.71 1074.97 1394.62 1073.62 1391.88 1074.71ZM1293.87 1085.57L1256.18 1084.26C1253.24 1084.16 1250.78 1086.47 1250.68 1089.42C1250.57 1092.37 1252.87 1094.85 1255.81 1094.94L1293.5 1096.26C1296.44 1096.36 1298.91 1094.05 1299 1091.1C1299.11 1088.16 1296.8 1085.68 1293.87 1085.57ZM1335.98 1033.45L1329 1070.67C1328.46 1073.57 1330.36 1076.37 1333.24 1076.91C1336.13 1077.46 1338.92 1075.55 1339.46 1072.64L1346.44 1035.43C1346.98 1032.53 1345.08 1029.73 1342.19 1029.19C1339.31 1028.64 1336.52 1030.55 1335.98 1033.45ZM1217.62 1060.18L1253.95 1050C1256.78 1049.21 1258.43 1046.26 1257.64 1043.41C1256.85 1040.57 1253.92 1038.91 1251.09 1039.7L1214.77 1049.88C1211.93 1050.68 1210.28 1053.62 1211.07 1056.47C1211.86 1059.31 1214.79 1060.97 1217.62 1060.18ZM1274.9 1005.65L1295.55 1037.35C1297.16 1039.82 1300.46 1040.51 1302.92 1038.89C1305.37 1037.28 1306.07 1033.96 1304.46 1031.49L1283.82 999.797C1282.2 997.329 1278.9 996.634 1276.44 998.255C1273.99 999.868 1273.29 1003.18 1274.9 1005.65ZM1400.16 1010.75L1362.6 1007.36C1359.67 1007.09 1357.08 1009.27 1356.81 1012.21C1356.55 1015.15 1358.71 1017.74 1361.64 1018.01L1399.2 1021.4C1402.13 1021.66 1404.72 1019.49 1404.98 1016.55C1405.24 1013.61 1403.08 1011.01 1400.16 1010.75ZM1245.92 998.79L1263.28 965.176C1264.63 962.557 1263.61 959.323 1261 957.969C1258.39 956.606 1255.18 957.631 1253.82 960.25L1236.46 993.872C1235.11 996.491 1236.13 999.716 1238.74 1001.08C1241.35 1002.43 1244.56 1001.41 1245.92 998.79ZM1357.19 964.241L1323.01 980.277C1320.35 981.524 1319.21 984.705 1320.45 987.378C1321.69 990.05 1324.86 991.208 1327.52 989.961L1361.69 973.934C1364.35 972.678 1365.51 969.497 1364.26 966.825C1363.01 964.152 1359.85 962.994 1357.19 964.241ZM1304.8 956.161L1293.88 919.91C1293.02 917.086 1290.05 915.491 1287.24 916.338C1284.43 917.193 1282.84 920.186 1283.69 923.002L1294.61 959.261C1295.46 962.085 1298.44 963.68 1301.25 962.824C1304.06 961.969 1305.65 958.985 1304.8 956.161ZM1391.1 902.021L1391.43 939.884C1391.46 942.833 1393.86 945.212 1396.8 945.185C1399.74 945.158 1402.1 942.744 1402.08 939.795L1401.75 901.923C1401.72 898.974 1399.31 896.596 1396.37 896.622C1393.44 896.649 1391.08 899.063 1391.1 902.021ZM1355.45 898.066L1336.19 930.637C1334.7 933.167 1335.53 936.454 1338.06 937.96C1340.58 939.465 1343.85 938.628 1345.35 936.089L1364.6 903.527C1366.1 900.988 1365.27 897.709 1362.75 896.204C1360.22 894.698 1356.95 895.535 1355.45 898.066ZM1212.42 926.61L1249.6 932.988C1252.5 933.487 1255.25 931.527 1255.75 928.614C1256.24 925.71 1254.29 922.948 1251.39 922.449L1214.22 916.07C1211.32 915.58 1208.57 917.532 1208.08 920.445C1207.58 923.349 1209.53 926.111 1212.42 926.61ZM1261.52 894.137L1257.64 856.461C1257.35 853.53 1254.73 851.392 1251.81 851.695C1248.89 851.997 1246.76 854.626 1247.06 857.566L1250.93 895.232C1251.24 898.172 1253.86 900.311 1256.77 900.008C1259.69 899.705 1261.82 897.077 1261.52 894.137ZM1334.87 864.123L1298.39 873.726C1295.54 874.475 1293.84 877.397 1294.59 880.248C1295.33 883.099 1298.25 884.809 1301.09 884.061L1337.57 874.457C1340.41 873.717 1342.11 870.786 1341.37 867.936C1340.62 865.085 1337.71 863.374 1334.87 864.123ZM1355.12 831.355L1368.78 866.662C1369.84 869.406 1372.92 870.778 1375.67 869.708C1378.41 868.639 1379.76 865.539 1378.7 862.786L1365.05 827.489C1363.98 824.736 1360.89 823.373 1358.16 824.442C1355.42 825.502 1354.05 828.603 1355.12 831.355ZM1270.62 814.553L1298.25 840.336C1300.4 842.349 1303.77 842.224 1305.77 840.06C1307.77 837.904 1307.65 834.518 1305.49 832.505L1277.87 806.722C1275.72 804.718 1272.34 804.834 1270.35 806.999C1268.34 809.163 1268.47 812.54 1270.62 814.553ZM1242.12 797.368L1217.84 826.349C1215.95 828.603 1216.23 831.979 1218.48 833.877C1220.73 835.774 1224.09 835.48 1225.98 833.226L1250.26 804.246C1252.15 801.992 1251.86 798.615 1249.62 796.718C1247.37 794.811 1244.01 795.105 1242.12 797.368ZM1328.08 782L1340.08 782.116L1323.42 813.52C1322.04 816.121 1318.81 817.11 1316.22 815.72C1313.62 814.33 1312.64 811.097 1314.02 808.486L1328.08 782ZM1397.8 797.742C1399.63 800.29 1401.52 803.337 1403.29 806.918L1388.51 814.838C1385.92 816.228 1382.69 815.248 1381.32 812.647C1379.93 810.036 1380.91 806.802 1383.5 805.413L1397.8 797.742Z" fill="white"/>
<path fill-rule="evenodd" clip-rule="evenodd" d="M1181.88 968.712L1146.82 982.681C1144.09 983.768 1142.76 986.877 1143.84 989.621C1144.92 992.365 1148.02 993.71 1150.75 992.623L1185.8 978.654C1188.54 977.567 1189.88 974.458 1188.79 971.714C1187.71 968.97 1184.62 967.625 1181.88 968.712ZM1083.87 979.572L1046.18 978.262C1043.24 978.164 1040.78 980.472 1040.68 983.42C1040.57 986.369 1042.87 988.846 1045.81 988.944L1083.5 990.262C1086.44 990.36 1088.91 988.053 1089 985.104C1089.11 982.155 1086.8 979.679 1083.87 979.572ZM1125.98 927.454L1119 964.667C1118.46 967.571 1120.36 970.369 1123.24 970.912C1126.13 971.456 1128.92 969.549 1129.46 966.645L1136.44 929.432C1136.98 926.528 1135.08 923.731 1132.19 923.187C1129.31 922.644 1126.52 924.55 1125.98 927.454ZM1007.62 954.181L1043.95 943.998C1046.78 943.206 1048.43 940.257 1047.64 937.415C1046.85 934.573 1043.92 932.907 1041.09 933.7L1004.77 943.883C1001.93 944.675 1000.28 947.624 1001.07 950.466C1001.86 953.308 1004.79 954.965 1007.62 954.181ZM1064.9 899.65L1085.55 931.348C1087.16 933.815 1090.46 934.51 1092.92 932.889C1095.37 931.276 1096.07 927.962 1094.46 925.495L1073.82 893.797C1072.2 891.329 1068.9 890.634 1066.44 892.255C1063.99 893.868 1063.29 897.182 1064.9 899.65ZM1190.16 904.755L1152.6 901.36C1149.67 901.093 1147.08 903.267 1146.81 906.207C1146.55 909.147 1148.71 911.739 1151.64 912.006L1189.2 915.401C1192.13 915.659 1194.72 913.494 1194.98 910.554C1195.24 907.614 1193.08 905.013 1190.16 904.755ZM1035.92 892.79L1053.28 859.176C1054.63 856.557 1053.61 853.323 1051 851.969C1048.39 850.606 1045.18 851.631 1043.82 854.25L1026.46 887.872C1025.11 890.491 1026.13 893.716 1028.74 895.079C1031.35 896.434 1034.56 895.409 1035.92 892.79ZM1147.19 858.241L1113.01 874.277C1110.35 875.524 1109.21 878.705 1110.45 881.378C1111.69 884.05 1114.86 885.208 1117.52 883.961L1151.69 867.934C1154.35 866.678 1155.51 863.497 1154.26 860.825C1153.01 858.152 1149.85 856.994 1147.19 858.241ZM1094.8 850.161L1083.88 813.91C1083.02 811.086 1080.05 809.491 1077.24 810.338C1074.43 811.193 1072.84 814.186 1073.69 817.002L1084.61 853.261C1085.46 856.085 1088.44 857.68 1091.25 856.824C1094.06 855.969 1095.65 852.985 1094.8 850.161ZM1181.1 796.021L1181.43 833.884C1181.46 836.833 1183.86 839.212 1186.8 839.185C1189.74 839.158 1192.1 836.744 1192.08 833.795L1191.75 795.923C1191.72 792.974 1189.31 790.596 1186.37 790.622C1183.44 790.649 1181.08 793.063 1181.1 796.021ZM1145.45 792.066L1126.19 824.637C1124.7 827.167 1125.53 830.454 1128.06 831.96C1130.58 833.465 1133.85 832.628 1135.35 830.089L1154.6 797.527C1156.1 794.988 1155.27 791.709 1152.75 790.204C1150.22 788.698 1146.95 789.535 1145.45 792.066ZM1002.42 820.61L1039.6 826.988C1042.5 827.487 1045.25 825.527 1045.75 822.614C1046.24 819.71 1044.29 816.948 1041.39 816.449L1004.22 810.07C1001.32 809.58 998.565 811.532 998.077 814.445C997.58 817.349 999.532 820.111 1002.42 820.61ZM1051.52 788.137L1047.64 750.461C1047.35 747.53 1044.73 745.392 1041.81 745.695C1038.89 745.997 1036.76 748.626 1037.06 751.566L1040.93 789.232C1041.24 792.172 1043.86 794.311 1046.77 794.008C1049.69 793.705 1051.82 791.077 1051.52 788.137ZM1124.87 758.123L1088.39 767.726C1085.54 768.475 1083.84 771.397 1084.59 774.248C1085.33 777.099 1088.25 778.809 1091.09 778.061L1127.57 768.457C1130.41 767.717 1132.11 764.786 1131.37 761.936C1130.62 759.085 1127.71 757.374 1124.87 758.123ZM1145.12 725.355L1158.78 760.662C1159.84 763.406 1162.92 764.778 1165.67 763.708C1168.41 762.639 1169.76 759.539 1168.7 756.786L1155.05 721.489C1153.98 718.736 1150.89 717.373 1148.16 718.442C1145.42 719.502 1144.05 722.603 1145.12 725.355ZM1060.62 708.553L1088.25 734.336C1090.4 736.349 1093.77 736.224 1095.77 734.06C1097.77 731.904 1097.65 728.518 1095.49 726.505L1067.87 700.722C1065.72 698.718 1062.34 698.834 1060.35 700.999C1058.34 703.163 1058.47 706.54 1060.62 708.553ZM1032.12 691.368L1007.84 720.349C1005.95 722.603 1006.23 725.979 1008.48 727.877C1010.73 729.774 1014.09 729.48 1015.98 727.226L1040.26 698.246C1042.15 695.992 1041.86 692.615 1039.62 690.718C1037.37 688.811 1034.01 689.105 1032.12 691.368ZM1118.08 676L1130.08 676.116L1113.42 707.52C1112.04 710.121 1108.81 711.11 1106.22 709.72C1103.62 708.33 1102.64 705.097 1104.02 702.486L1118.08 676ZM1187.8 691.742C1189.63 694.29 1191.52 697.337 1193.29 700.918L1178.51 708.838C1175.92 710.228 1172.69 709.248 1171.32 706.647C1169.93 704.036 1170.91 700.802 1173.5 699.413L1187.8 691.742Z" fill="white"/>
<path fill-rule="evenodd" clip-rule="evenodd" d="M1314.88 1702.25L1279.82 1716.22C1277.09 1717.31 1275.76 1720.42 1276.84 1723.16C1277.92 1725.91 1281.02 1727.25 1283.75 1726.16L1318.8 1712.19C1321.54 1711.11 1322.88 1708 1321.79 1705.25C1320.71 1702.51 1317.62 1701.17 1314.88 1702.25ZM1216.87 1713.11L1179.18 1711.8C1176.24 1711.7 1173.78 1714.01 1173.68 1716.96C1173.57 1719.91 1175.87 1722.39 1178.81 1722.48L1216.5 1723.8C1219.44 1723.9 1221.91 1721.59 1222 1718.64C1222.11 1715.7 1219.8 1713.22 1216.87 1713.11ZM1258.98 1661L1252 1698.21C1251.46 1701.11 1253.36 1703.91 1256.24 1704.45C1259.13 1705 1261.92 1703.09 1262.46 1700.19L1269.44 1662.97C1269.98 1660.07 1268.08 1657.27 1265.19 1656.73C1262.31 1656.18 1259.52 1658.09 1258.98 1661ZM1140.62 1687.72L1176.95 1677.54C1179.78 1676.75 1181.43 1673.8 1180.64 1670.96C1179.85 1668.11 1176.92 1666.45 1174.09 1667.24L1137.77 1677.42C1134.93 1678.22 1133.28 1681.17 1134.07 1684.01C1134.86 1686.85 1137.79 1688.51 1140.62 1687.72ZM1197.9 1633.19L1218.55 1664.89C1220.16 1667.36 1223.46 1668.05 1225.92 1666.43C1228.37 1664.82 1229.07 1661.5 1227.46 1659.04L1206.82 1627.34C1205.2 1624.87 1201.9 1624.17 1199.44 1625.8C1196.99 1627.41 1196.29 1630.72 1197.9 1633.19ZM1323.16 1638.3L1285.6 1634.9C1282.67 1634.63 1280.08 1636.81 1279.81 1639.75C1279.55 1642.69 1281.71 1645.28 1284.64 1645.55L1322.2 1648.94C1325.13 1649.2 1327.72 1647.03 1327.98 1644.1C1328.24 1641.16 1326.08 1638.55 1323.16 1638.3ZM1168.92 1626.33L1186.28 1592.72C1187.63 1590.1 1186.61 1586.86 1184 1585.51C1181.39 1584.15 1178.18 1585.17 1176.82 1587.79L1159.46 1621.41C1158.11 1624.03 1159.13 1627.26 1161.74 1628.62C1164.35 1629.97 1167.56 1628.95 1168.92 1626.33ZM1280.19 1591.78L1246.01 1607.82C1243.35 1609.07 1242.21 1612.25 1243.45 1614.92C1244.69 1617.59 1247.86 1618.75 1250.52 1617.5L1284.69 1601.47C1287.35 1600.22 1288.51 1597.04 1287.26 1594.37C1286.01 1591.69 1282.85 1590.53 1280.19 1591.78ZM1227.8 1583.7L1216.88 1547.45C1216.02 1544.63 1213.05 1543.03 1210.24 1543.88C1207.43 1544.73 1205.84 1547.73 1206.69 1550.54L1217.61 1586.8C1218.46 1589.63 1221.44 1591.22 1224.25 1590.37C1227.06 1589.51 1228.65 1586.53 1227.8 1583.7ZM1314.1 1529.56L1314.43 1567.42C1314.46 1570.37 1316.86 1572.75 1319.8 1572.73C1322.74 1572.7 1325.1 1570.28 1325.08 1567.34L1324.75 1529.46C1324.72 1526.51 1322.31 1524.14 1319.37 1524.16C1316.44 1524.19 1314.08 1526.6 1314.1 1529.56ZM1278.45 1525.61L1259.19 1558.18C1257.7 1560.71 1258.53 1563.99 1261.06 1565.5C1263.58 1567.01 1266.85 1566.17 1268.35 1563.63L1287.6 1531.07C1289.1 1528.53 1288.27 1525.25 1285.75 1523.74C1283.22 1522.24 1279.95 1523.08 1278.45 1525.61ZM1135.42 1554.15L1172.6 1560.53C1175.5 1561.03 1178.25 1559.07 1178.75 1556.16C1179.24 1553.25 1177.29 1550.49 1174.39 1549.99L1137.22 1543.61C1134.32 1543.12 1131.57 1545.07 1131.08 1547.99C1130.58 1550.89 1132.53 1553.65 1135.42 1554.15ZM1184.52 1521.68L1180.64 1484C1180.35 1481.07 1177.73 1478.93 1174.81 1479.24C1171.89 1479.54 1169.76 1482.17 1170.06 1485.11L1173.93 1522.77C1174.24 1525.71 1176.86 1527.85 1179.77 1527.55C1182.69 1527.25 1184.82 1524.62 1184.52 1521.68ZM1257.87 1491.66L1221.39 1501.27C1218.54 1502.02 1216.84 1504.94 1217.59 1507.79C1218.33 1510.64 1221.25 1512.35 1224.09 1511.6L1260.57 1502C1263.41 1501.26 1265.11 1498.33 1264.37 1495.48C1263.62 1492.63 1260.71 1490.91 1257.87 1491.66ZM1278.12 1458.9L1291.78 1494.2C1292.84 1496.95 1295.92 1498.32 1298.67 1497.25C1301.41 1496.18 1302.76 1493.08 1301.7 1490.33L1288.05 1455.03C1286.98 1452.28 1283.89 1450.91 1281.16 1451.98C1278.42 1453.04 1277.05 1456.14 1278.12 1458.9ZM1193.62 1442.09L1221.25 1467.88C1223.4 1469.89 1226.77 1469.77 1228.77 1467.6C1230.77 1465.44 1230.65 1462.06 1228.49 1460.05L1200.87 1434.26C1198.72 1432.26 1195.34 1432.37 1193.35 1434.54C1191.34 1436.7 1191.47 1440.08 1193.62 1442.09ZM1165.12 1424.91L1140.84 1453.89C1138.95 1456.14 1139.23 1459.52 1141.48 1461.42C1143.73 1463.32 1147.09 1463.02 1148.98 1460.77L1173.26 1431.79C1175.15 1429.53 1174.86 1426.16 1172.62 1424.26C1170.37 1422.35 1167.01 1422.65 1165.12 1424.91Z" fill="white"/>
<path fill-rule="evenodd" clip-rule="evenodd" d="M1050.88 672.253L1015.82 686.222C1013.09 687.309 1011.76 690.418 1012.84 693.162C1013.92 695.906 1017.02 697.251 1019.75 696.164L1054.8 682.195C1057.54 681.108 1058.88 677.999 1057.79 675.255C1056.71 672.511 1053.62 671.166 1050.88 672.253ZM952.868 683.112L915.18 681.803C912.244 681.705 909.777 684.012 909.68 686.961C909.573 689.91 911.871 692.387 914.808 692.485L952.504 693.803C955.44 693.901 957.907 691.594 958.004 688.645C958.111 685.696 955.804 683.219 952.868 683.112ZM994.982 630.995L988 668.208C987.459 671.112 989.357 673.91 992.241 674.453C995.133 674.996 997.919 673.09 998.46 670.186L1005.44 632.973C1005.98 630.069 1004.08 627.271 1001.19 626.728C998.309 626.185 995.523 628.091 994.982 630.995ZM876.623 657.722L912.953 647.539C915.783 646.746 917.434 643.797 916.644 640.955C915.854 638.114 912.918 636.448 910.088 637.24L873.767 647.423C870.928 648.216 869.277 651.165 870.067 654.007C870.857 656.849 873.793 658.506 876.623 657.722ZM933.9 603.191L954.553 634.888C956.159 637.356 959.459 638.051 961.917 636.43C964.374 634.817 965.066 631.503 963.46 629.035L942.816 597.337C941.201 594.87 937.901 594.175 935.443 595.796C932.986 597.409 932.294 600.723 933.9 603.191ZM1059.16 608.295L1021.6 604.901C1018.67 604.634 1016.08 606.808 1015.81 609.747C1015.55 612.687 1017.71 615.28 1020.64 615.547L1058.2 618.941C1061.13 619.2 1063.72 617.035 1063.98 614.095C1064.24 611.155 1062.08 608.554 1059.16 608.295ZM904.915 596.331L922.278 562.717C923.626 560.098 922.606 556.864 919.998 555.51C917.389 554.147 914.178 555.171 912.82 557.791L895.458 591.413C894.11 594.032 895.13 597.257 897.738 598.62C900.347 599.974 903.558 598.95 904.915 596.331ZM1016.19 561.782L982.011 577.818C979.35 579.065 978.205 582.246 979.447 584.918C980.689 587.591 983.857 588.749 986.518 587.502L1020.69 571.475C1023.35 570.219 1024.51 567.038 1023.26 564.365C1022.01 561.693 1018.85 560.535 1016.19 561.782ZM963.798 553.701L952.876 517.451C952.025 514.627 949.053 513.032 946.24 513.879C943.428 514.734 941.84 517.727 942.692 520.542L953.613 556.802C954.456 559.626 957.436 561.221 960.249 560.365C963.061 559.51 964.649 556.526 963.798 553.701ZM1050.1 499.562L1050.43 537.425C1050.46 540.374 1052.86 542.752 1055.8 542.726C1058.74 542.699 1061.1 540.285 1061.08 537.336L1060.75 499.464C1060.72 496.515 1058.31 494.136 1055.37 494.163C1052.44 494.19 1050.08 496.604 1050.1 499.562ZM1014.45 495.606L995.195 528.177C993.696 530.707 994.529 533.995 997.058 535.501C999.577 537.006 1002.85 536.169 1004.35 533.63L1023.6 501.067C1025.1 498.528 1024.27 495.25 1021.75 493.744C1019.22 492.239 1015.95 493.076 1014.45 495.606ZM871.424 524.151L908.597 530.529C911.498 531.028 914.249 529.068 914.745 526.155C915.242 523.251 913.29 520.489 910.389 519.99L873.217 513.611C870.324 513.121 867.565 515.072 867.077 517.986C866.58 520.89 868.532 523.652 871.424 524.151ZM920.521 491.677L916.644 454.002C916.351 451.071 913.725 448.932 910.806 449.235C907.888 449.538 905.758 452.166 906.06 455.106L909.928 492.773C910.239 495.713 912.856 497.851 915.775 497.549C918.693 497.246 920.823 494.617 920.521 491.677ZM993.873 461.663L957.392 471.267C954.544 472.016 952.841 474.938 953.586 477.788C954.331 480.639 957.25 482.35 960.089 481.602L996.57 471.998C999.409 471.258 1001.11 468.327 1000.37 465.476C999.622 462.626 996.712 460.915 993.873 461.663ZM1014.12 428.896L1027.78 464.202C1028.84 466.946 1031.92 468.318 1034.67 467.249C1037.41 466.18 1038.76 463.08 1037.7 460.327L1024.05 425.03C1022.98 422.277 1019.89 420.914 1017.16 421.983C1014.42 423.043 1013.05 426.143 1014.12 428.896ZM929.623 412.094L957.25 437.876C959.397 439.89 962.768 439.765 964.773 437.6C966.77 435.444 966.645 432.059 964.49 430.046L936.872 404.263C934.716 402.259 931.345 402.374 929.348 404.539C927.343 406.704 927.468 410.081 929.623 412.094ZM901.118 394.909L876.836 423.889C874.947 426.143 875.231 429.52 877.484 431.417C879.729 433.315 883.091 433.021 884.981 430.767L909.263 401.786C911.152 399.532 910.86 396.156 908.615 394.258C906.37 392.352 903.008 392.646 901.118 394.909Z" fill="white"/>
<path fill-rule="evenodd" clip-rule="evenodd" d="M1239.88 435.253L1204.82 449.222C1202.09 450.309 1200.76 453.418 1201.84 456.162C1202.92 458.906 1206.02 460.251 1208.75 459.164L1243.8 445.195C1246.54 444.108 1247.88 440.999 1246.79 438.255C1245.71 435.511 1242.62 434.166 1239.88 435.253ZM1141.87 446.112L1104.18 444.803C1101.24 444.705 1098.78 447.012 1098.68 449.961C1098.57 452.91 1100.87 455.387 1103.81 455.485L1141.5 456.803C1144.44 456.901 1146.91 454.594 1147 451.645C1147.11 448.696 1144.8 446.219 1141.87 446.112ZM1183.98 393.995L1177 431.208C1176.46 434.112 1178.36 436.91 1181.24 437.453C1184.13 437.996 1186.92 436.09 1187.46 433.186L1194.44 395.973C1194.98 393.069 1193.08 390.271 1190.19 389.728C1187.31 389.185 1184.52 391.091 1183.98 393.995ZM1065.62 420.722L1101.95 410.539C1104.78 409.746 1106.43 406.797 1105.64 403.955C1104.85 401.114 1101.92 399.448 1099.09 400.24L1062.77 410.423C1059.93 411.216 1058.28 414.165 1059.07 417.007C1059.86 419.849 1062.79 421.506 1065.62 420.722ZM1122.9 366.191L1143.55 397.888C1145.16 400.356 1148.46 401.051 1150.92 399.43C1153.37 397.817 1154.07 394.503 1152.46 392.035L1131.82 360.337C1130.2 357.87 1126.9 357.175 1124.44 358.796C1121.99 360.409 1121.29 363.723 1122.9 366.191ZM1248.16 371.295L1210.6 367.901C1207.67 367.634 1205.08 369.808 1204.81 372.747C1204.55 375.687 1206.71 378.28 1209.64 378.547L1247.2 381.941C1250.13 382.2 1252.72 380.035 1252.98 377.095C1253.24 374.155 1251.08 371.554 1248.16 371.295ZM1093.92 359.331L1111.28 325.717C1112.63 323.098 1111.61 319.864 1109 318.51C1106.39 317.147 1103.18 318.171 1101.82 320.791L1084.46 354.413C1083.11 357.032 1084.13 360.257 1086.74 361.62C1089.35 362.974 1092.56 361.95 1093.92 359.331ZM1205.19 324.782L1171.01 340.818C1168.35 342.065 1167.21 345.246 1168.45 347.918C1169.69 350.591 1172.86 351.749 1175.52 350.502L1209.69 334.475C1212.35 333.219 1213.51 330.038 1212.26 327.365C1211.01 324.693 1207.85 323.535 1205.19 324.782ZM1152.8 316.701L1141.88 280.451C1141.02 277.627 1138.05 276.032 1135.24 276.879C1132.43 277.734 1130.84 280.727 1131.69 283.542L1142.61 319.802C1143.46 322.626 1146.44 324.221 1149.25 323.365C1152.06 322.51 1153.65 319.526 1152.8 316.701ZM1239.1 262.562L1239.43 300.425C1239.46 303.374 1241.86 305.752 1244.8 305.726C1247.74 305.699 1250.1 303.285 1250.08 300.336L1249.75 262.464C1249.72 259.515 1247.31 257.136 1244.37 257.163C1241.44 257.19 1239.08 259.604 1239.1 262.562ZM1203.45 258.606L1184.19 291.177C1182.7 293.707 1183.53 296.995 1186.06 298.501C1188.58 300.006 1191.85 299.169 1193.35 296.63L1212.6 264.067C1214.1 261.528 1213.27 258.25 1210.75 256.744C1208.22 255.239 1204.95 256.076 1203.45 258.606ZM1060.42 287.151L1097.6 293.529C1100.5 294.028 1103.25 292.068 1103.75 289.155C1104.24 286.251 1102.29 283.489 1099.39 282.99L1062.22 276.611C1059.32 276.121 1056.57 278.072 1056.08 280.986C1055.58 283.89 1057.53 286.652 1060.42 287.151ZM1109.52 254.677L1105.64 217.002C1105.35 214.071 1102.73 211.932 1099.81 212.235C1096.89 212.538 1094.76 215.166 1095.06 218.106L1098.93 255.773C1099.24 258.713 1101.86 260.851 1104.77 260.549C1107.69 260.246 1109.82 257.617 1109.52 254.677ZM1182.87 224.663L1146.39 234.267C1143.54 235.016 1141.84 237.938 1142.59 240.788C1143.33 243.639 1146.25 245.35 1149.09 244.602L1185.57 234.998C1188.41 234.258 1190.11 231.327 1189.37 228.476C1188.62 225.626 1185.71 223.915 1182.87 224.663ZM1203.12 191.896L1216.78 227.202C1217.84 229.946 1220.92 231.318 1223.67 230.249C1226.41 229.18 1227.76 226.08 1226.7 223.327L1213.05 188.03C1211.98 185.277 1208.89 183.914 1206.16 184.983C1203.42 186.043 1202.05 189.143 1203.12 191.896ZM1118.62 175.094L1146.25 200.876C1148.4 202.89 1151.77 202.765 1153.77 200.6C1155.77 198.444 1155.65 195.059 1153.49 193.046L1125.87 167.263C1123.72 165.259 1120.34 165.374 1118.35 167.539C1116.34 169.704 1116.47 173.081 1118.62 175.094ZM1090.12 157.909L1065.84 186.889C1063.95 189.143 1064.23 192.52 1066.48 194.417C1068.73 196.315 1072.09 196.021 1073.98 193.767L1098.26 164.786C1100.15 162.532 1099.86 159.156 1097.62 157.258C1095.37 155.352 1092.01 155.646 1090.12 157.909Z" fill="white"/>
<path fill-rule="evenodd" clip-rule="evenodd" d="M1053.88 358.253L1018.82 372.222C1016.09 373.309 1014.76 376.418 1015.84 379.162C1016.92 381.906 1020.02 383.251 1022.75 382.164L1057.8 368.195C1060.54 367.108 1061.88 363.999 1060.79 361.255C1059.71 358.511 1056.62 357.166 1053.88 358.253ZM955.868 369.112L918.18 367.803C915.244 367.705 912.777 370.012 912.68 372.961C912.573 375.91 914.871 378.387 917.808 378.485L955.504 379.803C958.44 379.901 960.907 377.594 961.004 374.645C961.111 371.696 958.804 369.219 955.868 369.112ZM997.982 316.995L991 354.208C990.459 357.112 992.357 359.91 995.241 360.453C998.133 360.996 1000.92 359.09 1001.46 356.186L1008.44 318.973C1008.98 316.069 1007.08 313.271 1004.19 312.728C1001.31 312.185 998.523 314.091 997.982 316.995ZM879.623 343.722L915.953 333.539C918.783 332.746 920.434 329.797 919.644 326.955C918.854 324.114 915.918 322.448 913.088 323.24L876.767 333.423C873.928 334.216 872.277 337.165 873.067 340.007C873.857 342.849 876.793 344.506 879.623 343.722ZM936.9 289.191L957.553 320.888C959.159 323.356 962.459 324.051 964.917 322.43C967.374 320.817 968.066 317.503 966.46 315.035L945.816 283.337C944.201 280.87 940.901 280.175 938.443 281.796C935.986 283.409 935.294 286.723 936.9 289.191ZM1062.16 294.295L1024.6 290.901C1021.67 290.634 1019.08 292.808 1018.81 295.747C1018.55 298.687 1020.71 301.28 1023.64 301.547L1061.2 304.941C1064.13 305.2 1066.72 303.035 1066.98 300.095C1067.24 297.155 1065.08 294.554 1062.16 294.295ZM907.915 282.331L925.278 248.717C926.626 246.098 925.606 242.864 922.998 241.51C920.389 240.147 917.178 241.171 915.82 243.791L898.458 277.413C897.11 280.032 898.13 283.257 900.738 284.62C903.347 285.974 906.558 284.95 907.915 282.331ZM1019.19 247.782L985.011 263.818C982.35 265.065 981.205 268.246 982.447 270.918C983.689 273.591 986.857 274.749 989.518 273.502L1023.69 257.475C1026.35 256.219 1027.51 253.038 1026.26 250.365C1025.01 247.693 1021.85 246.535 1019.19 247.782ZM966.798 239.701L955.876 203.451C955.025 200.627 952.053 199.032 949.24 199.879C946.428 200.734 944.84 203.727 945.692 206.542L956.613 242.802C957.456 245.626 960.436 247.221 963.249 246.365C966.061 245.51 967.649 242.526 966.798 239.701ZM1053.1 185.562L1053.43 223.425C1053.46 226.374 1055.86 228.752 1058.8 228.726C1061.74 228.699 1064.1 226.285 1064.08 223.336L1063.75 185.464C1063.72 182.515 1061.31 180.136 1058.37 180.163C1055.44 180.19 1053.08 182.604 1053.1 185.562ZM1017.45 181.606L998.195 214.177C996.696 216.707 997.529 219.995 1000.06 221.501C1002.58 223.006 1005.85 222.169 1007.35 219.63L1026.6 187.067C1028.1 184.528 1027.27 181.25 1024.75 179.744C1022.22 178.239 1018.95 179.076 1017.45 181.606ZM874.424 210.151L911.597 216.529C914.498 217.028 917.249 215.068 917.745 212.155C918.242 209.251 916.29 206.489 913.389 205.99L876.217 199.611C873.324 199.121 870.565 201.072 870.077 203.986C869.58 206.89 871.532 209.652 874.424 210.151ZM923.521 177.677L919.644 140.002C919.351 137.071 916.725 134.932 913.806 135.235C910.888 135.538 908.758 138.166 909.06 141.106L912.928 178.773C913.239 181.713 915.856 183.851 918.775 183.549C921.693 183.246 923.823 180.617 923.521 177.677ZM996.873 147.663L960.392 157.267C957.544 158.016 955.841 160.938 956.586 163.788C957.331 166.639 960.25 168.35 963.089 167.602L999.57 157.998C1002.41 157.258 1004.11 154.327 1003.37 151.476C1002.62 148.626 999.712 146.915 996.873 147.663ZM1017.12 114.896L1030.78 150.202C1031.84 152.946 1034.92 154.318 1037.67 153.249C1040.41 152.18 1041.76 149.08 1040.7 146.327L1027.05 111.03C1025.98 108.277 1022.89 106.914 1020.16 107.983C1017.42 109.043 1016.05 112.143 1017.12 114.896ZM932.623 98.094L960.25 123.876C962.397 125.89 965.768 125.765 967.773 123.6C969.77 121.444 969.645 118.059 967.49 116.046L939.872 90.2631C937.716 88.2586 934.345 88.3744 932.348 90.5393C930.343 92.7042 930.468 96.0806 932.623 98.094ZM904.118 80.9087L879.836 109.889C877.947 112.143 878.231 115.52 880.484 117.417C882.729 119.315 886.091 119.021 887.981 116.767L912.263 87.7864C914.152 85.5324 913.86 82.156 911.615 80.2584C909.37 78.3518 906.008 78.6458 904.118 80.9087Z" fill="white"/>
<path fill-rule="evenodd" clip-rule="evenodd" d="M1286.88 674.253L1251.82 688.222C1249.09 689.309 1247.76 692.418 1248.84 695.162C1249.92 697.906 1253.02 699.251 1255.75 698.164L1290.8 684.195C1293.54 683.108 1294.88 679.999 1293.79 677.255C1292.71 674.511 1289.62 673.166 1286.88 674.253ZM1188.87 685.112L1151.18 683.803C1148.24 683.705 1145.78 686.012 1145.68 688.961C1145.57 691.91 1147.87 694.387 1150.81 694.485L1188.5 695.803C1191.44 695.901 1193.91 693.594 1194 690.645C1194.11 687.696 1191.8 685.219 1188.87 685.112ZM1230.98 632.995L1224 670.208C1223.46 673.112 1225.36 675.91 1228.24 676.453C1231.13 676.996 1233.92 675.09 1234.46 672.186L1241.44 634.973C1241.98 632.069 1240.08 629.271 1237.19 628.728C1234.31 628.185 1231.52 630.091 1230.98 632.995ZM1112.62 659.722L1148.95 649.539C1151.78 648.746 1153.43 645.797 1152.64 642.955C1151.85 640.114 1148.92 638.448 1146.09 639.24L1109.77 649.423C1106.93 650.216 1105.28 653.165 1106.07 656.007C1106.86 658.849 1109.79 660.506 1112.62 659.722ZM1169.9 605.191L1190.55 636.888C1192.16 639.356 1195.46 640.051 1197.92 638.43C1200.37 636.817 1201.07 633.503 1199.46 631.035L1178.82 599.337C1177.2 596.87 1173.9 596.175 1171.44 597.796C1168.99 599.409 1168.29 602.723 1169.9 605.191ZM1295.16 610.295L1257.6 606.901C1254.67 606.634 1252.08 608.808 1251.81 611.747C1251.55 614.687 1253.71 617.28 1256.64 617.547L1294.2 620.941C1297.13 621.2 1299.72 619.035 1299.98 616.095C1300.24 613.155 1298.08 610.554 1295.16 610.295ZM1140.92 598.331L1158.28 564.717C1159.63 562.098 1158.61 558.864 1156 557.51C1153.39 556.147 1150.18 557.171 1148.82 559.791L1131.46 593.413C1130.11 596.032 1131.13 599.257 1133.74 600.62C1136.35 601.974 1139.56 600.95 1140.92 598.331ZM1252.19 563.782L1218.01 579.818C1215.35 581.065 1214.21 584.246 1215.45 586.918C1216.69 589.591 1219.86 590.749 1222.52 589.502L1256.69 573.475C1259.35 572.219 1260.51 569.038 1259.26 566.365C1258.01 563.693 1254.85 562.535 1252.19 563.782ZM1199.8 555.701L1188.88 519.451C1188.02 516.627 1185.05 515.032 1182.24 515.879C1179.43 516.734 1177.84 519.727 1178.69 522.542L1189.61 558.802C1190.46 561.626 1193.44 563.221 1196.25 562.365C1199.06 561.51 1200.65 558.526 1199.8 555.701ZM1286.1 501.562L1286.43 539.425C1286.46 542.374 1288.86 544.752 1291.8 544.726C1294.74 544.699 1297.1 542.285 1297.08 539.336L1296.75 501.464C1296.72 498.515 1294.31 496.136 1291.37 496.163C1288.44 496.19 1286.08 498.604 1286.1 501.562ZM1250.45 497.606L1231.19 530.177C1229.7 532.707 1230.53 535.995 1233.06 537.501C1235.58 539.006 1238.85 538.169 1240.35 535.63L1259.6 503.067C1261.1 500.528 1260.27 497.25 1257.75 495.744C1255.22 494.239 1251.95 495.076 1250.45 497.606ZM1107.42 526.151L1144.6 532.529C1147.5 533.028 1150.25 531.068 1150.75 528.155C1151.24 525.251 1149.29 522.489 1146.39 521.99L1109.22 515.611C1106.32 515.121 1103.57 517.072 1103.08 519.986C1102.58 522.89 1104.53 525.652 1107.42 526.151ZM1156.52 493.677L1152.64 456.002C1152.35 453.071 1149.73 450.932 1146.81 451.235C1143.89 451.538 1141.76 454.166 1142.06 457.106L1145.93 494.773C1146.24 497.713 1148.86 499.851 1151.77 499.549C1154.69 499.246 1156.82 496.617 1156.52 493.677ZM1229.87 463.663L1193.39 473.267C1190.54 474.016 1188.84 476.938 1189.59 479.788C1190.33 482.639 1193.25 484.35 1196.09 483.602L1232.57 473.998C1235.41 473.258 1237.11 470.327 1236.37 467.476C1235.62 464.626 1232.71 462.915 1229.87 463.663ZM1250.12 430.896L1263.78 466.202C1264.84 468.946 1267.92 470.318 1270.67 469.249C1273.41 468.18 1274.76 465.08 1273.7 462.327L1260.05 427.03C1258.98 424.277 1255.89 422.914 1253.16 423.983C1250.42 425.043 1249.05 428.143 1250.12 430.896ZM1165.62 414.094L1193.25 439.876C1195.4 441.89 1198.77 441.765 1200.77 439.6C1202.77 437.444 1202.65 434.059 1200.49 432.046L1172.87 406.263C1170.72 404.259 1167.34 404.374 1165.35 406.539C1163.34 408.704 1163.47 412.081 1165.62 414.094ZM1137.12 396.909L1112.84 425.889C1110.95 428.143 1111.23 431.52 1113.48 433.417C1115.73 435.315 1119.09 435.021 1120.98 432.767L1145.26 403.786C1147.15 401.532 1146.86 398.156 1144.62 396.258C1142.37 394.352 1139.01 394.646 1137.12 396.909Z" fill="white"/>
<path fill-rule="evenodd" clip-rule="evenodd" d="M966.883 946.253L931.822 960.222C929.089 961.309 927.758 964.418 928.841 967.162C929.923 969.906 933.019 971.251 935.752 970.164L970.804 956.195C973.537 955.108 974.877 951.999 973.794 949.255C972.712 946.511 969.616 945.166 966.883 946.253ZM868.868 957.112L831.18 955.803C828.244 955.705 825.777 958.012 825.68 960.961C825.573 963.91 827.871 966.387 830.808 966.485L868.504 967.803C871.44 967.901 873.907 965.594 874.004 962.645C874.111 959.696 871.804 957.219 868.868 957.112ZM910.982 904.995L904 942.208C903.459 945.112 905.357 947.91 908.241 948.453C911.133 948.996 913.919 947.09 914.46 944.186L921.442 906.973C921.983 904.069 920.084 901.271 917.192 900.728C914.309 900.185 911.523 902.091 910.982 904.995ZM792.623 931.722L828.953 921.539C831.783 920.746 833.434 917.797 832.644 914.955C831.854 912.114 828.918 910.448 826.088 911.24L789.767 921.423C786.928 922.216 785.277 925.165 786.067 928.007C786.857 930.849 789.793 932.506 792.623 931.722ZM849.9 877.191L870.553 908.888C872.159 911.356 875.459 912.051 877.917 910.43C880.374 908.817 881.066 905.503 879.46 903.035L858.816 871.337C857.201 868.87 853.901 868.175 851.443 869.796C848.986 871.409 848.294 874.723 849.9 877.191ZM975.16 882.295L937.597 878.901C934.67 878.634 932.079 880.808 931.813 883.747C931.547 886.687 933.711 889.28 936.639 889.547L974.202 892.941C977.13 893.2 979.721 891.035 979.978 888.095C980.244 885.155 978.079 882.554 975.16 882.295ZM820.915 870.331L838.278 836.717C839.626 834.098 838.606 830.864 835.998 829.51C833.389 828.147 830.178 829.171 828.82 831.791L811.458 865.413C810.11 868.032 811.13 871.257 813.738 872.62C816.347 873.974 819.558 872.95 820.915 870.331ZM932.186 835.782L898.011 851.818C895.35 853.065 894.205 856.246 895.447 858.918C896.689 861.591 899.857 862.749 902.518 861.502L936.692 845.475C939.354 844.219 940.507 841.038 939.256 838.365C938.014 835.693 934.847 834.535 932.186 835.782ZM879.798 827.701L868.876 791.451C868.025 788.627 865.053 787.032 862.24 787.879C859.428 788.734 857.84 791.727 858.692 794.542L869.613 830.802C870.456 833.626 873.436 835.221 876.249 834.365C879.061 833.51 880.649 830.526 879.798 827.701ZM966.102 773.562L966.431 811.425C966.457 814.374 968.862 816.752 971.798 816.726C974.744 816.699 977.103 814.285 977.077 811.336L976.749 773.464C976.722 770.515 974.309 768.136 971.372 768.163C968.436 768.19 966.076 770.604 966.102 773.562ZM930.447 769.606L911.195 802.177C909.696 804.707 910.529 807.995 913.058 809.501C915.577 811.006 918.851 810.169 920.351 807.63L939.602 775.067C941.102 772.528 940.268 769.25 937.748 767.744C935.22 766.239 931.946 767.076 930.447 769.606ZM787.424 798.151L824.597 804.529C827.498 805.028 830.249 803.068 830.745 800.155C831.242 797.251 829.29 794.489 826.389 793.99L789.217 787.611C786.324 787.121 783.565 789.072 783.077 791.986C782.58 794.89 784.532 797.652 787.424 798.151ZM836.521 765.677L832.644 728.002C832.351 725.071 829.725 722.932 826.806 723.235C823.888 723.538 821.758 726.166 822.06 729.106L825.928 766.773C826.239 769.713 828.856 771.851 831.775 771.549C834.693 771.246 836.823 768.617 836.521 765.677ZM909.873 735.663L873.392 745.267C870.544 746.016 868.841 748.938 869.586 751.788C870.331 754.639 873.25 756.35 876.089 755.602L912.57 745.998C915.409 745.258 917.112 742.327 916.367 739.476C915.622 736.626 912.712 734.915 909.873 735.663ZM930.118 702.896L943.781 738.202C944.837 740.946 947.924 742.318 950.665 741.249C953.407 740.18 954.764 737.08 953.7 734.327L940.046 699.03C938.981 696.277 935.894 694.914 933.161 695.983C930.42 697.043 929.054 700.143 930.118 702.896ZM845.623 686.094L873.25 711.876C875.397 713.89 878.768 713.765 880.773 711.6C882.77 709.444 882.645 706.059 880.49 704.046L852.872 678.263C850.716 676.259 847.345 676.374 845.348 678.539C843.343 680.704 843.468 684.081 845.623 686.094ZM817.118 668.909L792.836 697.889C790.947 700.143 791.231 703.52 793.484 705.417C795.729 707.315 799.091 707.021 800.981 704.767L825.263 675.786C827.152 673.532 826.86 670.156 824.615 668.258C822.37 666.352 819.008 666.646 817.118 668.909Z" fill="white"/>
<path fill-rule="evenodd" clip-rule="evenodd" d="M1034.88 1220.25L999.822 1234.22C997.089 1235.31 995.758 1238.42 996.841 1241.16C997.923 1243.91 1001.02 1245.25 1003.75 1244.16L1038.8 1230.19C1041.54 1229.11 1042.88 1226 1041.79 1223.25C1040.71 1220.51 1037.62 1219.17 1034.88 1220.25ZM936.868 1231.11L899.18 1229.8C896.244 1229.7 893.777 1232.01 893.68 1234.96C893.573 1237.91 895.871 1240.39 898.808 1240.48L936.504 1241.8C939.44 1241.9 941.907 1239.59 942.004 1236.64C942.111 1233.7 939.804 1231.22 936.868 1231.11ZM978.982 1179L972 1216.21C971.459 1219.11 973.357 1221.91 976.241 1222.45C979.133 1223 981.919 1221.09 982.46 1218.19L989.442 1180.97C989.983 1178.07 988.084 1175.27 985.192 1174.73C982.309 1174.18 979.523 1176.09 978.982 1179ZM860.623 1205.72L896.953 1195.54C899.783 1194.75 901.434 1191.8 900.644 1188.96C899.854 1186.11 896.918 1184.45 894.088 1185.24L857.767 1195.42C854.928 1196.22 853.277 1199.17 854.067 1202.01C854.857 1204.85 857.793 1206.51 860.623 1205.72ZM917.9 1151.19L938.553 1182.89C940.159 1185.36 943.459 1186.05 945.917 1184.43C948.374 1182.82 949.066 1179.5 947.46 1177.04L926.816 1145.34C925.201 1142.87 921.901 1142.17 919.443 1143.8C916.986 1145.41 916.294 1148.72 917.9 1151.19ZM1043.16 1156.3L1005.6 1152.9C1002.67 1152.63 1000.08 1154.81 999.813 1157.75C999.547 1160.69 1001.71 1163.28 1004.64 1163.55L1042.2 1166.94C1045.13 1167.2 1047.72 1165.03 1047.98 1162.1C1048.24 1159.16 1046.08 1156.55 1043.16 1156.3ZM888.915 1144.33L906.278 1110.72C907.626 1108.1 906.606 1104.86 903.998 1103.51C901.389 1102.15 898.178 1103.17 896.82 1105.79L879.458 1139.41C878.11 1142.03 879.13 1145.26 881.738 1146.62C884.347 1147.97 887.558 1146.95 888.915 1144.33ZM1000.19 1109.78L966.011 1125.82C963.35 1127.07 962.205 1130.25 963.447 1132.92C964.689 1135.59 967.857 1136.75 970.518 1135.5L1004.69 1119.47C1007.35 1118.22 1008.51 1115.04 1007.26 1112.37C1006.01 1109.69 1002.85 1108.53 1000.19 1109.78ZM947.798 1101.7L936.876 1065.45C936.025 1062.63 933.053 1061.03 930.24 1061.88C927.428 1062.73 925.84 1065.73 926.692 1068.54L937.613 1104.8C938.456 1107.63 941.436 1109.22 944.249 1108.37C947.061 1107.51 948.649 1104.53 947.798 1101.7ZM1034.1 1047.56L1034.43 1085.42C1034.46 1088.37 1036.86 1090.75 1039.8 1090.73C1042.74 1090.7 1045.1 1088.28 1045.08 1085.34L1044.75 1047.46C1044.72 1044.51 1042.31 1042.14 1039.37 1042.16C1036.44 1042.19 1034.08 1044.6 1034.1 1047.56ZM998.447 1043.61L979.195 1076.18C977.696 1078.71 978.529 1081.99 981.058 1083.5C983.577 1085.01 986.851 1084.17 988.351 1081.63L1007.6 1049.07C1009.1 1046.53 1008.27 1043.25 1005.75 1041.74C1003.22 1040.24 999.946 1041.08 998.447 1043.61ZM855.424 1072.15L892.597 1078.53C895.498 1079.03 898.249 1077.07 898.745 1074.16C899.242 1071.25 897.29 1068.49 894.389 1067.99L857.217 1061.61C854.324 1061.12 851.565 1063.07 851.077 1065.99C850.58 1068.89 852.532 1071.65 855.424 1072.15ZM904.521 1039.68L900.644 1002C900.351 999.071 897.725 996.932 894.806 997.235C891.888 997.538 889.758 1000.17 890.06 1003.11L893.928 1040.77C894.239 1043.71 896.856 1045.85 899.775 1045.55C902.693 1045.25 904.823 1042.62 904.521 1039.68ZM977.873 1009.66L941.392 1019.27C938.544 1020.02 936.841 1022.94 937.586 1025.79C938.331 1028.64 941.25 1030.35 944.089 1029.6L980.57 1020C983.409 1019.26 985.112 1016.33 984.367 1013.48C983.622 1010.63 980.712 1008.91 977.873 1009.66ZM998.118 976.896L1011.78 1012.2C1012.84 1014.95 1015.92 1016.32 1018.67 1015.25C1021.41 1014.18 1022.76 1011.08 1021.7 1008.33L1008.05 973.03C1006.98 970.277 1003.89 968.914 1001.16 969.983C998.42 971.043 997.054 974.143 998.118 976.896ZM913.623 960.094L941.25 985.876C943.397 987.89 946.768 987.765 948.773 985.6C950.77 983.444 950.645 980.059 948.49 978.046L920.872 952.263C918.716 950.259 915.345 950.374 913.348 952.539C911.343 954.704 911.468 958.081 913.623 960.094ZM885.118 942.909L860.836 971.889C858.947 974.143 859.231 977.52 861.484 979.417C863.729 981.315 867.091 981.021 868.981 978.767L893.263 949.786C895.152 947.532 894.86 944.156 892.615 942.258C890.37 940.352 887.008 940.646 885.118 942.909Z" fill="white"/>
<path fill-rule="evenodd" clip-rule="evenodd" d="M1050.88 1541.25L1015.82 1555.22C1013.09 1556.31 1011.76 1559.42 1012.84 1562.16C1013.92 1564.91 1017.02 1566.25 1019.75 1565.16L1054.8 1551.19C1057.54 1550.11 1058.88 1547 1057.79 1544.25C1056.71 1541.51 1053.62 1540.17 1050.88 1541.25ZM952.868 1552.11L915.18 1550.8C912.244 1550.7 909.777 1553.01 909.68 1555.96C909.573 1558.91 911.871 1561.39 914.808 1561.48L952.504 1562.8C955.44 1562.9 957.907 1560.59 958.004 1557.64C958.111 1554.7 955.804 1552.22 952.868 1552.11ZM994.982 1500L988 1537.21C987.459 1540.11 989.357 1542.91 992.241 1543.45C995.133 1544 997.919 1542.09 998.46 1539.19L1005.44 1501.97C1005.98 1499.07 1004.08 1496.27 1001.19 1495.73C998.309 1495.18 995.523 1497.09 994.982 1500ZM876.623 1526.72L912.953 1516.54C915.783 1515.75 917.434 1512.8 916.644 1509.96C915.854 1507.11 912.918 1505.45 910.088 1506.24L873.767 1516.42C870.928 1517.22 869.277 1520.17 870.067 1523.01C870.857 1525.85 873.793 1527.51 876.623 1526.72ZM933.9 1472.19L954.553 1503.89C956.159 1506.36 959.459 1507.05 961.917 1505.43C964.374 1503.82 965.066 1500.5 963.46 1498.04L942.816 1466.34C941.201 1463.87 937.901 1463.17 935.443 1464.8C932.986 1466.41 932.294 1469.72 933.9 1472.19ZM1059.16 1477.3L1021.6 1473.9C1018.67 1473.63 1016.08 1475.81 1015.81 1478.75C1015.55 1481.69 1017.71 1484.28 1020.64 1484.55L1058.2 1487.94C1061.13 1488.2 1063.72 1486.03 1063.98 1483.1C1064.24 1480.16 1062.08 1477.55 1059.16 1477.3ZM904.915 1465.33L922.278 1431.72C923.626 1429.1 922.606 1425.86 919.998 1424.51C917.389 1423.15 914.178 1424.17 912.82 1426.79L895.458 1460.41C894.11 1463.03 895.13 1466.26 897.738 1467.62C900.347 1468.97 903.558 1467.95 904.915 1465.33ZM1016.19 1430.78L982.011 1446.82C979.35 1448.07 978.205 1451.25 979.447 1453.92C980.689 1456.59 983.857 1457.75 986.518 1456.5L1020.69 1440.47C1023.35 1439.22 1024.51 1436.04 1023.26 1433.37C1022.01 1430.69 1018.85 1429.53 1016.19 1430.78ZM963.798 1422.7L952.876 1386.45C952.025 1383.63 949.053 1382.03 946.24 1382.88C943.428 1383.73 941.84 1386.73 942.692 1389.54L953.613 1425.8C954.456 1428.63 957.436 1430.22 960.249 1429.37C963.061 1428.51 964.649 1425.53 963.798 1422.7ZM1050.1 1368.56L1050.43 1406.42C1050.46 1409.37 1052.86 1411.75 1055.8 1411.73C1058.74 1411.7 1061.1 1409.28 1061.08 1406.34L1060.75 1368.46C1060.72 1365.51 1058.31 1363.14 1055.37 1363.16C1052.44 1363.19 1050.08 1365.6 1050.1 1368.56ZM1014.45 1364.61L995.195 1397.18C993.696 1399.71 994.529 1402.99 997.058 1404.5C999.577 1406.01 1002.85 1405.17 1004.35 1402.63L1023.6 1370.07C1025.1 1367.53 1024.27 1364.25 1021.75 1362.74C1019.22 1361.24 1015.95 1362.08 1014.45 1364.61ZM871.424 1393.15L908.597 1399.53C911.498 1400.03 914.249 1398.07 914.745 1395.16C915.242 1392.25 913.29 1389.49 910.389 1388.99L873.217 1382.61C870.324 1382.12 867.565 1384.07 867.077 1386.99C866.58 1389.89 868.532 1392.65 871.424 1393.15ZM920.521 1360.68L916.644 1323C916.351 1320.07 913.725 1317.93 910.806 1318.24C907.888 1318.54 905.758 1321.17 906.06 1324.11L909.928 1361.77C910.239 1364.71 912.856 1366.85 915.775 1366.55C918.693 1366.25 920.823 1363.62 920.521 1360.68ZM993.873 1330.66L957.392 1340.27C954.544 1341.02 952.841 1343.94 953.586 1346.79C954.331 1349.64 957.25 1351.35 960.089 1350.6L996.57 1341C999.409 1340.26 1001.11 1337.33 1000.37 1334.48C999.622 1331.63 996.712 1329.91 993.873 1330.66ZM1014.12 1297.9L1027.78 1333.2C1028.84 1335.95 1031.92 1337.32 1034.67 1336.25C1037.41 1335.18 1038.76 1332.08 1037.7 1329.33L1024.05 1294.03C1022.98 1291.28 1019.89 1289.91 1017.16 1290.98C1014.42 1292.04 1013.05 1295.14 1014.12 1297.9ZM929.623 1281.09L957.25 1306.88C959.397 1308.89 962.768 1308.77 964.773 1306.6C966.77 1304.44 966.645 1301.06 964.49 1299.05L936.872 1273.26C934.716 1271.26 931.345 1271.37 929.348 1273.54C927.343 1275.7 927.468 1279.08 929.623 1281.09ZM901.118 1263.91L876.836 1292.89C874.947 1295.14 875.231 1298.52 877.484 1300.42C879.729 1302.32 883.091 1302.02 884.981 1299.77L909.263 1270.79C911.152 1268.53 910.86 1265.16 908.615 1263.26C906.37 1261.35 903.008 1261.65 901.118 1263.91Z" fill="white"/>
<path fill-rule="evenodd" clip-rule="evenodd" d="M1273.88 1366.25L1238.82 1380.22C1236.09 1381.31 1234.76 1384.42 1235.84 1387.16C1236.92 1389.91 1240.02 1391.25 1242.75 1390.16L1277.8 1376.19C1280.54 1375.11 1281.88 1372 1280.79 1369.25C1279.71 1366.51 1276.62 1365.17 1273.88 1366.25ZM1175.87 1377.11L1138.18 1375.8C1135.24 1375.7 1132.78 1378.01 1132.68 1380.96C1132.57 1383.91 1134.87 1386.39 1137.81 1386.48L1175.5 1387.8C1178.44 1387.9 1180.91 1385.59 1181 1382.64C1181.11 1379.7 1178.8 1377.22 1175.87 1377.11ZM1217.98 1325L1211 1362.21C1210.46 1365.11 1212.36 1367.91 1215.24 1368.45C1218.13 1369 1220.92 1367.09 1221.46 1364.19L1228.44 1326.97C1228.98 1324.07 1227.08 1321.27 1224.19 1320.73C1221.31 1320.18 1218.52 1322.09 1217.98 1325ZM1099.62 1351.72L1135.95 1341.54C1138.78 1340.75 1140.43 1337.8 1139.64 1334.96C1138.85 1332.11 1135.92 1330.45 1133.09 1331.24L1096.77 1341.42C1093.93 1342.22 1092.28 1345.17 1093.07 1348.01C1093.86 1350.85 1096.79 1352.51 1099.62 1351.72ZM1156.9 1297.19L1177.55 1328.89C1179.16 1331.36 1182.46 1332.05 1184.92 1330.43C1187.37 1328.82 1188.07 1325.5 1186.46 1323.04L1165.82 1291.34C1164.2 1288.87 1160.9 1288.17 1158.44 1289.8C1155.99 1291.41 1155.29 1294.72 1156.9 1297.19ZM1282.16 1302.3L1244.6 1298.9C1241.67 1298.63 1239.08 1300.81 1238.81 1303.75C1238.55 1306.69 1240.71 1309.28 1243.64 1309.55L1281.2 1312.94C1284.13 1313.2 1286.72 1311.03 1286.98 1308.1C1287.24 1305.16 1285.08 1302.55 1282.16 1302.3ZM1127.92 1290.33L1145.28 1256.72C1146.63 1254.1 1145.61 1250.86 1143 1249.51C1140.39 1248.15 1137.18 1249.17 1135.82 1251.79L1118.46 1285.41C1117.11 1288.03 1118.13 1291.26 1120.74 1292.62C1123.35 1293.97 1126.56 1292.95 1127.92 1290.33ZM1239.19 1255.78L1205.01 1271.82C1202.35 1273.07 1201.21 1276.25 1202.45 1278.92C1203.69 1281.59 1206.86 1282.75 1209.52 1281.5L1243.69 1265.47C1246.35 1264.22 1247.51 1261.04 1246.26 1258.37C1245.01 1255.69 1241.85 1254.53 1239.19 1255.78ZM1186.8 1247.7L1175.88 1211.45C1175.02 1208.63 1172.05 1207.03 1169.24 1207.88C1166.43 1208.73 1164.84 1211.73 1165.69 1214.54L1176.61 1250.8C1177.46 1253.63 1180.44 1255.22 1183.25 1254.37C1186.06 1253.51 1187.65 1250.53 1186.8 1247.7ZM1273.1 1193.56L1273.43 1231.42C1273.46 1234.37 1275.86 1236.75 1278.8 1236.73C1281.74 1236.7 1284.1 1234.28 1284.08 1231.34L1283.75 1193.46C1283.72 1190.51 1281.31 1188.14 1278.37 1188.16C1275.44 1188.19 1273.08 1190.6 1273.1 1193.56ZM1237.45 1189.61L1218.19 1222.18C1216.7 1224.71 1217.53 1227.99 1220.06 1229.5C1222.58 1231.01 1225.85 1230.17 1227.35 1227.63L1246.6 1195.07C1248.1 1192.53 1247.27 1189.25 1244.75 1187.74C1242.22 1186.24 1238.95 1187.08 1237.45 1189.61ZM1094.42 1218.15L1131.6 1224.53C1134.5 1225.03 1137.25 1223.07 1137.75 1220.16C1138.24 1217.25 1136.29 1214.49 1133.39 1213.99L1096.22 1207.61C1093.32 1207.12 1090.57 1209.07 1090.08 1211.99C1089.58 1214.89 1091.53 1217.65 1094.42 1218.15ZM1143.52 1185.68L1139.64 1148C1139.35 1145.07 1136.73 1142.93 1133.81 1143.24C1130.89 1143.54 1128.76 1146.17 1129.06 1149.11L1132.93 1186.77C1133.24 1189.71 1135.86 1191.85 1138.77 1191.55C1141.69 1191.25 1143.82 1188.62 1143.52 1185.68ZM1216.87 1155.66L1180.39 1165.27C1177.54 1166.02 1175.84 1168.94 1176.59 1171.79C1177.33 1174.64 1180.25 1176.35 1183.09 1175.6L1219.57 1166C1222.41 1165.26 1224.11 1162.33 1223.37 1159.48C1222.62 1156.63 1219.71 1154.91 1216.87 1155.66ZM1237.12 1122.9L1250.78 1158.2C1251.84 1160.95 1254.92 1162.32 1257.67 1161.25C1260.41 1160.18 1261.76 1157.08 1260.7 1154.33L1247.05 1119.03C1245.98 1116.28 1242.89 1114.91 1240.16 1115.98C1237.42 1117.04 1236.05 1120.14 1237.12 1122.9ZM1152.62 1106.09L1180.25 1131.88C1182.4 1133.89 1185.77 1133.77 1187.77 1131.6C1189.77 1129.44 1189.65 1126.06 1187.49 1124.05L1159.87 1098.26C1157.72 1096.26 1154.34 1096.37 1152.35 1098.54C1150.34 1100.7 1150.47 1104.08 1152.62 1106.09ZM1124.12 1088.91L1099.84 1117.89C1097.95 1120.14 1098.23 1123.52 1100.48 1125.42C1102.73 1127.32 1106.09 1127.02 1107.98 1124.77L1132.26 1095.79C1134.15 1093.53 1133.86 1090.16 1131.62 1088.26C1129.37 1086.35 1126.01 1086.65 1124.12 1088.91Z" fill="white"/>
<path fill-rule="evenodd" clip-rule="evenodd" d="M1484.88 1424.25L1449.82 1438.22C1447.09 1439.31 1445.76 1442.42 1446.84 1445.16C1447.92 1447.91 1451.02 1449.25 1453.75 1448.16L1488.8 1434.19C1491.54 1433.11 1492.88 1430 1491.79 1427.25C1490.71 1424.51 1487.62 1423.17 1484.88 1424.25ZM1386.87 1435.11L1349.18 1433.8C1346.24 1433.7 1343.78 1436.01 1343.68 1438.96C1343.57 1441.91 1345.87 1444.39 1348.81 1444.48L1386.5 1445.8C1389.44 1445.9 1391.91 1443.59 1392 1440.64C1392.11 1437.7 1389.8 1435.22 1386.87 1435.11ZM1428.98 1383L1422 1420.21C1421.46 1423.11 1423.36 1425.91 1426.24 1426.45C1429.13 1427 1431.92 1425.09 1432.46 1422.19L1439.44 1384.97C1439.98 1382.07 1438.08 1379.27 1435.19 1378.73C1432.31 1378.18 1429.52 1380.09 1428.98 1383ZM1310.62 1409.72L1346.95 1399.54C1349.78 1398.75 1351.43 1395.8 1350.64 1392.96C1349.85 1390.11 1346.92 1388.45 1344.09 1389.24L1307.77 1399.42C1304.93 1400.22 1303.28 1403.17 1304.07 1406.01C1304.86 1408.85 1307.79 1410.51 1310.62 1409.72ZM1367.9 1355.19L1388.55 1386.89C1390.16 1389.36 1393.46 1390.05 1395.92 1388.43C1398.37 1386.82 1399.07 1383.5 1397.46 1381.04L1376.82 1349.34C1375.2 1346.87 1371.9 1346.17 1369.44 1347.8C1366.99 1349.41 1366.29 1352.72 1367.9 1355.19ZM1493.16 1360.3L1455.6 1356.9C1452.67 1356.63 1450.08 1358.81 1449.81 1361.75C1449.55 1364.69 1451.71 1367.28 1454.64 1367.55L1492.2 1370.94C1495.13 1371.2 1497.72 1369.03 1497.98 1366.1C1498.24 1363.16 1496.08 1360.55 1493.16 1360.3ZM1338.92 1348.33L1356.28 1314.72C1357.63 1312.1 1356.61 1308.86 1354 1307.51C1351.39 1306.15 1348.18 1307.17 1346.82 1309.79L1329.46 1343.41C1328.11 1346.03 1329.13 1349.26 1331.74 1350.62C1334.35 1351.97 1337.56 1350.95 1338.92 1348.33ZM1450.19 1313.78L1416.01 1329.82C1413.35 1331.07 1412.21 1334.25 1413.45 1336.92C1414.69 1339.59 1417.86 1340.75 1420.52 1339.5L1454.69 1323.47C1457.35 1322.22 1458.51 1319.04 1457.26 1316.37C1456.01 1313.69 1452.85 1312.53 1450.19 1313.78ZM1397.8 1305.7L1386.88 1269.45C1386.02 1266.63 1383.05 1265.03 1380.24 1265.88C1377.43 1266.73 1375.84 1269.73 1376.69 1272.54L1387.61 1308.8C1388.46 1311.63 1391.44 1313.22 1394.25 1312.37C1397.06 1311.51 1398.65 1308.53 1397.8 1305.7ZM1484.1 1251.56L1484.43 1289.42C1484.46 1292.37 1486.86 1294.75 1489.8 1294.73C1492.74 1294.7 1495.1 1292.28 1495.08 1289.34L1494.75 1251.46C1494.72 1248.51 1492.31 1246.14 1489.37 1246.16C1486.44 1246.19 1484.08 1248.6 1484.1 1251.56ZM1448.45 1247.61L1429.19 1280.18C1427.7 1282.71 1428.53 1285.99 1431.06 1287.5C1433.58 1289.01 1436.85 1288.17 1438.35 1285.63L1457.6 1253.07C1459.1 1250.53 1458.27 1247.25 1455.75 1245.74C1453.22 1244.24 1449.95 1245.08 1448.45 1247.61ZM1305.42 1276.15L1342.6 1282.53C1345.5 1283.03 1348.25 1281.07 1348.75 1278.16C1349.24 1275.25 1347.29 1272.49 1344.39 1271.99L1307.22 1265.61C1304.32 1265.12 1301.57 1267.07 1301.08 1269.99C1300.58 1272.89 1302.53 1275.65 1305.42 1276.15ZM1354.52 1243.68L1350.64 1206C1350.35 1203.07 1347.73 1200.93 1344.81 1201.24C1341.89 1201.54 1339.76 1204.17 1340.06 1207.11L1343.93 1244.77C1344.24 1247.71 1346.86 1249.85 1349.77 1249.55C1352.69 1249.25 1354.82 1246.62 1354.52 1243.68ZM1427.87 1213.66L1391.39 1223.27C1388.54 1224.02 1386.84 1226.94 1387.59 1229.79C1388.33 1232.64 1391.25 1234.35 1394.09 1233.6L1430.57 1224C1433.41 1223.26 1435.11 1220.33 1434.37 1217.48C1433.62 1214.63 1430.71 1212.91 1427.87 1213.66ZM1448.12 1180.9L1461.78 1216.2C1462.84 1218.95 1465.92 1220.32 1468.67 1219.25C1471.41 1218.18 1472.76 1215.08 1471.7 1212.33L1458.05 1177.03C1456.98 1174.28 1453.89 1172.91 1451.16 1173.98C1448.42 1175.04 1447.05 1178.14 1448.12 1180.9ZM1363.62 1164.09L1391.25 1189.88C1393.4 1191.89 1396.77 1191.77 1398.77 1189.6C1400.77 1187.44 1400.65 1184.06 1398.49 1182.05L1370.87 1156.26C1368.72 1154.26 1365.34 1154.37 1363.35 1156.54C1361.34 1158.7 1361.47 1162.08 1363.62 1164.09ZM1335.12 1146.91L1310.84 1175.89C1308.95 1178.14 1309.23 1181.52 1311.48 1183.42C1313.73 1185.32 1317.09 1185.02 1318.98 1182.77L1343.26 1153.79C1345.15 1151.53 1344.86 1148.16 1342.62 1146.26C1340.37 1144.35 1337.01 1144.65 1335.12 1146.91Z" fill="white"/>
</g>
<path d="M1068.96 1005.17L1020.81 753.715C1018.21 740.125 1006.32 730.298 992.484 730.298" stroke="#573240" stroke-width="5" stroke-miterlimit="10" stroke-linecap="round"/>
<path d="M1174.64 391.199C1176.67 384.325 1185.86 383.057 1189.69 389.122L1252.89 489.347H1120.19C1097.94 489.347 1077.2 500.626 1065.1 519.306L1023.38 583.754C1020.04 588.908 1022.28 595.826 1028 598.051L1058.31 609.838C1071.68 615.038 1086.84 612.355 1097.61 602.881L1130.96 573.563L1298.52 603.42C1370.7 616.279 1424.97 538.917 1388.32 475.43L1281.54 290.478C1269.79 271.467 1252.54 256.478 1232.08 247.501C1206.68 236.361 1177.97 253.969 1176.38 281.653L1174.64 391.199Z" fill="#F6ACC1"/>
<path d="M1067.3 544.824L1039.24 588.162C1035.91 593.315 1038.14 600.233 1043.86 602.458" stroke="#573240" stroke-width="5" stroke-miterlimit="10" stroke-linecap="round"/>
<path d="M1085.81 550.994L1057.75 594.332C1054.41 599.485 1056.65 606.403 1062.37 608.628" stroke="#573240" stroke-width="5" stroke-miterlimit="10" stroke-linecap="round"/>
<path d="M1105.2 556.281L1077.14 599.618C1075.16 602.675 1075.14 606.352 1076.65 609.303" stroke="#573240" stroke-width="5" stroke-miterlimit="10" stroke-linecap="round"/>
<path d="M1119.88 580.974L1141.18 559.527" stroke="#573240" stroke-width="5" stroke-miterlimit="10" stroke-linecap="round"/>
<path d="M1244.08 489.347H1286.23" stroke="#573240" stroke-width="5" stroke-miterlimit="10" stroke-linecap="round"/>
<path d="M1115.75 45.6522C1120.03 53.2991 1136.57 27.9533 1162.1 49.4296C1182.88 66.9125 1165.27 84.6417 1169.55 89.7101C1173.84 94.7785 1210.95 96.424 1200.36 133.768C1188.09 177.007 1125.42 166.504 1117.47 158.714C1109.51 150.923 1055.94 163.121 1055.94 163.121C1055.94 163.121 988.157 169.947 987.086 122.462C986.117 79.4813 1025.3 83.8623 1025.3 81.5232C1025.3 79.184 1003.42 58.5049 1010.09 32.3967C1017.89 1.89239 1048.84 -0.353873 1057.03 0.0362817C1065.22 0.42465 1090.02 -0.354748 1115.75 45.6522Z" fill="#573240"/>
<path d="M1130.96 199.854L1010.77 373.553L1007.22 212.871L1046.74 200.436L1062.6 128.503H1107.56L1130.96 199.854Z" fill="#F6ACC1"/>
<path d="M1102.45 90.4626V124.88C1102.45 136.603 1095.08 147.058 1084.04 150.997L1064.74 157.885C1056.16 160.945 1046.98 155.177 1046.02 146.123L1042.06 108.935C1040.88 97.8631 1046.21 87.1066 1055.73 81.3337L1071.8 72.4155C1074.87 70.7156 1078.31 69.8237 1081.82 69.8237C1093.21 69.8255 1102.45 79.0651 1102.45 90.4626Z" fill="#F6ACC1"/>
<path d="M1059.53 136.015C1065.51 136.508 1071.51 134.247 1075.85 129.868" stroke="#573240" stroke-width="5" stroke-miterlimit="10" stroke-linecap="round"/>
<path d="M1074.55 93.9256C1079.62 91.9623 1085.36 92.9712 1088.99 96.9433" stroke="#573240" stroke-width="5" stroke-miterlimit="10" stroke-linecap="round"/>
<path d="M1040.08 96.3963C1044.22 92.8671 1049.97 91.9226 1054.71 94.4724C1054.71 94.4724 1060.48 97.224 1058.73 122.372" stroke="#573240" stroke-width="5" stroke-miterlimit="10" stroke-linecap="round"/>
<path d="M1080.52 111.544C1082.21 111.544 1083.59 109.384 1083.59 106.719C1083.59 104.055 1082.21 101.895 1080.52 101.895C1078.82 101.895 1077.45 104.055 1077.45 106.719C1077.45 109.384 1078.82 111.544 1080.52 111.544Z" fill="#573240"/>
<path d="M1048.79 112.888C1050.34 112.888 1051.59 110.915 1051.59 108.481C1051.59 106.048 1050.34 104.075 1048.79 104.075C1047.24 104.075 1045.98 106.048 1045.98 108.481C1045.98 110.915 1047.24 112.888 1048.79 112.888Z" fill="#573240"/>
<path d="M1119.04 131.882H1106.26C1103.25 131.882 1100.81 129.44 1100.81 126.426V107.808C1100.81 101.521 1105.91 96.4238 1112.19 96.4238H1119.04C1128.02 96.4238 1135.29 103.698 1135.29 112.673V115.633C1135.29 124.607 1128.02 131.882 1119.04 131.882Z" fill="#F6ACC1"/>
<path d="M1108.74 116.475C1108.74 110.268 1113.77 105.237 1119.98 105.237" stroke="#573240" stroke-width="5" stroke-miterlimit="10" stroke-linecap="round"/>
<rect x="693" y="858" width="63" height="78" rx="26" fill="white"/>
<rect x="708" y="864" width="19" height="24" rx="9.5" fill="#573240"/>
<path fill-rule="evenodd" clip-rule="evenodd" d="M367 1057C325.579 1057 292 1090.58 292 1132V1649.34C292 1690.77 325.579 1724.34 367 1724.34H649.3C690.721 1724.34 724.3 1690.77 724.3 1649.34V1132C724.3 1090.58 690.721 1057 649.3 1057H367ZM394.285 1115.95C376.612 1115.95 362.285 1130.28 362.285 1147.95V1172.37C362.285 1190.05 376.612 1204.37 394.285 1204.37H620.501C638.174 1204.37 652.501 1190.05 652.501 1172.37V1147.95C652.501 1130.28 638.174 1115.95 620.501 1115.95H394.285Z" fill="#573240"/>
</g>
<defs>
<clipPath id="clip0">
<rect width="1430" height="1724" fill="white"/>
</clipPath>
</defs>
</svg>
