<svg width="1430" height="1724" viewBox="0 0 1430 1724" fill="none" xmlns="http://www.w3.org/2000/svg">
<g clip-path="url(#clip0)">
<rect width="1430" height="1724" fill="white"/>
<path d="M215.531 332.599C215.531 304.319 243.35 281.394 277.667 281.394C311.984 281.394 339.803 304.319 339.803 332.599H215.531Z" fill="#B9CCF1"/>
<path d="M1067.02 332.599H339.679C325.889 318.462 317.637 300.51 317.637 280.966C317.637 235.413 362.454 198.479 417.731 198.479C431.038 198.479 443.729 200.621 455.346 204.512C475.623 153.139 534.206 116 603.314 116C685.347 116 752.548 168.326 758.461 234.679C790.138 220.707 828.393 212.541 869.605 212.541C974.63 212.541 1060.53 265.587 1067.02 332.599Z" fill="#B9CCF1"/>
<path d="M162 332.599H1102.19" stroke="#B9CCF1" stroke-width="5" stroke-miterlimit="10"/>
<path d="M495.902 319.183C499.581 319.183 502.564 316.725 502.564 313.693C502.564 310.661 499.581 308.203 495.902 308.203C492.223 308.203 489.24 310.661 489.24 313.693C489.24 316.725 492.223 319.183 495.902 319.183Z" stroke="#B9CCF1" stroke-width="4" stroke-miterlimit="10"/>
<path d="M191 1650.31C191 1571.57 254.839 1507.76 333.58 1507.76C368.2 1507.76 399.96 1520.12 424.655 1540.66C422.802 1529.52 421.851 1518.08 421.851 1506.44C421.851 1390.77 515.624 1297 631.314 1297C730.171 1297 813.04 1365.5 835.007 1457.63C866.37 1447.47 900.777 1441.88 936.852 1441.88C1053.15 1441.88 1152.08 1500.03 1188.56 1581.13C1198.69 1579.75 1209.28 1579.04 1220.19 1579.04C1292.68 1579.04 1351.41 1610.96 1351.41 1650.31H191V1650.31Z" fill="#A9D8D5"/>
<path d="M908.906 1552.39C895.737 1575.16 868.462 1588.85 868.462 1588.85C868.462 1588.85 862.537 1565.61 875.704 1542.84C888.871 1520.07 906.979 1503.75 916.148 1506.38C925.317 1509.02 922.076 1529.62 908.906 1552.39Z" fill="#FF6E00"/>
<path d="M377.952 1399.38C399.183 1428.87 394.801 1468.33 394.801 1468.33C394.801 1468.33 355.997 1459.96 334.767 1430.46C313.536 1400.96 305.993 1370.09 317.92 1361.51C329.845 1352.92 356.724 1369.88 377.952 1399.38Z" fill="#FF6E00"/>
<path d="M383.703 1582.88C405.11 1606.1 408.631 1637.67 408.631 1637.67C408.631 1637.67 377.444 1631.61 356.037 1608.39C334.63 1585.17 323.468 1560.64 331.109 1553.6C338.748 1546.55 362.294 1559.66 383.703 1582.88Z" fill="#573240"/>
<path d="M622.188 1561.14C601.696 1583.81 569.346 1594.68 569.346 1594.68C569.346 1594.68 575.813 1560.42 596.305 1537.75C616.797 1515.07 636.404 1506.11 643.554 1512.57C650.701 1519.02 642.681 1538.46 622.188 1561.14Z" fill="#FF6E00"/>
<path d="M1061.87 1580.56C1053.87 1602.83 1031.69 1615.24 1031.69 1615.24C1031.69 1615.24 1022.48 1591.54 1030.48 1569.28C1038.48 1547.01 1052 1531.49 1060.67 1534.61C1069.33 1537.72 1069.87 1558.3 1061.87 1580.56Z" fill="#573240"/>
<path d="M847.685 1577.77C860.152 1604.43 852.644 1631.02 852.644 1631.02C852.644 1631.02 824.919 1614.38 812.452 1587.72C799.984 1561.06 797.763 1537.22 807.492 1534.47C817.221 1531.72 835.217 1551.11 847.685 1577.77Z" fill="#573240"/>
<path d="M583.669 1480.04C586.605 1522.45 566.783 1562.58 566.783 1562.58C566.783 1562.58 541.943 1526.24 539.004 1483.83C536.068 1441.42 544.53 1409.79 556.142 1408.99C567.754 1408.19 580.73 1437.63 583.669 1480.04Z" fill="#573240"/>
<path d="M1328.35 1503.45L1300.25 1649.97L1252.89 1723.64C1234.47 1674.81 1198.41 1671.49 1198.41 1671.49C1206.26 1615.26 1174.23 1503.45 1174.23 1503.45H1328.35Z" fill="#F6ACC1"/>
<path d="M1322.21 1535.46L1328.35 1503.45H1174.23L1175.24 1507.08L1322.21 1535.46Z" fill="#573240"/>
<path d="M1252.89 1723.65H1154.93C1154.93 1723.65 1198.09 1694.06 1198.41 1671.49C1198.41 1671.49 1234.47 1674.81 1252.89 1723.65Z" fill="#96CFCE"/>
<path d="M1300.26 1649.96C1300.26 1649.96 1329.22 1670.72 1314.59 1723.65H1306.99C1306.99 1723.65 1304.84 1688.16 1269.66 1697.57L1300.26 1649.96Z" fill="#96CFCE"/>
<path d="M1300.26 1649.96L1252.89 1723.65H1154.93" stroke="#573240" stroke-width="5" stroke-miterlimit="10" stroke-linecap="round"/>
<path d="M1306.99 1723.65H1314.6" stroke="#573240" stroke-width="5" stroke-miterlimit="10" stroke-linecap="round"/>
<path d="M1023.41 1503.45L990.916 1649.97L934.741 1723.64C916.76 1675.98 881.994 1671.68 880.324 1671.5C889.386 1615.27 878.994 1503.45 878.994 1503.45H1023.41Z" fill="#F6ACC1"/>
<path d="M1016.87 1532.94L1023.41 1503.45H878.992C878.992 1503.45 878.864 1501.61 879.21 1505.8L1016.87 1532.94Z" fill="#573240"/>
<path d="M934.739 1723.65H836.779C836.779 1723.65 879.935 1694.06 880.26 1671.49C880.26 1671.49 916.316 1674.81 934.739 1723.65Z" fill="#96CFCE"/>
<path d="M990.915 1649.96C990.915 1649.96 1019.87 1670.72 1005.25 1723.64H997.648C997.648 1723.64 992.154 1686.8 955.025 1697.57L990.915 1649.96Z" fill="#96CFCE"/>
<path d="M990.917 1649.96L934.741 1723.65H836.781" stroke="#573240" stroke-width="5" stroke-miterlimit="10" stroke-linecap="round"/>
<path d="M997.648 1723.65H1005.25" stroke="#573240" stroke-width="5" stroke-miterlimit="10" stroke-linecap="round"/>
<path d="M828.004 941.132H713.574C697.793 941.132 685 928.339 685 912.558V880.229C685 864.448 697.793 851.655 713.574 851.655H828.004C843.785 851.655 856.578 864.448 856.578 880.229V912.558C856.578 928.338 843.785 941.132 828.004 941.132Z" fill="#573240"/>
<path d="M927.437 440.286V526.778C927.437 526.778 904.848 629.028 882.948 747.504L882.939 747.531L829.222 851.649L802.043 899.848C787.568 899.848 788.518 877.066 790.526 862.828C791.359 856.918 786.733 851.649 780.765 851.649H723.535C787.193 819.199 892.431 395.321 892.431 395.321C894.114 398.318 896.062 401.208 898.265 403.949L927.437 440.286Z" fill="#F6ACC1"/>
<path d="M1068.97 1005.17L1050.25 1127.98C1050.25 1127.98 1101.08 1373.62 1043.23 1503.45H878.311C878.311 1503.45 842.256 1237.94 842.354 1053.13C842.424 911.578 927.436 526.778 927.436 526.778V440.286L898.264 403.949C882.55 384.375 879.738 357.415 891.081 335.021L934.142 249.974C939.571 239.239 949.107 231.149 960.581 227.544L1007.22 212.87L1010.77 373.551L1130.96 199.853L1225.89 246.39L1135.64 522.679C1135.64 522.679 1352.03 808.666 1362.55 1503.45H1174.23L1068.97 1005.17Z" fill="#FF6E00"/>
<path d="M1068.96 1005.17L1020.81 753.715C1018.21 740.125 1006.32 730.298 992.484 730.298" stroke="#573240" stroke-width="5" stroke-miterlimit="10" stroke-linecap="round"/>
<path d="M1174.64 391.199C1176.67 384.325 1185.86 383.057 1189.69 389.122L1252.89 489.347H1120.19C1097.94 489.347 1077.2 500.626 1065.1 519.306L1023.38 583.754C1020.04 588.908 1022.28 595.826 1028 598.051L1058.31 609.838C1071.68 615.038 1086.84 612.355 1097.61 602.881L1130.96 573.563L1298.52 603.42C1370.7 616.279 1424.97 538.917 1388.32 475.43L1281.54 290.478C1269.79 271.467 1252.54 256.478 1232.08 247.501C1206.68 236.361 1177.97 253.969 1176.38 281.653L1174.64 391.199Z" fill="#F6ACC1"/>
<path d="M1067.3 544.824L1039.24 588.162C1035.91 593.315 1038.14 600.233 1043.86 602.458" stroke="#573240" stroke-width="5" stroke-miterlimit="10" stroke-linecap="round"/>
<path d="M1085.81 550.994L1057.75 594.332C1054.41 599.485 1056.65 606.403 1062.37 608.628" stroke="#573240" stroke-width="5" stroke-miterlimit="10" stroke-linecap="round"/>
<path d="M1105.2 556.281L1077.14 599.618C1075.16 602.675 1075.14 606.352 1076.65 609.303" stroke="#573240" stroke-width="5" stroke-miterlimit="10" stroke-linecap="round"/>
<path d="M1119.88 580.974L1141.18 559.527" stroke="#573240" stroke-width="5" stroke-miterlimit="10" stroke-linecap="round"/>
<path d="M1244.08 489.347H1286.23" stroke="#573240" stroke-width="5" stroke-miterlimit="10" stroke-linecap="round"/>
<path d="M1115.75 45.6522C1120.03 53.2991 1136.57 27.9533 1162.1 49.4296C1182.88 66.9125 1165.27 84.6417 1169.55 89.7101C1173.84 94.7785 1210.95 96.424 1200.36 133.768C1188.09 177.007 1125.42 166.504 1117.47 158.714C1109.51 150.923 1055.94 163.121 1055.94 163.121C1055.94 163.121 988.157 169.947 987.086 122.462C986.117 79.4813 1025.3 83.8623 1025.3 81.5232C1025.3 79.184 1003.42 58.5049 1010.09 32.3967C1017.89 1.89239 1048.84 -0.353873 1057.03 0.0362817C1065.22 0.42465 1090.02 -0.354748 1115.75 45.6522Z" fill="#573240"/>
<path d="M1130.96 199.854L1010.77 373.553L1007.22 212.871L1046.74 200.436L1062.6 128.503H1107.56L1130.96 199.854Z" fill="#F6ACC1"/>
<path d="M1102.45 90.4626V124.88C1102.45 136.603 1095.08 147.058 1084.04 150.997L1064.74 157.885C1056.16 160.945 1046.98 155.177 1046.02 146.123L1042.06 108.935C1040.88 97.8631 1046.21 87.1066 1055.73 81.3337L1071.8 72.4155C1074.87 70.7156 1078.31 69.8237 1081.82 69.8237C1093.21 69.8255 1102.45 79.0651 1102.45 90.4626Z" fill="#F6ACC1"/>
<path d="M1059.53 136.015C1065.51 136.508 1071.51 134.247 1075.85 129.868" stroke="#573240" stroke-width="5" stroke-miterlimit="10" stroke-linecap="round"/>
<path d="M1074.55 93.9256C1079.62 91.9623 1085.36 92.9712 1088.99 96.9433" stroke="#573240" stroke-width="5" stroke-miterlimit="10" stroke-linecap="round"/>
<path d="M1040.08 96.3963C1044.22 92.8671 1049.97 91.9226 1054.71 94.4724C1054.71 94.4724 1060.48 97.224 1058.73 122.372" stroke="#573240" stroke-width="5" stroke-miterlimit="10" stroke-linecap="round"/>
<path d="M1080.52 111.544C1082.21 111.544 1083.59 109.384 1083.59 106.719C1083.59 104.055 1082.21 101.895 1080.52 101.895C1078.82 101.895 1077.45 104.055 1077.45 106.719C1077.45 109.384 1078.82 111.544 1080.52 111.544Z" fill="#573240"/>
<path d="M1048.79 112.888C1050.34 112.888 1051.59 110.915 1051.59 108.481C1051.59 106.048 1050.34 104.075 1048.79 104.075C1047.24 104.075 1045.98 106.048 1045.98 108.481C1045.98 110.915 1047.24 112.888 1048.79 112.888Z" fill="#573240"/>
<path d="M1119.04 131.882H1106.26C1103.25 131.882 1100.81 129.44 1100.81 126.426V107.808C1100.81 101.521 1105.91 96.4238 1112.19 96.4238H1119.04C1128.02 96.4238 1135.29 103.698 1135.29 112.673V115.633C1135.29 124.607 1128.02 131.882 1119.04 131.882Z" fill="#F6ACC1"/>
<path d="M1108.74 116.475C1108.74 110.268 1113.77 105.237 1119.98 105.237" stroke="#573240" stroke-width="5" stroke-miterlimit="10" stroke-linecap="round"/>
<rect x="685" y="858" width="63" height="78" rx="26" fill="#C4C4C4"/>
<rect x="704" y="864" width="19" height="24" rx="9.5" fill="#573240"/>
<path fill-rule="evenodd" clip-rule="evenodd" d="M367 1057C325.579 1057 292 1090.58 292 1132V1649.34C292 1690.77 325.579 1724.34 367 1724.34H649.3C690.721 1724.34 724.3 1690.77 724.3 1649.34V1132C724.3 1090.58 690.721 1057 649.3 1057H367ZM394.285 1115.95C376.612 1115.95 362.285 1130.28 362.285 1147.95V1172.37C362.285 1190.05 376.612 1204.37 394.285 1204.37H620.501C638.174 1204.37 652.501 1190.05 652.501 1172.37V1147.95C652.501 1130.28 638.174 1115.95 620.501 1115.95H394.285Z" fill="#573240"/>
</g>
<defs>
<clipPath id="clip0">
<rect width="1430" height="1724" fill="white"/>
</clipPath>
</defs>
</svg>
