<svg width="1747" height="1724" viewBox="0 0 1747 1724" fill="none" xmlns="http://www.w3.org/2000/svg">
<g clip-path="url(#clip0)">
<rect width="1747" height="1724" fill="white"/>
<path d="M24.5312 332.599C24.5312 304.319 52.3503 281.394 86.6672 281.394C120.984 281.394 148.803 304.319 148.803 332.599H24.5312Z" fill="#B9CCF1"/>
<path d="M876.022 332.599H148.679C134.889 318.462 126.637 300.51 126.637 280.966C126.637 235.413 171.454 198.479 226.731 198.479C240.038 198.479 252.729 200.621 264.346 204.512C284.623 153.139 343.206 116 412.314 116C494.347 116 561.548 168.326 567.461 234.679C599.138 220.707 637.393 212.541 678.605 212.541C783.63 212.541 869.535 265.587 876.022 332.599Z" fill="#B9CCF1"/>
<path d="M-29 332.599H911.19" stroke="#B9CCF1" stroke-width="5" stroke-miterlimit="10"/>
<path d="M304.902 319.183C308.581 319.183 311.564 316.725 311.564 313.693C311.564 310.661 308.581 308.203 304.902 308.203C301.223 308.203 298.24 310.661 298.24 313.693C298.24 316.725 301.223 319.183 304.902 319.183Z" stroke="#B9CCF1" stroke-width="4" stroke-miterlimit="10"/>
<path d="M1248.1 839.66C1248.1 825.342 1262.19 813.735 1279.56 813.735C1296.93 813.735 1311.02 825.342 1311.02 839.66H1248.1Z" fill="#B9CCF1"/>
<path d="M1679.2 839.66H1310.96C1303.97 832.503 1299.8 823.414 1299.8 813.519C1299.8 790.457 1322.49 771.758 1350.47 771.758C1357.21 771.758 1363.64 772.842 1369.52 774.812C1379.78 748.803 1409.44 730 1444.43 730C1485.96 730 1519.98 756.492 1522.98 790.085C1539.02 783.011 1558.38 778.877 1579.25 778.877C1632.42 778.877 1675.91 805.733 1679.2 839.66Z" fill="#B9CCF1"/>
<path d="M1221 839.66H1697" stroke="#B9CCF1" stroke-width="5" stroke-miterlimit="10"/>
<path d="M1390.05 832.867C1391.91 832.867 1393.42 831.623 1393.42 830.088C1393.42 828.553 1391.91 827.309 1390.05 827.309C1388.19 827.309 1386.68 828.553 1386.68 830.088C1386.68 831.623 1388.19 832.867 1390.05 832.867Z" stroke="#B9CCF1" stroke-width="4" stroke-miterlimit="10"/>
<path d="M225 1650.31C225 1571.57 288.839 1507.76 367.58 1507.76C402.2 1507.76 433.96 1520.12 458.655 1540.66C456.802 1529.52 455.851 1518.08 455.851 1506.44C455.851 1390.77 549.624 1297 665.314 1297C764.171 1297 847.04 1365.5 869.007 1457.63C900.37 1447.47 934.777 1441.88 970.852 1441.88C1087.15 1441.88 1186.08 1500.03 1222.56 1581.13C1232.69 1579.75 1243.28 1579.04 1254.19 1579.04C1326.68 1579.04 1385.41 1610.96 1385.41 1650.31H225V1650.31Z" fill="#A9D8D5"/>
<path d="M411.952 1399.38C433.183 1428.87 428.801 1468.33 428.801 1468.33C428.801 1468.33 389.997 1459.96 368.767 1430.46C347.536 1400.96 339.993 1370.09 351.92 1361.51C363.845 1352.92 390.724 1369.88 411.952 1399.38Z" fill="#FF6E00"/>
<path d="M417.703 1582.88C439.11 1606.1 442.631 1637.67 442.631 1637.67C442.631 1637.67 411.444 1631.61 390.037 1608.39C368.63 1585.17 357.468 1560.64 365.109 1553.6C372.748 1546.55 396.294 1559.66 417.703 1582.88Z" fill="#573240"/>
<path d="M1095.87 1580.56C1087.87 1602.83 1065.69 1615.24 1065.69 1615.24C1065.69 1615.24 1056.48 1591.54 1064.48 1569.28C1072.48 1547.01 1086 1531.49 1094.67 1534.61C1103.33 1537.72 1103.87 1558.3 1095.87 1580.56Z" fill="#573240"/>
<path d="M1214 1582.85C1213.99 1605.42 1217.03 1627.89 1223.04 1649.65H1738.42C1744.44 1627.89 1747.48 1605.42 1747.46 1582.85C1747.46 1440.43 1628.04 1325 1480.71 1325C1333.38 1325 1214 1440.46 1214 1582.85Z" fill="#FFC200"/>
<path d="M1214.12 1574.91L1322.68 1537.51L1477.07 1579.03V1649.74H1484.38V1493.77L1600.31 1352.33C1598.06 1351.24 1595.79 1350.17 1593.48 1349.13L1484.38 1482.21V1325.04H1477.07V1413.48L1389.32 1340.56C1386.66 1341.54 1384.03 1342.51 1381.41 1343.49L1477.06 1422.97V1571.38L1226.67 1504.03C1225.9 1506.35 1225.21 1508.68 1224.48 1511.02L1310.64 1534.2L1214.47 1567.05C1214.33 1569.68 1214.2 1572.29 1214.12 1574.91Z" fill="white"/>
<path d="M1142.35 1503.45L1114.25 1649.97L1066.89 1723.64C1048.47 1674.81 1012.41 1671.49 1012.41 1671.49C1020.26 1615.26 988.234 1503.45 988.234 1503.45H1142.35Z" fill="#F6ACC1"/>
<path d="M1136.21 1535.46L1142.35 1503.45H988.234L989.238 1507.08L1136.21 1535.46Z" fill="#573240"/>
<path d="M1066.89 1723.65H968.934C968.934 1723.65 1012.09 1694.06 1012.41 1671.49C1012.41 1671.49 1048.47 1674.81 1066.89 1723.65Z" fill="#96CFCE"/>
<path d="M1114.26 1649.96C1114.26 1649.96 1143.22 1670.72 1128.59 1723.65H1120.99C1120.99 1723.65 1118.84 1688.16 1083.66 1697.57L1114.26 1649.96Z" fill="#96CFCE"/>
<path d="M1114.26 1649.96L1066.89 1723.65H968.934" stroke="#573240" stroke-width="5" stroke-miterlimit="10" stroke-linecap="round"/>
<path d="M1120.99 1723.65H1128.6" stroke="#573240" stroke-width="5" stroke-miterlimit="10" stroke-linecap="round"/>
<path d="M837.414 1503.45L804.916 1649.97L748.741 1723.64C730.76 1675.98 695.994 1671.68 694.324 1671.5C703.386 1615.27 692.994 1503.45 692.994 1503.45H837.414Z" fill="#F6ACC1"/>
<path d="M830.87 1532.94L837.409 1503.45H692.992C692.992 1503.45 692.864 1501.61 693.21 1505.8L830.87 1532.94Z" fill="#573240"/>
<path d="M748.739 1723.65H650.779C650.779 1723.65 693.935 1694.06 694.26 1671.49C694.26 1671.49 730.316 1674.81 748.739 1723.65Z" fill="#96CFCE"/>
<path d="M804.915 1649.96C804.915 1649.96 833.873 1670.72 819.252 1723.64H811.648C811.648 1723.64 806.154 1686.8 769.025 1697.57L804.915 1649.96Z" fill="#96CFCE"/>
<path d="M804.917 1649.96L748.741 1723.65H650.781" stroke="#573240" stroke-width="5" stroke-miterlimit="10" stroke-linecap="round"/>
<path d="M811.648 1723.65H819.251" stroke="#573240" stroke-width="5" stroke-miterlimit="10" stroke-linecap="round"/>
<path d="M642.004 941.132H527.574C511.793 941.132 499 928.339 499 912.558V880.229C499 864.448 511.793 851.655 527.574 851.655H642.004C657.785 851.655 670.578 864.448 670.578 880.229V912.558C670.578 928.338 657.785 941.132 642.004 941.132Z" fill="#573240"/>
<path d="M741.437 440.286V526.778C741.437 526.778 718.848 629.028 696.948 747.504L696.939 747.531L643.222 851.649L616.043 899.848C601.568 899.848 602.518 877.066 604.526 862.828C605.359 856.918 600.733 851.649 594.765 851.649H537.535C601.193 819.199 706.431 395.321 706.431 395.321C708.114 398.318 710.062 401.208 712.265 403.949L741.437 440.286Z" fill="#F6ACC1"/>
<path d="M882.969 1005.17L864.249 1127.98C864.249 1127.98 915.083 1373.62 857.233 1503.45H692.313C692.313 1503.45 656.258 1237.94 656.356 1053.13C656.426 911.578 741.438 526.778 741.438 526.778V440.286L712.266 403.949C696.552 384.375 693.74 357.415 705.083 335.021L748.144 249.974C753.573 239.239 763.109 231.149 774.583 227.544L821.222 212.87L824.774 373.551L944.959 199.853L1039.89 246.39L949.638 522.679C949.638 522.679 1166.03 808.666 1176.55 1503.45H988.231L882.969 1005.17Z" fill="#EE7E5C"/>
<mask id="mask0" mask-type="alpha" maskUnits="userSpaceOnUse" x="656" y="206" width="521" height="1305">
<path d="M882.969 1012.17L864.249 1134.98C864.249 1134.98 915.083 1380.62 857.233 1510.45H692.313C692.313 1510.45 656.258 1244.94 656.356 1060.13C656.426 918.578 741.438 533.778 741.438 533.778V447.286L712.266 410.949C696.552 391.375 693.74 364.415 705.083 342.021L748.144 256.974C753.573 246.239 763.109 238.149 774.583 234.544L821.222 219.87L824.774 380.551L944.959 206.853L1039.89 253.39L949.638 529.679C949.638 529.679 1166.03 815.666 1176.55 1510.45H988.231L882.969 1012.17Z" fill="#EE7E5C"/>
</mask>
<g mask="url(#mask0)">
<path fill-rule="evenodd" clip-rule="evenodd" d="M1205.89 1074.71L1170.82 1088.68C1168.09 1089.77 1166.76 1092.88 1167.84 1095.62C1168.93 1098.36 1172.02 1099.71 1174.75 1098.62L1209.81 1084.65C1212.54 1083.57 1213.88 1080.46 1212.8 1077.71C1211.71 1074.97 1208.62 1073.62 1205.89 1074.71ZM1107.87 1085.57L1070.18 1084.26C1067.25 1084.16 1064.78 1086.47 1064.68 1089.42C1064.58 1092.37 1066.87 1094.85 1069.81 1094.94L1107.51 1096.26C1110.44 1096.36 1112.91 1094.05 1113.01 1091.1C1113.11 1088.16 1110.81 1085.68 1107.87 1085.57ZM1149.98 1033.45L1143 1070.67C1142.46 1073.57 1144.36 1076.37 1147.24 1076.91C1150.13 1077.46 1152.92 1075.55 1153.46 1072.64L1160.44 1035.43C1160.98 1032.53 1159.09 1029.73 1156.19 1029.19C1153.31 1028.64 1150.53 1030.55 1149.98 1033.45ZM1031.63 1060.18L1067.96 1050C1070.79 1049.21 1072.44 1046.26 1071.65 1043.41C1070.86 1040.57 1067.92 1038.91 1065.09 1039.7L1028.77 1049.88C1025.93 1050.68 1024.28 1053.62 1025.07 1056.47C1025.86 1059.31 1028.8 1060.97 1031.63 1060.18ZM1088.9 1005.65L1109.56 1037.35C1111.16 1039.82 1114.46 1040.51 1116.92 1038.89C1119.38 1037.28 1120.07 1033.96 1118.46 1031.49L1097.82 999.797C1096.2 997.329 1092.9 996.634 1090.45 998.255C1087.99 999.868 1087.3 1003.18 1088.9 1005.65ZM1214.16 1010.75L1176.6 1007.36C1173.67 1007.09 1171.08 1009.27 1170.81 1012.21C1170.55 1015.15 1172.71 1017.74 1175.64 1018.01L1213.2 1021.4C1216.13 1021.66 1218.72 1019.49 1218.98 1016.55C1219.25 1013.61 1217.08 1011.01 1214.16 1010.75ZM1059.92 998.79L1077.28 965.176C1078.63 962.557 1077.61 959.323 1075 957.969C1072.39 956.606 1069.18 957.631 1067.82 960.25L1050.46 993.872C1049.11 996.491 1050.13 999.716 1052.74 1001.08C1055.35 1002.43 1058.56 1001.41 1059.92 998.79ZM1171.19 964.241L1137.01 980.277C1134.35 981.524 1133.21 984.705 1134.45 987.378C1135.69 990.05 1138.86 991.208 1141.52 989.961L1175.69 973.934C1178.36 972.678 1179.51 969.497 1178.26 966.825C1177.02 964.152 1173.85 962.994 1171.19 964.241ZM1118.8 956.161L1107.88 919.91C1107.03 917.086 1104.05 915.491 1101.24 916.338C1098.43 917.193 1096.84 920.186 1097.69 923.002L1108.61 959.261C1109.46 962.085 1112.44 963.68 1115.25 962.824C1118.06 961.969 1119.65 958.985 1118.8 956.161ZM1205.1 902.021L1205.43 939.884C1205.46 942.833 1207.86 945.212 1210.8 945.185C1213.75 945.158 1216.11 942.744 1216.08 939.795L1215.75 901.923C1215.72 898.974 1213.31 896.596 1210.37 896.622C1207.44 896.649 1205.08 899.063 1205.1 902.021ZM1169.45 898.066L1150.2 930.637C1148.7 933.167 1149.53 936.454 1152.06 937.96C1154.58 939.465 1157.85 938.628 1159.35 936.089L1178.6 903.527C1180.1 900.988 1179.27 897.709 1176.75 896.204C1174.22 894.698 1170.95 895.535 1169.45 898.066ZM1026.43 926.61L1063.6 932.988C1066.5 933.487 1069.25 931.527 1069.75 928.614C1070.24 925.71 1068.29 922.948 1065.39 922.449L1028.22 916.07C1025.33 915.58 1022.57 917.532 1022.08 920.445C1021.58 923.349 1023.53 926.111 1026.43 926.61ZM1075.52 894.137L1071.65 856.461C1071.35 853.53 1068.73 851.392 1065.81 851.695C1062.89 851.997 1060.76 854.626 1061.06 857.566L1064.93 895.232C1065.24 898.172 1067.86 900.311 1070.78 900.008C1073.7 899.705 1075.82 897.077 1075.52 894.137ZM1148.87 864.123L1112.39 873.726C1109.55 874.475 1107.84 877.397 1108.59 880.248C1109.33 883.099 1112.25 884.809 1115.09 884.061L1151.57 874.457C1154.41 873.717 1156.11 870.786 1155.37 867.936C1154.62 865.085 1151.71 863.374 1148.87 864.123ZM1169.12 831.355L1182.78 866.662C1183.84 869.406 1186.93 870.778 1189.67 869.708C1192.41 868.639 1193.77 865.539 1192.7 862.786L1179.05 827.489C1177.98 824.736 1174.9 823.373 1172.16 824.442C1169.42 825.502 1168.06 828.603 1169.12 831.355ZM1084.63 814.553L1112.25 840.336C1114.4 842.349 1117.77 842.224 1119.78 840.06C1121.77 837.904 1121.65 834.518 1119.49 832.505L1091.87 806.722C1089.72 804.718 1086.35 804.834 1084.35 806.999C1082.35 809.163 1082.47 812.54 1084.63 814.553ZM1056.12 797.368L1031.84 826.349C1029.95 828.603 1030.23 831.979 1032.49 833.877C1034.73 835.774 1038.09 835.48 1039.98 833.226L1064.26 804.246C1066.15 801.992 1065.86 798.615 1063.62 796.718C1061.37 794.811 1058.01 795.105 1056.12 797.368ZM1142.08 782L1154.08 782.116L1137.42 813.52C1136.04 816.121 1132.81 817.11 1130.22 815.72C1127.63 814.33 1126.64 811.097 1128.03 808.486L1142.08 782ZM1211.8 797.742C1213.63 800.29 1215.52 803.337 1217.29 806.918L1202.51 814.838C1199.92 816.228 1196.69 815.248 1195.32 812.647C1193.93 810.036 1194.91 806.802 1197.5 805.413L1211.8 797.742Z" fill="white"/>
<path fill-rule="evenodd" clip-rule="evenodd" d="M995.885 968.712L960.824 982.681C958.091 983.768 956.76 986.877 957.843 989.621C958.925 992.365 962.021 993.71 964.754 992.623L999.806 978.654C1002.54 977.567 1003.88 974.458 1002.8 971.714C1001.71 968.97 998.618 967.625 995.885 968.712ZM897.87 979.572L860.182 978.262C857.246 978.164 854.779 980.472 854.682 983.42C854.575 986.369 856.873 988.846 859.809 988.944L897.506 990.262C900.442 990.36 902.909 988.053 903.006 985.104C903.113 982.155 900.806 979.679 897.87 979.572ZM939.984 927.454L933.002 964.667C932.461 967.571 934.359 970.369 937.243 970.912C940.135 971.456 942.92 969.549 943.462 966.645L950.444 929.432C950.985 926.528 949.086 923.731 946.194 923.187C943.311 922.644 940.525 924.55 939.984 927.454ZM821.625 954.181L857.955 943.998C860.785 943.206 862.435 940.257 861.646 937.415C860.856 934.573 857.92 932.907 855.09 933.7L818.769 943.883C815.93 944.675 814.279 947.624 815.069 950.466C815.859 953.308 818.795 954.965 821.625 954.181ZM878.902 899.65L899.555 931.348C901.161 933.815 904.461 934.51 906.919 932.889C909.376 931.276 910.068 927.962 908.462 925.495L887.818 893.797C886.203 891.329 882.903 890.634 880.445 892.255C877.988 893.868 877.296 897.182 878.902 899.65ZM1004.16 904.755L966.599 901.36C963.672 901.093 961.081 903.267 960.815 906.207C960.549 909.147 962.713 911.739 965.641 912.006L1003.2 915.401C1006.13 915.659 1008.72 913.494 1008.98 910.554C1009.25 907.614 1007.08 905.013 1004.16 904.755ZM849.917 892.79L867.28 859.176C868.628 856.557 867.608 853.323 864.999 851.969C862.391 850.606 859.18 851.631 857.822 854.25L840.46 887.872C839.112 890.491 840.132 893.716 842.74 895.079C845.348 896.434 848.56 895.409 849.917 892.79ZM961.187 858.241L927.013 874.277C924.352 875.524 923.207 878.705 924.449 881.378C925.691 884.05 928.859 885.208 931.52 883.961L965.694 867.934C968.356 866.678 969.509 863.497 968.258 860.825C967.016 858.152 963.849 856.994 961.187 858.241ZM908.8 850.161L897.878 813.91C897.027 811.086 894.055 809.491 891.242 810.338C888.43 811.193 886.842 814.186 887.694 817.002L898.615 853.261C899.458 856.085 902.438 857.68 905.251 856.824C908.063 855.969 909.651 852.985 908.8 850.161ZM995.104 796.021L995.433 833.884C995.459 836.833 997.863 839.212 1000.8 839.185C1003.75 839.158 1006.11 836.744 1006.08 833.795L1005.75 795.923C1005.72 792.974 1003.31 790.596 1000.37 790.622C997.438 790.649 995.078 793.063 995.104 796.021ZM959.449 792.066L940.197 824.637C938.697 827.167 939.531 830.454 942.06 831.96C944.579 833.465 947.853 832.628 949.353 830.089L968.604 797.527C970.104 794.988 969.27 791.709 966.75 790.204C964.222 788.698 960.948 789.535 959.449 792.066ZM816.426 820.61L853.599 826.988C856.5 827.487 859.251 825.527 859.747 822.614C860.244 819.71 858.292 816.948 855.391 816.449L818.219 810.07C815.326 809.58 812.567 811.532 812.079 814.445C811.582 817.349 813.534 820.111 816.426 820.61ZM865.523 788.137L861.646 750.461C861.353 747.53 858.727 745.392 855.808 745.695C852.889 745.997 850.76 748.626 851.062 751.566L854.93 789.232C855.241 792.172 857.858 794.311 860.776 794.008C863.695 793.705 865.825 791.077 865.523 788.137ZM938.875 758.123L902.394 767.726C899.546 768.475 897.843 771.397 898.588 774.248C899.333 777.099 902.252 778.809 905.091 778.061L941.572 768.457C944.411 767.717 946.114 764.786 945.369 761.936C944.624 759.085 941.714 757.374 938.875 758.123ZM959.12 725.355L972.783 760.662C973.839 763.406 976.926 764.778 979.667 763.708C982.409 762.639 983.766 759.539 982.702 756.786L969.048 721.489C967.983 718.736 964.896 717.373 962.163 718.442C959.422 719.502 958.056 722.603 959.12 725.355ZM874.625 708.553L902.252 734.336C904.399 736.349 907.77 736.224 909.775 734.06C911.772 731.904 911.647 728.518 909.492 726.505L881.874 700.722C879.718 698.718 876.347 698.834 874.35 700.999C872.345 703.163 872.469 706.54 874.625 708.553ZM846.12 691.368L821.838 720.349C819.948 722.603 820.232 725.979 822.486 727.877C824.73 729.774 828.093 729.48 829.983 727.226L854.265 698.246C856.154 695.992 855.862 692.615 853.617 690.718C851.372 688.811 848.01 689.105 846.12 691.368ZM932.079 676L944.083 676.116L927.421 707.52C926.037 710.121 922.808 711.11 920.217 709.72C917.627 708.33 916.642 705.097 918.026 702.486L932.079 676ZM1001.8 691.742C1003.63 694.29 1005.52 697.337 1007.29 700.918L992.514 708.838C989.923 710.228 986.694 709.248 985.319 706.647C983.935 704.036 984.911 700.802 987.501 699.413L1001.8 691.742Z" fill="white"/>
<path fill-rule="evenodd" clip-rule="evenodd" d="M1128.89 1702.25L1093.82 1716.22C1091.09 1717.31 1089.76 1720.42 1090.84 1723.16C1091.93 1725.91 1095.02 1727.25 1097.75 1726.16L1132.81 1712.19C1135.54 1711.11 1136.88 1708 1135.8 1705.25C1134.71 1702.51 1131.62 1701.17 1128.89 1702.25ZM1030.87 1713.11L993.182 1711.8C990.246 1711.7 987.779 1714.01 987.682 1716.96C987.575 1719.91 989.873 1722.39 992.809 1722.48L1030.51 1723.8C1033.44 1723.9 1035.91 1721.59 1036.01 1718.64C1036.11 1715.7 1033.81 1713.22 1030.87 1713.11ZM1072.98 1661L1066 1698.21C1065.46 1701.11 1067.36 1703.91 1070.24 1704.45C1073.13 1705 1075.92 1703.09 1076.46 1700.19L1083.44 1662.97C1083.98 1660.07 1082.09 1657.27 1079.19 1656.73C1076.31 1656.18 1073.53 1658.09 1072.98 1661ZM954.625 1687.72L990.955 1677.54C993.785 1676.75 995.435 1673.8 994.646 1670.96C993.856 1668.11 990.92 1666.45 988.09 1667.24L951.769 1677.42C948.93 1678.22 947.279 1681.17 948.069 1684.01C948.859 1686.85 951.795 1688.51 954.625 1687.72ZM1011.9 1633.19L1032.56 1664.89C1034.16 1667.36 1037.46 1668.05 1039.92 1666.43C1042.38 1664.82 1043.07 1661.5 1041.46 1659.04L1020.82 1627.34C1019.2 1624.87 1015.9 1624.17 1013.45 1625.8C1010.99 1627.41 1010.3 1630.72 1011.9 1633.19ZM1137.16 1638.3L1099.6 1634.9C1096.67 1634.63 1094.08 1636.81 1093.81 1639.75C1093.55 1642.69 1095.71 1645.28 1098.64 1645.55L1136.2 1648.94C1139.13 1649.2 1141.72 1647.03 1141.98 1644.1C1142.25 1641.16 1140.08 1638.55 1137.16 1638.3ZM982.917 1626.33L1000.28 1592.72C1001.63 1590.1 1000.61 1586.86 997.999 1585.51C995.391 1584.15 992.18 1585.17 990.822 1587.79L973.46 1621.41C972.112 1624.03 973.132 1627.26 975.74 1628.62C978.348 1629.97 981.56 1628.95 982.917 1626.33ZM1094.19 1591.78L1060.01 1607.82C1057.35 1609.07 1056.21 1612.25 1057.45 1614.92C1058.69 1617.59 1061.86 1618.75 1064.52 1617.5L1098.69 1601.47C1101.36 1600.22 1102.51 1597.04 1101.26 1594.37C1100.02 1591.69 1096.85 1590.53 1094.19 1591.78ZM1041.8 1583.7L1030.88 1547.45C1030.03 1544.63 1027.05 1543.03 1024.24 1543.88C1021.43 1544.73 1019.84 1547.73 1020.69 1550.54L1031.61 1586.8C1032.46 1589.63 1035.44 1591.22 1038.25 1590.37C1041.06 1589.51 1042.65 1586.53 1041.8 1583.7ZM1128.1 1529.56L1128.43 1567.42C1128.46 1570.37 1130.86 1572.75 1133.8 1572.73C1136.75 1572.7 1139.11 1570.28 1139.08 1567.34L1138.75 1529.46C1138.72 1526.51 1136.31 1524.14 1133.37 1524.16C1130.44 1524.19 1128.08 1526.6 1128.1 1529.56ZM1092.45 1525.61L1073.2 1558.18C1071.7 1560.71 1072.53 1563.99 1075.06 1565.5C1077.58 1567.01 1080.85 1566.17 1082.35 1563.63L1101.6 1531.07C1103.1 1528.53 1102.27 1525.25 1099.75 1523.74C1097.22 1522.24 1093.95 1523.08 1092.45 1525.61ZM949.426 1554.15L986.599 1560.53C989.5 1561.03 992.251 1559.07 992.747 1556.16C993.244 1553.25 991.292 1550.49 988.391 1549.99L951.219 1543.61C948.326 1543.12 945.567 1545.07 945.079 1547.99C944.582 1550.89 946.534 1553.65 949.426 1554.15ZM998.523 1521.68L994.646 1484C994.353 1481.07 991.727 1478.93 988.808 1479.24C985.889 1479.54 983.76 1482.17 984.062 1485.11L987.93 1522.77C988.241 1525.71 990.858 1527.85 993.776 1527.55C996.695 1527.25 998.825 1524.62 998.523 1521.68ZM1071.87 1491.66L1035.39 1501.27C1032.55 1502.02 1030.84 1504.94 1031.59 1507.79C1032.33 1510.64 1035.25 1512.35 1038.09 1511.6L1074.57 1502C1077.41 1501.26 1079.11 1498.33 1078.37 1495.48C1077.62 1492.63 1074.71 1490.91 1071.87 1491.66ZM1092.12 1458.9L1105.78 1494.2C1106.84 1496.95 1109.93 1498.32 1112.67 1497.25C1115.41 1496.18 1116.77 1493.08 1115.7 1490.33L1102.05 1455.03C1100.98 1452.28 1097.9 1450.91 1095.16 1451.98C1092.42 1453.04 1091.06 1456.14 1092.12 1458.9ZM1007.63 1442.09L1035.25 1467.88C1037.4 1469.89 1040.77 1469.77 1042.78 1467.6C1044.77 1465.44 1044.65 1462.06 1042.49 1460.05L1014.87 1434.26C1012.72 1432.26 1009.35 1432.37 1007.35 1434.54C1005.35 1436.7 1005.47 1440.08 1007.63 1442.09ZM979.12 1424.91L954.838 1453.89C952.948 1456.14 953.232 1459.52 955.486 1461.42C957.73 1463.32 961.093 1463.02 962.983 1460.77L987.265 1431.79C989.154 1429.53 988.862 1426.16 986.617 1424.26C984.372 1422.35 981.01 1422.65 979.12 1424.91Z" fill="white"/>
<path fill-rule="evenodd" clip-rule="evenodd" d="M864.885 672.253L829.824 686.222C827.091 687.309 825.76 690.418 826.843 693.162C827.925 695.906 831.021 697.251 833.754 696.164L868.806 682.195C871.539 681.108 872.879 677.999 871.796 675.255C870.714 672.511 867.618 671.166 864.885 672.253ZM766.87 683.112L729.182 681.803C726.246 681.705 723.779 684.012 723.682 686.961C723.575 689.91 725.873 692.387 728.809 692.485L766.506 693.803C769.442 693.901 771.909 691.594 772.006 688.645C772.113 685.696 769.806 683.219 766.87 683.112ZM808.984 630.995L802.002 668.208C801.461 671.112 803.359 673.91 806.243 674.453C809.135 674.996 811.92 673.09 812.462 670.186L819.444 632.973C819.985 630.069 818.086 627.271 815.194 626.728C812.311 626.185 809.525 628.091 808.984 630.995ZM690.625 657.722L726.955 647.539C729.785 646.746 731.435 643.797 730.646 640.955C729.856 638.114 726.92 636.448 724.09 637.24L687.769 647.423C684.93 648.216 683.279 651.165 684.069 654.007C684.859 656.849 687.795 658.506 690.625 657.722ZM747.902 603.191L768.555 634.888C770.161 637.356 773.461 638.051 775.919 636.43C778.376 634.817 779.068 631.503 777.462 629.035L756.818 597.337C755.203 594.87 751.903 594.175 749.445 595.796C746.988 597.409 746.296 600.723 747.902 603.191ZM873.162 608.295L835.599 604.901C832.672 604.634 830.081 606.808 829.815 609.747C829.549 612.687 831.713 615.28 834.641 615.547L872.204 618.941C875.132 619.2 877.723 617.035 877.98 614.095C878.246 611.155 876.081 608.554 873.162 608.295ZM718.917 596.331L736.28 562.717C737.628 560.098 736.608 556.864 733.999 555.51C731.391 554.147 728.18 555.171 726.822 557.791L709.46 591.413C708.112 594.032 709.132 597.257 711.74 598.62C714.348 599.974 717.56 598.95 718.917 596.331ZM830.187 561.782L796.013 577.818C793.352 579.065 792.207 582.246 793.449 584.918C794.691 587.591 797.859 588.749 800.52 587.502L834.694 571.475C837.356 570.219 838.509 567.038 837.258 564.365C836.016 561.693 832.849 560.535 830.187 561.782ZM777.8 553.701L766.878 517.451C766.027 514.627 763.055 513.032 760.242 513.879C757.43 514.734 755.842 517.727 756.694 520.542L767.615 556.802C768.458 559.626 771.438 561.221 774.251 560.365C777.063 559.51 778.651 556.526 777.8 553.701ZM864.104 499.562L864.433 537.425C864.459 540.374 866.863 542.752 869.8 542.726C872.745 542.699 875.105 540.285 875.079 537.336L874.75 499.464C874.724 496.515 872.311 494.136 869.374 494.163C866.438 494.19 864.078 496.604 864.104 499.562ZM828.449 495.606L809.197 528.177C807.697 530.707 808.531 533.995 811.06 535.501C813.579 537.006 816.853 536.169 818.353 533.63L837.604 501.067C839.104 498.528 838.27 495.25 835.75 493.744C833.222 492.239 829.948 493.076 828.449 495.606ZM685.426 524.151L722.599 530.529C725.5 531.028 728.251 529.068 728.747 526.155C729.244 523.251 727.292 520.489 724.391 519.99L687.219 513.611C684.326 513.121 681.567 515.072 681.079 517.986C680.582 520.89 682.534 523.652 685.426 524.151ZM734.523 491.677L730.646 454.002C730.353 451.071 727.727 448.932 724.808 449.235C721.889 449.538 719.76 452.166 720.062 455.106L723.93 492.773C724.241 495.713 726.858 497.851 729.776 497.549C732.695 497.246 734.825 494.617 734.523 491.677ZM807.875 461.663L771.394 471.267C768.546 472.016 766.843 474.938 767.588 477.788C768.333 480.639 771.252 482.35 774.091 481.602L810.572 471.998C813.411 471.258 815.114 468.327 814.369 465.476C813.624 462.626 810.714 460.915 807.875 461.663ZM828.12 428.896L841.783 464.202C842.839 466.946 845.926 468.318 848.667 467.249C851.409 466.18 852.766 463.08 851.702 460.327L838.048 425.03C836.983 422.277 833.896 420.914 831.163 421.983C828.422 423.043 827.056 426.143 828.12 428.896ZM743.625 412.094L771.252 437.876C773.399 439.89 776.77 439.765 778.775 437.6C780.772 435.444 780.647 432.059 778.492 430.046L750.874 404.263C748.718 402.259 745.347 402.374 743.35 404.539C741.345 406.704 741.469 410.081 743.625 412.094ZM715.12 394.909L690.838 423.889C688.948 426.143 689.232 429.52 691.486 431.417C693.73 433.315 697.093 433.021 698.983 430.767L723.265 401.786C725.154 399.532 724.862 396.156 722.617 394.258C720.372 392.352 717.01 392.646 715.12 394.909Z" fill="white"/>
<path fill-rule="evenodd" clip-rule="evenodd" d="M1053.89 435.253L1018.82 449.222C1016.09 450.309 1014.76 453.418 1015.84 456.162C1016.93 458.906 1020.02 460.251 1022.75 459.164L1057.81 445.195C1060.54 444.108 1061.88 440.999 1060.8 438.255C1059.71 435.511 1056.62 434.166 1053.89 435.253ZM955.87 446.112L918.182 444.803C915.246 444.705 912.779 447.012 912.682 449.961C912.575 452.91 914.873 455.387 917.809 455.485L955.506 456.803C958.442 456.901 960.909 454.594 961.006 451.645C961.113 448.696 958.806 446.219 955.87 446.112ZM997.984 393.995L991.002 431.208C990.461 434.112 992.359 436.91 995.243 437.453C998.135 437.996 1000.92 436.09 1001.46 433.186L1008.44 395.973C1008.98 393.069 1007.09 390.271 1004.19 389.728C1001.31 389.185 998.525 391.091 997.984 393.995ZM879.625 420.722L915.955 410.539C918.785 409.746 920.435 406.797 919.646 403.955C918.856 401.114 915.92 399.448 913.09 400.24L876.769 410.423C873.93 411.216 872.279 414.165 873.069 417.007C873.859 419.849 876.795 421.506 879.625 420.722ZM936.902 366.191L957.555 397.888C959.161 400.356 962.461 401.051 964.919 399.43C967.376 397.817 968.068 394.503 966.462 392.035L945.818 360.337C944.203 357.87 940.903 357.175 938.445 358.796C935.988 360.409 935.296 363.723 936.902 366.191ZM1062.16 371.295L1024.6 367.901C1021.67 367.634 1019.08 369.808 1018.81 372.747C1018.55 375.687 1020.71 378.28 1023.64 378.547L1061.2 381.941C1064.13 382.2 1066.72 380.035 1066.98 377.095C1067.25 374.155 1065.08 371.554 1062.16 371.295ZM907.917 359.331L925.28 325.717C926.628 323.098 925.608 319.864 922.999 318.51C920.391 317.147 917.18 318.171 915.822 320.791L898.46 354.413C897.112 357.032 898.132 360.257 900.74 361.62C903.348 362.974 906.56 361.95 907.917 359.331ZM1019.19 324.782L985.013 340.818C982.352 342.065 981.207 345.246 982.449 347.918C983.691 350.591 986.859 351.749 989.52 350.502L1023.69 334.475C1026.36 333.219 1027.51 330.038 1026.26 327.365C1025.02 324.693 1021.85 323.535 1019.19 324.782ZM966.8 316.701L955.878 280.451C955.027 277.627 952.055 276.032 949.242 276.879C946.43 277.734 944.842 280.727 945.694 283.542L956.615 319.802C957.458 322.626 960.438 324.221 963.251 323.365C966.063 322.51 967.651 319.526 966.8 316.701ZM1053.1 262.562L1053.43 300.425C1053.46 303.374 1055.86 305.752 1058.8 305.726C1061.75 305.699 1064.11 303.285 1064.08 300.336L1063.75 262.464C1063.72 259.515 1061.31 257.136 1058.37 257.163C1055.44 257.19 1053.08 259.604 1053.1 262.562ZM1017.45 258.606L998.197 291.177C996.697 293.707 997.531 296.995 1000.06 298.501C1002.58 300.006 1005.85 299.169 1007.35 296.63L1026.6 264.067C1028.1 261.528 1027.27 258.25 1024.75 256.744C1022.22 255.239 1018.95 256.076 1017.45 258.606ZM874.426 287.151L911.599 293.529C914.5 294.028 917.251 292.068 917.747 289.155C918.244 286.251 916.292 283.489 913.391 282.99L876.219 276.611C873.326 276.121 870.567 278.072 870.079 280.986C869.582 283.89 871.534 286.652 874.426 287.151ZM923.523 254.677L919.646 217.002C919.353 214.071 916.727 211.932 913.808 212.235C910.889 212.538 908.76 215.166 909.062 218.106L912.93 255.773C913.241 258.713 915.858 260.851 918.776 260.549C921.695 260.246 923.825 257.617 923.523 254.677ZM996.875 224.663L960.394 234.267C957.546 235.016 955.843 237.938 956.588 240.788C957.333 243.639 960.252 245.35 963.091 244.602L999.572 234.998C1002.41 234.258 1004.11 231.327 1003.37 228.476C1002.62 225.626 999.714 223.915 996.875 224.663ZM1017.12 191.896L1030.78 227.202C1031.84 229.946 1034.93 231.318 1037.67 230.249C1040.41 229.18 1041.77 226.08 1040.7 223.327L1027.05 188.03C1025.98 185.277 1022.9 183.914 1020.16 184.983C1017.42 186.043 1016.06 189.143 1017.12 191.896ZM932.625 175.094L960.252 200.876C962.399 202.89 965.77 202.765 967.775 200.6C969.772 198.444 969.647 195.059 967.492 193.046L939.874 167.263C937.718 165.259 934.347 165.374 932.35 167.539C930.345 169.704 930.469 173.081 932.625 175.094ZM904.12 157.909L879.838 186.889C877.948 189.143 878.232 192.52 880.486 194.417C882.73 196.315 886.093 196.021 887.983 193.767L912.265 164.786C914.154 162.532 913.862 159.156 911.617 157.258C909.372 155.352 906.01 155.646 904.12 157.909Z" fill="white"/>
<path fill-rule="evenodd" clip-rule="evenodd" d="M867.885 358.253L832.824 372.222C830.091 373.309 828.76 376.418 829.843 379.162C830.925 381.906 834.021 383.251 836.754 382.164L871.806 368.195C874.539 367.108 875.879 363.999 874.796 361.255C873.714 358.511 870.618 357.166 867.885 358.253ZM769.87 369.112L732.182 367.803C729.246 367.705 726.779 370.012 726.682 372.961C726.575 375.91 728.873 378.387 731.809 378.485L769.506 379.803C772.442 379.901 774.909 377.594 775.006 374.645C775.113 371.696 772.806 369.219 769.87 369.112ZM811.984 316.995L805.002 354.208C804.461 357.112 806.359 359.91 809.243 360.453C812.135 360.996 814.92 359.09 815.462 356.186L822.444 318.973C822.985 316.069 821.086 313.271 818.194 312.728C815.311 312.185 812.525 314.091 811.984 316.995ZM693.625 343.722L729.955 333.539C732.785 332.746 734.435 329.797 733.646 326.955C732.856 324.114 729.92 322.448 727.09 323.24L690.769 333.423C687.93 334.216 686.279 337.165 687.069 340.007C687.859 342.849 690.795 344.506 693.625 343.722ZM750.902 289.191L771.555 320.888C773.161 323.356 776.461 324.051 778.919 322.43C781.376 320.817 782.068 317.503 780.462 315.035L759.818 283.337C758.203 280.87 754.903 280.175 752.445 281.796C749.988 283.409 749.296 286.723 750.902 289.191ZM876.162 294.295L838.599 290.901C835.672 290.634 833.081 292.808 832.815 295.747C832.549 298.687 834.713 301.28 837.641 301.547L875.204 304.941C878.132 305.2 880.723 303.035 880.98 300.095C881.246 297.155 879.081 294.554 876.162 294.295ZM721.917 282.331L739.28 248.717C740.628 246.098 739.608 242.864 736.999 241.51C734.391 240.147 731.18 241.171 729.822 243.791L712.46 277.413C711.112 280.032 712.132 283.257 714.74 284.62C717.348 285.974 720.56 284.95 721.917 282.331ZM833.187 247.782L799.013 263.818C796.352 265.065 795.207 268.246 796.449 270.918C797.691 273.591 800.859 274.749 803.52 273.502L837.694 257.475C840.356 256.219 841.509 253.038 840.258 250.365C839.016 247.693 835.849 246.535 833.187 247.782ZM780.8 239.701L769.878 203.451C769.027 200.627 766.055 199.032 763.242 199.879C760.43 200.734 758.842 203.727 759.694 206.542L770.615 242.802C771.458 245.626 774.438 247.221 777.251 246.365C780.063 245.51 781.651 242.526 780.8 239.701ZM867.104 185.562L867.433 223.425C867.459 226.374 869.863 228.752 872.8 228.726C875.745 228.699 878.105 226.285 878.079 223.336L877.75 185.464C877.724 182.515 875.311 180.136 872.374 180.163C869.438 180.19 867.078 182.604 867.104 185.562ZM831.449 181.606L812.197 214.177C810.697 216.707 811.531 219.995 814.06 221.501C816.579 223.006 819.853 222.169 821.353 219.63L840.604 187.067C842.104 184.528 841.27 181.25 838.75 179.744C836.222 178.239 832.948 179.076 831.449 181.606ZM688.426 210.151L725.599 216.529C728.5 217.028 731.251 215.068 731.747 212.155C732.244 209.251 730.292 206.489 727.391 205.99L690.219 199.611C687.326 199.121 684.567 201.072 684.079 203.986C683.582 206.89 685.534 209.652 688.426 210.151ZM737.523 177.677L733.646 140.002C733.353 137.071 730.727 134.932 727.808 135.235C724.889 135.538 722.76 138.166 723.062 141.106L726.93 178.773C727.241 181.713 729.858 183.851 732.776 183.549C735.695 183.246 737.825 180.617 737.523 177.677ZM810.875 147.663L774.394 157.267C771.546 158.016 769.843 160.938 770.588 163.788C771.333 166.639 774.252 168.35 777.091 167.602L813.572 157.998C816.411 157.258 818.114 154.327 817.369 151.476C816.624 148.626 813.714 146.915 810.875 147.663ZM831.12 114.896L844.783 150.202C845.839 152.946 848.926 154.318 851.667 153.249C854.409 152.18 855.766 149.08 854.702 146.327L841.048 111.03C839.983 108.277 836.896 106.914 834.163 107.983C831.422 109.043 830.056 112.143 831.12 114.896ZM746.625 98.094L774.252 123.876C776.399 125.89 779.77 125.765 781.775 123.6C783.772 121.444 783.647 118.059 781.492 116.046L753.874 90.2631C751.718 88.2586 748.347 88.3744 746.35 90.5393C744.345 92.7042 744.469 96.0806 746.625 98.094ZM718.12 80.9087L693.838 109.889C691.948 112.143 692.232 115.52 694.486 117.417C696.73 119.315 700.093 119.021 701.983 116.767L726.265 87.7864C728.154 85.5324 727.862 82.156 725.617 80.2584C723.372 78.3518 720.01 78.6458 718.12 80.9087Z" fill="white"/>
<path fill-rule="evenodd" clip-rule="evenodd" d="M1100.89 674.253L1065.82 688.222C1063.09 689.309 1061.76 692.418 1062.84 695.162C1063.93 697.906 1067.02 699.251 1069.75 698.164L1104.81 684.195C1107.54 683.108 1108.88 679.999 1107.8 677.255C1106.71 674.511 1103.62 673.166 1100.89 674.253ZM1002.87 685.112L965.182 683.803C962.246 683.705 959.779 686.012 959.682 688.961C959.575 691.91 961.873 694.387 964.809 694.485L1002.51 695.803C1005.44 695.901 1007.91 693.594 1008.01 690.645C1008.11 687.696 1005.81 685.219 1002.87 685.112ZM1044.98 632.995L1038 670.208C1037.46 673.112 1039.36 675.91 1042.24 676.453C1045.13 676.996 1047.92 675.09 1048.46 672.186L1055.44 634.973C1055.98 632.069 1054.09 629.271 1051.19 628.728C1048.31 628.185 1045.53 630.091 1044.98 632.995ZM926.625 659.722L962.955 649.539C965.785 648.746 967.435 645.797 966.646 642.955C965.856 640.114 962.92 638.448 960.09 639.24L923.769 649.423C920.93 650.216 919.279 653.165 920.069 656.007C920.859 658.849 923.795 660.506 926.625 659.722ZM983.902 605.191L1004.56 636.888C1006.16 639.356 1009.46 640.051 1011.92 638.43C1014.38 636.817 1015.07 633.503 1013.46 631.035L992.818 599.337C991.203 596.87 987.903 596.175 985.445 597.796C982.988 599.409 982.296 602.723 983.902 605.191ZM1109.16 610.295L1071.6 606.901C1068.67 606.634 1066.08 608.808 1065.81 611.747C1065.55 614.687 1067.71 617.28 1070.64 617.547L1108.2 620.941C1111.13 621.2 1113.72 619.035 1113.98 616.095C1114.25 613.155 1112.08 610.554 1109.16 610.295ZM954.917 598.331L972.28 564.717C973.628 562.098 972.608 558.864 969.999 557.51C967.391 556.147 964.18 557.171 962.822 559.791L945.46 593.413C944.112 596.032 945.132 599.257 947.74 600.62C950.348 601.974 953.56 600.95 954.917 598.331ZM1066.19 563.782L1032.01 579.818C1029.35 581.065 1028.21 584.246 1029.45 586.918C1030.69 589.591 1033.86 590.749 1036.52 589.502L1070.69 573.475C1073.36 572.219 1074.51 569.038 1073.26 566.365C1072.02 563.693 1068.85 562.535 1066.19 563.782ZM1013.8 555.701L1002.88 519.451C1002.03 516.627 999.055 515.032 996.242 515.879C993.43 516.734 991.842 519.727 992.694 522.542L1003.61 558.802C1004.46 561.626 1007.44 563.221 1010.25 562.365C1013.06 561.51 1014.65 558.526 1013.8 555.701ZM1100.1 501.562L1100.43 539.425C1100.46 542.374 1102.86 544.752 1105.8 544.726C1108.75 544.699 1111.11 542.285 1111.08 539.336L1110.75 501.464C1110.72 498.515 1108.31 496.136 1105.37 496.163C1102.44 496.19 1100.08 498.604 1100.1 501.562ZM1064.45 497.606L1045.2 530.177C1043.7 532.707 1044.53 535.995 1047.06 537.501C1049.58 539.006 1052.85 538.169 1054.35 535.63L1073.6 503.067C1075.1 500.528 1074.27 497.25 1071.75 495.744C1069.22 494.239 1065.95 495.076 1064.45 497.606ZM921.426 526.151L958.599 532.529C961.5 533.028 964.251 531.068 964.747 528.155C965.244 525.251 963.292 522.489 960.391 521.99L923.219 515.611C920.326 515.121 917.567 517.072 917.079 519.986C916.582 522.89 918.534 525.652 921.426 526.151ZM970.523 493.677L966.646 456.002C966.353 453.071 963.727 450.932 960.808 451.235C957.889 451.538 955.76 454.166 956.062 457.106L959.93 494.773C960.241 497.713 962.858 499.851 965.776 499.549C968.695 499.246 970.825 496.617 970.523 493.677ZM1043.87 463.663L1007.39 473.267C1004.55 474.016 1002.84 476.938 1003.59 479.788C1004.33 482.639 1007.25 484.35 1010.09 483.602L1046.57 473.998C1049.41 473.258 1051.11 470.327 1050.37 467.476C1049.62 464.626 1046.71 462.915 1043.87 463.663ZM1064.12 430.896L1077.78 466.202C1078.84 468.946 1081.93 470.318 1084.67 469.249C1087.41 468.18 1088.77 465.08 1087.7 462.327L1074.05 427.03C1072.98 424.277 1069.9 422.914 1067.16 423.983C1064.42 425.043 1063.06 428.143 1064.12 430.896ZM979.625 414.094L1007.25 439.876C1009.4 441.89 1012.77 441.765 1014.78 439.6C1016.77 437.444 1016.65 434.059 1014.49 432.046L986.874 406.263C984.718 404.259 981.347 404.374 979.35 406.539C977.345 408.704 977.469 412.081 979.625 414.094ZM951.12 396.909L926.838 425.889C924.948 428.143 925.232 431.52 927.486 433.417C929.73 435.315 933.093 435.021 934.983 432.767L959.265 403.786C961.154 401.532 960.862 398.156 958.617 396.258C956.372 394.352 953.01 394.646 951.12 396.909Z" fill="white"/>
<path fill-rule="evenodd" clip-rule="evenodd" d="M780.885 946.253L745.824 960.222C743.091 961.309 741.76 964.418 742.843 967.162C743.925 969.906 747.021 971.251 749.754 970.164L784.806 956.195C787.539 955.108 788.879 951.999 787.796 949.255C786.714 946.511 783.618 945.166 780.885 946.253ZM682.87 957.112L645.182 955.803C642.246 955.705 639.779 958.012 639.682 960.961C639.575 963.91 641.873 966.387 644.809 966.485L682.506 967.803C685.442 967.901 687.909 965.594 688.006 962.645C688.113 959.696 685.806 957.219 682.87 957.112ZM724.984 904.995L718.002 942.208C717.461 945.112 719.359 947.91 722.243 948.453C725.135 948.996 727.92 947.09 728.462 944.186L735.444 906.973C735.985 904.069 734.086 901.271 731.194 900.728C728.311 900.185 725.525 902.091 724.984 904.995ZM606.625 931.722L642.955 921.539C645.785 920.746 647.435 917.797 646.646 914.955C645.856 912.114 642.92 910.448 640.09 911.24L603.769 921.423C600.93 922.216 599.279 925.165 600.069 928.007C600.859 930.849 603.795 932.506 606.625 931.722ZM663.902 877.191L684.555 908.888C686.161 911.356 689.461 912.051 691.919 910.43C694.376 908.817 695.068 905.503 693.462 903.035L672.818 871.337C671.203 868.87 667.903 868.175 665.445 869.796C662.988 871.409 662.296 874.723 663.902 877.191ZM789.162 882.295L751.599 878.901C748.672 878.634 746.081 880.808 745.815 883.747C745.549 886.687 747.713 889.28 750.641 889.547L788.204 892.941C791.132 893.2 793.723 891.035 793.98 888.095C794.246 885.155 792.081 882.554 789.162 882.295ZM634.917 870.331L652.28 836.717C653.628 834.098 652.608 830.864 649.999 829.51C647.391 828.147 644.18 829.171 642.822 831.791L625.46 865.413C624.112 868.032 625.132 871.257 627.74 872.62C630.348 873.974 633.56 872.95 634.917 870.331ZM746.187 835.782L712.013 851.818C709.352 853.065 708.207 856.246 709.449 858.918C710.691 861.591 713.859 862.749 716.52 861.502L750.694 845.475C753.356 844.219 754.509 841.038 753.258 838.365C752.016 835.693 748.849 834.535 746.187 835.782ZM693.8 827.701L682.878 791.451C682.027 788.627 679.055 787.032 676.242 787.879C673.43 788.734 671.842 791.727 672.694 794.542L683.615 830.802C684.458 833.626 687.438 835.221 690.251 834.365C693.063 833.51 694.651 830.526 693.8 827.701ZM780.104 773.562L780.433 811.425C780.459 814.374 782.863 816.752 785.8 816.726C788.745 816.699 791.105 814.285 791.079 811.336L790.75 773.464C790.724 770.515 788.311 768.136 785.374 768.163C782.438 768.19 780.078 770.604 780.104 773.562ZM744.449 769.606L725.197 802.177C723.697 804.707 724.531 807.995 727.06 809.501C729.579 811.006 732.853 810.169 734.353 807.63L753.604 775.067C755.104 772.528 754.27 769.25 751.75 767.744C749.222 766.239 745.948 767.076 744.449 769.606ZM601.426 798.151L638.599 804.529C641.5 805.028 644.251 803.068 644.747 800.155C645.244 797.251 643.292 794.489 640.391 793.99L603.219 787.611C600.326 787.121 597.567 789.072 597.079 791.986C596.582 794.89 598.534 797.652 601.426 798.151ZM650.523 765.677L646.646 728.002C646.353 725.071 643.727 722.932 640.808 723.235C637.889 723.538 635.76 726.166 636.062 729.106L639.93 766.773C640.241 769.713 642.858 771.851 645.776 771.549C648.695 771.246 650.825 768.617 650.523 765.677ZM723.875 735.663L687.394 745.267C684.546 746.016 682.843 748.938 683.588 751.788C684.333 754.639 687.252 756.35 690.091 755.602L726.572 745.998C729.411 745.258 731.114 742.327 730.369 739.476C729.624 736.626 726.714 734.915 723.875 735.663ZM744.12 702.896L757.783 738.202C758.839 740.946 761.926 742.318 764.667 741.249C767.409 740.18 768.766 737.08 767.702 734.327L754.048 699.03C752.983 696.277 749.896 694.914 747.163 695.983C744.422 697.043 743.056 700.143 744.12 702.896ZM659.625 686.094L687.252 711.876C689.399 713.89 692.77 713.765 694.775 711.6C696.772 709.444 696.647 706.059 694.492 704.046L666.874 678.263C664.718 676.259 661.347 676.374 659.35 678.539C657.345 680.704 657.469 684.081 659.625 686.094ZM631.12 668.909L606.838 697.889C604.948 700.143 605.232 703.52 607.486 705.417C609.73 707.315 613.093 707.021 614.983 704.767L639.265 675.786C641.154 673.532 640.862 670.156 638.617 668.258C636.372 666.352 633.01 666.646 631.12 668.909Z" fill="white"/>
<path fill-rule="evenodd" clip-rule="evenodd" d="M848.885 1220.25L813.824 1234.22C811.091 1235.31 809.76 1238.42 810.843 1241.16C811.925 1243.91 815.021 1245.25 817.754 1244.16L852.806 1230.19C855.539 1229.11 856.879 1226 855.796 1223.25C854.714 1220.51 851.618 1219.17 848.885 1220.25ZM750.87 1231.11L713.182 1229.8C710.246 1229.7 707.779 1232.01 707.682 1234.96C707.575 1237.91 709.873 1240.39 712.809 1240.48L750.506 1241.8C753.442 1241.9 755.909 1239.59 756.006 1236.64C756.113 1233.7 753.806 1231.22 750.87 1231.11ZM792.984 1179L786.002 1216.21C785.461 1219.11 787.359 1221.91 790.243 1222.45C793.135 1223 795.92 1221.09 796.462 1218.19L803.444 1180.97C803.985 1178.07 802.086 1175.27 799.194 1174.73C796.311 1174.18 793.525 1176.09 792.984 1179ZM674.625 1205.72L710.955 1195.54C713.785 1194.75 715.435 1191.8 714.646 1188.96C713.856 1186.11 710.92 1184.45 708.09 1185.24L671.769 1195.42C668.93 1196.22 667.279 1199.17 668.069 1202.01C668.859 1204.85 671.795 1206.51 674.625 1205.72ZM731.902 1151.19L752.555 1182.89C754.161 1185.36 757.461 1186.05 759.919 1184.43C762.376 1182.82 763.068 1179.5 761.462 1177.04L740.818 1145.34C739.203 1142.87 735.903 1142.17 733.445 1143.8C730.988 1145.41 730.296 1148.72 731.902 1151.19ZM857.162 1156.3L819.599 1152.9C816.672 1152.63 814.081 1154.81 813.815 1157.75C813.549 1160.69 815.713 1163.28 818.641 1163.55L856.204 1166.94C859.132 1167.2 861.723 1165.03 861.98 1162.1C862.246 1159.16 860.081 1156.55 857.162 1156.3ZM702.917 1144.33L720.28 1110.72C721.628 1108.1 720.608 1104.86 717.999 1103.51C715.391 1102.15 712.18 1103.17 710.822 1105.79L693.46 1139.41C692.112 1142.03 693.132 1145.26 695.74 1146.62C698.348 1147.97 701.56 1146.95 702.917 1144.33ZM814.187 1109.78L780.013 1125.82C777.352 1127.07 776.207 1130.25 777.449 1132.92C778.691 1135.59 781.859 1136.75 784.52 1135.5L818.694 1119.47C821.356 1118.22 822.509 1115.04 821.258 1112.37C820.016 1109.69 816.849 1108.53 814.187 1109.78ZM761.8 1101.7L750.878 1065.45C750.027 1062.63 747.055 1061.03 744.242 1061.88C741.43 1062.73 739.842 1065.73 740.694 1068.54L751.615 1104.8C752.458 1107.63 755.438 1109.22 758.251 1108.37C761.063 1107.51 762.651 1104.53 761.8 1101.7ZM848.104 1047.56L848.433 1085.42C848.459 1088.37 850.863 1090.75 853.8 1090.73C856.745 1090.7 859.105 1088.28 859.079 1085.34L858.75 1047.46C858.724 1044.51 856.311 1042.14 853.374 1042.16C850.438 1042.19 848.078 1044.6 848.104 1047.56ZM812.449 1043.61L793.197 1076.18C791.697 1078.71 792.531 1081.99 795.06 1083.5C797.579 1085.01 800.853 1084.17 802.353 1081.63L821.604 1049.07C823.104 1046.53 822.27 1043.25 819.75 1041.74C817.222 1040.24 813.948 1041.08 812.449 1043.61ZM669.426 1072.15L706.599 1078.53C709.5 1079.03 712.251 1077.07 712.747 1074.16C713.244 1071.25 711.292 1068.49 708.391 1067.99L671.219 1061.61C668.326 1061.12 665.567 1063.07 665.079 1065.99C664.582 1068.89 666.534 1071.65 669.426 1072.15ZM718.523 1039.68L714.646 1002C714.353 999.071 711.727 996.932 708.808 997.235C705.889 997.538 703.76 1000.17 704.062 1003.11L707.93 1040.77C708.241 1043.71 710.858 1045.85 713.776 1045.55C716.695 1045.25 718.825 1042.62 718.523 1039.68ZM791.875 1009.66L755.394 1019.27C752.546 1020.02 750.843 1022.94 751.588 1025.79C752.333 1028.64 755.252 1030.35 758.091 1029.6L794.572 1020C797.411 1019.26 799.114 1016.33 798.369 1013.48C797.624 1010.63 794.714 1008.91 791.875 1009.66ZM812.12 976.896L825.783 1012.2C826.839 1014.95 829.926 1016.32 832.667 1015.25C835.409 1014.18 836.766 1011.08 835.702 1008.33L822.048 973.03C820.983 970.277 817.896 968.914 815.163 969.983C812.422 971.043 811.056 974.143 812.12 976.896ZM727.625 960.094L755.252 985.876C757.399 987.89 760.77 987.765 762.775 985.6C764.772 983.444 764.647 980.059 762.492 978.046L734.874 952.263C732.718 950.259 729.347 950.374 727.35 952.539C725.345 954.704 725.469 958.081 727.625 960.094ZM699.12 942.909L674.838 971.889C672.948 974.143 673.232 977.52 675.486 979.417C677.73 981.315 681.093 981.021 682.983 978.767L707.265 949.786C709.154 947.532 708.862 944.156 706.617 942.258C704.372 940.352 701.01 940.646 699.12 942.909Z" fill="white"/>
<path fill-rule="evenodd" clip-rule="evenodd" d="M864.885 1541.25L829.824 1555.22C827.091 1556.31 825.76 1559.42 826.843 1562.16C827.925 1564.91 831.021 1566.25 833.754 1565.16L868.806 1551.19C871.539 1550.11 872.879 1547 871.796 1544.25C870.714 1541.51 867.618 1540.17 864.885 1541.25ZM766.87 1552.11L729.182 1550.8C726.246 1550.7 723.779 1553.01 723.682 1555.96C723.575 1558.91 725.873 1561.39 728.809 1561.48L766.506 1562.8C769.442 1562.9 771.909 1560.59 772.006 1557.64C772.113 1554.7 769.806 1552.22 766.87 1552.11ZM808.984 1500L802.002 1537.21C801.461 1540.11 803.359 1542.91 806.243 1543.45C809.135 1544 811.92 1542.09 812.462 1539.19L819.444 1501.97C819.985 1499.07 818.086 1496.27 815.194 1495.73C812.311 1495.18 809.525 1497.09 808.984 1500ZM690.625 1526.72L726.955 1516.54C729.785 1515.75 731.435 1512.8 730.646 1509.96C729.856 1507.11 726.92 1505.45 724.09 1506.24L687.769 1516.42C684.93 1517.22 683.279 1520.17 684.069 1523.01C684.859 1525.85 687.795 1527.51 690.625 1526.72ZM747.902 1472.19L768.555 1503.89C770.161 1506.36 773.461 1507.05 775.919 1505.43C778.376 1503.82 779.068 1500.5 777.462 1498.04L756.818 1466.34C755.203 1463.87 751.903 1463.17 749.445 1464.8C746.988 1466.41 746.296 1469.72 747.902 1472.19ZM873.162 1477.3L835.599 1473.9C832.672 1473.63 830.081 1475.81 829.815 1478.75C829.549 1481.69 831.713 1484.28 834.641 1484.55L872.204 1487.94C875.132 1488.2 877.723 1486.03 877.98 1483.1C878.246 1480.16 876.081 1477.55 873.162 1477.3ZM718.917 1465.33L736.28 1431.72C737.628 1429.1 736.608 1425.86 733.999 1424.51C731.391 1423.15 728.18 1424.17 726.822 1426.79L709.46 1460.41C708.112 1463.03 709.132 1466.26 711.74 1467.62C714.348 1468.97 717.56 1467.95 718.917 1465.33ZM830.187 1430.78L796.013 1446.82C793.352 1448.07 792.207 1451.25 793.449 1453.92C794.691 1456.59 797.859 1457.75 800.52 1456.5L834.694 1440.47C837.356 1439.22 838.509 1436.04 837.258 1433.37C836.016 1430.69 832.849 1429.53 830.187 1430.78ZM777.8 1422.7L766.878 1386.45C766.027 1383.63 763.055 1382.03 760.242 1382.88C757.43 1383.73 755.842 1386.73 756.694 1389.54L767.615 1425.8C768.458 1428.63 771.438 1430.22 774.251 1429.37C777.063 1428.51 778.651 1425.53 777.8 1422.7ZM864.104 1368.56L864.433 1406.42C864.459 1409.37 866.863 1411.75 869.8 1411.73C872.745 1411.7 875.105 1409.28 875.079 1406.34L874.75 1368.46C874.724 1365.51 872.311 1363.14 869.374 1363.16C866.438 1363.19 864.078 1365.6 864.104 1368.56ZM828.449 1364.61L809.197 1397.18C807.697 1399.71 808.531 1402.99 811.06 1404.5C813.579 1406.01 816.853 1405.17 818.353 1402.63L837.604 1370.07C839.104 1367.53 838.27 1364.25 835.75 1362.74C833.222 1361.24 829.948 1362.08 828.449 1364.61ZM685.426 1393.15L722.599 1399.53C725.5 1400.03 728.251 1398.07 728.747 1395.16C729.244 1392.25 727.292 1389.49 724.391 1388.99L687.219 1382.61C684.326 1382.12 681.567 1384.07 681.079 1386.99C680.582 1389.89 682.534 1392.65 685.426 1393.15ZM734.523 1360.68L730.646 1323C730.353 1320.07 727.727 1317.93 724.808 1318.24C721.889 1318.54 719.76 1321.17 720.062 1324.11L723.93 1361.77C724.241 1364.71 726.858 1366.85 729.776 1366.55C732.695 1366.25 734.825 1363.62 734.523 1360.68ZM807.875 1330.66L771.394 1340.27C768.546 1341.02 766.843 1343.94 767.588 1346.79C768.333 1349.64 771.252 1351.35 774.091 1350.6L810.572 1341C813.411 1340.26 815.114 1337.33 814.369 1334.48C813.624 1331.63 810.714 1329.91 807.875 1330.66ZM828.12 1297.9L841.783 1333.2C842.839 1335.95 845.926 1337.32 848.667 1336.25C851.409 1335.18 852.766 1332.08 851.702 1329.33L838.048 1294.03C836.983 1291.28 833.896 1289.91 831.163 1290.98C828.422 1292.04 827.056 1295.14 828.12 1297.9ZM743.625 1281.09L771.252 1306.88C773.399 1308.89 776.77 1308.77 778.775 1306.6C780.772 1304.44 780.647 1301.06 778.492 1299.05L750.874 1273.26C748.718 1271.26 745.347 1271.37 743.35 1273.54C741.345 1275.7 741.469 1279.08 743.625 1281.09ZM715.12 1263.91L690.838 1292.89C688.948 1295.14 689.232 1298.52 691.486 1300.42C693.73 1302.32 697.093 1302.02 698.983 1299.77L723.265 1270.79C725.154 1268.53 724.862 1265.16 722.617 1263.26C720.372 1261.35 717.01 1261.65 715.12 1263.91Z" fill="white"/>
<path fill-rule="evenodd" clip-rule="evenodd" d="M1087.89 1366.25L1052.82 1380.22C1050.09 1381.31 1048.76 1384.42 1049.84 1387.16C1050.93 1389.91 1054.02 1391.25 1056.75 1390.16L1091.81 1376.19C1094.54 1375.11 1095.88 1372 1094.8 1369.25C1093.71 1366.51 1090.62 1365.17 1087.89 1366.25ZM989.87 1377.11L952.182 1375.8C949.246 1375.7 946.779 1378.01 946.682 1380.96C946.575 1383.91 948.873 1386.39 951.809 1386.48L989.506 1387.8C992.442 1387.9 994.909 1385.59 995.006 1382.64C995.113 1379.7 992.806 1377.22 989.87 1377.11ZM1031.98 1325L1025 1362.21C1024.46 1365.11 1026.36 1367.91 1029.24 1368.45C1032.13 1369 1034.92 1367.09 1035.46 1364.19L1042.44 1326.97C1042.98 1324.07 1041.09 1321.27 1038.19 1320.73C1035.31 1320.18 1032.53 1322.09 1031.98 1325ZM913.625 1351.72L949.955 1341.54C952.785 1340.75 954.435 1337.8 953.646 1334.96C952.856 1332.11 949.92 1330.45 947.09 1331.24L910.769 1341.42C907.93 1342.22 906.279 1345.17 907.069 1348.01C907.859 1350.85 910.795 1352.51 913.625 1351.72ZM970.902 1297.19L991.555 1328.89C993.161 1331.36 996.461 1332.05 998.919 1330.43C1001.38 1328.82 1002.07 1325.5 1000.46 1323.04L979.818 1291.34C978.203 1288.87 974.903 1288.17 972.445 1289.8C969.988 1291.41 969.296 1294.72 970.902 1297.19ZM1096.16 1302.3L1058.6 1298.9C1055.67 1298.63 1053.08 1300.81 1052.81 1303.75C1052.55 1306.69 1054.71 1309.28 1057.64 1309.55L1095.2 1312.94C1098.13 1313.2 1100.72 1311.03 1100.98 1308.1C1101.25 1305.16 1099.08 1302.55 1096.16 1302.3ZM941.917 1290.33L959.28 1256.72C960.628 1254.1 959.608 1250.86 956.999 1249.51C954.391 1248.15 951.18 1249.17 949.822 1251.79L932.46 1285.41C931.112 1288.03 932.132 1291.26 934.74 1292.62C937.348 1293.97 940.56 1292.95 941.917 1290.33ZM1053.19 1255.78L1019.01 1271.82C1016.35 1273.07 1015.21 1276.25 1016.45 1278.92C1017.69 1281.59 1020.86 1282.75 1023.52 1281.5L1057.69 1265.47C1060.36 1264.22 1061.51 1261.04 1060.26 1258.37C1059.02 1255.69 1055.85 1254.53 1053.19 1255.78ZM1000.8 1247.7L989.878 1211.45C989.027 1208.63 986.055 1207.03 983.242 1207.88C980.43 1208.73 978.842 1211.73 979.694 1214.54L990.615 1250.8C991.458 1253.63 994.438 1255.22 997.251 1254.37C1000.06 1253.51 1001.65 1250.53 1000.8 1247.7ZM1087.1 1193.56L1087.43 1231.42C1087.46 1234.37 1089.86 1236.75 1092.8 1236.73C1095.75 1236.7 1098.11 1234.28 1098.08 1231.34L1097.75 1193.46C1097.72 1190.51 1095.31 1188.14 1092.37 1188.16C1089.44 1188.19 1087.08 1190.6 1087.1 1193.56ZM1051.45 1189.61L1032.2 1222.18C1030.7 1224.71 1031.53 1227.99 1034.06 1229.5C1036.58 1231.01 1039.85 1230.17 1041.35 1227.63L1060.6 1195.07C1062.1 1192.53 1061.27 1189.25 1058.75 1187.74C1056.22 1186.24 1052.95 1187.08 1051.45 1189.61ZM908.426 1218.15L945.599 1224.53C948.5 1225.03 951.251 1223.07 951.747 1220.16C952.244 1217.25 950.292 1214.49 947.391 1213.99L910.219 1207.61C907.326 1207.12 904.567 1209.07 904.079 1211.99C903.582 1214.89 905.534 1217.65 908.426 1218.15ZM957.523 1185.68L953.646 1148C953.353 1145.07 950.727 1142.93 947.808 1143.24C944.889 1143.54 942.76 1146.17 943.062 1149.11L946.93 1186.77C947.241 1189.71 949.858 1191.85 952.776 1191.55C955.695 1191.25 957.825 1188.62 957.523 1185.68ZM1030.87 1155.66L994.394 1165.27C991.546 1166.02 989.843 1168.94 990.588 1171.79C991.333 1174.64 994.252 1176.35 997.091 1175.6L1033.57 1166C1036.41 1165.26 1038.11 1162.33 1037.37 1159.48C1036.62 1156.63 1033.71 1154.91 1030.87 1155.66ZM1051.12 1122.9L1064.78 1158.2C1065.84 1160.95 1068.93 1162.32 1071.67 1161.25C1074.41 1160.18 1075.77 1157.08 1074.7 1154.33L1061.05 1119.03C1059.98 1116.28 1056.9 1114.91 1054.16 1115.98C1051.42 1117.04 1050.06 1120.14 1051.12 1122.9ZM966.625 1106.09L994.252 1131.88C996.399 1133.89 999.77 1133.77 1001.78 1131.6C1003.77 1129.44 1003.65 1126.06 1001.49 1124.05L973.874 1098.26C971.718 1096.26 968.347 1096.37 966.35 1098.54C964.345 1100.7 964.469 1104.08 966.625 1106.09ZM938.12 1088.91L913.838 1117.89C911.948 1120.14 912.232 1123.52 914.486 1125.42C916.73 1127.32 920.093 1127.02 921.983 1124.77L946.265 1095.79C948.154 1093.53 947.862 1090.16 945.617 1088.26C943.372 1086.35 940.01 1086.65 938.12 1088.91Z" fill="white"/>
<path fill-rule="evenodd" clip-rule="evenodd" d="M1298.89 1424.25L1263.82 1438.22C1261.09 1439.31 1259.76 1442.42 1260.84 1445.16C1261.93 1447.91 1265.02 1449.25 1267.75 1448.16L1302.81 1434.19C1305.54 1433.11 1306.88 1430 1305.8 1427.25C1304.71 1424.51 1301.62 1423.17 1298.89 1424.25ZM1200.87 1435.11L1163.18 1433.8C1160.25 1433.7 1157.78 1436.01 1157.68 1438.96C1157.58 1441.91 1159.87 1444.39 1162.81 1444.48L1200.51 1445.8C1203.44 1445.9 1205.91 1443.59 1206.01 1440.64C1206.11 1437.7 1203.81 1435.22 1200.87 1435.11ZM1242.98 1383L1236 1420.21C1235.46 1423.11 1237.36 1425.91 1240.24 1426.45C1243.13 1427 1245.92 1425.09 1246.46 1422.19L1253.44 1384.97C1253.98 1382.07 1252.09 1379.27 1249.19 1378.73C1246.31 1378.18 1243.53 1380.09 1242.98 1383ZM1124.63 1409.72L1160.96 1399.54C1163.79 1398.75 1165.44 1395.8 1164.65 1392.96C1163.86 1390.11 1160.92 1388.45 1158.09 1389.24L1121.77 1399.42C1118.93 1400.22 1117.28 1403.17 1118.07 1406.01C1118.86 1408.85 1121.8 1410.51 1124.63 1409.72ZM1181.9 1355.19L1202.56 1386.89C1204.16 1389.36 1207.46 1390.05 1209.92 1388.43C1212.38 1386.82 1213.07 1383.5 1211.46 1381.04L1190.82 1349.34C1189.2 1346.87 1185.9 1346.17 1183.45 1347.8C1180.99 1349.41 1180.3 1352.72 1181.9 1355.19ZM1307.16 1360.3L1269.6 1356.9C1266.67 1356.63 1264.08 1358.81 1263.81 1361.75C1263.55 1364.69 1265.71 1367.28 1268.64 1367.55L1306.2 1370.94C1309.13 1371.2 1311.72 1369.03 1311.98 1366.1C1312.25 1363.16 1310.08 1360.55 1307.16 1360.3ZM1152.92 1348.33L1170.28 1314.72C1171.63 1312.1 1170.61 1308.86 1168 1307.51C1165.39 1306.15 1162.18 1307.17 1160.82 1309.79L1143.46 1343.41C1142.11 1346.03 1143.13 1349.26 1145.74 1350.62C1148.35 1351.97 1151.56 1350.95 1152.92 1348.33ZM1264.19 1313.78L1230.01 1329.82C1227.35 1331.07 1226.21 1334.25 1227.45 1336.92C1228.69 1339.59 1231.86 1340.75 1234.52 1339.5L1268.69 1323.47C1271.36 1322.22 1272.51 1319.04 1271.26 1316.37C1270.02 1313.69 1266.85 1312.53 1264.19 1313.78ZM1211.8 1305.7L1200.88 1269.45C1200.03 1266.63 1197.05 1265.03 1194.24 1265.88C1191.43 1266.73 1189.84 1269.73 1190.69 1272.54L1201.61 1308.8C1202.46 1311.63 1205.44 1313.22 1208.25 1312.37C1211.06 1311.51 1212.65 1308.53 1211.8 1305.7ZM1298.1 1251.56L1298.43 1289.42C1298.46 1292.37 1300.86 1294.75 1303.8 1294.73C1306.75 1294.7 1309.11 1292.28 1309.08 1289.34L1308.75 1251.46C1308.72 1248.51 1306.31 1246.14 1303.37 1246.16C1300.44 1246.19 1298.08 1248.6 1298.1 1251.56ZM1262.45 1247.61L1243.2 1280.18C1241.7 1282.71 1242.53 1285.99 1245.06 1287.5C1247.58 1289.01 1250.85 1288.17 1252.35 1285.63L1271.6 1253.07C1273.1 1250.53 1272.27 1247.25 1269.75 1245.74C1267.22 1244.24 1263.95 1245.08 1262.45 1247.61ZM1119.43 1276.15L1156.6 1282.53C1159.5 1283.03 1162.25 1281.07 1162.75 1278.16C1163.24 1275.25 1161.29 1272.49 1158.39 1271.99L1121.22 1265.61C1118.33 1265.12 1115.57 1267.07 1115.08 1269.99C1114.58 1272.89 1116.53 1275.65 1119.43 1276.15ZM1168.52 1243.68L1164.65 1206C1164.35 1203.07 1161.73 1200.93 1158.81 1201.24C1155.89 1201.54 1153.76 1204.17 1154.06 1207.11L1157.93 1244.77C1158.24 1247.71 1160.86 1249.85 1163.78 1249.55C1166.7 1249.25 1168.82 1246.62 1168.52 1243.68ZM1241.87 1213.66L1205.39 1223.27C1202.55 1224.02 1200.84 1226.94 1201.59 1229.79C1202.33 1232.64 1205.25 1234.35 1208.09 1233.6L1244.57 1224C1247.41 1223.26 1249.11 1220.33 1248.37 1217.48C1247.62 1214.63 1244.71 1212.91 1241.87 1213.66ZM1262.12 1180.9L1275.78 1216.2C1276.84 1218.95 1279.93 1220.32 1282.67 1219.25C1285.41 1218.18 1286.77 1215.08 1285.7 1212.33L1272.05 1177.03C1270.98 1174.28 1267.9 1172.91 1265.16 1173.98C1262.42 1175.04 1261.06 1178.14 1262.12 1180.9ZM1177.63 1164.09L1205.25 1189.88C1207.4 1191.89 1210.77 1191.77 1212.78 1189.6C1214.77 1187.44 1214.65 1184.06 1212.49 1182.05L1184.87 1156.26C1182.72 1154.26 1179.35 1154.37 1177.35 1156.54C1175.35 1158.7 1175.47 1162.08 1177.63 1164.09ZM1149.12 1146.91L1124.84 1175.89C1122.95 1178.14 1123.23 1181.52 1125.49 1183.42C1127.73 1185.32 1131.09 1185.02 1132.98 1182.77L1157.26 1153.79C1159.15 1151.53 1158.86 1148.16 1156.62 1146.26C1154.37 1144.35 1151.01 1144.65 1149.12 1146.91Z" fill="white"/>
</g>
<path d="M882.966 1005.17L834.812 753.715C832.21 740.125 820.323 730.298 806.486 730.298" stroke="#573240" stroke-width="5" stroke-miterlimit="10" stroke-linecap="round"/>
<path d="M988.636 391.199C990.675 384.325 999.863 383.057 1003.69 389.122L1066.89 489.347H934.193C911.939 489.347 891.201 500.626 879.105 519.306L837.378 583.754C834.041 588.908 836.278 595.826 841.999 598.051L872.308 609.838C885.681 615.038 900.838 612.355 911.615 602.881L944.958 573.563L1112.52 603.42C1184.7 616.279 1238.97 538.917 1202.32 475.43L1095.54 290.478C1083.79 271.467 1066.54 256.478 1046.08 247.501C1020.68 236.361 991.969 253.969 990.382 281.653L988.636 391.199Z" fill="#F6ACC1"/>
<path d="M881.302 544.824L853.243 588.162C849.907 593.315 852.143 600.233 857.864 602.458" stroke="#573240" stroke-width="5" stroke-miterlimit="10" stroke-linecap="round"/>
<path d="M899.809 550.994L871.751 594.332C868.414 599.485 870.651 606.403 876.372 608.628" stroke="#573240" stroke-width="5" stroke-miterlimit="10" stroke-linecap="round"/>
<path d="M919.197 556.281L891.138 599.618C889.158 602.675 889.14 606.352 890.647 609.303" stroke="#573240" stroke-width="5" stroke-miterlimit="10" stroke-linecap="round"/>
<path d="M933.885 580.974L955.178 559.527" stroke="#573240" stroke-width="5" stroke-miterlimit="10" stroke-linecap="round"/>
<path d="M1058.08 489.347H1100.23" stroke="#573240" stroke-width="5" stroke-miterlimit="10" stroke-linecap="round"/>
<path d="M929.75 45.6522C934.027 53.2991 950.568 27.9533 976.098 49.4296C996.88 66.9125 979.265 84.6417 983.554 89.7101C987.843 94.7785 1024.95 96.424 1014.36 133.768C1002.09 177.007 939.42 166.504 931.466 158.714C923.512 150.923 869.941 163.121 869.941 163.121C869.941 163.121 802.157 169.947 801.086 122.462C800.117 79.4813 839.296 83.8623 839.296 81.5232C839.296 79.184 817.415 58.5049 824.09 32.3967C831.888 1.89239 862.844 -0.353873 871.031 0.0362817C879.218 0.42465 904.017 -0.354748 929.75 45.6522Z" fill="#573240"/>
<path d="M944.959 199.854L824.774 373.553L821.223 212.871L860.74 200.436L876.604 128.503H921.56L944.959 199.854Z" fill="#F6ACC1"/>
<path d="M916.454 90.4626V124.88C916.454 136.603 909.083 147.058 898.042 150.997L878.737 157.885C870.162 160.945 860.983 155.177 860.02 146.123L856.06 108.935C854.882 97.8631 860.208 87.1066 869.73 81.3337L885.804 72.4155C888.867 70.7156 892.313 69.8237 895.816 69.8237C907.213 69.8255 916.454 79.0651 916.454 90.4626Z" fill="#F6ACC1"/>
<path d="M873.529 136.015C879.51 136.508 885.514 134.247 889.854 129.868" stroke="#573240" stroke-width="5" stroke-miterlimit="10" stroke-linecap="round"/>
<path d="M888.547 93.9256C893.62 91.9623 899.359 92.9712 902.987 96.9433" stroke="#573240" stroke-width="5" stroke-miterlimit="10" stroke-linecap="round"/>
<path d="M854.082 96.3963C858.221 92.8671 863.971 91.9226 868.708 94.4724C868.708 94.4724 874.484 97.224 872.73 122.372" stroke="#573240" stroke-width="5" stroke-miterlimit="10" stroke-linecap="round"/>
<path d="M894.516 111.544C896.211 111.544 897.586 109.384 897.586 106.719C897.586 104.055 896.211 101.895 894.516 101.895C892.82 101.895 891.445 104.055 891.445 106.719C891.445 109.384 892.82 111.544 894.516 111.544Z" fill="#573240"/>
<path d="M862.789 112.888C864.338 112.888 865.593 110.915 865.593 108.481C865.593 106.048 864.338 104.075 862.789 104.075C861.24 104.075 859.984 106.048 859.984 108.481C859.984 110.915 861.24 112.888 862.789 112.888Z" fill="#573240"/>
<path d="M933.044 131.882H920.265C917.252 131.882 914.809 129.44 914.809 126.426V107.808C914.809 101.521 919.906 96.4238 926.193 96.4238H933.044C942.019 96.4238 949.293 103.698 949.293 112.673V115.633C949.293 124.607 942.018 131.882 933.044 131.882Z" fill="#F6ACC1"/>
<path d="M922.742 116.475C922.742 110.268 927.773 105.237 933.98 105.237" stroke="#573240" stroke-width="5" stroke-miterlimit="10" stroke-linecap="round"/>
<rect x="507" y="858" width="63" height="78" rx="26" fill="white"/>
<rect x="522" y="864" width="19" height="24" rx="9.5" fill="#573240"/>
<path fill-rule="evenodd" clip-rule="evenodd" d="M9 729C9 687.579 42.5786 654 84 654H299.372C331.446 654 359.97 674.396 370.342 704.746L436.97 899.708C439.638 907.516 441 915.71 441 923.962V1649C441 1690.42 407.421 1724 366 1724H84C42.5786 1724 9 1690.42 9 1649V729ZM140 1000C140 982.327 154.327 968 172 968H216C233.673 968 248 982.327 248 1000V1039C248 1056.67 233.673 1071 216 1071H172C154.327 1071 140 1056.67 140 1039V1000ZM325 968C307.327 968 293 982.327 293 1000V1039C293 1056.67 307.327 1071 325 1071H369C386.673 1071 401 1056.67 401 1039V1000C401 982.327 386.673 968 369 968H325Z" fill="#12C35B"/>
<path d="M75.9209 719.642C67.2623 694.751 83.5358 671 109.249 671H311.92C330.556 671 348.209 683.783 354.484 701.823L400.787 834.927C409.446 859.818 393.172 883.569 367.459 883.569H164.788C146.152 883.569 128.499 870.785 122.224 852.745L75.9209 719.642Z" fill="white"/>
<path d="M154 906H370L374 918H158L154 906Z" fill="white"/>
<path d="M383 906H411.473L415.424 917.501H386.952L383 906Z" fill="white"/>
<circle cx="278.5" cy="1247.5" r="124.5" fill="#12C35B"/>
<path fill-rule="evenodd" clip-rule="evenodd" d="M230.265 1299.12C218.878 1286.93 212.168 1271.2 212.168 1259.01H231.418C231.418 1265.23 235.443 1276.47 244.331 1285.98C252.885 1295.13 265.099 1301.77 280.754 1300.67C296.934 1299.53 308.031 1292.15 315.209 1283.47C322.659 1274.45 325.578 1264.42 325.578 1259.01H344.828C344.828 1269.5 339.943 1283.76 330.047 1295.73C319.878 1308.03 304.087 1318.33 282.101 1319.87C259.59 1321.45 241.987 1311.66 230.265 1299.12Z" fill="#FDFEFB"/>
<path fill-rule="evenodd" clip-rule="evenodd" d="M348.598 1215.07C348.598 1233.33 333.796 1248.13 315.537 1248.13C297.278 1248.13 282.477 1233.33 282.477 1215.07C282.477 1196.81 297.278 1182.01 315.537 1182.01C333.796 1182.01 348.598 1196.81 348.598 1215.07ZM315.537 1228.88C323.164 1228.88 329.347 1222.69 329.347 1215.07C329.347 1207.44 323.164 1201.26 315.537 1201.26C307.91 1201.26 301.727 1207.44 301.727 1215.07C301.727 1222.69 307.91 1228.88 315.537 1228.88Z" fill="#FDFEFB"/>
<path fill-rule="evenodd" clip-rule="evenodd" d="M274.937 1185.98V1244.36C274.886 1244.5 274.84 1244.67 274.791 1244.86C274.505 1245.93 274.086 1247.5 271.589 1247.5C271.142 1247.5 270.312 1247.5 269.253 1247.51C265.935 1247.52 260.375 1247.55 257.361 1247.5C256.105 1247.5 255.017 1246.37 254.85 1245.2C254.682 1244.02 254.78 1241.5 254.85 1240.8C253.525 1243.03 249.637 1246.52 245.225 1247.5C243.341 1247.92 236.436 1248.75 228.276 1245.61C222.069 1243.23 209.025 1232.64 209.025 1215.9C209.025 1195.81 219.278 1185.56 233.925 1182.63C245.643 1180.29 253.246 1185.42 254.85 1188.28V1185.35C254.856 1185.32 254.863 1185.29 254.87 1185.25C255.019 1184.47 255.373 1182.63 257.57 1182.63H271.589C273.891 1182.63 274.937 1184.14 274.937 1185.98ZM241.465 1227.2C248.167 1227.2 253.601 1221.77 253.601 1215.06C253.601 1208.36 248.167 1202.93 241.465 1202.93C234.762 1202.93 229.329 1208.36 229.329 1215.06C229.329 1221.77 234.762 1227.2 241.465 1227.2Z" fill="#FDFEFB"/>
<path fill-rule="evenodd" clip-rule="evenodd" d="M226.016 807.678C216.871 800.03 210.218 790.157 208.414 782.503H220.826C221.746 786.406 226.003 793.46 233.141 799.43C240.011 805.175 248.868 809.34 258.799 808.651C269.064 807.938 275.127 803.304 278.471 797.854C281.941 792.197 282.34 785.901 281.539 782.503H293.952C295.503 789.086 294.462 798.036 289.852 805.551C285.115 813.272 276.456 819.735 262.508 820.703C248.227 821.694 235.429 815.551 226.016 807.678Z" fill="#12C35B"/>
<path fill-rule="evenodd" clip-rule="evenodd" d="M289.887 754.927C292.587 766.386 285.232 775.676 273.459 775.676C261.686 775.676 249.953 766.386 247.253 754.927C244.552 743.468 251.907 734.178 263.68 734.178C275.453 734.178 287.186 743.468 289.887 754.927ZM270.612 763.594C275.53 763.594 278.602 759.714 277.474 754.927C276.346 750.14 271.445 746.26 266.527 746.26C261.609 746.26 258.537 750.14 259.665 754.927C260.793 759.714 265.694 763.594 270.612 763.594Z" fill="#12C35B"/>
<path fill-rule="evenodd" clip-rule="evenodd" d="M238.086 736.672L246.72 773.311C246.708 773.401 246.704 773.508 246.7 773.624C246.674 774.295 246.636 775.281 245.026 775.281C244.737 775.281 244.203 775.283 243.521 775.286C241.384 775.297 237.803 775.314 235.851 775.281C235.042 775.281 234.173 774.571 233.892 773.836C233.611 773.101 233.3 771.516 233.242 771.078C232.718 772.479 230.726 774.665 228.026 775.281C226.874 775.543 222.545 776.068 216.819 774.099C212.464 772.6 202.488 765.957 200.012 755.451C197.042 742.844 202.136 736.41 211.147 734.571C218.356 733.1 224.017 736.322 225.475 738.117L225.041 736.278C225.041 736.258 225.04 736.237 225.039 736.213C225.021 735.727 224.977 734.571 226.393 734.571H235.432C236.916 734.571 237.814 735.517 238.086 736.672ZM222.6 762.541C226.922 762.541 229.622 759.131 228.631 754.924C227.64 750.718 223.332 747.308 219.011 747.308C214.689 747.308 211.989 750.718 212.98 754.924C213.972 759.131 218.279 762.541 222.6 762.541Z" fill="#12C35B"/>
</g>
<defs>
<clipPath id="clip0">
<rect width="1747" height="1724" fill="white"/>
</clipPath>
</defs>
</svg>
