<svg width="1708" height="1708" viewBox="0 0 1708 1708" fill="none" xmlns="http://www.w3.org/2000/svg">
<g clip-path="url(#clip0)">
<path fill-rule="evenodd" clip-rule="evenodd" d="M207 259H294V608H207V259ZM210.326 262.352V604.648H290.674V262.352H210.326Z" fill="white"/>
<path fill-rule="evenodd" clip-rule="evenodd" d="M291 259H378V608H291V259ZM294.326 262.352V604.648H374.674V262.352H294.326Z" fill="white"/>
<path fill-rule="evenodd" clip-rule="evenodd" d="M376 259H462V608H376V259ZM379.288 262.352V604.648H458.712V262.352H379.288Z" fill="white"/>
<path fill-rule="evenodd" clip-rule="evenodd" d="M459 259H547V608H459V259ZM462.365 262.352V604.648H543.635V262.352H462.365Z" fill="white"/>
<path fill-rule="evenodd" clip-rule="evenodd" d="M543 259H631V608H543V259ZM546.365 262.352V604.648H627.635V262.352H546.365Z" fill="white"/>
<path fill-rule="evenodd" clip-rule="evenodd" d="M628 259H715V608H628V259ZM631.326 262.352V604.648H711.674V262.352H631.326Z" fill="white"/>
<path fill-rule="evenodd" clip-rule="evenodd" d="M936 259H1024V608H936V259ZM939.365 262.352V604.648H1020.64V262.352H939.365Z" fill="white"/>
<path fill-rule="evenodd" clip-rule="evenodd" d="M1020 259H1108V608H1020V259ZM1023.36 262.352V604.648H1104.64V262.352H1023.36Z" fill="white"/>
<path fill-rule="evenodd" clip-rule="evenodd" d="M1104 259H1193V608H1104V259ZM1107.4 262.352V604.648H1189.6V262.352H1107.4Z" fill="white"/>
<path fill-rule="evenodd" clip-rule="evenodd" d="M1188 259H1276V608H1188V259ZM1191.36 262.352V604.648H1272.64V262.352H1191.36Z" fill="white"/>
<path fill-rule="evenodd" clip-rule="evenodd" d="M1273 259H1360V608H1273V259ZM1276.33 262.352V604.648H1356.67V262.352H1276.33Z" fill="white"/>
<path fill-rule="evenodd" clip-rule="evenodd" d="M1358 259H1445V608H1358V259ZM1361.33 262.352V604.648H1441.67V262.352H1361.33Z" fill="white"/>
<path fill-rule="evenodd" clip-rule="evenodd" d="M1441 259H1529V608H1441V259ZM1444.36 262.352V604.648H1525.64V262.352H1444.36Z" fill="white"/>
<path fill-rule="evenodd" clip-rule="evenodd" d="M1525 259H1613V608H1525V259ZM1528.36 262.352V604.648H1609.64V262.352H1528.36Z" fill="white"/>
<path d="M327.525 255H521.52C558.29 255 591.894 275.809 608.282 308.726L705.518 504.04C728.86 550.927 694.759 606 642.384 606H207.808C151.359 606 113.74 547.719 136.984 496.276L212.429 329.297C232.864 284.068 277.895 255 327.525 255Z" fill="#839BCA"/>
<path d="M349.69 255L240 606H584L516.184 255H494.148L500.636 326.096C503.643 358.706 477.911 386.843 445.082 386.843H416.852C381.457 386.843 355.01 354.389 362.239 319.827L375.644 255.001H349.69V255Z" fill="white"/>
<path d="M525 571L547.114 350H569.264L584 571H525Z" fill="#573240"/>
<path d="M391 571L427.953 350H547L524.836 571H391Z" fill="#F1B104"/>
<path d="M556 350C541.889 350 530.08 360.681 528.666 374.713L527.534 386H401L402.132 374.713C403.546 360.681 415.356 350 429.467 350H556Z" fill="#F1B104"/>
<path fill-rule="evenodd" clip-rule="evenodd" d="M402.696 375.317C402.696 375.317 402.696 375.318 402.696 375.318L401.742 384.671H525.795L526.782 374.985L526.782 374.984C527.799 365.052 533.853 356.717 542.302 352.329H428.545C415.201 352.329 404.034 362.265 402.696 375.317ZM556 349H428.545C413.462 349 400.838 360.231 399.327 374.984L398 388H528.858L530.151 375.318C530.151 375.318 530.151 375.317 530.151 375.317C531.489 362.264 542.656 352.329 556 352.329V349Z" fill="#573240"/>
<path fill-rule="evenodd" clip-rule="evenodd" d="M426 465.836C426 457.642 432.865 451 441.334 451H443.975C444.711 451 445.308 451.577 445.308 452.289C445.308 453.001 444.711 453.578 443.975 453.578H441.334C434.337 453.578 428.665 459.066 428.665 465.836C428.665 466.712 429.399 467.422 430.304 467.422H492.668C493.403 467.422 494 467.999 494 468.711C494 469.423 493.403 470 492.668 470H430.304C427.927 470 426 468.135 426 465.836Z" fill="white"/>
<path fill-rule="evenodd" clip-rule="evenodd" d="M439 462.085C439 450.993 447.858 442 458.785 442H462.676C463.407 442 464 442.602 464 443.344C464 444.087 463.407 444.689 462.676 444.689H458.785C449.321 444.689 441.648 452.478 441.648 462.085V462.226C441.648 465.035 443.891 467.311 446.657 467.311C447.389 467.311 447.981 467.913 447.981 468.656C447.981 469.398 447.389 470 446.657 470C442.428 470 439 466.52 439 462.226V462.085Z" fill="white"/>
<path fill-rule="evenodd" clip-rule="evenodd" d="M459 453.562C459 443.31 467.056 435 476.994 435H480.858C488.807 435 495.549 440.315 497.931 447.684C498.163 448.401 497.788 449.176 497.093 449.416C496.398 449.655 495.646 449.267 495.415 448.55C493.382 442.265 487.631 437.737 480.858 437.737H476.994C468.521 437.737 461.653 444.822 461.653 453.562V461.676C461.653 464.762 464.079 467.263 467.07 467.263C467.802 467.263 468.396 467.876 468.396 468.632C468.396 469.387 467.802 470 467.07 470C462.613 470 459 466.273 459 461.676V453.562Z" fill="white"/>
<path fill-rule="evenodd" clip-rule="evenodd" d="M494.393 449.707C488.474 449.707 483.675 454.564 483.675 460.554V464.527C483.675 466.055 484.899 467.293 486.407 467.293H509.906C512.668 467.293 514.282 464.143 512.693 461.859L513.786 461.08L512.693 461.859L509.248 456.909L509.248 456.909C506.106 452.394 500.991 449.707 495.533 449.707H494.393ZM481 460.554C481 453.068 486.996 447 494.393 447H495.533C501.861 447 507.793 450.115 511.435 455.35C511.435 455.35 511.435 455.35 511.435 455.35L514.88 460.3C517.718 464.378 514.835 470 509.906 470H486.407C483.422 470 481 467.55 481 464.527V460.554Z" fill="white"/>
<path fill-rule="evenodd" clip-rule="evenodd" d="M437 482.5C437 481.672 437.603 481 438.348 481H500.652C501.397 481 502 481.672 502 482.5C502 483.328 501.397 484 500.652 484H438.348C437.603 484 437 483.328 437 482.5Z" fill="white"/>
<path d="M196.835 606H548.972C555.32 606 561.379 603.359 565.681 598.716L578.926 584.424C582.605 580.453 584.42 575.116 583.918 569.738L581.756 546.586H576.54C571.784 546.586 567.589 549.684 566.213 554.213L563.235 564.012C561.999 568.076 558.234 570.856 553.966 570.856H512.968L518.826 569.073C526.673 566.684 532.134 559.608 532.427 551.449L213.098 473.001C170.332 462.494 129 494.694 129 538.516C129 575.787 159.371 606 196.835 606Z" fill="#F6ACC1"/>
<path d="M707.909 509.329L609.707 311.997C601.475 295.456 584.596 285 566.126 285H530.926C511.507 285 494.142 297.096 487.403 315.315L474.981 348.904C471.819 357.454 476.576 366.891 485.327 369.431L515.549 378.204C523.981 380.652 533.009 377.166 537.61 369.685L545.752 356.448C548.012 352.775 552.016 350.537 556.328 350.537H568.468L581.381 543.595C583.73 578.715 612.891 606 648.074 606C697.712 606.001 730.031 553.784 707.909 509.329Z" fill="#F6ACC1"/>
<path fill-rule="evenodd" clip-rule="evenodd" d="M504.955 319.106C505.784 319.43 506.207 320.402 505.9 321.278L494.036 355.178C491.339 362.886 495.397 371.395 502.863 373.685C503.711 373.945 504.199 374.883 503.953 375.78C503.707 376.677 502.82 377.193 501.972 376.933C492.722 374.095 487.695 363.554 491.037 354.004L492.536 354.591L491.037 354.004L502.901 320.104C503.207 319.229 504.127 318.782 504.955 319.106Z" fill="#573240"/>
<path fill-rule="evenodd" clip-rule="evenodd" d="M518.955 322.104C519.784 322.422 520.207 323.378 519.9 324.239L508.036 357.554C505.339 365.129 509.397 373.492 516.863 375.742C517.711 375.998 518.199 376.92 517.953 377.801C517.707 378.682 516.82 379.189 515.972 378.934C506.722 376.145 501.695 365.786 505.037 356.401L506.536 356.977L505.037 356.401L516.901 323.085C517.207 322.225 518.127 321.785 518.955 322.104Z" fill="#573240"/>
<path fill-rule="evenodd" clip-rule="evenodd" d="M535.955 327.103C536.784 327.418 537.207 328.366 536.9 329.219L525.036 362.247L523.545 361.679L525.036 362.247C523.243 367.238 524.432 372.576 527.632 376.253C528.221 376.931 528.166 377.972 527.508 378.579C526.851 379.187 525.84 379.13 525.25 378.452C521.295 373.907 519.814 367.293 522.037 361.104L533.901 328.076C534.207 327.223 535.127 326.787 535.955 327.103Z" fill="#573240"/>
<path fill-rule="evenodd" clip-rule="evenodd" d="M578.354 337C579.263 337 580 337.798 580 338.783C580 347.739 573.299 355 565.032 355H556.646C555.737 355 555 354.202 555 353.217C555 352.232 555.737 351.434 556.646 351.434H565.032C571.481 351.434 576.709 345.77 576.709 338.783C576.709 337.798 577.446 337 578.354 337Z" fill="#573240"/>
<path d="M520 244.024C506.565 226.376 509.328 163.901 507.441 160.922C504.025 155.53 462.259 133.904 447.682 134C439.334 134.055 394 158.961 394 188.13C394 207.74 408.819 233.477 445.745 242.546C482.671 251.616 520 244.024 520 244.024Z" fill="#573240"/>
<path d="M484.989 255.963V208.361L431.757 204L397 255.963C397 255.963 397.324 289 442.094 289C486.864 289 484.989 255.963 484.989 255.963Z" fill="#F6ACC1"/>
<path d="M497.544 192.769C496.475 204.281 492.935 216.043 490.169 223.857C488.312 229.096 482.821 232.036 477.49 230.664L456.614 225.283C447.115 222.836 440.168 214.826 438.825 205.227L427.061 203.49C418.724 202.26 412.946 194.425 414.162 185.989L414.603 182.913C415.818 174.477 423.561 168.63 431.904 169.86L437.095 170.624C439.667 171.003 441.911 172.219 443.601 173.963C447.65 162.58 454.751 151.291 466.929 152.035C468.759 152.15 470.483 152.325 472.113 152.562C472.774 157.956 475.059 166.616 482.667 172.152C489.067 176.809 494.425 177.336 497.604 177.053C498.226 182.021 498.045 187.375 497.544 192.769Z" fill="#F6ACC1"/>
<path fill-rule="evenodd" clip-rule="evenodd" d="M428.017 177.496C428.142 176.541 428.944 175.879 429.806 176.018C435.676 176.966 439.742 183.003 438.886 189.504C438.761 190.459 437.96 191.121 437.097 190.982C436.234 190.842 435.637 189.955 435.763 189C436.367 184.409 433.496 180.146 429.351 179.477C428.488 179.338 427.891 178.451 428.017 177.496Z" fill="#573240"/>
<path fill-rule="evenodd" clip-rule="evenodd" d="M470.373 173.77C464.484 170.58 457.292 171.893 454.185 176.286C453.684 176.994 452.623 177.212 451.815 176.774C451.007 176.336 450.758 175.408 451.258 174.701C455.527 168.666 464.952 167.29 472.185 171.209C472.993 171.647 473.242 172.575 472.742 173.282C472.242 173.99 471.181 174.208 470.373 173.77Z" fill="#573240"/>
<path fill-rule="evenodd" clip-rule="evenodd" d="M483.455 178.994C487.463 175.441 492.585 174.577 497.849 175.173C498.563 175.254 499.074 175.883 498.991 176.578C498.908 177.273 498.262 177.771 497.548 177.69C492.75 177.146 488.479 177.968 485.207 180.867C481.907 183.793 479.389 189.037 478.598 197.844C478.535 198.54 477.904 199.056 477.188 198.995C476.472 198.934 475.942 198.32 476.005 197.623C476.825 188.498 479.475 182.522 483.455 178.994Z" fill="#573240"/>
<path d="M492.673 189.984C492.998 187.756 492.141 185.787 490.76 185.586C489.379 185.385 487.996 187.027 487.672 189.255C487.347 191.482 488.204 193.451 489.585 193.653C490.966 193.854 492.348 192.211 492.673 189.984Z" fill="#573240"/>
<path d="M466.414 184.789C466.739 182.559 465.882 180.589 464.499 180.387C463.117 180.186 461.733 181.83 461.409 184.059C461.084 186.288 461.941 188.259 463.323 188.46C464.705 188.662 466.089 187.018 466.414 184.789Z" fill="#573240"/>
<path fill-rule="evenodd" clip-rule="evenodd" d="M439.65 200C440.562 200 441.301 200.79 441.301 201.764C441.301 212.517 448.121 221.901 457.866 224.557L479.225 230.173L479.231 230.174C483.675 231.384 488.25 228.792 489.796 224.183C490.103 223.266 491.048 222.789 491.906 223.118C492.764 223.447 493.21 224.457 492.903 225.374C490.782 231.699 484.508 235.248 478.424 233.596L457.064 227.98L457.058 227.978C445.847 224.927 438 214.133 438 201.764C438 200.79 438.739 200 439.65 200Z" fill="#573240"/>
<path fill-rule="evenodd" clip-rule="evenodd" d="M466.135 199.01C466.84 198.914 467.479 199.499 467.562 200.317C468.012 204.754 471.466 207.508 475.565 206.95C476.27 206.854 476.908 207.439 476.991 208.257C477.074 209.074 476.569 209.815 475.864 209.911C470.636 210.622 465.655 207.043 465.009 200.664C464.926 199.847 465.43 199.106 466.135 199.01Z" fill="#573240"/>
<path d="M-326 720V667H1693V667.482L-326 720Z" fill="#573240"/>
<path d="M1827 606H-474V667H1827V606Z" fill="white"/>
<path fill-rule="evenodd" clip-rule="evenodd" d="M-476 605H1828V667H-476V605ZM-472.652 608.259V663.741H1824.65V608.259H-472.652Z" fill="#573240"/>
<path d="M893.593 1494.46H989.841C994.647 1494.46 999.258 1496.37 1002.66 1499.77C1006.06 1503.17 1007.96 1507.78 1007.96 1512.58V1571.06H875.443V1512.57C875.445 1510.19 875.916 1507.83 876.829 1505.63C877.742 1503.44 879.08 1501.44 880.765 1499.76C882.451 1498.07 884.451 1496.74 886.652 1495.83C888.853 1494.92 891.211 1494.46 893.593 1494.46Z" fill="#F5BBBB"/>
<path d="M1129.59 731V841.901C1129.59 852.497 1127.29 862.967 1122.83 872.581C1118.38 882.195 1111.88 890.723 1103.8 897.573C1094.51 905.447 1087.04 915.25 1081.92 926.3C1076.8 937.35 1074.15 949.383 1074.15 961.562V1013.56C1074.15 1026.26 1070.84 1038.74 1064.54 1049.77C1058.24 1060.8 1049.17 1069.99 1038.23 1076.44C1028.59 1082.13 1020.6 1090.23 1015.04 1099.95C1009.49 1109.67 1006.57 1120.66 1006.56 1131.86V1174.21C1006.56 1186.99 1003.11 1199.53 996.578 1210.5C990.042 1221.48 980.664 1230.49 969.432 1236.57L951.99 1246.03V1100.27C951.989 1018.53 977.939 938.91 1026.1 872.873L1129.59 731Z" fill="#FFC200"/>
<path d="M1129.59 731V841.901C1129.59 852.498 1127.29 862.967 1122.83 872.582C1118.38 882.196 1111.88 890.724 1103.8 897.573C1094.51 905.45 1087.05 915.253 1081.93 926.303C1076.81 937.353 1074.15 949.384 1074.15 961.562V1013.56C1074.15 1026.26 1070.84 1038.74 1064.54 1049.77C1058.24 1060.8 1049.17 1069.99 1038.23 1076.44C1028.58 1082.12 1020.59 1090.22 1015.03 1099.94C1012.39 1104.56 1010.33 1109.5 1008.92 1114.63L968.535 988.684C981.083 947.11 1000.57 907.955 1026.16 872.873L1129.59 731Z" fill="#A74602"/>
<path d="M929.915 1384.05V1328.22C929.918 1280.76 919.606 1233.86 899.692 1190.78C879.778 1147.7 850.738 1109.47 814.584 1078.72L742 1016.99V1091.09C742.005 1103.2 745.295 1115.07 751.518 1125.45C757.742 1135.84 766.666 1144.33 777.339 1150.04C785.503 1154.41 792.329 1160.91 797.088 1168.85C801.847 1176.8 804.36 1185.88 804.361 1195.14V1210.01C804.359 1222.79 807.836 1235.33 814.416 1246.29C820.997 1257.25 830.435 1266.21 841.719 1272.22C846.88 1274.96 851.197 1279.06 854.208 1284.07C857.218 1289.08 858.808 1294.82 858.808 1300.66C858.799 1317 863.711 1332.97 872.905 1346.47C882.099 1359.98 895.148 1370.41 910.353 1376.39L929.915 1384.05Z" fill="#FFC200"/>
<path d="M951.989 1494.46V1231.87C951.96 1231.39 952.029 1230.92 952.191 1230.47C952.354 1230.02 952.606 1229.61 952.933 1229.26C953.26 1228.91 953.654 1228.64 954.092 1228.45C954.53 1228.26 955.002 1228.16 955.479 1228.16C955.955 1228.16 956.427 1228.26 956.865 1228.45C957.302 1228.64 957.697 1228.91 958.024 1229.26C958.351 1229.61 958.603 1230.02 958.765 1230.47C958.928 1230.92 958.997 1231.39 958.968 1231.87V1494.46H951.989Z" fill="#FFC200"/>
<path d="M922.936 1494.46V1355.73C922.907 1355.25 922.976 1354.78 923.139 1354.33C923.301 1353.88 923.554 1353.47 923.88 1353.12C924.207 1352.78 924.602 1352.5 925.039 1352.31C925.477 1352.12 925.949 1352.02 926.426 1352.02C926.903 1352.02 927.374 1352.12 927.812 1352.31C928.25 1352.5 928.644 1352.78 928.971 1353.12C929.298 1353.47 929.55 1353.88 929.712 1354.33C929.875 1354.78 929.944 1355.25 929.915 1355.73V1494.46H922.936Z" fill="#FFC200"/>
<path d="M973.318 1494.46V1360.17C973.318 1359.25 973.687 1358.36 974.343 1357.7C974.998 1357.05 975.887 1356.68 976.814 1356.68C977.742 1356.68 978.631 1357.05 979.286 1357.7C979.942 1358.36 980.31 1359.25 980.31 1360.17V1494.46H973.318Z" fill="#FFC200"/>
<path d="M980.853 1363.16C988.673 1363.16 995.013 1356.82 995.013 1349C995.013 1341.18 988.673 1334.84 980.853 1334.84C973.032 1334.84 966.691 1341.18 966.691 1349C966.691 1356.82 973.032 1363.16 980.853 1363.16Z" fill="#A74602"/>
<path d="M902.087 1135.23C909.907 1135.23 916.247 1128.89 916.247 1121.07C916.247 1113.25 909.907 1106.91 902.087 1106.91C894.266 1106.91 887.926 1113.25 887.926 1121.07C887.926 1128.89 894.266 1135.23 902.087 1135.23Z" fill="#A74602"/>
<path d="M148 1564H414L281.368 939H280.632L148 1564Z" fill="#573240"/>
<path fill-rule="evenodd" clip-rule="evenodd" d="M758.09 1563H412L430.021 1647.68C430.212 1648.58 431.099 1649.15 432.001 1648.96C432.903 1648.77 433.48 1647.89 433.288 1646.99L416.123 1566.33H755.384L772.696 1647.68C772.887 1648.58 773.774 1649.15 774.676 1648.96C775.578 1648.77 776.155 1647.89 775.963 1646.99L758.09 1563Z" fill="#573240"/>
<path fill-rule="evenodd" clip-rule="evenodd" d="M150.672 1563.04C149.767 1562.85 148.878 1563.42 148.686 1564.32L131.037 1646.99C130.845 1647.89 131.423 1648.77 132.328 1648.96C133.233 1649.15 134.122 1648.58 134.314 1647.68L151.963 1565.01C152.155 1564.11 151.577 1563.23 150.672 1563.04Z" fill="#573240"/>
<path d="M413.895 1564H758L625.105 939H281L413.895 1564Z" fill="white"/>
<path fill-rule="evenodd" clip-rule="evenodd" d="M625.71 938H279L412.29 1566H759L625.71 938ZM622.999 941.343L754.87 1562.66H415.001L283.13 941.343H622.999Z" fill="#573240"/>
<path d="M373 982L403.457 1119H485L454.543 982H373Z" fill="#FDE5E3"/>
<path d="M396.686 1274H638L627.314 1226H386L396.686 1274Z" fill="#B2DDDA"/>
<path d="M524.5 1507C482.25 1507 448 1472.53 448 1430C448 1387.47 482.25 1353 524.5 1353C566.75 1353 601 1387.47 601 1430C601 1472.53 566.75 1507 524.5 1507Z" fill="#F1B104"/>
<path d="M538 1049C518.118 1049 502 1032.88 502 1013C502 993.118 518.118 977 538 977C557.882 977 574 993.118 574 1013C574 1032.88 557.882 1049 538 1049Z" fill="#F6ACC1"/>
<path d="M840.245 541H620L693.755 386H914L840.245 541Z" fill="#A9D8D5"/>
<path fill-rule="evenodd" clip-rule="evenodd" d="M679.272 386H903L827.728 543H604L679.272 386ZM681.386 389.322L609.3 539.678H825.614L897.7 389.322H681.386Z" fill="#573240"/>
<path fill-rule="evenodd" clip-rule="evenodd" d="M718 500H783.144L806 608H740.856L718 500ZM722.14 503.363L743.572 604.637H801.86L780.428 503.363H722.14Z" fill="#573240"/>
<path d="M1638.21 389.042L1563.2 656.105L1575.41 731.198C1575.41 731.198 1417.71 800.354 1294.19 666.055L1293 440.564L1188 439.342L1208.5 334.54C1215.45 299.532 1242.79 272.115 1277.82 265.039L1371.42 246.124C1382.04 243.978 1390.38 235.748 1392.64 225.166L1393.75 220H1488.13L1490.35 224.519C1495.42 234.836 1504.41 242.699 1515.32 246.351L1572.77 265.589C1624.03 282.755 1652.81 337.052 1638.21 389.042Z" fill="#573240"/>
<path d="M1570.59 1535.44C1570.59 1535.44 1485.3 1556.95 1421.71 1535.44L1395.11 973.076L1326.01 1115.89C1418.95 1262.39 1415.04 1452.85 1415.04 1452.85C1391.56 1472.4 1282.97 1510.02 1282.97 1510.02L1156.38 1207.24C1134.26 1154.31 1133.21 1094.94 1153.47 1041.27L1294.7 667C1330.71 706.166 1369.61 728.074 1406.67 739.432C1427.98 745.981 1448.68 749.038 1467.87 749.885C1525.5 752.456 1569.55 735.167 1575.72 732.611L1576.46 1133.17C1576.45 1133.17 1655.7 1341.86 1570.59 1535.44Z" fill="#EE7E5C"/>
<path fill-rule="evenodd" clip-rule="evenodd" d="M1466.02 820H1496.32C1497.25 820 1498 820.75 1498 821.675C1498 822.599 1497.25 823.349 1496.32 823.349H1468.12L1326.83 1114.96C1373.23 1188.36 1395.46 1272.55 1406.1 1338.42C1411.45 1371.48 1413.87 1399.95 1414.96 1420.16C1415.51 1430.26 1415.72 1438.31 1415.79 1443.83C1415.83 1446.59 1415.83 1448.71 1415.83 1450.16C1415.82 1450.88 1415.82 1451.43 1415.81 1451.8C1415.81 1451.98 1415.81 1452.12 1415.81 1452.21L1415.81 1452.32L1415.81 1452.35L1415.81 1452.36C1415.81 1452.36 1415.81 1452.36 1414.13 1452.33C1412.45 1452.29 1412.45 1452.29 1412.45 1452.29L1412.45 1452.26L1412.45 1452.16C1412.46 1452.07 1412.46 1451.93 1412.46 1451.75C1412.46 1451.39 1412.47 1450.85 1412.47 1450.14C1412.48 1448.72 1412.47 1446.61 1412.44 1443.87C1412.36 1438.39 1412.15 1430.4 1411.61 1420.34C1410.53 1400.22 1408.11 1371.87 1402.79 1338.95C1392.15 1273.08 1369.9 1189.02 1323.5 1115.97L1323 1115.18L1466.02 820ZM1414.13 1452.33L1412.45 1452.29C1412.43 1453.22 1413.17 1453.98 1414.09 1454C1415.02 1454.02 1415.79 1453.28 1415.81 1452.36L1414.13 1452.33Z" fill="#573240"/>
<path d="M1450.32 1528.91L1309.02 1658H1249V1652.21C1249 1644.64 1251.51 1637.29 1256.09 1631.26C1268.81 1614.53 1293.99 1575.77 1292.03 1533.28C1292.03 1533.28 1341.38 1520.61 1411.25 1475L1450.49 1512.39C1455.24 1516.91 1455.16 1524.5 1450.32 1528.91Z" fill="#573240"/>
<path fill-rule="evenodd" clip-rule="evenodd" d="M1452.56 1511.55C1453.19 1512.24 1453.14 1513.31 1452.45 1513.93L1306.49 1648H1245.68C1244.75 1648 1244 1647.24 1244 1646.31C1244 1645.38 1244.75 1644.62 1245.68 1644.62H1305.19L1450.19 1511.44C1450.88 1510.81 1451.94 1510.86 1452.56 1511.55Z" fill="white"/>
<path d="M1282 1510.12L1291.18 1533C1291.18 1533 1350.27 1516.03 1411 1474.5L1410.31 1456C1410.31 1456 1351.47 1486.58 1282 1510.12Z" fill="white"/>
<path d="M1563.48 1564L1582.64 1642.72C1584.53 1650.49 1578.72 1658 1570.8 1658H1367.01C1359.72 1658 1356.23 1648.93 1361.61 1643.95L1448.04 1564H1563.48Z" fill="#573240"/>
<path fill-rule="evenodd" clip-rule="evenodd" d="M1359 1644.5C1359 1643.67 1359.75 1643 1360.67 1643H1585.33C1586.25 1643 1587 1643.67 1587 1644.5C1587 1645.33 1586.25 1646 1585.33 1646H1360.67C1359.75 1646 1359 1645.33 1359 1644.5Z" fill="white"/>
<path d="M1570 1535L1563.17 1564.57C1563.17 1564.57 1484.11 1579.03 1448 1564.57V1541.91C1448 1541.91 1503.31 1549.79 1570 1535Z" fill="white"/>
<path d="M1187.88 439L1332 440.683L1292.79 565.046C1285.48 588.235 1264.01 604 1239.74 604H874.99C872.067 604 870.886 600.228 873.287 598.559C897.494 581.733 984.481 528.546 1180.31 476.701L1187.88 439Z" fill="#F6ACC1"/>
<path fill-rule="evenodd" clip-rule="evenodd" d="M1341.7 409.079C1342.68 409.362 1343.22 410.317 1342.91 411.213L1329.62 449.812C1329.31 450.707 1328.27 451.203 1327.3 450.921C1326.32 450.638 1325.78 449.683 1326.09 448.787L1339.38 410.188C1339.69 409.293 1340.73 408.797 1341.7 409.079Z" fill="#F1B104"/>
<path d="M1489 220H1394L1400.92 185H1473.17L1489 220Z" fill="#F6ACC1"/>
<path d="M1473.14 154.242C1478.85 156.015 1483 162.106 1483 168.503V173.515C1483 181.354 1476.76 187.708 1469.07 187.708H1449.3C1447.12 197.053 1438.87 204 1429.03 204H1394.66C1391.28 204 1388.53 201.2 1388.53 197.745V174.072L1381.56 172.809C1379.56 172.442 1378.43 170.235 1379.29 168.347L1397.98 127.479C1399.86 127.92 1401.82 128.151 1403.84 128.151C1410.76 128.151 1417.02 125.414 1421.53 121H1426.13C1430.77 121 1434.53 124.831 1434.53 129.557V147.227C1434.53 155.485 1441.1 162.174 1449.2 162.174C1449.14 157.898 1452.5 154.387 1456.7 154.358L1473.14 154.242Z" fill="#F6ACC1"/>
<path fill-rule="evenodd" clip-rule="evenodd" d="M1467.34 162.319C1462.36 162.319 1458.32 166.358 1458.32 171.341C1458.32 172.257 1457.58 173 1456.66 173C1455.74 173 1455 172.257 1455 171.341C1455 164.525 1460.52 159 1467.34 159C1468.26 159 1469 159.743 1469 160.659C1469 161.576 1468.26 162.319 1467.34 162.319Z" fill="#573240"/>
<path fill-rule="evenodd" clip-rule="evenodd" d="M1449.21 185H1466.31C1467.24 185 1468 185.758 1468 186.693C1468 187.627 1467.24 188.385 1466.31 188.385H1452.02C1449.65 198.483 1440.61 206 1429.81 206H1398.69C1397.76 206 1397 205.242 1397 204.307C1397 203.373 1397.76 202.615 1398.69 202.615H1429.81C1439.43 202.615 1447.42 195.609 1448.97 186.411L1449.21 185Z" fill="#573240"/>
<path fill-rule="evenodd" clip-rule="evenodd" d="M1398.01 138.18C1398.12 137.447 1398.93 136.923 1399.83 137.009L1413.56 138.336C1414.45 138.423 1415.09 139.087 1414.99 139.82C1414.88 140.553 1414.07 141.077 1413.17 140.991L1399.44 139.664C1398.55 139.577 1397.91 138.913 1398.01 138.18Z" fill="#573240"/>
<path d="M1405.5 157C1406.88 157 1408 155.209 1408 153C1408 150.791 1406.88 149 1405.5 149C1404.12 149 1403 150.791 1403 153C1403 155.209 1404.12 157 1405.5 157Z" fill="#573240"/>
<path fill-rule="evenodd" clip-rule="evenodd" d="M1402.17 175.24C1402.98 175.721 1403.24 176.765 1402.76 177.573C1400.81 180.854 1397.32 182.135 1394.63 182.645C1393.26 182.906 1392 182.984 1391.09 182.998C1390.63 183.005 1390.26 182.995 1389.99 182.984C1389.86 182.978 1389.75 182.972 1389.68 182.967C1389.64 182.965 1389.61 182.962 1389.59 182.961L1389.56 182.958L1389.55 182.958L1389.55 182.957L1389.55 182.957C1389.55 182.957 1389.55 182.957 1389.7 181.262L1389.55 182.957C1388.61 182.874 1387.92 182.048 1388.01 181.112C1388.09 180.177 1388.91 179.485 1389.84 179.567L1389.84 179.567L1389.85 179.568C1389.86 179.568 1389.88 179.57 1389.9 179.571C1389.95 179.575 1390.03 179.579 1390.14 179.584C1390.35 179.593 1390.66 179.601 1391.04 179.595C1391.81 179.583 1392.87 179.517 1394 179.301C1396.34 178.858 1398.64 177.86 1399.85 175.831C1400.33 175.024 1401.37 174.759 1402.17 175.24ZM1389.84 179.567C1389.84 179.567 1389.84 179.567 1389.84 179.567L1389.84 179.567Z" fill="#573240"/>
<path d="M1473.76 155.073C1472.47 154.673 1471.09 155.135 1469.67 155.135H1461.33C1456.1 155.135 1451.63 158.385 1449.78 163H1449.67C1441.51 163 1434.9 156.315 1434.9 148.063V130.405C1434.9 125.682 1431.11 121.854 1426.45 121.854H1421.82C1417.28 126.265 1410.98 129 1404.01 129C1390.2 129 1379 118.257 1379 104.997C1379 91.7428 1390.2 81 1404.01 81C1416.57 81 1426.97 89.8834 1428.75 101.461C1458.02 97.4367 1462.58 121.854 1462.58 121.854C1462.58 121.854 1478.75 117.389 1482.42 131.267C1484.87 140.503 1479.08 148.986 1473.76 155.073Z" fill="#FFC200"/>
<rect x="753" y="32" width="382" height="231" rx="30" fill="#EAEFF9"/>
</g>
<defs>
<clipPath id="clip0">
<rect width="1708" height="1708" fill="white"/>
</clipPath>
</defs>
</svg>
