<svg width="1708" height="1708" viewBox="0 0 1708 1708" fill="none" xmlns="http://www.w3.org/2000/svg">
<g clip-path="url(#clip0)">
<path d="M725.809 885.599C725.809 861.926 749.095 842.736 777.82 842.736C806.546 842.736 829.832 861.926 829.832 885.599H725.809Z" fill="#A1B7E1"/>
<path d="M1438.56 885.598H829.728C818.185 873.765 811.277 858.738 811.277 842.378C811.277 804.247 848.793 773.332 895.063 773.332C906.202 773.332 916.825 775.124 926.549 778.381C943.522 735.379 992.56 704.291 1050.41 704.291C1119.07 704.291 1175.33 748.091 1180.28 803.633C1206.79 791.937 1238.81 785.102 1273.31 785.102C1361.22 785.102 1433.13 829.505 1438.56 885.598Z" fill="#A1B7E1"/>
<path d="M681 885.599H1468" stroke="#A1B7E1" stroke-width="5" stroke-miterlimit="10"/>
<path d="M960.498 874.369C963.578 874.369 966.075 872.311 966.075 869.773C966.075 867.235 963.578 865.178 960.498 865.178C957.419 865.178 954.922 867.235 954.922 869.773C954.922 872.311 957.419 874.369 960.498 874.369Z" stroke="#A1B7E1" stroke-width="4" stroke-miterlimit="10"/>
<path d="M19.5742 290.713C19.5742 274.56 35.4634 261.466 55.0639 261.466C74.6644 261.466 90.5536 274.56 90.5536 290.713H19.5742Z" fill="#B9CCF1"/>
<path d="M505.912 290.713H90.4824C82.606 282.638 77.8926 272.385 77.8926 261.222C77.8926 235.204 103.491 214.109 135.063 214.109C142.663 214.109 149.912 215.332 156.547 217.554C168.128 188.213 201.588 167 241.06 167C287.914 167 326.297 196.887 329.674 234.785C347.767 226.805 369.617 222.14 393.156 222.14C453.141 222.14 502.207 252.438 505.912 290.713Z" fill="#B9CCF1"/>
<path d="M-11 290.713H526" stroke="#B9CCF1" stroke-width="5" stroke-miterlimit="10"/>
<path d="M179.713 283.051C181.815 283.051 183.518 281.647 183.518 279.915C183.518 278.183 181.815 276.779 179.713 276.779C177.612 276.779 175.908 278.183 175.908 279.915C175.908 281.647 177.612 283.051 179.713 283.051Z" stroke="#B9CCF1" stroke-width="4" stroke-miterlimit="10"/>
<path d="M1249.38 1549.84H187C187 1501.44 245.043 1445.92 341.675 1461.05C339.765 1453.21 338.803 1445.18 338.808 1437.12C338.808 1374.86 395.424 1324.39 465.255 1324.39C474.374 1324.39 483.471 1325.29 492.416 1327.06C496.637 1311.64 502.488 1296.71 509.87 1282.53C568.3 1169.92 709.481 1124.71 825.22 1181.56C921.719 1228.94 970.068 1332.3 949.6 1430.59C979.417 1414.76 1012.56 1406.23 1046.31 1405.7C1080.06 1405.16 1113.45 1412.64 1143.76 1427.51C1196.72 1453.56 1233.39 1498.59 1249.38 1549.84Z" fill="#A9D8D5"/>
<path d="M728 1551.85C727.986 1574.42 731.027 1596.89 737.038 1618.65H1252.42C1258.44 1596.89 1261.48 1574.42 1261.46 1551.85C1261.46 1409.43 1142.04 1294 994.71 1294C847.381 1294 728 1409.46 728 1551.85Z" fill="#FFC200"/>
<path d="M728.122 1543.91L836.681 1506.51L991.073 1548.03V1618.74H998.385V1462.77L1114.31 1321.33C1112.06 1320.24 1109.79 1319.17 1107.48 1318.13L998.385 1451.21V1294.04H991.073V1382.48L903.325 1309.56C900.663 1310.54 898.026 1311.51 895.413 1312.49L991.058 1391.97V1540.38L740.67 1473.03C739.895 1475.35 739.208 1477.69 738.476 1480.03L824.645 1503.21L728.473 1536.05C728.326 1538.68 728.195 1541.29 728.122 1543.91Z" fill="white"/>
<path d="M571.529 148.307V206.121H441.406L495.177 111.782L571.529 148.307Z" fill="#F6ACC1"/>
<path fill-rule="evenodd" clip-rule="evenodd" d="M493.525 110.837C494.022 109.966 495.106 109.626 496.01 110.059L572.362 146.584C573.026 146.901 573.449 147.572 573.449 148.308V206.122C573.449 207.178 572.593 208.033 571.538 208.033H441.415C440.734 208.033 440.105 207.671 439.763 207.082C439.421 206.494 439.418 205.767 439.755 205.176L493.525 110.837ZM495.965 114.274L444.704 204.211H569.627V149.512L495.965 114.274Z" fill="#59221D"/>
<path d="M571.532 206.123V148.308L496.709 111.814V124.878C496.711 133.231 498.701 141.464 502.514 148.896C506.328 156.328 511.856 162.745 518.641 167.618L571.532 206.123Z" fill="#59221D"/>
<path d="M491.148 94.3292V71.3961C491.147 66.0231 492.667 60.7595 495.533 56.2141C498.398 51.6688 502.491 48.0273 507.339 45.711L539.866 30.1547C543.199 28.5625 546.836 27.7063 550.53 27.6443C554.224 27.5822 557.888 28.3158 561.273 29.7951C564.658 31.2744 567.685 33.4649 570.148 36.2177C572.612 38.9706 574.454 42.2213 575.55 45.7492L578.608 55.6869L491.148 94.3292Z" fill="white"/>
<path fill-rule="evenodd" clip-rule="evenodd" d="M560.514 31.5472C557.38 30.1777 553.988 29.4986 550.569 29.556C547.15 29.6135 543.782 30.4061 540.696 31.8801L508.17 47.436C503.648 49.5968 499.829 52.994 497.156 57.2342C494.483 61.4743 493.065 66.3844 493.066 71.3967V91.3965L576.288 54.6263L573.732 46.3171C573.731 46.3162 573.731 46.3154 573.731 46.3146C572.716 43.0495 571.011 40.0409 568.731 37.4931C566.45 34.9446 563.648 32.9167 560.514 31.5472ZM550.505 25.7344C554.473 25.6677 558.408 26.4557 562.045 28.0449C565.681 29.634 568.933 31.987 571.579 34.9442C574.226 37.9014 576.205 41.3935 577.382 45.1832L577.383 45.1881L580.441 55.1258C580.726 56.0518 580.273 57.0444 579.387 57.4359L491.928 96.0783C491.337 96.3394 490.654 96.2842 490.112 95.9315C489.571 95.5788 489.244 94.9764 489.244 94.3302V71.3974C489.244 71.3973 489.244 71.3976 489.244 71.3974C489.243 65.6637 490.865 60.0464 493.923 55.196C496.98 50.3456 501.348 46.4598 506.521 43.9879C506.522 43.9878 506.521 43.988 506.521 43.9879L539.049 28.4311C542.63 26.7208 546.537 25.801 550.505 25.7344Z" fill="#59221D"/>
<path fill-rule="evenodd" clip-rule="evenodd" d="M611.728 41.0339C612.154 41.9993 611.718 43.1278 610.752 43.5545L491.928 96.0791C490.963 96.5058 489.834 96.0691 489.408 95.1038C488.981 94.1384 489.418 93.0099 490.383 92.5832L609.207 40.0587C610.172 39.6319 611.301 40.0686 611.728 41.0339Z" fill="#59221D"/>
<path d="M490.684 129.188H506.271L509.076 138.56C510.116 142.042 512.254 145.095 515.17 147.263C518.086 149.432 521.625 150.599 525.259 150.592H566.807C569.734 150.592 572.629 149.97 575.299 148.769C577.969 147.567 580.354 145.813 582.296 143.622C584.238 141.43 585.693 138.852 586.565 136.057C587.437 133.262 587.706 130.314 587.355 127.407L578.686 55.7104L495.278 92.3347H490.692C485.84 92.3323 481.183 94.2441 477.732 97.6547C474.281 101.065 472.315 105.7 472.261 110.551C472.234 112.988 472.69 115.406 473.603 117.666C474.517 119.925 475.87 121.981 477.583 123.715C479.296 125.448 481.336 126.824 483.585 127.764C485.834 128.703 488.247 129.187 490.684 129.188Z" fill="#F6ACC1"/>
<path d="M495 92.6982C495.861 92.6982 496.713 92.8679 497.509 93.1976C498.304 93.5273 499.027 94.0105 499.635 94.6197C500.244 95.2288 500.726 95.9519 501.055 96.7476C501.384 97.5434 501.552 98.3961 501.551 99.257V109.516H503.546C506.182 109.516 508.71 108.469 510.573 106.605C512.437 104.741 513.484 102.214 513.484 99.5781V95.5954C513.485 93.1773 514.116 90.8011 515.314 88.7008C516.513 86.6004 518.237 84.8483 520.318 83.6166L536.547 74L495 92.6982Z" fill="#59221D"/>
<path fill-rule="evenodd" clip-rule="evenodd" d="M580.548 74.3529C580.548 74.3529 580.549 74.353 580.286 76.2379L580.549 74.353C581.594 74.4987 582.324 75.4642 582.178 76.5096C582.032 77.5546 581.067 78.2838 580.022 78.1388L580.021 78.1386L580.015 78.1378L579.983 78.1335C579.953 78.1295 579.906 78.1235 579.843 78.1158C579.717 78.1003 579.528 78.0782 579.284 78.0529C578.796 78.0021 578.09 77.9386 577.233 77.8892C575.513 77.79 573.221 77.7502 570.882 77.9752C568.521 78.2024 566.241 78.6882 564.471 79.5622C562.732 80.4208 561.639 81.5668 561.245 83.1093L561.244 83.1114C561.194 83.3084 561.19 83.9421 561.5 85.2295C561.788 86.423 562.269 87.8928 562.875 89.581C563.293 90.7463 563.774 92.0221 564.276 93.3558C565.191 95.7845 566.178 98.4048 566.991 100.898C568.241 104.733 569.253 108.747 568.947 111.895C568.79 113.513 568.264 115.125 567.023 116.326C565.764 117.545 564.042 118.076 562.046 118.076C560.99 118.076 560.135 117.22 560.135 116.165C560.135 115.109 560.99 114.254 562.046 114.254C563.377 114.254 564.023 113.911 564.365 113.58C564.727 113.229 565.037 112.614 565.143 111.525C565.363 109.257 564.612 105.933 563.357 102.083C562.566 99.655 561.644 97.2096 560.752 94.8462C560.24 93.488 559.738 92.1569 559.277 90.8717C558.661 89.1553 558.122 87.5269 557.785 86.1249C557.47 84.8173 557.235 83.3589 557.542 82.163C558.295 79.2149 560.386 77.3167 562.779 76.135C565.141 74.9687 567.941 74.4183 570.516 74.1706C573.114 73.9207 575.615 73.9673 577.453 74.0733C578.376 74.1266 579.141 74.1953 579.679 74.2512C579.948 74.2791 580.161 74.3039 580.309 74.3221C580.382 74.3311 580.44 74.3385 580.481 74.3438L580.528 74.3502L580.542 74.352L580.548 74.3529Z" fill="#59221D"/>
<path d="M541.469 102.267C543.478 102.267 545.108 100.046 545.108 97.3059C545.108 94.5659 543.478 92.3447 541.469 92.3447C539.459 92.3447 537.83 94.5659 537.83 97.3059C537.83 100.046 539.459 102.267 541.469 102.267Z" fill="#59221D"/>
<path d="M575.377 102.267C577.387 102.267 579.016 100.046 579.016 97.3059C579.016 94.5659 577.387 92.3447 575.377 92.3447C573.367 92.3447 571.738 94.5659 571.738 97.3059C571.738 100.046 573.367 102.267 575.377 102.267Z" fill="#59221D"/>
<path fill-rule="evenodd" clip-rule="evenodd" d="M483.664 101.457C483.664 100.402 484.52 99.5459 485.575 99.5459C488.626 99.5459 491.553 100.758 493.71 102.916C495.868 105.073 497.08 107.999 497.08 111.051C497.08 112.106 496.224 112.962 495.169 112.962C494.113 112.962 493.258 112.106 493.258 111.051C493.258 109.013 492.448 107.059 491.008 105.618C489.567 104.177 487.613 103.368 485.575 103.368C484.52 103.368 483.664 102.512 483.664 101.457Z" fill="#59221D"/>
<path d="M853.407 459.455C845.122 453.229 839.465 444.13 837.545 433.946L814.535 312.928C808.747 282.868 792.669 255.764 769.065 236.272C745.46 216.78 715.804 206.119 685.192 206.121H348.075C316.332 206.121 285.069 213.884 257.012 228.732C228.955 243.58 204.954 265.063 187.1 291.31L46.5199 497.96C26.7974 526.963 19.4817 559.115 22.1266 589.738C26.7591 643.448 72.3731 684.376 126.281 684.376H144.146L252.268 553.091C242.048 550.851 236.88 541.586 242.224 533.567L305.909 438.013C316.427 422.242 340.377 425.017 347.036 442.737L421.951 634.55C421.951 634.55 731.815 634.55 731.823 634.611L853.407 459.455Z" fill="white"/>
<path fill-rule="evenodd" clip-rule="evenodd" d="M685.199 204.21C716.255 204.208 746.342 215.024 770.288 234.799C794.235 254.573 810.546 282.071 816.419 312.567L839.429 433.589L839.43 433.592C841.261 443.308 846.659 451.988 854.562 457.928L856.033 459.034L730.553 639.803L730.142 636.515C729.648 636.514 729.047 636.513 728.346 636.512C726.077 636.508 722.748 636.505 718.511 636.502C710.038 636.496 697.934 636.491 683.408 636.487C654.358 636.479 615.624 636.473 576.891 636.469C538.157 636.465 499.424 636.463 470.374 636.462C455.849 636.462 443.745 636.462 435.272 636.461L421.961 636.461C421.958 636.461 421.957 636.461 421.957 634.55V636.461H420.652L345.258 443.421L345.253 443.41C339.142 427.146 317.16 424.6 307.506 439.073C307.506 439.073 307.506 439.073 307.506 439.073L243.821 534.628C241.535 538.059 241.535 541.63 243.106 544.604C244.705 547.63 248.034 550.206 252.684 551.225L255.737 551.894L145.055 686.287H126.288C71.4114 686.287 24.9491 644.624 20.2294 589.903C17.5478 558.855 24.9691 526.263 44.9463 496.886L185.527 290.235C203.556 263.731 227.793 242.037 256.125 227.043C284.458 212.049 316.027 204.211 348.082 204.21H685.199ZM423.263 632.639L435.272 632.639C443.745 632.639 455.849 632.64 470.374 632.64C499.424 632.641 538.157 632.643 576.891 632.647C615.624 632.651 654.358 632.656 683.41 632.665C697.935 632.669 710.04 632.674 718.514 632.68C722.751 632.683 726.081 632.686 728.351 632.69C729.417 632.691 730.25 632.693 730.834 632.694L850.817 459.846C842.942 453.387 837.569 444.35 835.674 434.303M835.674 434.301L812.665 313.29C806.961 283.666 791.116 256.955 767.855 237.746C744.593 218.537 715.367 208.031 685.199 208.032H348.082C316.65 208.033 285.695 215.719 257.913 230.421C230.131 245.124 206.366 266.396 188.687 292.385L48.107 499.035C48.1069 499.035 48.107 499.035 48.107 499.035C28.6394 527.663 21.4291 559.375 24.0374 589.574C28.5827 642.273 73.3484 682.465 126.288 682.465H143.251L248.962 554.108C244.785 552.554 241.531 549.805 239.727 546.39C237.495 542.166 237.583 537.096 240.64 532.508L304.325 436.953C315.706 419.89 341.615 422.889 348.827 442.053C348.828 442.057 348.83 442.061 348.831 442.065L423.263 632.639" fill="#F3B304"/>
<path d="M177.542 333.704L153.975 357.272L177.542 380.839L201.11 357.272L177.542 333.704Z" fill="#F3B304"/>
<path d="M159.073 357.281L135.505 380.849L129.963 375.307L149.043 347.252L156.527 354.736L159.073 357.281Z" fill="#F3B304"/>
<path d="M219.581 333.704L196.014 357.272L219.581 380.839L243.149 357.272L219.581 333.704Z" fill="#F3B304"/>
<path d="M262.394 333.704L238.826 357.272L262.394 380.839L285.961 357.272L262.394 333.704Z" fill="#F3B304"/>
<path d="M304.427 333.704L280.859 357.272L304.427 380.839L327.994 357.272L304.427 333.704Z" fill="#F3B304"/>
<path d="M346.48 333.704L322.912 357.272L346.48 380.839L370.047 357.272L346.48 333.704Z" fill="#F3B304"/>
<path d="M388.521 333.704L364.953 357.272L388.521 380.839L412.088 357.272L388.521 333.704Z" fill="#F3B304"/>
<path d="M431.325 333.704L407.758 357.272L431.325 380.839L454.893 357.272L431.325 333.704Z" fill="#F3B304"/>
<path d="M473.372 333.704L449.805 357.272L473.372 380.839L496.94 357.272L473.372 333.704Z" fill="#F3B304"/>
<path d="M514.661 333.708L491.094 357.275L514.661 380.843L538.229 357.275L514.661 333.708Z" fill="#F3B304"/>
<path d="M556.71 333.707L533.143 357.275L556.71 380.842L580.278 357.275L556.71 333.707Z" fill="#F3B304"/>
<path d="M599.505 333.708L575.938 357.275L599.505 380.843L623.073 357.275L599.505 333.708Z" fill="#F3B304"/>
<path d="M641.554 333.708L617.986 357.275L641.554 380.843L665.121 357.275L641.554 333.708Z" fill="#F3B304"/>
<path d="M683.601 333.707L660.033 357.275L683.601 380.842L707.168 357.275L683.601 333.707Z" fill="#F3B304"/>
<path d="M725.634 333.707L702.066 357.275L725.634 380.842L749.201 357.275L725.634 333.707Z" fill="#F3B304"/>
<path d="M768.444 333.708L744.877 357.275L768.444 380.843L792.012 357.275L768.444 333.708Z" fill="#F3B304"/>
<path d="M824.747 366.597L810.497 380.846L786.93 357.279L810.497 333.711L811.896 335.11L820.374 343.587L824.747 366.597Z" fill="#F3B304"/>
<path d="M201.105 312.945L177.537 336.512L164.924 323.899L184.004 295.844L198.559 310.399L201.105 312.945Z" fill="#F3B304"/>
<path d="M219.581 289.372L196.014 312.94L219.581 336.507L243.149 312.94L219.581 289.372Z" fill="#F3B304"/>
<path d="M262.394 289.365L238.826 312.933L262.394 336.5L285.961 312.933L262.394 289.365Z" fill="#F3B304"/>
<path d="M304.446 289.365L280.879 312.933L304.446 336.5L328.014 312.933L304.446 289.365Z" fill="#F3B304"/>
<path d="M346.487 289.372L322.92 312.94L346.487 336.507L370.055 312.94L346.487 289.372Z" fill="#F3B304"/>
<path d="M388.521 289.369L364.953 312.936L388.521 336.504L412.088 312.936L388.521 289.369Z" fill="#F3B304"/>
<path d="M431.331 289.365L407.764 312.933L431.331 336.5L454.899 312.933L431.331 289.365Z" fill="#F3B304"/>
<path d="M473.386 289.372L449.818 312.94L473.386 336.507L496.953 312.94L473.386 289.372Z" fill="#F3B304"/>
<path d="M514.661 289.369L491.094 312.936L514.661 336.504L538.229 312.936L514.661 289.369Z" fill="#F3B304"/>
<path d="M556.692 289.366L533.125 312.933L556.693 336.501L580.26 312.933L556.692 289.366Z" fill="#F3B304"/>
<path d="M599.505 289.369L575.938 312.936L599.505 336.504L623.073 312.936L599.505 289.369Z" fill="#F3B304"/>
<path d="M641.554 289.369L617.986 312.936L641.554 336.504L665.121 312.936L641.554 289.369Z" fill="#F3B304"/>
<path d="M683.601 289.366L660.033 312.933L683.601 336.501L707.168 312.933L683.601 289.366Z" fill="#F3B304"/>
<path d="M725.634 289.366L702.066 312.933L725.634 336.501L749.201 312.933L725.634 289.366Z" fill="#F3B304"/>
<path d="M768.444 289.369L744.877 312.936L768.444 336.504L792.012 312.936L768.444 289.369Z" fill="#F3B304"/>
<path d="M817.66 329.348L810.497 336.51L786.93 312.943L808.472 291.401C811.1 298.392 813.131 305.593 814.541 312.927L817.66 329.348Z" fill="#F3B304"/>
<path d="M243.163 269.369L219.595 292.937L200.484 273.826C207.74 265.384 215.709 257.584 224.304 250.511L240.992 267.198L243.163 269.369Z" fill="#F3B304"/>
<path d="M262.394 245.797L238.826 269.364L262.394 292.932L285.961 269.364L262.394 245.797Z" fill="#F3B304"/>
<path d="M304.427 245.793L280.859 269.36L304.427 292.928L327.994 269.36L304.427 245.793Z" fill="#F3B304"/>
<path d="M346.48 245.793L322.912 269.36L346.48 292.928L370.047 269.36L346.48 245.793Z" fill="#F3B304"/>
<path d="M388.521 245.793L364.953 269.36L388.521 292.928L412.088 269.36L388.521 245.793Z" fill="#F3B304"/>
<path d="M431.331 245.793L407.764 269.36L431.331 292.928L454.899 269.36L431.331 245.793Z" fill="#F3B304"/>
<path d="M473.372 245.793L449.805 269.36L473.372 292.928L496.94 269.36L473.372 245.793Z" fill="#F3B304"/>
<path d="M514.661 245.79L491.094 269.357L514.661 292.925L538.229 269.357L514.661 245.79Z" fill="#F3B304"/>
<path d="M556.71 245.8L533.143 269.367L556.71 292.935L580.277 269.367L556.71 245.8Z" fill="#F3B304"/>
<path d="M599.505 245.793L575.938 269.36L599.505 292.928L623.073 269.36L599.505 245.793Z" fill="#F3B304"/>
<path d="M641.554 245.79L617.986 269.357L641.554 292.925L665.121 269.357L641.554 245.79Z" fill="#F3B304"/>
<path d="M683.599 245.79L660.031 269.357L683.599 292.925L707.166 269.357L683.599 245.79Z" fill="#F3B304"/>
<path d="M725.648 245.797L702.08 269.364L725.648 292.932L749.215 269.364L725.648 245.797Z" fill="#F3B304"/>
<path d="M768.444 245.79L744.877 269.357L768.444 292.925L792.012 269.357L768.444 245.79Z" fill="#F3B304"/>
<path d="M808.174 290.617L786.93 269.373L793.481 262.822C799.479 271.462 804.412 280.794 808.174 290.617Z" fill="#F3B304"/>
<path d="M285.978 225.034L262.41 248.602L247.756 233.963C257.854 227.881 268.488 222.738 279.526 218.598L283.417 222.489L285.978 225.034Z" fill="#F3B304"/>
<path d="M328.022 225.032L304.454 248.6L280.887 225.032L291.329 214.575C298.244 212.461 305.273 210.738 312.382 209.415L325.453 222.486L328.022 225.032Z" fill="#F3B304"/>
<path d="M370.065 225.033L346.497 248.6L322.93 225.033L341.735 206.228C343.845 206.161 345.96 206.126 348.08 206.121H351.137L367.504 222.487L370.065 225.033Z" fill="#F3B304"/>
<path d="M412.088 225.033L388.521 248.6L364.953 225.033L383.865 206.121H393.176L409.925 222.869L412.088 225.033Z" fill="#F3B304"/>
<path d="M454.899 225.033L431.331 248.6L407.764 225.033L426.676 206.121H435.987L452.353 222.487L454.899 225.033Z" fill="#F3B304"/>
<path d="M496.954 225.033L473.386 248.6L449.818 225.033L468.731 206.121H478.041L494.026 222.105L496.954 225.033Z" fill="#F3B304"/>
<path d="M538.229 225.033L514.661 248.6L491.094 225.033L510.006 206.121H519.317L535.683 222.487L538.229 225.033Z" fill="#F3B304"/>
<path d="M580.278 225.033L556.71 248.6L533.143 225.033L552.055 206.121H561.366L578.115 222.869L580.278 225.033Z" fill="#F3B304"/>
<path d="M623.083 225.033L599.515 248.6L575.947 225.033L594.86 206.121H604.17L620.537 222.487L623.083 225.033Z" fill="#F3B304"/>
<path d="M665.122 225.033L641.554 248.6L617.986 225.033L636.899 206.121H646.209L662.576 222.487L665.122 225.033Z" fill="#F3B304"/>
<path d="M707.176 225.033L683.609 248.6L660.041 225.033L678.953 206.121H685.206C686.238 206.121 687.278 206.121 688.264 206.159L707.176 225.033Z" fill="#F3B304"/>
<path d="M749.229 225.033L725.662 248.6L702.094 225.033L717.123 210.027C726.531 212.366 735.651 215.743 744.314 220.094L749.229 225.033Z" fill="#F3B304"/>
<path d="M775.31 241.768L769.859 247.218L768.46 248.617L744.893 225.049L747.056 222.886L747.927 222.015C757.86 227.405 767.062 234.043 775.31 241.768Z" fill="#F3B304"/>
<path d="M412.098 533.101L390.686 554.513L377.453 520.61L388.53 509.534L412.098 533.101Z" fill="#F3B304"/>
<path d="M431.331 509.527L407.764 533.095L431.331 556.662L454.899 533.095L431.331 509.527Z" fill="#F3B304"/>
<path d="M473.386 509.527L449.818 533.095L473.386 556.662L496.953 533.095L473.386 509.527Z" fill="#F3B304"/>
<path d="M515.419 509.524L491.852 533.091L515.419 556.659L538.987 533.091L515.419 509.524Z" fill="#F3B304"/>
<path d="M557.472 509.524L533.904 533.091L557.472 556.659L581.039 533.091L557.472 509.524Z" fill="#F3B304"/>
<path d="M600.277 509.527L576.709 533.095L600.277 556.662L623.844 533.095L600.277 509.527Z" fill="#F3B304"/>
<path d="M642.318 509.524L618.75 533.091L642.318 556.659L665.885 533.091L642.318 509.524Z" fill="#F3B304"/>
<path d="M683.591 509.523L660.023 533.091L683.591 556.658L707.159 533.091L683.591 509.523Z" fill="#F3B304"/>
<path d="M725.634 509.523L702.066 533.091L725.634 556.658L749.201 533.091L725.634 509.523Z" fill="#F3B304"/>
<path d="M768.46 509.524L744.893 533.091L768.46 556.659L792.028 533.091L768.46 509.524Z" fill="#F3B304"/>
<path d="M815.306 514.342L795.988 542.16L786.93 533.101L810.497 509.526L815.306 514.342Z" fill="#F3B304"/>
<path d="M370.052 488.765L367.507 491.31L366.429 492.388L365.053 488.856L364.961 488.765L365 488.726L361.789 480.501L367.507 486.219L370.052 488.765Z" fill="#F3B304"/>
<path d="M388.521 465.191L364.953 488.759L388.521 512.326L412.088 488.759L388.521 465.191Z" fill="#F3B304"/>
<path d="M431.331 465.191L407.764 488.758L431.331 512.326L454.899 488.758L431.331 465.191Z" fill="#F3B304"/>
<path d="M473.372 465.191L449.805 488.758L473.372 512.326L496.94 488.758L473.372 465.191Z" fill="#F3B304"/>
<path d="M515.419 465.191L491.852 488.758L515.419 512.326L538.987 488.758L515.419 465.191Z" fill="#F3B304"/>
<path d="M557.472 465.184L533.904 488.751L557.472 512.319L581.039 488.751L557.472 465.184Z" fill="#F3B304"/>
<path d="M600.277 465.191L576.709 488.758L600.277 512.326L623.844 488.758L600.277 465.191Z" fill="#F3B304"/>
<path d="M642.318 465.191L618.75 488.758L642.318 512.326L665.885 488.758L642.318 465.191Z" fill="#F3B304"/>
<path d="M683.599 465.191L660.031 488.759L683.599 512.326L707.166 488.759L683.599 465.191Z" fill="#F3B304"/>
<path d="M725.648 465.191L702.08 488.759L725.648 512.326L749.215 488.759L725.648 465.191Z" fill="#F3B304"/>
<path d="M768.444 465.184L744.877 488.751L768.444 512.319L792.012 488.751L768.444 465.184Z" fill="#F3B304"/>
<path d="M833.3 487.998L814.159 515.991L786.93 488.762L810.497 465.187L833.3 487.998Z" fill="#F3B304"/>
<path d="M370.062 445.193L354.2 461.055L347.053 442.709C345.226 437.756 341.741 433.589 337.191 430.913L346.479 421.625L370.062 445.193Z" fill="#F3B304"/>
<path d="M388.521 421.619L364.953 445.187L388.521 468.754L412.088 445.187L388.521 421.619Z" fill="#F3B304"/>
<path d="M431.331 421.619L407.764 445.187L431.331 468.754L454.899 445.187L431.331 421.619Z" fill="#F3B304"/>
<path d="M473.386 421.619L449.818 445.187L473.386 468.754L496.953 445.187L473.386 421.619Z" fill="#F3B304"/>
<path d="M515.419 421.619L491.852 445.187L515.419 468.754L538.987 445.187L515.419 421.619Z" fill="#F3B304"/>
<path d="M557.452 421.619L533.885 445.187L557.452 468.754L581.02 445.187L557.452 421.619Z" fill="#F3B304"/>
<path d="M600.277 421.619L576.709 445.187L600.277 468.754L623.844 445.187L600.277 421.619Z" fill="#F3B304"/>
<path d="M642.323 421.619L618.756 445.187L642.323 468.754L665.891 445.187L642.323 421.619Z" fill="#F3B304"/>
<path d="M683.599 421.615L660.031 445.183L683.599 468.75L707.166 445.183L683.599 421.615Z" fill="#F3B304"/>
<path d="M725.634 421.615L702.066 445.183L725.634 468.75L749.201 445.183L725.634 421.615Z" fill="#F3B304"/>
<path d="M768.444 421.615L744.877 445.183L768.444 468.75L792.012 445.183L768.444 421.615Z" fill="#F3B304"/>
<path d="M810.497 421.615L786.93 445.183L810.497 468.75L834.065 445.183L810.497 421.615Z" fill="#F3B304"/>
<path d="M848.97 465.189L828.973 445.191L838.023 436.14C840.308 445.455 845.745 453.693 853.411 459.456L848.97 465.189Z" fill="#F3B304"/>
<path d="M346.48 377.28L322.912 400.847L346.48 424.415L370.047 400.847L346.48 377.28Z" fill="#F3B304"/>
<path d="M388.521 377.28L364.953 400.847L388.521 424.415L412.088 400.847L388.521 377.28Z" fill="#F3B304"/>
<path d="M431.331 377.28L407.764 400.847L431.331 424.415L454.899 400.847L431.331 377.28Z" fill="#F3B304"/>
<path d="M473.386 377.28L449.818 400.847L473.386 424.415L496.953 400.847L473.386 377.28Z" fill="#F3B304"/>
<path d="M515.419 377.28L491.852 400.847L515.419 424.415L538.987 400.847L515.419 377.28Z" fill="#F3B304"/>
<path d="M557.472 377.28L533.904 400.847L557.472 424.415L581.039 400.847L557.472 377.28Z" fill="#F3B304"/>
<path d="M600.277 377.28L576.709 400.847L600.277 424.415L623.844 400.847L600.277 377.28Z" fill="#F3B304"/>
<path d="M642.318 377.28L618.75 400.847L642.318 424.415L665.885 400.847L642.318 377.28Z" fill="#F3B304"/>
<path d="M683.591 377.276L660.023 400.844L683.591 424.411L707.159 400.844L683.591 377.276Z" fill="#F3B304"/>
<path d="M725.634 377.276L702.066 400.844L725.634 424.411L749.201 400.844L725.634 377.276Z" fill="#F3B304"/>
<path d="M768.46 377.276L744.893 400.844L768.46 424.411L792.028 400.844L768.46 377.276Z" fill="#F3B304"/>
<path d="M831.71 403.208L810.497 424.421L786.93 400.854L810.497 377.286L812.278 379.067L830.602 397.391L831.519 398.308L830.893 398.935L831.71 403.208Z" fill="#F3B304"/>
<path d="M831.793 403.673L828.973 400.852L830.891 398.934L831.709 403.207L831.793 403.673Z" fill="#F3B304"/>
<path d="M454.904 621.776L442.13 634.55H421.941L414.373 615.171L431.336 598.208L454.904 621.776Z" fill="#F3B304"/>
<path d="M496.954 621.776L484.18 634.55H462.592L449.818 621.776L473.386 598.208L496.954 621.776Z" fill="#F3B304"/>
<path d="M538.987 621.776L526.213 634.55H504.625L491.852 621.776L515.419 598.208L538.987 621.776Z" fill="#F3B304"/>
<path d="M581.04 621.776L568.266 634.55H546.678L533.904 621.776L557.472 598.208L581.04 621.776Z" fill="#F3B304"/>
<path d="M623.844 621.776L611.071 634.55H589.483L576.709 621.776L600.277 598.208L623.844 621.776Z" fill="#F3B304"/>
<path d="M665.891 621.776L653.117 634.55H631.53L618.756 621.776L642.324 598.208L665.891 621.776Z" fill="#F3B304"/>
<path d="M707.166 621.776L694.393 634.55H672.805L660.031 621.776L683.599 598.208L707.166 621.776Z" fill="#F3B304"/>
<path d="M744.201 616.769L731.924 634.58L714.854 634.55L702.08 621.776L725.648 598.208L744.201 616.769Z" fill="#F3B304"/>
<path d="M412.092 577.439L403.132 586.398L391.658 557.005L409.928 575.275L412.092 577.439Z" fill="#F3B304"/>
<path d="M431.331 553.867L407.764 577.434L431.331 601.002L454.899 577.434L431.331 553.867Z" fill="#F3B304"/>
<path d="M473.386 553.866L449.818 577.434L473.386 601.001L496.953 577.434L473.386 553.866Z" fill="#F3B304"/>
<path d="M515.419 553.866L491.852 577.434L515.419 601.001L538.987 577.434L515.419 553.866Z" fill="#F3B304"/>
<path d="M557.452 553.866L533.885 577.434L557.452 601.001L581.02 577.434L557.452 553.866Z" fill="#F3B304"/>
<path d="M600.277 553.866L576.709 577.434L600.277 601.001L623.844 577.434L600.277 553.866Z" fill="#F3B304"/>
<path d="M642.323 553.866L618.756 577.434L642.323 601.001L665.891 577.434L642.323 553.866Z" fill="#F3B304"/>
<path d="M683.599 553.86L660.031 577.427L683.599 600.995L707.166 577.427L683.599 553.86Z" fill="#F3B304"/>
<path d="M725.634 553.86L702.066 577.427L725.634 600.995L749.202 577.427L725.634 553.86Z" fill="#F3B304"/>
<path d="M760.602 593.151L744.893 577.441L768.46 553.866L779.919 565.325L760.602 593.151Z" fill="#F3B304"/>
<path d="M32.1832 533.103L29.6377 535.648L27.459 537.827C27.7877 536.718 28.1318 535.61 28.4987 534.509C28.9115 533.24 29.3395 531.979 29.7982 530.687L32.1832 533.103Z" fill="#F3B304"/>
<path d="M74.2246 533.103L50.657 556.671L28.4883 534.502C28.9011 533.233 29.3291 531.972 29.7878 530.68L29.6273 530.519L29.9712 530.175L49.2503 510.896L50.6493 509.497L74.2246 533.103Z" fill="#F3B304"/>
<path d="M93.4542 509.527L69.8867 533.095L93.4542 556.662L117.022 533.095L93.4542 509.527Z" fill="#F3B304"/>
<path d="M135.499 509.527L111.932 533.095L135.499 556.662L159.067 533.095L135.499 509.527Z" fill="#F3B304"/>
<path d="M177.542 509.527L153.975 533.095L177.542 556.662L201.11 533.095L177.542 509.527Z" fill="#F3B304"/>
<path d="M242.774 532.727L242.224 533.545C241.964 533.942 241.727 534.309 241.513 534.737L219.581 556.669L196.014 533.101L219.581 509.534L240.986 530.938L242.774 532.727Z" fill="#F3B304"/>
<path d="M249.918 522.011L242.778 532.713L242.228 533.531C241.968 533.929 241.731 534.296 241.517 534.724C241.395 534.953 241.272 535.19 241.165 535.427L238.826 533.088L249.918 522.011Z" fill="#F3B304"/>
<path d="M74.2246 488.762L50.6571 512.33L42.5234 504.196C43.7924 502.102 45.1302 500.023 46.5367 497.959L61.4662 476.004L74.2246 488.762Z" fill="#F3B304"/>
<path d="M93.4542 465.191L69.8867 488.758L93.4542 512.326L117.022 488.758L93.4542 465.191Z" fill="#F3B304"/>
<path d="M135.487 465.191L111.92 488.758L135.487 512.326L159.055 488.758L135.487 465.191Z" fill="#F3B304"/>
<path d="M177.542 465.191L153.975 488.758L177.542 512.326L201.11 488.758L177.542 465.191Z" fill="#F3B304"/>
<path d="M219.581 465.191L196.014 488.758L219.581 512.326L243.149 488.758L219.581 465.191Z" fill="#F3B304"/>
<path d="M277.629 480.433L258.778 508.717L238.826 488.765L262.394 465.197L277.629 480.433Z" fill="#F3B304"/>
<path d="M117.028 445.193L93.4603 468.76L77.3535 452.653L96.434 424.599L117.028 445.193Z" fill="#F3B304"/>
<path d="M135.499 421.612L111.932 445.18L135.499 468.747L159.067 445.18L135.499 421.612Z" fill="#F3B304"/>
<path d="M177.542 421.619L153.975 445.187L177.542 468.754L201.11 445.187L177.542 421.619Z" fill="#F3B304"/>
<path d="M219.581 421.619L196.014 445.187L219.581 468.754L243.149 445.187L219.581 421.619Z" fill="#F3B304"/>
<path d="M262.394 421.612L238.826 445.18L262.394 468.747L285.961 445.18L262.394 421.612Z" fill="#F3B304"/>
<path d="M313.582 430.758C310.51 432.557 307.894 435.039 305.937 438.013L293.033 457.338L280.879 445.183L304.447 421.616L313.582 430.758Z" fill="#F3B304"/>
<path d="M131.403 373.181L159.075 400.854L135.508 424.421L112.322 401.236L131.403 373.181Z" fill="#F3B304"/>
<path d="M177.542 377.28L153.975 400.847L177.542 424.415L201.11 400.847L177.542 377.28Z" fill="#F3B304"/>
<path d="M219.581 377.28L196.014 400.847L219.581 424.415L243.149 400.847L219.581 377.28Z" fill="#F3B304"/>
<path d="M262.394 377.283L238.826 400.851L262.394 424.418L285.961 400.851L262.394 377.283Z" fill="#F3B304"/>
<path d="M304.446 377.28L280.879 400.847L304.446 424.415L328.014 400.847L304.446 377.28Z" fill="#F3B304"/>
<path d="M32.1947 621.777L30.857 623.115C30.3219 621.938 29.8097 620.745 29.3281 619.545C29.1676 619.194 29.03 618.834 28.8848 618.475L32.1947 621.777Z" fill="#F3B304"/>
<path d="M29.3105 619.544L50.646 598.208L74.2136 621.776L47.3284 648.661L29.3105 619.544Z" fill="#F3B304"/>
<path d="M93.4542 598.199L69.8867 621.766L93.4542 645.334L117.022 621.766L93.4542 598.199Z" fill="#F3B304"/>
<path d="M135.499 598.199L111.932 621.766L135.499 645.334L159.067 621.766L135.499 598.199Z" fill="#F3B304"/>
<path d="M117.043 666.877L102.328 681.592C91.9027 679.158 81.9125 675.138 72.7061 669.675L69.9082 666.877L93.4759 643.309L117.043 666.877Z" fill="#F3B304"/>
<path d="M159.067 666.877L156.109 669.835L141.592 684.352H129.407L111.932 666.877L135.499 643.309L136.516 644.326L158.784 666.594L159.067 666.877Z" fill="#F3B304"/>
<path d="M198.142 618.802L176.852 644.648L153.98 621.776L177.548 598.208L198.142 618.802Z" fill="#F3B304"/>
<path d="M32.1846 577.438L29.6391 579.984L21.9947 587.628C21.5018 580.846 21.5018 574.038 21.9947 567.256L29.6391 574.9L32.1846 577.438Z" fill="#F3B304"/>
<path d="M50.6437 553.866L27.0762 577.434L50.6437 601.001L74.2112 577.434L50.6437 553.866Z" fill="#F3B304"/>
<path d="M93.4542 553.859L69.8867 577.427L93.4542 600.994L117.022 577.427L93.4542 553.859Z" fill="#F3B304"/>
<path d="M135.499 553.867L111.932 577.434L135.499 601.002L159.067 577.434L135.499 553.867Z" fill="#F3B304"/>
<path d="M177.542 553.867L153.975 577.434L177.542 601.002L201.11 577.434L177.542 553.867Z" fill="#F3B304"/>
<path d="M237.14 571.429L215.859 597.282L196.014 577.437L219.581 553.87L220.98 555.269L237.14 571.429Z" fill="#F3B304"/>
<path fill-rule="evenodd" clip-rule="evenodd" d="M731.778 386.827C732.834 386.827 733.689 387.682 733.689 388.738V634.55C733.689 635.606 732.834 636.462 731.778 636.462C730.723 636.462 729.867 635.606 729.867 634.55V388.738C729.867 387.682 730.723 386.827 731.778 386.827Z" fill="#59221D"/>
<path d="M573.063 203.828V369.673L498.996 203.828H573.063Z" fill="#59221D"/>
<path d="M624.364 208.414H573.062V173.938C582.534 174.099 591.608 177.771 598.526 184.243L624.364 208.414Z" fill="#7EBAD2"/>
<path d="M501.291 208.414L493.065 185.13C491.905 181.857 489.761 179.024 486.926 177.019C484.092 175.013 480.706 173.935 477.234 173.931H414.244C404.547 173.931 395.212 177.617 388.131 184.243L362.293 208.414H501.291Z" fill="#7EBAD2"/>
<path d="M460.178 208.414L482.446 181.766C483.107 180.987 483.961 180.395 484.922 180.049C485.883 179.703 486.919 179.616 487.925 179.795C488.93 179.975 489.871 180.415 490.654 181.072C491.436 181.729 492.033 182.58 492.383 183.539L501.289 208.414H460.178Z" fill="#59221D"/>
<path d="M789.654 1708.46H590.77C574.129 1708.46 560.415 1695.15 558.572 1679H588.125C598.714 1679 609.209 1677.01 619.062 1673.13L650.007 1660.95C668.598 1653.63 688.4 1649.88 708.379 1649.88H731.84L789.654 1708.46Z" fill="#C5D2ED"/>
<path d="M272.995 1708.44H31.6698C23.7858 1708.44 16.185 1705.5 10.3535 1700.2C4.52191 1694.89 0.878874 1687.6 0.136719 1679.75H72.2614C82.8504 1679.75 93.3447 1677.76 103.198 1673.88L134.143 1661.7C152.734 1654.38 172.536 1650.63 192.515 1650.63H217.505L272.995 1708.44Z" fill="#C5D2ED"/>
<path d="M731.838 1649.86H708.377C688.398 1649.86 668.597 1653.61 650.005 1660.93L619.06 1673.11C609.207 1676.99 598.712 1678.98 588.124 1678.99H558.57C558.426 1677.75 558.354 1676.51 558.356 1675.26V864.309C558.356 856.718 547.922 854.639 545.009 861.649L217.501 1650.63H192.512C172.532 1650.62 152.731 1654.38 134.139 1661.69L103.195 1673.88C93.3413 1677.76 82.847 1679.75 72.2581 1679.75H0.133355C-0.33415 1674.68 0.4317 1669.58 2.3655 1664.87L421.95 634.55H731.8V1649.86H731.838Z" fill="#573240"/>
<path fill-rule="evenodd" clip-rule="evenodd" d="M420.185 633.829C420.478 633.11 421.177 632.639 421.955 632.639H731.804C732.859 632.639 733.715 633.495 733.715 634.55V673.537C733.715 674.592 732.859 675.448 731.804 675.448H406.077C405.441 675.448 404.846 675.131 404.491 674.603C404.136 674.075 404.067 673.405 404.307 672.816L420.185 633.829ZM423.24 636.461L408.919 671.626H729.893V636.461H423.24Z" fill="#59221D"/>
<path fill-rule="evenodd" clip-rule="evenodd" d="M574.477 636.461C573.076 636.461 571.939 637.598 571.939 638.999V669.317C571.939 670.719 573.076 671.855 574.477 671.855H604.795C606.197 671.855 607.333 670.719 607.333 669.317V638.999C607.333 637.598 606.197 636.461 604.795 636.461H574.477ZM568.117 638.999C568.117 635.487 570.965 632.639 574.477 632.639H604.795C608.308 632.639 611.155 635.487 611.155 638.999V669.317C611.155 672.83 608.308 675.677 604.795 675.677H574.477C570.965 675.677 568.117 672.83 568.117 669.317V638.999Z" fill="#59221D"/>
<path fill-rule="evenodd" clip-rule="evenodd" d="M568.117 654.042C568.117 652.987 568.973 652.131 570.028 652.131H589.636C590.692 652.131 591.547 652.987 591.547 654.042C591.547 655.097 590.692 655.953 589.636 655.953H570.028C568.973 655.953 568.117 655.097 568.117 654.042Z" fill="#59221D"/>
<path fill-rule="evenodd" clip-rule="evenodd" d="M669.678 634.55C669.678 633.495 670.533 632.639 671.589 632.639H680.043C681.099 632.639 681.954 633.495 681.954 634.55V673.537C681.954 674.592 681.099 675.448 680.043 675.448H671.589C670.533 675.448 669.678 674.592 669.678 673.537V634.55ZM673.5 636.461V671.626H678.132V636.461H673.5Z" fill="#59221D"/>
<path fill-rule="evenodd" clip-rule="evenodd" d="M495.385 634.55C495.385 633.495 496.24 632.639 497.296 632.639H505.75C506.806 632.639 507.662 633.495 507.662 634.55V673.537C507.662 674.592 506.806 675.448 505.75 675.448H497.296C496.24 675.448 495.385 674.592 495.385 673.537V634.55ZM499.207 636.461V671.626H503.839V636.461H499.207Z" fill="#59221D"/>
<path d="M898.635 484.77C878.106 486.844 846.465 512.091 821.336 548.796C789.927 594.668 779.15 641.904 797.162 654.264C800.207 656.276 803.789 657.319 807.438 657.258L814.568 656.201C810.21 659.273 805.227 661.344 799.975 662.266C794.723 663.187 789.333 662.938 784.189 661.534L740.141 649.451C714.199 642.335 694.857 615.548 701.936 589.596C711.793 553.458 782.104 447.605 864.571 447.501C892.507 447.467 926.997 464.426 924.385 485.16L898.635 484.77Z" fill="white"/>
<path fill-rule="evenodd" clip-rule="evenodd" d="M1137.47 571.202C1137.41 571.04 1137.35 570.802 1137.31 570.475C1137.23 569.816 1137.27 568.992 1137.5 568.121C1137.73 567.251 1138.1 566.498 1138.5 565.941M1201.85 588.862L1137.47 571.202L1201.85 588.862ZM1221.93 450.103C1217.85 448.982 1213.65 449.545 1209.91 451.301C1206.2 453.039 1203 455.89 1200.5 459.309L1128.02 558.263L1128.02 558.265C1126.59 560.22 1125.55 562.477 1124.93 564.817C1124.32 567.156 1124.11 569.634 1124.4 572.041C1124.7 574.434 1125.49 576.864 1126.96 578.954C1128.46 581.079 1130.64 582.802 1133.38 583.557L1198.41 601.395L1200.14 595.12L1198.42 601.396C1202.5 602.516 1206.7 601.948 1210.45 600.186C1214.16 598.444 1217.35 595.588 1219.86 592.165L1219.86 592.162L1292.3 493.229L1292.3 493.227C1293.73 491.271 1294.77 489.015 1295.39 486.675C1296 484.336 1296.21 481.858 1295.91 479.451C1295.62 477.058 1294.83 474.628 1293.35 472.538C1291.86 470.412 1289.68 468.69 1286.94 467.935L1221.93 450.104L1221.93 450.103Z" fill="#59221D"/>
<path d="M807.439 657.27C803.79 657.332 800.208 656.288 797.163 654.277C779.084 641.899 789.899 594.673 821.337 548.808C846.466 512.104 878.107 486.857 898.636 484.783L1140.75 488.195C1145.58 487.389 1158.44 490.606 1163.17 491.904L1221.74 507.97L1220.79 511.443C1219.51 516.109 1216.63 520.176 1212.65 522.929C1208.67 525.682 1203.85 526.945 1199.03 526.496L1183.12 526.262C1179.88 525.958 1176.61 526.39 1173.55 527.525C1170.49 528.66 1167.73 530.47 1165.47 532.819L1126.82 569.467C1122.3 574.157 1134.49 581.878 1140.77 583.601L1202.33 600.486C1202.33 600.486 1176.66 630.049 1104.67 625.823L1059.87 619.915L807.439 657.27Z" fill="#F6ACC1"/>
<path fill-rule="evenodd" clip-rule="evenodd" d="M1145.43 490.155C1143.51 489.95 1142.01 489.926 1141.07 490.083C1140.96 490.102 1140.84 490.11 1140.73 490.109L898.728 486.699C889.043 487.716 876.404 494.249 862.93 505.29C849.469 516.321 835.396 531.67 822.922 549.891L822.921 549.892C807.302 572.677 796.859 595.73 792.551 614.53C790.396 623.935 789.8 632.176 790.789 638.743C791.777 645.3 794.307 649.998 798.237 652.695C800.924 654.465 804.077 655.394 807.293 655.364L1059.6 618.028C1059.77 618.002 1059.95 618 1060.13 618.023L1104.86 623.922C1140.53 626.006 1164.62 619.722 1179.73 612.996C1187.29 609.629 1192.62 606.145 1196.04 603.525C1197.06 602.747 1197.91 602.044 1198.59 601.443L1140.28 585.447C1136.86 584.509 1131.99 582.012 1128.53 579.116C1126.81 577.679 1125.24 575.988 1124.46 574.169C1124.06 573.235 1123.83 572.191 1123.97 571.105C1124.12 569.996 1124.63 568.994 1125.45 568.144C1125.47 568.123 1125.49 568.103 1125.51 568.083L1164.13 531.464C1166.59 528.924 1169.58 526.967 1172.89 525.737C1176.19 524.51 1179.73 524.038 1183.23 524.355L1199.07 524.588C1199.12 524.589 1199.17 524.591 1199.22 524.596C1203.59 525.003 1207.96 523.858 1211.57 521.361C1215.18 518.863 1217.8 515.174 1218.95 510.94L1219.4 509.311L1162.67 493.75C1160.33 493.108 1155.99 491.992 1151.64 491.138C1149.46 490.711 1147.32 490.355 1145.43 490.155ZM1202.34 600.489C1203.78 601.742 1203.78 601.745 1203.78 601.745L1203.78 601.748L1203.75 601.78C1203.73 601.8 1203.71 601.827 1203.68 601.86C1203.62 601.927 1203.53 602.021 1203.42 602.14C1203.19 602.377 1202.86 602.715 1202.41 603.137C1201.52 603.982 1200.19 605.164 1198.37 606.56C1194.72 609.351 1189.13 612.993 1181.28 616.488C1165.57 623.483 1140.84 629.863 1104.57 627.733C1104.52 627.731 1104.47 627.726 1104.43 627.72L1059.89 621.848L807.726 659.164C807.644 659.176 807.561 659.183 807.478 659.184C803.444 659.252 799.484 658.098 796.117 655.875C796.108 655.869 796.099 655.863 796.09 655.857C790.988 652.364 788.095 646.519 787.01 639.313C785.925 632.111 786.607 623.357 788.826 613.676C793.265 594.302 803.948 570.81 819.768 547.731C832.423 529.248 846.734 513.621 860.508 502.334C874.219 491.098 887.622 483.979 898.451 482.885C898.524 482.877 898.597 482.874 898.67 482.875L1140.62 486.284C1142.07 486.073 1143.92 486.15 1145.84 486.354C1147.87 486.571 1150.14 486.949 1152.37 487.388C1156.85 488.266 1161.29 489.407 1163.68 490.064L1222.26 506.13C1223.27 506.409 1223.87 507.461 1223.59 508.479L1222.64 511.95C1221.24 517.05 1218.09 521.495 1213.75 524.504C1209.42 527.498 1204.18 528.879 1198.94 528.408L1183.1 528.176C1183.07 528.175 1183.03 528.174 1183 528.171C1182.98 528.17 1182.97 528.169 1182.95 528.168C1179.99 527.891 1177.01 528.284 1174.22 529.32C1171.44 530.355 1168.92 532.005 1166.86 534.147C1166.84 534.168 1166.82 534.188 1166.79 534.208L1128.17 570.824C1127.88 571.134 1127.79 571.39 1127.76 571.601C1127.73 571.842 1127.77 572.184 1127.97 572.66C1128.4 573.662 1129.43 574.888 1130.98 576.183C1134.05 578.75 1138.43 580.976 1141.29 581.761L1202.84 598.646C1203.48 598.82 1203.98 599.307 1204.17 599.936C1204.36 600.564 1204.21 601.247 1203.78 601.742L1202.34 600.489Z" fill="#F6ACC1"/>
<path fill-rule="evenodd" clip-rule="evenodd" d="M1155.61 544.296C1156.37 545.036 1156.38 546.246 1155.64 546.999C1148.9 553.862 1140.21 561.491 1130.55 567.015C1120.9 572.533 1110.09 576.053 1099.19 574.395C1098.15 574.236 1097.43 573.262 1097.59 572.218C1097.75 571.175 1098.72 570.457 1099.76 570.616C1109.48 572.094 1119.4 568.988 1128.65 563.697C1137.9 558.413 1146.3 551.052 1152.91 544.321C1153.65 543.568 1154.86 543.557 1155.61 544.296Z" fill="#59221D"/>
<path fill-rule="evenodd" clip-rule="evenodd" d="M1043.03 597.921C1044.07 597.703 1045.08 598.364 1045.3 599.397C1046.36 604.435 1048.97 609.015 1052.76 612.496C1056.56 615.976 1061.35 618.182 1066.46 618.805C1067.51 618.932 1068.25 619.885 1068.12 620.933C1068 621.981 1067.04 622.727 1066 622.599C1060.09 621.88 1054.56 619.332 1050.18 615.313C1045.8 611.293 1042.78 606.004 1041.56 600.185C1041.34 599.152 1042 598.139 1043.03 597.921Z" fill="#59221D"/>
<path d="M150.325 688.198H112.103C74.9976 688.198 51.2312 644.931 68.5305 612.106C77.8337 594.44 90.8138 576.43 105.376 560.43C153.391 507.684 217.344 487.686 248.25 515.802C254.365 521.398 259.586 532.047 259.586 549.231L150.325 688.198Z" fill="white"/>
<path d="M148.43 686.539C135.549 675.623 149.256 631.393 179.008 596.229C200.488 570.872 225.248 553.183 242.227 549.376C243.526 549.262 244.772 549.208 245.965 549.208H316.293C345.097 549.205 373.386 556.839 398.279 571.331L448.502 600.555C454.611 604.333 459.652 609.609 463.149 615.882C466.647 622.155 468.483 629.218 468.485 636.4V704.251C468.484 713.042 465.244 721.523 459.382 728.074C453.521 734.625 445.451 738.785 436.715 739.759L386.652 745.34V734.508C386.651 731.416 387.419 728.373 388.886 725.652C390.354 722.931 392.476 720.618 395.061 718.921L407.116 712.354C407.637 712.069 408.048 711.618 408.285 711.073C408.522 710.529 408.57 709.92 408.423 709.345C408.276 708.769 407.941 708.259 407.472 707.894C407.003 707.53 406.426 707.332 405.832 707.332H390.703C369.865 707.332 353.682 701.469 338.783 686.899L166.654 686.639L148.43 686.539Z" fill="#F6ACC1"/>
<path fill-rule="evenodd" clip-rule="evenodd" d="M397.324 572.983C372.724 558.662 344.766 551.117 316.3 551.12H245.971C244.875 551.12 243.727 551.168 242.528 551.27C234.424 553.116 224.284 558.31 213.443 566.263C202.577 574.234 191.125 584.89 180.472 597.465C165.744 614.873 155.007 634.508 149.554 651.075C146.825 659.366 145.449 666.799 145.508 672.75C145.563 678.374 146.889 682.344 149.184 684.633L166.664 684.728L166.671 684.728L338.792 684.988C339.291 684.989 339.769 685.185 340.126 685.533C354.632 699.719 370.319 705.422 390.71 705.422H405.838C406.857 705.422 407.847 705.761 408.651 706.386C409.455 707.011 410.029 707.886 410.281 708.872C410.534 709.859 410.45 710.902 410.045 711.836C409.639 712.77 408.934 713.542 408.04 714.032L408.037 714.033L396.052 720.561C393.762 722.08 391.88 724.14 390.575 726.56C389.258 729.002 388.568 731.733 388.57 734.508V743.205L436.51 737.861C444.779 736.939 452.417 733.001 457.965 726.801C463.513 720.6 466.58 712.572 466.581 704.252V636.401C466.581 636.401 466.581 636.401 466.581 636.401C466.579 629.545 464.825 622.802 461.487 616.814C458.152 610.832 453.347 605.801 447.525 602.195L397.324 572.983ZM399.247 569.68C374.062 555.018 345.441 547.295 316.3 547.298H245.971C244.722 547.298 243.42 547.354 242.065 547.473C241.981 547.481 241.898 547.494 241.815 547.512C232.962 549.497 222.281 555.039 211.182 563.181C200.053 571.345 188.384 582.212 177.556 594.994L177.555 594.995C162.533 612.75 151.541 632.813 145.923 649.88C143.116 658.407 141.621 666.277 141.686 672.788C141.749 679.239 143.356 684.739 147.201 687.998C147.544 688.288 147.977 688.449 148.426 688.451L166.651 688.551L166.658 688.551L338.014 688.809C353.153 703.366 369.684 709.244 390.71 709.244H405.838C405.838 709.244 405.838 709.244 405.838 709.244C406.008 709.244 406.173 709.301 406.307 709.405C406.441 709.509 406.536 709.655 406.578 709.819C406.62 709.983 406.606 710.157 406.539 710.313C406.472 710.468 406.355 710.596 406.207 710.677C406.207 710.678 406.206 710.678 406.205 710.679L394.153 717.243C394.107 717.268 394.062 717.295 394.018 717.324C391.169 719.195 388.83 721.745 387.211 724.745C385.593 727.745 384.746 731.1 384.747 734.509C384.747 734.508 384.747 734.509 384.747 734.509V745.341C384.747 745.884 384.979 746.402 385.384 746.765C385.789 747.127 386.33 747.3 386.87 747.24L436.933 741.66C446.137 740.633 454.639 736.25 460.814 729.349C466.988 722.448 470.402 713.513 470.403 704.252V636.401C470.401 628.893 468.481 621.51 464.825 614.952C461.17 608.395 455.899 602.88 449.514 598.931C449.5 598.922 449.485 598.913 449.47 598.904L399.247 569.68C399.247 569.68 399.247 569.68 399.247 569.68Z" fill="#F6ACC1"/>
<path fill-rule="evenodd" clip-rule="evenodd" d="M418.245 639.147C418.801 638.249 419.979 637.972 420.876 638.528L447.937 655.276C447.937 655.276 447.937 655.276 447.937 655.276C454.321 659.226 459.589 664.742 463.243 671.299C466.898 677.857 468.816 685.239 468.817 692.746V713.737C468.817 714.793 467.962 715.648 466.906 715.648C465.851 715.648 464.995 714.793 464.995 713.737V692.746C464.995 692.746 464.995 692.746 464.995 692.746C464.994 685.89 463.242 679.148 459.905 673.16C456.567 667.171 451.756 662.134 445.926 658.527L418.865 641.778C417.967 641.222 417.69 640.044 418.245 639.147Z" fill="#59221D"/>
<path fill-rule="evenodd" clip-rule="evenodd" d="M418.245 610.863C418.801 609.966 419.979 609.688 420.876 610.244L447.937 626.993C447.937 626.993 447.937 626.993 447.937 626.993C454.326 630.946 459.599 636.468 463.253 643.033C466.908 649.598 468.823 656.988 468.817 664.502V691.607C468.817 692.663 467.962 693.519 466.906 693.519C465.851 693.519 464.995 692.663 464.995 691.607V664.499C465 657.637 463.251 650.888 459.914 644.892C456.576 638.896 451.761 633.854 445.926 630.243L418.865 613.494C417.967 612.938 417.69 611.761 418.245 610.863Z" fill="#59221D"/>
<path fill-rule="evenodd" clip-rule="evenodd" d="M418.988 669.883C419.543 668.985 420.721 668.708 421.619 669.264L448.679 686.02C459.157 692.5 465.529 702.948 467.901 716.142C468.088 717.181 467.397 718.174 466.358 718.361C465.319 718.548 464.326 717.857 464.139 716.818C461.924 704.495 456.066 695.083 446.668 689.271L419.606 672.514C418.709 671.958 418.432 670.78 418.988 669.883Z" fill="#59221D"/>
<path fill-rule="evenodd" clip-rule="evenodd" d="M333.612 665.518C334.668 665.518 335.523 666.373 335.523 667.429C335.523 672.926 336.979 678.325 339.743 683.077C342.507 687.828 346.481 691.763 351.26 694.48C352.177 695.001 352.498 696.168 351.977 697.085C351.455 698.003 350.288 698.324 349.371 697.802C344.005 694.752 339.543 690.334 336.439 684.999C333.335 679.663 331.701 673.601 331.701 667.428C331.701 666.373 332.557 665.517 333.612 665.518Z" fill="#59221D"/>
<path d="M1212.36 461.178C1214.32 458.48 1217.74 457.277 1220.95 458.159L1280.72 474.553C1286.12 476.035 1288.37 482.469 1285.06 486.991L1212.1 586.727C1210.14 589.406 1206.73 590.597 1203.53 589.719L1146.69 574.127C1141.09 572.591 1138.94 565.791 1142.64 561.316L1161.45 538.544C1161.45 538.544 1166.23 532.765 1171.66 530.245C1179.54 526.583 1183.39 527.916 1191.74 527.827C1200.09 527.739 1207.96 527.29 1214.84 523.068C1221.99 518.687 1223.08 507.492 1223.08 507.492L1185.65 498.017L1212.36 461.178Z" fill="#FCFCFC"/>
<path fill-rule="evenodd" clip-rule="evenodd" d="M1517 726C1517 684.579 1483.42 651 1442 651H1226.63C1194.55 651 1166.03 671.396 1155.66 701.746L1089.03 896.708C1086.36 904.516 1085 912.71 1085 920.962V1646C1085 1687.42 1118.58 1721 1160 1721H1442C1483.42 1721 1517 1687.42 1517 1646V726ZM1386 997C1386 979.327 1371.67 965 1354 965H1310C1292.33 965 1278 979.327 1278 997V1036C1278 1053.67 1292.33 1068 1310 1068H1354C1371.67 1068 1386 1053.67 1386 1036V997ZM1201 965C1218.67 965 1233 979.327 1233 997V1036C1233 1053.67 1218.67 1068 1201 1068H1157C1139.33 1068 1125 1053.67 1125 1036V997C1125 979.327 1139.33 965 1157 965H1201Z" fill="#12C35B"/>
<path d="M1450.08 716.642C1458.74 691.751 1442.46 668 1416.75 668H1214.08C1195.44 668 1177.79 680.783 1171.52 698.823L1125.21 831.927C1116.55 856.818 1132.83 880.569 1158.54 880.569H1361.21C1379.85 880.569 1397.5 867.785 1403.78 849.745L1450.08 716.642Z" fill="white"/>
<path d="M1372 903H1156L1152 915H1368L1372 903Z" fill="white"/>
<path d="M1143 903H1114.53L1110.58 914.501H1139.05L1143 903Z" fill="white"/>
<circle cx="1247.5" cy="1244.5" r="124.5" fill="#12C35B"/>
<path fill-rule="evenodd" clip-rule="evenodd" d="M1199.27 1296.12C1187.88 1283.93 1181.17 1268.2 1181.17 1256.01H1200.42C1200.42 1262.23 1204.44 1273.47 1213.33 1282.98C1221.89 1292.13 1234.1 1298.77 1249.75 1297.67C1265.93 1296.53 1277.03 1289.15 1284.21 1280.47C1291.66 1271.45 1294.58 1261.42 1294.58 1256.01H1313.83C1313.83 1266.5 1308.94 1280.76 1299.05 1292.73C1288.88 1305.03 1273.09 1315.33 1251.1 1316.87C1228.59 1318.45 1210.99 1308.66 1199.27 1296.12Z" fill="#FDFEFB"/>
<path fill-rule="evenodd" clip-rule="evenodd" d="M1317.6 1212.07C1317.6 1230.33 1302.8 1245.13 1284.54 1245.13C1266.28 1245.13 1251.48 1230.33 1251.48 1212.07C1251.48 1193.81 1266.28 1179.01 1284.54 1179.01C1302.8 1179.01 1317.6 1193.81 1317.6 1212.07ZM1284.54 1225.88C1292.16 1225.88 1298.35 1219.69 1298.35 1212.07C1298.35 1204.44 1292.16 1198.26 1284.54 1198.26C1276.91 1198.26 1270.73 1204.44 1270.73 1212.07C1270.73 1219.69 1276.91 1225.88 1284.54 1225.88Z" fill="#FDFEFB"/>
<path fill-rule="evenodd" clip-rule="evenodd" d="M1243.94 1182.98V1241.36C1243.89 1241.5 1243.84 1241.67 1243.79 1241.86C1243.51 1242.93 1243.09 1244.5 1240.59 1244.5C1240.14 1244.5 1239.31 1244.5 1238.25 1244.51C1234.93 1244.52 1229.37 1244.55 1226.36 1244.5C1225.11 1244.5 1224.02 1243.37 1223.85 1242.2C1223.68 1241.02 1223.78 1238.5 1223.85 1237.8C1222.52 1240.03 1218.64 1243.52 1214.22 1244.5C1212.34 1244.92 1205.44 1245.75 1197.28 1242.62C1191.07 1240.23 1178.03 1229.64 1178.03 1212.9C1178.03 1192.82 1188.28 1182.56 1202.93 1179.63C1214.64 1177.29 1222.25 1182.42 1223.85 1185.28V1182.35C1223.86 1182.32 1223.86 1182.29 1223.87 1182.25C1224.02 1181.47 1224.37 1179.63 1226.57 1179.63H1240.59C1242.89 1179.63 1243.94 1181.14 1243.94 1182.98ZM1210.46 1224.2C1217.17 1224.2 1222.6 1218.77 1222.6 1212.06C1222.6 1205.36 1217.17 1199.93 1210.46 1199.93C1203.76 1199.93 1198.33 1205.36 1198.33 1212.06C1198.33 1218.77 1203.76 1224.2 1210.46 1224.2Z" fill="#FDFEFB"/>
<path d="M1240.81 716.106L1228.32 749.855L1264.33 749.824L1276.83 716.075L1240.81 716.106ZM1257.61 740.191L1242.18 740.205L1247.53 725.741L1262.97 725.727L1257.61 740.191Z" fill="#484848"/>
<path d="M1210.61 797.665L1198.11 831.414L1234.12 831.383L1246.62 797.634L1210.61 797.665ZM1227.41 821.75L1211.97 821.764L1217.33 807.3L1232.76 807.287L1227.41 821.75Z" fill="#484848"/>
<path d="M1327.84 716.031L1315.34 749.78L1351.36 749.749L1363.85 716L1327.84 716.031ZM1344.64 740.116L1329.2 740.129L1334.56 725.665L1349.99 725.652L1344.64 740.116Z" fill="#484848"/>
<path d="M1337.59 759.132L1326.92 787.96L1301.2 787.982L1297.64 797.59L1333.65 797.559L1347.88 759.123L1337.59 759.132Z" fill="#484848"/>
<path d="M1294.17 806.965L1285.14 831.339L1295.43 831.33L1300.85 816.705L1316.28 816.692L1310.86 831.317L1321.15 831.308L1330.18 806.934L1294.17 806.965Z" fill="#484848"/>
<path d="M1286.83 716.066L1283.26 725.71L1303.93 725.692L1295 749.797L1305.34 749.788L1317.84 716.04L1286.83 716.066Z" fill="#484848"/>
<path d="M1291.27 759.173L1284.14 778.423L1263.73 778.441L1253.04 807.315L1273.44 807.297L1264.53 831.358L1274.74 831.349L1287.21 797.662L1266.81 797.679L1270.37 788.056L1290.78 788.038L1297.91 768.789L1308.11 768.78L1304.54 778.406L1314.75 778.397L1321.88 759.147L1291.27 759.173Z" fill="#484848"/>
<path d="M1259.34 817.304L1249.34 817.312L1244.13 831.374L1254.13 831.366L1259.34 817.304Z" fill="#484848"/>
<path d="M1253.57 778.885L1237.56 778.898L1234.09 788.273L1250.1 788.259L1253.57 778.885Z" fill="#484848"/>
<path d="M1279.7 734.816L1270.71 759.105L1224.87 759.145L1214.08 788.291L1224.27 788.282L1231.46 768.852L1277.29 768.812L1289.89 734.807L1279.7 734.816Z" fill="#484848"/>
</g>
<defs>
<clipPath id="clip0">
<rect width="1708" height="1708" fill="white"/>
</clipPath>
</defs>
</svg>
