<svg width="1708" height="1708" viewBox="0 0 1708 1708" fill="none" xmlns="http://www.w3.org/2000/svg">
<g clip-path="url(#clip0)">
<path d="M974.765 898H80V1581.05H974.765V898Z" fill="#EE7E5C"/>
<path d="M926.331 948.144H129.248V1134.01H926.331V948.144Z" fill="white"/>
<path fill-rule="evenodd" clip-rule="evenodd" d="M130.124 1518.49H552.55C554.739 1518.49 556.506 1520.65 556.506 1523.3C556.506 1525.95 554.739 1528.11 552.55 1528.11H126.168C123.993 1528.11 122.213 1525.95 122.213 1523.3V1188.73C122.213 1186.08 123.993 1183.92 126.168 1183.92H534.434C536.623 1183.92 538.389 1186.08 538.389 1188.73C538.389 1191.38 536.623 1193.51 534.434 1193.51H130.124V1518.49Z" fill="#184EB0"/>
<path fill-rule="evenodd" clip-rule="evenodd" d="M919.09 1193.51H534.229C532.053 1193.51 530.273 1191.38 530.273 1188.73C530.273 1186.08 532.053 1183.92 534.229 1183.92H923.046C925.235 1183.92 927.001 1186.08 927.001 1188.73V1523.3C927.001 1525.95 925.235 1528.11 923.046 1528.11H552.345C550.17 1528.11 548.39 1525.95 548.39 1523.3C548.39 1520.65 550.17 1518.49 552.345 1518.49H919.09V1193.51Z" fill="#184EB0"/>
<path fill-rule="evenodd" clip-rule="evenodd" d="M523.238 1188.72V1523.29C523.238 1525.95 525.005 1528.09 527.194 1528.09C529.383 1528.09 531.149 1525.95 531.149 1523.29V1188.72C531.149 1186.08 529.383 1183.92 527.194 1183.92C525.005 1183.92 523.238 1186.08 523.238 1188.72Z" fill="#184EB0"/>
<path d="M564.42 1372.39C571.623 1372.39 577.461 1365.31 577.461 1356.57C577.461 1347.84 571.623 1340.75 564.42 1340.75C557.218 1340.75 551.379 1347.84 551.379 1356.57C551.379 1365.31 557.218 1372.39 564.42 1372.39Z" fill="#184EB0"/>
<path d="M487.03 1372.39C494.232 1372.39 500.071 1365.31 500.071 1356.57C500.071 1347.84 494.232 1340.75 487.03 1340.75C479.827 1340.75 473.988 1347.84 473.988 1356.57C473.988 1365.31 479.827 1372.39 487.03 1372.39Z" fill="#184EB0"/>
<path d="M196.77 146C196.77 146 94.5033 361.971 181.805 645.351H248.642C248.642 645.351 300.515 333.13 196.77 146Z" fill="#A74602"/>
<path d="M212.357 417.138C216.053 496.114 219.944 578.176 223.121 642.135C223.16 642.948 222.874 643.744 222.327 644.347C221.78 644.95 221.016 645.311 220.203 645.351H220.047C219.263 645.352 218.509 645.051 217.941 644.51C217.374 643.969 217.037 643.23 217 642.446C212.007 541.995 205.263 396.921 200.31 289.272L166.502 239.565C167.15 236.842 167.799 234.17 168.447 231.551L199.778 277.588C196.99 217.014 194.85 169.952 194.059 152.212C195.771 148.114 196.769 146 196.769 146C197.937 148.101 199.065 150.215 200.206 152.354C201.503 182.025 206.431 289.661 211.877 406.245L253.881 337.513C254.305 340.764 254.711 344.023 255.1 347.291L212.578 416.892C212.516 416.984 212.442 417.066 212.357 417.138Z" fill="#FFC200"/>
<path d="M141.058 645.351C141.058 645.351 83.4663 569.449 110.609 410.278C110.609 410.278 204.07 507.072 190.116 645.351H141.058Z" stroke="#FFC200" stroke-width="4" stroke-miterlimit="10" stroke-linecap="round"/>
<path d="M330.329 315.533C330.329 315.533 350.17 497.579 272.893 645.351H216.676C216.676 645.351 220.476 453.138 330.329 315.533Z" fill="#F5BBBB"/>
<path d="M276.447 645.351C276.447 645.351 335.907 584.401 342.002 531.478C342.002 531.478 248.631 573.858 248.631 645.351H276.447Z" fill="#A74602"/>
<path d="M262.906 898.606H152.703L136.078 642.291H279.545L262.906 898.606Z" fill="#F5BBBB"/>
<path d="M283.255 335.867C288.87 335.867 293.422 331.315 293.422 325.7C293.422 320.085 288.87 315.533 283.255 315.533C277.64 315.533 273.088 320.085 273.088 325.7C273.088 331.315 277.64 335.867 283.255 335.867Z" stroke="#FFC200" stroke-width="4" stroke-miterlimit="10" stroke-linecap="round"/>
<path d="M93.1671 625.718C98.7822 625.718 103.334 621.166 103.334 615.551C103.334 609.936 98.7822 605.384 93.1671 605.384C87.552 605.384 83 609.936 83 615.551C83 621.166 87.552 625.718 93.1671 625.718Z" stroke="#FFC200" stroke-width="4" stroke-miterlimit="10" stroke-linecap="round"/>
<path d="M338.652 1598.41C342.328 1598.41 345.308 1595.43 345.308 1591.75C345.308 1588.08 342.328 1585.1 338.652 1585.1C334.976 1585.1 331.996 1588.08 331.996 1591.75C331.996 1595.43 334.976 1598.41 338.652 1598.41Z" fill="#CEE4ED"/>
<path d="M380.592 1598.41C384.268 1598.41 387.248 1595.43 387.248 1591.75C387.248 1588.08 384.268 1585.1 380.592 1585.1C376.915 1585.1 373.936 1588.08 373.936 1591.75C373.936 1595.43 376.915 1598.41 380.592 1598.41Z" fill="#CEE4ED"/>
<path d="M422.517 1598.41C426.193 1598.41 429.173 1595.43 429.173 1591.75C429.173 1588.08 426.193 1585.1 422.517 1585.1C418.841 1585.1 415.861 1588.08 415.861 1591.75C415.861 1595.43 418.841 1598.41 422.517 1598.41Z" fill="#CEE4ED"/>
<path d="M464.459 1598.41C468.135 1598.41 471.115 1595.43 471.115 1591.75C471.115 1588.08 468.135 1585.1 464.459 1585.1C460.783 1585.1 457.803 1588.08 457.803 1591.75C457.803 1595.43 460.783 1598.41 464.459 1598.41Z" fill="#CEE4ED"/>
<path d="M506.396 1598.41C510.072 1598.41 513.052 1595.43 513.052 1591.75C513.052 1588.08 510.072 1585.1 506.396 1585.1C502.72 1585.1 499.74 1588.08 499.74 1591.75C499.74 1595.43 502.72 1598.41 506.396 1598.41Z" fill="#CEE4ED"/>
<path d="M548.336 1598.41C552.012 1598.41 554.992 1595.43 554.992 1591.75C554.992 1588.08 552.012 1585.1 548.336 1585.1C544.66 1585.1 541.68 1588.08 541.68 1591.75C541.68 1595.43 544.66 1598.41 548.336 1598.41Z" fill="#CEE4ED"/>
<path d="M590.261 1598.41C593.937 1598.41 596.917 1595.43 596.917 1591.75C596.917 1588.08 593.937 1585.1 590.261 1585.1C586.585 1585.1 583.605 1588.08 583.605 1591.75C583.605 1595.43 586.585 1598.41 590.261 1598.41Z" fill="#CEE4ED"/>
<path d="M87.0427 1598.41C90.7187 1598.41 93.6987 1595.43 93.6987 1591.75C93.6987 1588.08 90.7187 1585.1 87.0427 1585.1C83.3667 1585.1 80.3867 1588.08 80.3867 1591.75C80.3867 1595.43 83.3667 1598.41 87.0427 1598.41Z" fill="#CEE4ED"/>
<path d="M128.982 1598.41C132.658 1598.41 135.638 1595.43 135.638 1591.75C135.638 1588.08 132.658 1585.1 128.982 1585.1C125.306 1585.1 122.326 1588.08 122.326 1591.75C122.326 1595.43 125.306 1598.41 128.982 1598.41Z" fill="#CEE4ED"/>
<path d="M170.906 1598.41C174.582 1598.41 177.562 1595.43 177.562 1591.75C177.562 1588.08 174.582 1585.1 170.906 1585.1C167.23 1585.1 164.25 1588.08 164.25 1591.75C164.25 1595.43 167.23 1598.41 170.906 1598.41Z" fill="#CEE4ED"/>
<path d="M212.847 1598.41C216.523 1598.41 219.503 1595.43 219.503 1591.75C219.503 1588.08 216.523 1585.1 212.847 1585.1C209.171 1585.1 206.191 1588.08 206.191 1591.75C206.191 1595.43 209.171 1598.41 212.847 1598.41Z" fill="#CEE4ED"/>
<path d="M254.785 1598.41C258.461 1598.41 261.441 1595.43 261.441 1591.75C261.441 1588.08 258.461 1585.1 254.785 1585.1C251.109 1585.1 248.129 1588.08 248.129 1591.75C248.129 1595.43 251.109 1598.41 254.785 1598.41Z" fill="#CEE4ED"/>
<path d="M296.713 1598.41C300.389 1598.41 303.369 1595.43 303.369 1591.75C303.369 1588.08 300.389 1585.1 296.713 1585.1C293.037 1585.1 290.057 1588.08 290.057 1591.75C290.057 1595.43 293.037 1598.41 296.713 1598.41Z" fill="#CEE4ED"/>
<path d="M317.684 1620.26C321.36 1620.26 324.34 1617.28 324.34 1613.6C324.34 1609.92 321.36 1606.94 317.684 1606.94C314.008 1606.94 311.027 1609.92 311.027 1613.6C311.027 1617.28 314.008 1620.26 317.684 1620.26Z" fill="#CEE4ED"/>
<path d="M359.623 1620.26C363.299 1620.26 366.279 1617.28 366.279 1613.6C366.279 1609.92 363.299 1606.94 359.623 1606.94C355.947 1606.94 352.967 1609.92 352.967 1613.6C352.967 1617.28 355.947 1620.26 359.623 1620.26Z" fill="#CEE4ED"/>
<path d="M401.56 1620.26C405.236 1620.26 408.216 1617.28 408.216 1613.6C408.216 1609.92 405.236 1606.94 401.56 1606.94C397.884 1606.94 394.904 1609.92 394.904 1613.6C394.904 1617.28 397.884 1620.26 401.56 1620.26Z" fill="#CEE4ED"/>
<path d="M443.488 1620.26C447.164 1620.26 450.144 1617.28 450.144 1613.6C450.144 1609.92 447.164 1606.94 443.488 1606.94C439.812 1606.94 436.832 1609.92 436.832 1613.6C436.832 1617.28 439.812 1620.26 443.488 1620.26Z" fill="#CEE4ED"/>
<path d="M485.427 1620.26C489.103 1620.26 492.083 1617.28 492.083 1613.6C492.083 1609.92 489.103 1606.94 485.427 1606.94C481.751 1606.94 478.771 1609.92 478.771 1613.6C478.771 1617.28 481.751 1620.26 485.427 1620.26Z" fill="#CEE4ED"/>
<path d="M527.365 1620.26C531.041 1620.26 534.021 1617.28 534.021 1613.6C534.021 1609.92 531.041 1606.94 527.365 1606.94C523.689 1606.94 520.709 1609.92 520.709 1613.6C520.709 1617.28 523.689 1620.26 527.365 1620.26Z" fill="#CEE4ED"/>
<path d="M569.293 1620.26C572.969 1620.26 575.949 1617.28 575.949 1613.6C575.949 1609.92 572.969 1606.94 569.293 1606.94C565.617 1606.94 562.637 1609.92 562.637 1613.6C562.637 1617.28 565.617 1620.26 569.293 1620.26Z" fill="#CEE4ED"/>
<path d="M66.0723 1620.26C69.7483 1620.26 72.7283 1617.28 72.7283 1613.6C72.7283 1609.92 69.7483 1606.94 66.0723 1606.94C62.3963 1606.94 59.416 1609.92 59.416 1613.6C59.416 1617.28 62.3963 1620.26 66.0723 1620.26Z" fill="#CEE4ED"/>
<path d="M108.009 1620.26C111.686 1620.26 114.665 1617.28 114.665 1613.6C114.665 1609.92 111.686 1606.94 108.009 1606.94C104.333 1606.94 101.354 1609.92 101.354 1613.6C101.354 1617.28 104.333 1620.26 108.009 1620.26Z" fill="#CEE4ED"/>
<path d="M149.939 1620.26C153.615 1620.26 156.595 1617.28 156.595 1613.6C156.595 1609.92 153.615 1606.94 149.939 1606.94C146.263 1606.94 143.283 1609.92 143.283 1613.6C143.283 1617.28 146.263 1620.26 149.939 1620.26Z" fill="#CEE4ED"/>
<path d="M191.879 1620.26C195.555 1620.26 198.535 1617.28 198.535 1613.6C198.535 1609.92 195.555 1606.94 191.879 1606.94C188.203 1606.94 185.223 1609.92 185.223 1613.6C185.223 1617.28 188.203 1620.26 191.879 1620.26Z" fill="#CEE4ED"/>
<path d="M233.816 1620.26C237.492 1620.26 240.472 1617.28 240.472 1613.6C240.472 1609.92 237.492 1606.94 233.816 1606.94C230.14 1606.94 227.16 1609.92 227.16 1613.6C227.16 1617.28 230.14 1620.26 233.816 1620.26Z" fill="#CEE4ED"/>
<path d="M275.756 1620.26C279.432 1620.26 282.412 1617.28 282.412 1613.6C282.412 1609.92 279.432 1606.94 275.756 1606.94C272.08 1606.94 269.1 1609.92 269.1 1613.6C269.1 1617.28 272.08 1620.26 275.756 1620.26Z" fill="#CEE4ED"/>
<path d="M338.652 1642.11C342.328 1642.11 345.308 1639.13 345.308 1635.45C345.308 1631.77 342.328 1628.79 338.652 1628.79C334.976 1628.79 331.996 1631.77 331.996 1635.45C331.996 1639.13 334.976 1642.11 338.652 1642.11Z" fill="#CEE4ED"/>
<path d="M380.592 1642.11C384.268 1642.11 387.248 1639.13 387.248 1635.45C387.248 1631.77 384.268 1628.79 380.592 1628.79C376.915 1628.79 373.936 1631.77 373.936 1635.45C373.936 1639.13 376.915 1642.11 380.592 1642.11Z" fill="#CEE4ED"/>
<path d="M422.517 1642.11C426.193 1642.11 429.173 1639.13 429.173 1635.45C429.173 1631.77 426.193 1628.79 422.517 1628.79C418.841 1628.79 415.861 1631.77 415.861 1635.45C415.861 1639.13 418.841 1642.11 422.517 1642.11Z" fill="#CEE4ED"/>
<path d="M464.459 1642.11C468.135 1642.11 471.115 1639.13 471.115 1635.45C471.115 1631.77 468.135 1628.79 464.459 1628.79C460.783 1628.79 457.803 1631.77 457.803 1635.45C457.803 1639.13 460.783 1642.11 464.459 1642.11Z" fill="#CEE4ED"/>
<path d="M506.396 1642.11C510.072 1642.11 513.052 1639.13 513.052 1635.45C513.052 1631.77 510.072 1628.79 506.396 1628.79C502.72 1628.79 499.74 1631.77 499.74 1635.45C499.74 1639.13 502.72 1642.11 506.396 1642.11Z" fill="#CEE4ED"/>
<path d="M548.336 1642.11C552.012 1642.11 554.992 1639.13 554.992 1635.45C554.992 1631.77 552.012 1628.79 548.336 1628.79C544.66 1628.79 541.68 1631.77 541.68 1635.45C541.68 1639.13 544.66 1642.11 548.336 1642.11Z" fill="#CEE4ED"/>
<path d="M590.261 1642.11C593.937 1642.11 596.917 1639.13 596.917 1635.45C596.917 1631.77 593.937 1628.79 590.261 1628.79C586.585 1628.79 583.605 1631.77 583.605 1635.45C583.605 1639.13 586.585 1642.11 590.261 1642.11Z" fill="#CEE4ED"/>
<path d="M45.1013 1642.11C48.7773 1642.11 51.7573 1639.13 51.7573 1635.45C51.7573 1631.77 48.7773 1628.79 45.1013 1628.79C41.4253 1628.79 38.4453 1631.77 38.4453 1635.45C38.4453 1639.13 41.4253 1642.11 45.1013 1642.11Z" fill="#CEE4ED"/>
<path d="M87.0427 1642.11C90.7187 1642.11 93.6987 1639.13 93.6987 1635.45C93.6987 1631.77 90.7187 1628.79 87.0427 1628.79C83.3667 1628.79 80.3867 1631.77 80.3867 1635.45C80.3867 1639.13 83.3667 1642.11 87.0427 1642.11Z" fill="#CEE4ED"/>
<path d="M128.982 1642.11C132.658 1642.11 135.638 1639.13 135.638 1635.45C135.638 1631.77 132.658 1628.79 128.982 1628.79C125.306 1628.79 122.326 1631.77 122.326 1635.45C122.326 1639.13 125.306 1642.11 128.982 1642.11Z" fill="#CEE4ED"/>
<path d="M170.906 1642.11C174.582 1642.11 177.562 1639.13 177.562 1635.45C177.562 1631.77 174.582 1628.79 170.906 1628.79C167.23 1628.79 164.25 1631.77 164.25 1635.45C164.25 1639.13 167.23 1642.11 170.906 1642.11Z" fill="#CEE4ED"/>
<path d="M212.847 1642.11C216.523 1642.11 219.503 1639.13 219.503 1635.45C219.503 1631.77 216.523 1628.79 212.847 1628.79C209.171 1628.79 206.191 1631.77 206.191 1635.45C206.191 1639.13 209.171 1642.11 212.847 1642.11Z" fill="#CEE4ED"/>
<path d="M254.785 1642.11C258.461 1642.11 261.441 1639.13 261.441 1635.45C261.441 1631.77 258.461 1628.79 254.785 1628.79C251.109 1628.79 248.129 1631.77 248.129 1635.45C248.129 1639.13 251.109 1642.11 254.785 1642.11Z" fill="#CEE4ED"/>
<path d="M296.713 1642.11C300.389 1642.11 303.369 1639.13 303.369 1635.45C303.369 1631.77 300.389 1628.79 296.713 1628.79C293.037 1628.79 290.057 1631.77 290.057 1635.45C290.057 1639.13 293.037 1642.11 296.713 1642.11Z" fill="#CEE4ED"/>
<path d="M317.684 1663.95C321.36 1663.95 324.34 1660.97 324.34 1657.3C324.34 1653.62 321.36 1650.64 317.684 1650.64C314.008 1650.64 311.027 1653.62 311.027 1657.3C311.027 1660.97 314.008 1663.95 317.684 1663.95Z" fill="#CEE4ED"/>
<path d="M359.623 1663.95C363.299 1663.95 366.279 1660.97 366.279 1657.3C366.279 1653.62 363.299 1650.64 359.623 1650.64C355.947 1650.64 352.967 1653.62 352.967 1657.3C352.967 1660.97 355.947 1663.95 359.623 1663.95Z" fill="#CEE4ED"/>
<path d="M401.56 1663.95C405.236 1663.95 408.216 1660.97 408.216 1657.3C408.216 1653.62 405.236 1650.64 401.56 1650.64C397.884 1650.64 394.904 1653.62 394.904 1657.3C394.904 1660.97 397.884 1663.95 401.56 1663.95Z" fill="#CEE4ED"/>
<path d="M443.488 1663.95C447.164 1663.95 450.144 1660.97 450.144 1657.3C450.144 1653.62 447.164 1650.64 443.488 1650.64C439.812 1650.64 436.832 1653.62 436.832 1657.3C436.832 1660.97 439.812 1663.95 443.488 1663.95Z" fill="#CEE4ED"/>
<path d="M485.427 1663.95C489.103 1663.95 492.083 1660.97 492.083 1657.3C492.083 1653.62 489.103 1650.64 485.427 1650.64C481.751 1650.64 478.771 1653.62 478.771 1657.3C478.771 1660.97 481.751 1663.95 485.427 1663.95Z" fill="#CEE4ED"/>
<path d="M527.365 1663.95C531.041 1663.95 534.021 1660.97 534.021 1657.3C534.021 1653.62 531.041 1650.64 527.365 1650.64C523.689 1650.64 520.709 1653.62 520.709 1657.3C520.709 1660.97 523.689 1663.95 527.365 1663.95Z" fill="#CEE4ED"/>
<path d="M569.293 1663.95C572.969 1663.95 575.949 1660.97 575.949 1657.3C575.949 1653.62 572.969 1650.64 569.293 1650.64C565.617 1650.64 562.637 1653.62 562.637 1657.3C562.637 1660.97 565.617 1663.95 569.293 1663.95Z" fill="#CEE4ED"/>
<path d="M66.0723 1663.95C69.7483 1663.95 72.7283 1660.97 72.7283 1657.3C72.7283 1653.62 69.7483 1650.64 66.0723 1650.64C62.3963 1650.64 59.416 1653.62 59.416 1657.3C59.416 1660.97 62.3963 1663.95 66.0723 1663.95Z" fill="#CEE4ED"/>
<path d="M24.1306 1663.95C27.8066 1663.95 30.7866 1660.97 30.7866 1657.3C30.7866 1653.62 27.8066 1650.64 24.1306 1650.64C20.4546 1650.64 17.4746 1653.62 17.4746 1657.3C17.4746 1660.97 20.4546 1663.95 24.1306 1663.95Z" fill="#CEE4ED"/>
<path d="M108.009 1663.95C111.686 1663.95 114.665 1660.97 114.665 1657.3C114.665 1653.62 111.686 1650.64 108.009 1650.64C104.333 1650.64 101.354 1653.62 101.354 1657.3C101.354 1660.97 104.333 1663.95 108.009 1663.95Z" fill="#CEE4ED"/>
<path d="M149.939 1663.95C153.615 1663.95 156.595 1660.97 156.595 1657.3C156.595 1653.62 153.615 1650.64 149.939 1650.64C146.263 1650.64 143.283 1653.62 143.283 1657.3C143.283 1660.97 146.263 1663.95 149.939 1663.95Z" fill="#CEE4ED"/>
<path d="M191.879 1663.95C195.555 1663.95 198.535 1660.97 198.535 1657.3C198.535 1653.62 195.555 1650.64 191.879 1650.64C188.203 1650.64 185.223 1653.62 185.223 1657.3C185.223 1660.97 188.203 1663.95 191.879 1663.95Z" fill="#CEE4ED"/>
<path d="M233.816 1663.95C237.492 1663.95 240.472 1660.97 240.472 1657.3C240.472 1653.62 237.492 1650.64 233.816 1650.64C230.14 1650.64 227.16 1653.62 227.16 1657.3C227.16 1660.97 230.14 1663.95 233.816 1663.95Z" fill="#CEE4ED"/>
<path d="M275.756 1663.95C279.432 1663.95 282.412 1660.97 282.412 1657.3C282.412 1653.62 279.432 1650.64 275.756 1650.64C272.08 1650.64 269.1 1653.62 269.1 1657.3C269.1 1660.97 272.08 1663.95 275.756 1663.95Z" fill="#CEE4ED"/>
<path d="M338.652 1685.8C342.328 1685.8 345.308 1682.82 345.308 1679.15C345.308 1675.47 342.328 1672.49 338.652 1672.49C334.976 1672.49 331.996 1675.47 331.996 1679.15C331.996 1682.82 334.976 1685.8 338.652 1685.8Z" fill="#CEE4ED"/>
<path d="M380.592 1685.8C384.268 1685.8 387.248 1682.82 387.248 1679.15C387.248 1675.47 384.268 1672.49 380.592 1672.49C376.915 1672.49 373.936 1675.47 373.936 1679.15C373.936 1682.82 376.915 1685.8 380.592 1685.8Z" fill="#CEE4ED"/>
<path d="M422.517 1685.8C426.193 1685.8 429.173 1682.82 429.173 1679.15C429.173 1675.47 426.193 1672.49 422.517 1672.49C418.841 1672.49 415.861 1675.47 415.861 1679.15C415.861 1682.82 418.841 1685.8 422.517 1685.8Z" fill="#CEE4ED"/>
<path d="M464.459 1685.8C468.135 1685.8 471.115 1682.82 471.115 1679.15C471.115 1675.47 468.135 1672.49 464.459 1672.49C460.783 1672.49 457.803 1675.47 457.803 1679.15C457.803 1682.82 460.783 1685.8 464.459 1685.8Z" fill="#CEE4ED"/>
<path d="M506.396 1685.8C510.072 1685.8 513.052 1682.82 513.052 1679.15C513.052 1675.47 510.072 1672.49 506.396 1672.49C502.72 1672.49 499.74 1675.47 499.74 1679.15C499.74 1682.82 502.72 1685.8 506.396 1685.8Z" fill="#CEE4ED"/>
<path d="M548.336 1685.8C552.012 1685.8 554.992 1682.82 554.992 1679.15C554.992 1675.47 552.012 1672.49 548.336 1672.49C544.66 1672.49 541.68 1675.47 541.68 1679.15C541.68 1682.82 544.66 1685.8 548.336 1685.8Z" fill="#CEE4ED"/>
<path d="M590.261 1685.8C593.937 1685.8 596.917 1682.82 596.917 1679.15C596.917 1675.47 593.937 1672.49 590.261 1672.49C586.585 1672.49 583.605 1675.47 583.605 1679.15C583.605 1682.82 586.585 1685.8 590.261 1685.8Z" fill="#CEE4ED"/>
<path d="M87.0427 1685.8C90.7187 1685.8 93.6987 1682.82 93.6987 1679.15C93.6987 1675.47 90.7187 1672.49 87.0427 1672.49C83.3667 1672.49 80.3867 1675.47 80.3867 1679.15C80.3867 1682.82 83.3667 1685.8 87.0427 1685.8Z" fill="#CEE4ED"/>
<path d="M45.1013 1685.8C48.7773 1685.8 51.7573 1682.82 51.7573 1679.15C51.7573 1675.47 48.7773 1672.49 45.1013 1672.49C41.4253 1672.49 38.4453 1675.47 38.4453 1679.15C38.4453 1682.82 41.4253 1685.8 45.1013 1685.8Z" fill="#CEE4ED"/>
<path d="M3.17385 1685.8C6.84988 1685.8 9.82983 1682.82 9.82983 1679.15C9.82983 1675.47 6.84988 1672.49 3.17385 1672.49C-0.502173 1672.49 -3.48242 1675.47 -3.48242 1679.15C-3.48242 1682.82 -0.502173 1685.8 3.17385 1685.8Z" fill="#CEE4ED"/>
<path d="M128.982 1685.8C132.658 1685.8 135.638 1682.82 135.638 1679.15C135.638 1675.47 132.658 1672.49 128.982 1672.49C125.306 1672.49 122.326 1675.47 122.326 1679.15C122.326 1682.82 125.306 1685.8 128.982 1685.8Z" fill="#CEE4ED"/>
<path d="M170.906 1685.8C174.582 1685.8 177.562 1682.82 177.562 1679.15C177.562 1675.47 174.582 1672.49 170.906 1672.49C167.23 1672.49 164.25 1675.47 164.25 1679.15C164.25 1682.82 167.23 1685.8 170.906 1685.8Z" fill="#CEE4ED"/>
<path d="M212.847 1685.8C216.523 1685.8 219.503 1682.82 219.503 1679.15C219.503 1675.47 216.523 1672.49 212.847 1672.49C209.171 1672.49 206.191 1675.47 206.191 1679.15C206.191 1682.82 209.171 1685.8 212.847 1685.8Z" fill="#CEE4ED"/>
<path d="M254.785 1685.8C258.461 1685.8 261.441 1682.82 261.441 1679.15C261.441 1675.47 258.461 1672.49 254.785 1672.49C251.109 1672.49 248.129 1675.47 248.129 1679.15C248.129 1682.82 251.109 1685.8 254.785 1685.8Z" fill="#CEE4ED"/>
<path d="M296.713 1685.8C300.389 1685.8 303.369 1682.82 303.369 1679.15C303.369 1675.47 300.389 1672.49 296.713 1672.49C293.037 1672.49 290.057 1675.47 290.057 1679.15C290.057 1682.82 293.037 1685.8 296.713 1685.8Z" fill="#CEE4ED"/>
<path d="M317.684 1707.65C321.36 1707.65 324.34 1704.67 324.34 1701C324.34 1697.32 321.36 1694.34 317.684 1694.34C314.008 1694.34 311.027 1697.32 311.027 1701C311.027 1704.67 314.008 1707.65 317.684 1707.65Z" fill="#CEE4ED"/>
<path d="M359.623 1707.65C363.299 1707.65 366.279 1704.67 366.279 1701C366.279 1697.32 363.299 1694.34 359.623 1694.34C355.947 1694.34 352.967 1697.32 352.967 1701C352.967 1704.67 355.947 1707.65 359.623 1707.65Z" fill="#CEE4ED"/>
<path d="M401.56 1707.65C405.236 1707.65 408.216 1704.67 408.216 1701C408.216 1697.32 405.236 1694.34 401.56 1694.34C397.884 1694.34 394.904 1697.32 394.904 1701C394.904 1704.67 397.884 1707.65 401.56 1707.65Z" fill="#CEE4ED"/>
<path d="M443.488 1707.65C447.164 1707.65 450.144 1704.67 450.144 1701C450.144 1697.32 447.164 1694.34 443.488 1694.34C439.812 1694.34 436.832 1697.32 436.832 1701C436.832 1704.67 439.812 1707.65 443.488 1707.65Z" fill="#CEE4ED"/>
<path d="M485.427 1707.65C489.103 1707.65 492.083 1704.67 492.083 1701C492.083 1697.32 489.103 1694.34 485.427 1694.34C481.751 1694.34 478.771 1697.32 478.771 1701C478.771 1704.67 481.751 1707.65 485.427 1707.65Z" fill="#CEE4ED"/>
<path d="M527.365 1707.65C531.041 1707.65 534.021 1704.67 534.021 1701C534.021 1697.32 531.041 1694.34 527.365 1694.34C523.689 1694.34 520.709 1697.32 520.709 1701C520.709 1704.67 523.689 1707.65 527.365 1707.65Z" fill="#CEE4ED"/>
<path d="M569.293 1707.65C572.969 1707.65 575.949 1704.67 575.949 1701C575.949 1697.32 572.969 1694.34 569.293 1694.34C565.617 1694.34 562.637 1697.32 562.637 1701C562.637 1704.67 565.617 1707.65 569.293 1707.65Z" fill="#CEE4ED"/>
<path d="M108.009 1707.65C111.686 1707.65 114.665 1704.67 114.665 1701C114.665 1697.32 111.686 1694.34 108.009 1694.34C104.333 1694.34 101.354 1697.32 101.354 1701C101.354 1704.67 104.333 1707.65 108.009 1707.65Z" fill="#CEE4ED"/>
<path d="M66.0723 1707.65C69.7483 1707.65 72.7283 1704.67 72.7283 1701C72.7283 1697.32 69.7483 1694.34 66.0723 1694.34C62.3963 1694.34 59.416 1697.32 59.416 1701C59.416 1704.67 62.3963 1707.65 66.0723 1707.65Z" fill="#CEE4ED"/>
<path d="M24.1306 1707.65C27.8066 1707.65 30.7866 1704.67 30.7866 1701C30.7866 1697.32 27.8066 1694.34 24.1306 1694.34C20.4546 1694.34 17.4746 1697.32 17.4746 1701C17.4746 1704.67 20.4546 1707.65 24.1306 1707.65Z" fill="#CEE4ED"/>
<path d="M149.939 1707.65C153.615 1707.65 156.595 1704.67 156.595 1701C156.595 1697.32 153.615 1694.34 149.939 1694.34C146.263 1694.34 143.283 1697.32 143.283 1701C143.283 1704.67 146.263 1707.65 149.939 1707.65Z" fill="#CEE4ED"/>
<path d="M191.879 1707.65C195.555 1707.65 198.535 1704.67 198.535 1701C198.535 1697.32 195.555 1694.34 191.879 1694.34C188.203 1694.34 185.223 1697.32 185.223 1701C185.223 1704.67 188.203 1707.65 191.879 1707.65Z" fill="#CEE4ED"/>
<path d="M233.816 1707.65C237.492 1707.65 240.472 1704.67 240.472 1701C240.472 1697.32 237.492 1694.34 233.816 1694.34C230.14 1694.34 227.16 1697.32 227.16 1701C227.16 1704.67 230.14 1707.65 233.816 1707.65Z" fill="#CEE4ED"/>
<path d="M275.756 1707.65C279.432 1707.65 282.412 1704.67 282.412 1701C282.412 1697.32 279.432 1694.34 275.756 1694.34C272.08 1694.34 269.1 1697.32 269.1 1701C269.1 1704.67 272.08 1707.65 275.756 1707.65Z" fill="#CEE4ED"/>
<path d="M967.642 1598.41C971.318 1598.41 974.298 1595.43 974.298 1591.75C974.298 1588.08 971.318 1585.1 967.642 1585.1C963.966 1585.1 960.986 1588.08 960.986 1591.75C960.986 1595.43 963.966 1598.41 967.642 1598.41Z" fill="#CEE4ED"/>
<path d="M1009.58 1598.41C1013.26 1598.41 1016.24 1595.43 1016.24 1591.75C1016.24 1588.08 1013.26 1585.1 1009.58 1585.1C1005.9 1585.1 1002.92 1588.08 1002.92 1591.75C1002.92 1595.43 1005.9 1598.41 1009.58 1598.41Z" fill="#CEE4ED"/>
<path d="M1051.51 1598.41C1055.18 1598.41 1058.16 1595.43 1058.16 1591.75C1058.16 1588.08 1055.18 1585.1 1051.51 1585.1C1047.83 1585.1 1044.85 1588.08 1044.85 1591.75C1044.85 1595.43 1047.83 1598.41 1051.51 1598.41Z" fill="#CEE4ED"/>
<path d="M1093.45 1598.41C1097.12 1598.41 1100.1 1595.43 1100.1 1591.75C1100.1 1588.08 1097.12 1585.1 1093.45 1585.1C1089.77 1585.1 1086.79 1588.08 1086.79 1591.75C1086.79 1595.43 1089.77 1598.41 1093.45 1598.41Z" fill="#CEE4ED"/>
<path d="M1135.38 1598.41C1139.06 1598.41 1142.04 1595.43 1142.04 1591.75C1142.04 1588.08 1139.06 1585.1 1135.38 1585.1C1131.71 1585.1 1128.73 1588.08 1128.73 1591.75C1128.73 1595.43 1131.71 1598.41 1135.38 1598.41Z" fill="#CEE4ED"/>
<path d="M1177.31 1598.41C1180.99 1598.41 1183.97 1595.43 1183.97 1591.75C1183.97 1588.08 1180.99 1585.1 1177.31 1585.1C1173.64 1585.1 1170.66 1588.08 1170.66 1591.75C1170.66 1595.43 1173.64 1598.41 1177.31 1598.41Z" fill="#CEE4ED"/>
<path d="M1219.25 1598.41C1222.93 1598.41 1225.91 1595.43 1225.91 1591.75C1225.91 1588.08 1222.93 1585.1 1219.25 1585.1C1215.57 1585.1 1212.59 1588.08 1212.59 1591.75C1212.59 1595.43 1215.57 1598.41 1219.25 1598.41Z" fill="#CEE4ED"/>
<path d="M674.093 1598.41C677.77 1598.41 680.749 1595.43 680.749 1591.75C680.749 1588.08 677.77 1585.1 674.093 1585.1C670.417 1585.1 667.438 1588.08 667.438 1591.75C667.438 1595.43 670.417 1598.41 674.093 1598.41Z" fill="#CEE4ED"/>
<path d="M632.152 1598.41C635.828 1598.41 638.808 1595.43 638.808 1591.75C638.808 1588.08 635.828 1585.1 632.152 1585.1C628.476 1585.1 625.496 1588.08 625.496 1591.75C625.496 1595.43 628.476 1598.41 632.152 1598.41Z" fill="#CEE4ED"/>
<path d="M716.031 1598.41C719.707 1598.41 722.687 1595.43 722.687 1591.75C722.687 1588.08 719.707 1585.1 716.031 1585.1C712.355 1585.1 709.375 1588.08 709.375 1591.75C709.375 1595.43 712.355 1598.41 716.031 1598.41Z" fill="#CEE4ED"/>
<path d="M757.968 1598.41C761.645 1598.41 764.625 1595.43 764.625 1591.75C764.625 1588.08 761.645 1585.1 757.968 1585.1C754.292 1585.1 751.312 1588.08 751.312 1591.75C751.312 1595.43 754.292 1598.41 757.968 1598.41Z" fill="#CEE4ED"/>
<path d="M799.898 1598.41C803.574 1598.41 806.554 1595.43 806.554 1591.75C806.554 1588.08 803.574 1585.1 799.898 1585.1C796.222 1585.1 793.242 1588.08 793.242 1591.75C793.242 1595.43 796.222 1598.41 799.898 1598.41Z" fill="#CEE4ED"/>
<path d="M841.836 1598.41C845.512 1598.41 848.492 1595.43 848.492 1591.75C848.492 1588.08 845.512 1585.1 841.836 1585.1C838.16 1585.1 835.18 1588.08 835.18 1591.75C835.18 1595.43 838.16 1598.41 841.836 1598.41Z" fill="#CEE4ED"/>
<path d="M883.775 1598.41C887.451 1598.41 890.431 1595.43 890.431 1591.75C890.431 1588.08 887.451 1585.1 883.775 1585.1C880.099 1585.1 877.119 1588.08 877.119 1591.75C877.119 1595.43 880.099 1598.41 883.775 1598.41Z" fill="#CEE4ED"/>
<path d="M925.701 1598.41C929.377 1598.41 932.357 1595.43 932.357 1591.75C932.357 1588.08 929.377 1585.1 925.701 1585.1C922.025 1585.1 919.045 1588.08 919.045 1591.75C919.045 1595.43 922.025 1598.41 925.701 1598.41Z" fill="#CEE4ED"/>
<path d="M946.674 1620.26C950.35 1620.26 953.33 1617.28 953.33 1613.6C953.33 1609.92 950.35 1606.94 946.674 1606.94C942.998 1606.94 940.018 1609.92 940.018 1613.6C940.018 1617.28 942.998 1620.26 946.674 1620.26Z" fill="#CEE4ED"/>
<path d="M988.611 1620.26C992.287 1620.26 995.267 1617.28 995.267 1613.6C995.267 1609.92 992.287 1606.94 988.611 1606.94C984.935 1606.94 981.955 1609.92 981.955 1613.6C981.955 1617.28 984.935 1620.26 988.611 1620.26Z" fill="#CEE4ED"/>
<path d="M1030.54 1620.26C1034.21 1620.26 1037.19 1617.28 1037.19 1613.6C1037.19 1609.92 1034.21 1606.94 1030.54 1606.94C1026.86 1606.94 1023.88 1609.92 1023.88 1613.6C1023.88 1617.28 1026.86 1620.26 1030.54 1620.26Z" fill="#CEE4ED"/>
<path d="M1072.48 1620.26C1076.15 1620.26 1079.13 1617.28 1079.13 1613.6C1079.13 1609.92 1076.15 1606.94 1072.48 1606.94C1068.8 1606.94 1065.82 1609.92 1065.82 1613.6C1065.82 1617.28 1068.8 1620.26 1072.48 1620.26Z" fill="#CEE4ED"/>
<path d="M1114.42 1620.26C1118.09 1620.26 1121.07 1617.28 1121.07 1613.6C1121.07 1609.92 1118.09 1606.94 1114.42 1606.94C1110.74 1606.94 1107.76 1609.92 1107.76 1613.6C1107.76 1617.28 1110.74 1620.26 1114.42 1620.26Z" fill="#CEE4ED"/>
<path d="M1156.36 1620.26C1160.03 1620.26 1163.01 1617.28 1163.01 1613.6C1163.01 1609.92 1160.03 1606.94 1156.36 1606.94C1152.68 1606.94 1149.7 1609.92 1149.7 1613.6C1149.7 1617.28 1152.68 1620.26 1156.36 1620.26Z" fill="#CEE4ED"/>
<path d="M1198.28 1620.26C1201.96 1620.26 1204.94 1617.28 1204.94 1613.6C1204.94 1609.92 1201.96 1606.94 1198.28 1606.94C1194.6 1606.94 1191.62 1609.92 1191.62 1613.6C1191.62 1617.28 1194.6 1620.26 1198.28 1620.26Z" fill="#CEE4ED"/>
<path d="M653.123 1620.26C656.799 1620.26 659.779 1617.28 659.779 1613.6C659.779 1609.92 656.799 1606.94 653.123 1606.94C649.447 1606.94 646.467 1609.92 646.467 1613.6C646.467 1617.28 649.447 1620.26 653.123 1620.26Z" fill="#CEE4ED"/>
<path d="M611.197 1620.26C614.873 1620.26 617.853 1617.28 617.853 1613.6C617.853 1609.92 614.873 1606.94 611.197 1606.94C607.521 1606.94 604.541 1609.92 604.541 1613.6C604.541 1617.28 607.521 1620.26 611.197 1620.26Z" fill="#CEE4ED"/>
<path d="M695.063 1620.26C698.739 1620.26 701.719 1617.28 701.719 1613.6C701.719 1609.92 698.739 1606.94 695.063 1606.94C691.386 1606.94 688.406 1609.92 688.406 1613.6C688.406 1617.28 691.386 1620.26 695.063 1620.26Z" fill="#CEE4ED"/>
<path d="M737 1620.26C740.676 1620.26 743.656 1617.28 743.656 1613.6C743.656 1609.92 740.676 1606.94 737 1606.94C733.324 1606.94 730.344 1609.92 730.344 1613.6C730.344 1617.28 733.324 1620.26 737 1620.26Z" fill="#CEE4ED"/>
<path d="M778.927 1620.26C782.603 1620.26 785.583 1617.28 785.583 1613.6C785.583 1609.92 782.603 1606.94 778.927 1606.94C775.251 1606.94 772.271 1609.92 772.271 1613.6C772.271 1617.28 775.251 1620.26 778.927 1620.26Z" fill="#CEE4ED"/>
<path d="M820.867 1620.26C824.543 1620.26 827.523 1617.28 827.523 1613.6C827.523 1609.92 824.543 1606.94 820.867 1606.94C817.191 1606.94 814.211 1609.92 814.211 1613.6C814.211 1617.28 817.191 1620.26 820.867 1620.26Z" fill="#CEE4ED"/>
<path d="M862.806 1620.26C866.482 1620.26 869.462 1617.28 869.462 1613.6C869.462 1609.92 866.482 1606.94 862.806 1606.94C859.13 1606.94 856.15 1609.92 856.15 1613.6C856.15 1617.28 859.13 1620.26 862.806 1620.26Z" fill="#CEE4ED"/>
<path d="M904.732 1620.26C908.408 1620.26 911.388 1617.28 911.388 1613.6C911.388 1609.92 908.408 1606.94 904.732 1606.94C901.056 1606.94 898.076 1609.92 898.076 1613.6C898.076 1617.28 901.056 1620.26 904.732 1620.26Z" fill="#CEE4ED"/>
<path d="M967.642 1642.11C971.318 1642.11 974.298 1639.13 974.298 1635.45C974.298 1631.77 971.318 1628.79 967.642 1628.79C963.966 1628.79 960.986 1631.77 960.986 1635.45C960.986 1639.13 963.966 1642.11 967.642 1642.11Z" fill="#CEE4ED"/>
<path d="M1009.58 1642.11C1013.26 1642.11 1016.24 1639.13 1016.24 1635.45C1016.24 1631.77 1013.26 1628.79 1009.58 1628.79C1005.9 1628.79 1002.92 1631.77 1002.92 1635.45C1002.92 1639.13 1005.9 1642.11 1009.58 1642.11Z" fill="#CEE4ED"/>
<path d="M1051.51 1642.11C1055.18 1642.11 1058.16 1639.13 1058.16 1635.45C1058.16 1631.77 1055.18 1628.79 1051.51 1628.79C1047.83 1628.79 1044.85 1631.77 1044.85 1635.45C1044.85 1639.13 1047.83 1642.11 1051.51 1642.11Z" fill="#CEE4ED"/>
<path d="M1093.45 1642.11C1097.12 1642.11 1100.1 1639.13 1100.1 1635.45C1100.1 1631.77 1097.12 1628.79 1093.45 1628.79C1089.77 1628.79 1086.79 1631.77 1086.79 1635.45C1086.79 1639.13 1089.77 1642.11 1093.45 1642.11Z" fill="#CEE4ED"/>
<path d="M1135.38 1642.11C1139.06 1642.11 1142.04 1639.13 1142.04 1635.45C1142.04 1631.77 1139.06 1628.79 1135.38 1628.79C1131.71 1628.79 1128.73 1631.77 1128.73 1635.45C1128.73 1639.13 1131.71 1642.11 1135.38 1642.11Z" fill="#CEE4ED"/>
<path d="M1177.31 1642.11C1180.99 1642.11 1183.97 1639.13 1183.97 1635.45C1183.97 1631.77 1180.99 1628.79 1177.31 1628.79C1173.64 1628.79 1170.66 1631.77 1170.66 1635.45C1170.66 1639.13 1173.64 1642.11 1177.31 1642.11Z" fill="#CEE4ED"/>
<path d="M1219.25 1642.11C1222.93 1642.11 1225.91 1639.13 1225.91 1635.45C1225.91 1631.77 1222.93 1628.79 1219.25 1628.79C1215.57 1628.79 1212.59 1631.77 1212.59 1635.45C1212.59 1639.13 1215.57 1642.11 1219.25 1642.11Z" fill="#CEE4ED"/>
<path d="M674.093 1642.11C677.77 1642.11 680.749 1639.13 680.749 1635.45C680.749 1631.77 677.77 1628.79 674.093 1628.79C670.417 1628.79 667.438 1631.77 667.438 1635.45C667.438 1639.13 670.417 1642.11 674.093 1642.11Z" fill="#CEE4ED"/>
<path d="M632.152 1642.11C635.828 1642.11 638.808 1639.13 638.808 1635.45C638.808 1631.77 635.828 1628.79 632.152 1628.79C628.476 1628.79 625.496 1631.77 625.496 1635.45C625.496 1639.13 628.476 1642.11 632.152 1642.11Z" fill="#CEE4ED"/>
<path d="M716.031 1642.11C719.707 1642.11 722.687 1639.13 722.687 1635.45C722.687 1631.77 719.707 1628.79 716.031 1628.79C712.355 1628.79 709.375 1631.77 709.375 1635.45C709.375 1639.13 712.355 1642.11 716.031 1642.11Z" fill="#CEE4ED"/>
<path d="M757.968 1642.11C761.645 1642.11 764.625 1639.13 764.625 1635.45C764.625 1631.77 761.645 1628.79 757.968 1628.79C754.292 1628.79 751.312 1631.77 751.312 1635.45C751.312 1639.13 754.292 1642.11 757.968 1642.11Z" fill="#CEE4ED"/>
<path d="M799.898 1642.11C803.574 1642.11 806.554 1639.13 806.554 1635.45C806.554 1631.77 803.574 1628.79 799.898 1628.79C796.222 1628.79 793.242 1631.77 793.242 1635.45C793.242 1639.13 796.222 1642.11 799.898 1642.11Z" fill="#CEE4ED"/>
<path d="M841.836 1642.11C845.512 1642.11 848.492 1639.13 848.492 1635.45C848.492 1631.77 845.512 1628.79 841.836 1628.79C838.16 1628.79 835.18 1631.77 835.18 1635.45C835.18 1639.13 838.16 1642.11 841.836 1642.11Z" fill="#CEE4ED"/>
<path d="M883.775 1642.11C887.451 1642.11 890.431 1639.13 890.431 1635.45C890.431 1631.77 887.451 1628.79 883.775 1628.79C880.099 1628.79 877.119 1631.77 877.119 1635.45C877.119 1639.13 880.099 1642.11 883.775 1642.11Z" fill="#CEE4ED"/>
<path d="M925.701 1642.11C929.377 1642.11 932.357 1639.13 932.357 1635.45C932.357 1631.77 929.377 1628.79 925.701 1628.79C922.025 1628.79 919.045 1631.77 919.045 1635.45C919.045 1639.13 922.025 1642.11 925.701 1642.11Z" fill="#CEE4ED"/>
<path d="M946.674 1663.95C950.35 1663.95 953.33 1660.97 953.33 1657.3C953.33 1653.62 950.35 1650.64 946.674 1650.64C942.998 1650.64 940.018 1653.62 940.018 1657.3C940.018 1660.97 942.998 1663.95 946.674 1663.95Z" fill="#CEE4ED"/>
<path d="M988.611 1663.95C992.287 1663.95 995.267 1660.97 995.267 1657.3C995.267 1653.62 992.287 1650.64 988.611 1650.64C984.935 1650.64 981.955 1653.62 981.955 1657.3C981.955 1660.97 984.935 1663.95 988.611 1663.95Z" fill="#CEE4ED"/>
<path d="M1030.54 1663.95C1034.21 1663.95 1037.19 1660.97 1037.19 1657.3C1037.19 1653.62 1034.21 1650.64 1030.54 1650.64C1026.86 1650.64 1023.88 1653.62 1023.88 1657.3C1023.88 1660.97 1026.86 1663.95 1030.54 1663.95Z" fill="#CEE4ED"/>
<path d="M1072.48 1663.95C1076.15 1663.95 1079.13 1660.97 1079.13 1657.3C1079.13 1653.62 1076.15 1650.64 1072.48 1650.64C1068.8 1650.64 1065.82 1653.62 1065.82 1657.3C1065.82 1660.97 1068.8 1663.95 1072.48 1663.95Z" fill="#CEE4ED"/>
<path d="M1114.42 1663.95C1118.09 1663.95 1121.07 1660.97 1121.07 1657.3C1121.07 1653.62 1118.09 1650.64 1114.42 1650.64C1110.74 1650.64 1107.76 1653.62 1107.76 1657.3C1107.76 1660.97 1110.74 1663.95 1114.42 1663.95Z" fill="#CEE4ED"/>
<path d="M1156.36 1663.95C1160.03 1663.95 1163.01 1660.97 1163.01 1657.3C1163.01 1653.62 1160.03 1650.64 1156.36 1650.64C1152.68 1650.64 1149.7 1653.62 1149.7 1657.3C1149.7 1660.97 1152.68 1663.95 1156.36 1663.95Z" fill="#CEE4ED"/>
<path d="M1198.28 1663.95C1201.96 1663.95 1204.94 1660.97 1204.94 1657.3C1204.94 1653.62 1201.96 1650.64 1198.28 1650.64C1194.6 1650.64 1191.62 1653.62 1191.62 1657.3C1191.62 1660.97 1194.6 1663.95 1198.28 1663.95Z" fill="#CEE4ED"/>
<path d="M653.123 1663.95C656.799 1663.95 659.779 1660.97 659.779 1657.3C659.779 1653.62 656.799 1650.64 653.123 1650.64C649.447 1650.64 646.467 1653.62 646.467 1657.3C646.467 1660.97 649.447 1663.95 653.123 1663.95Z" fill="#CEE4ED"/>
<path d="M611.197 1663.95C614.873 1663.95 617.853 1660.97 617.853 1657.3C617.853 1653.62 614.873 1650.64 611.197 1650.64C607.521 1650.64 604.541 1653.62 604.541 1657.3C604.541 1660.97 607.521 1663.95 611.197 1663.95Z" fill="#CEE4ED"/>
<path d="M695.063 1663.95C698.739 1663.95 701.719 1660.97 701.719 1657.3C701.719 1653.62 698.739 1650.64 695.063 1650.64C691.386 1650.64 688.406 1653.62 688.406 1657.3C688.406 1660.97 691.386 1663.95 695.063 1663.95Z" fill="#CEE4ED"/>
<path d="M737 1663.95C740.676 1663.95 743.656 1660.97 743.656 1657.3C743.656 1653.62 740.676 1650.64 737 1650.64C733.324 1650.64 730.344 1653.62 730.344 1657.3C730.344 1660.97 733.324 1663.95 737 1663.95Z" fill="#CEE4ED"/>
<path d="M778.927 1663.95C782.603 1663.95 785.583 1660.97 785.583 1657.3C785.583 1653.62 782.603 1650.64 778.927 1650.64C775.251 1650.64 772.271 1653.62 772.271 1657.3C772.271 1660.97 775.251 1663.95 778.927 1663.95Z" fill="#CEE4ED"/>
<path d="M820.867 1663.95C824.543 1663.95 827.523 1660.97 827.523 1657.3C827.523 1653.62 824.543 1650.64 820.867 1650.64C817.191 1650.64 814.211 1653.62 814.211 1657.3C814.211 1660.97 817.191 1663.95 820.867 1663.95Z" fill="#CEE4ED"/>
<path d="M862.806 1663.95C866.482 1663.95 869.462 1660.97 869.462 1657.3C869.462 1653.62 866.482 1650.64 862.806 1650.64C859.13 1650.64 856.15 1653.62 856.15 1657.3C856.15 1660.97 859.13 1663.95 862.806 1663.95Z" fill="#CEE4ED"/>
<path d="M904.732 1663.95C908.408 1663.95 911.388 1660.97 911.388 1657.3C911.388 1653.62 908.408 1650.64 904.732 1650.64C901.056 1650.64 898.076 1653.62 898.076 1657.3C898.076 1660.97 901.056 1663.95 904.732 1663.95Z" fill="#CEE4ED"/>
<path d="M967.642 1685.8C971.318 1685.8 974.298 1682.82 974.298 1679.15C974.298 1675.47 971.318 1672.49 967.642 1672.49C963.966 1672.49 960.986 1675.47 960.986 1679.15C960.986 1682.82 963.966 1685.8 967.642 1685.8Z" fill="#CEE4ED"/>
<path d="M1009.58 1685.8C1013.26 1685.8 1016.24 1682.82 1016.24 1679.15C1016.24 1675.47 1013.26 1672.49 1009.58 1672.49C1005.9 1672.49 1002.92 1675.47 1002.92 1679.15C1002.92 1682.82 1005.9 1685.8 1009.58 1685.8Z" fill="#CEE4ED"/>
<path d="M1051.51 1685.8C1055.18 1685.8 1058.16 1682.82 1058.16 1679.15C1058.16 1675.47 1055.18 1672.49 1051.51 1672.49C1047.83 1672.49 1044.85 1675.47 1044.85 1679.15C1044.85 1682.82 1047.83 1685.8 1051.51 1685.8Z" fill="#CEE4ED"/>
<path d="M1093.45 1685.8C1097.12 1685.8 1100.1 1682.82 1100.1 1679.15C1100.1 1675.47 1097.12 1672.49 1093.45 1672.49C1089.77 1672.49 1086.79 1675.47 1086.79 1679.15C1086.79 1682.82 1089.77 1685.8 1093.45 1685.8Z" fill="#CEE4ED"/>
<path d="M1135.38 1685.8C1139.06 1685.8 1142.04 1682.82 1142.04 1679.15C1142.04 1675.47 1139.06 1672.49 1135.38 1672.49C1131.71 1672.49 1128.73 1675.47 1128.73 1679.15C1128.73 1682.82 1131.71 1685.8 1135.38 1685.8Z" fill="#CEE4ED"/>
<path d="M1177.31 1685.8C1180.99 1685.8 1183.97 1682.82 1183.97 1679.15C1183.97 1675.47 1180.99 1672.49 1177.31 1672.49C1173.64 1672.49 1170.66 1675.47 1170.66 1679.15C1170.66 1682.82 1173.64 1685.8 1177.31 1685.8Z" fill="#CEE4ED"/>
<path d="M1219.25 1685.8C1222.93 1685.8 1225.91 1682.82 1225.91 1679.15C1225.91 1675.47 1222.93 1672.49 1219.25 1672.49C1215.57 1672.49 1212.59 1675.47 1212.59 1679.15C1212.59 1682.82 1215.57 1685.8 1219.25 1685.8Z" fill="#CEE4ED"/>
<path d="M674.093 1685.8C677.77 1685.8 680.749 1682.82 680.749 1679.15C680.749 1675.47 677.77 1672.49 674.093 1672.49C670.417 1672.49 667.438 1675.47 667.438 1679.15C667.438 1682.82 670.417 1685.8 674.093 1685.8Z" fill="#CEE4ED"/>
<path d="M632.152 1685.8C635.828 1685.8 638.808 1682.82 638.808 1679.15C638.808 1675.47 635.828 1672.49 632.152 1672.49C628.476 1672.49 625.496 1675.47 625.496 1679.15C625.496 1682.82 628.476 1685.8 632.152 1685.8Z" fill="#CEE4ED"/>
<path d="M716.031 1685.8C719.707 1685.8 722.687 1682.82 722.687 1679.15C722.687 1675.47 719.707 1672.49 716.031 1672.49C712.355 1672.49 709.375 1675.47 709.375 1679.15C709.375 1682.82 712.355 1685.8 716.031 1685.8Z" fill="#CEE4ED"/>
<path d="M757.968 1685.8C761.645 1685.8 764.625 1682.82 764.625 1679.15C764.625 1675.47 761.645 1672.49 757.968 1672.49C754.292 1672.49 751.312 1675.47 751.312 1679.15C751.312 1682.82 754.292 1685.8 757.968 1685.8Z" fill="#CEE4ED"/>
<path d="M799.898 1685.8C803.574 1685.8 806.554 1682.82 806.554 1679.15C806.554 1675.47 803.574 1672.49 799.898 1672.49C796.222 1672.49 793.242 1675.47 793.242 1679.15C793.242 1682.82 796.222 1685.8 799.898 1685.8Z" fill="#CEE4ED"/>
<path d="M841.836 1685.8C845.512 1685.8 848.492 1682.82 848.492 1679.15C848.492 1675.47 845.512 1672.49 841.836 1672.49C838.16 1672.49 835.18 1675.47 835.18 1679.15C835.18 1682.82 838.16 1685.8 841.836 1685.8Z" fill="#CEE4ED"/>
<path d="M883.775 1685.8C887.451 1685.8 890.431 1682.82 890.431 1679.15C890.431 1675.47 887.451 1672.49 883.775 1672.49C880.099 1672.49 877.119 1675.47 877.119 1679.15C877.119 1682.82 880.099 1685.8 883.775 1685.8Z" fill="#CEE4ED"/>
<path d="M925.701 1685.8C929.377 1685.8 932.357 1682.82 932.357 1679.15C932.357 1675.47 929.377 1672.49 925.701 1672.49C922.025 1672.49 919.045 1675.47 919.045 1679.15C919.045 1682.82 922.025 1685.8 925.701 1685.8Z" fill="#CEE4ED"/>
<path d="M946.674 1707.65C950.35 1707.65 953.33 1704.67 953.33 1701C953.33 1697.32 950.35 1694.34 946.674 1694.34C942.998 1694.34 940.018 1697.32 940.018 1701C940.018 1704.67 942.998 1707.65 946.674 1707.65Z" fill="#CEE4ED"/>
<path d="M988.611 1707.65C992.287 1707.65 995.267 1704.67 995.267 1701C995.267 1697.32 992.287 1694.34 988.611 1694.34C984.935 1694.34 981.955 1697.32 981.955 1701C981.955 1704.67 984.935 1707.65 988.611 1707.65Z" fill="#CEE4ED"/>
<path d="M1030.54 1707.65C1034.21 1707.65 1037.19 1704.67 1037.19 1701C1037.19 1697.32 1034.21 1694.34 1030.54 1694.34C1026.86 1694.34 1023.88 1697.32 1023.88 1701C1023.88 1704.67 1026.86 1707.65 1030.54 1707.65Z" fill="#CEE4ED"/>
<path d="M1072.48 1707.65C1076.15 1707.65 1079.13 1704.67 1079.13 1701C1079.13 1697.32 1076.15 1694.34 1072.48 1694.34C1068.8 1694.34 1065.82 1697.32 1065.82 1701C1065.82 1704.67 1068.8 1707.65 1072.48 1707.65Z" fill="#CEE4ED"/>
<path d="M1114.42 1707.65C1118.09 1707.65 1121.07 1704.67 1121.07 1701C1121.07 1697.32 1118.09 1694.34 1114.42 1694.34C1110.74 1694.34 1107.76 1697.32 1107.76 1701C1107.76 1704.67 1110.74 1707.65 1114.42 1707.65Z" fill="#CEE4ED"/>
<path d="M1156.36 1707.65C1160.03 1707.65 1163.01 1704.67 1163.01 1701C1163.01 1697.32 1160.03 1694.34 1156.36 1694.34C1152.68 1694.34 1149.7 1697.32 1149.7 1701C1149.7 1704.67 1152.68 1707.65 1156.36 1707.65Z" fill="#CEE4ED"/>
<path d="M1198.28 1707.65C1201.96 1707.65 1204.94 1704.67 1204.94 1701C1204.94 1697.32 1201.96 1694.34 1198.28 1694.34C1194.6 1694.34 1191.62 1697.32 1191.62 1701C1191.62 1704.67 1194.6 1707.65 1198.28 1707.65Z" fill="#CEE4ED"/>
<path d="M653.123 1707.65C656.799 1707.65 659.779 1704.67 659.779 1701C659.779 1697.32 656.799 1694.34 653.123 1694.34C649.447 1694.34 646.467 1697.32 646.467 1701C646.467 1704.67 649.447 1707.65 653.123 1707.65Z" fill="#CEE4ED"/>
<path d="M611.197 1707.65C614.873 1707.65 617.853 1704.67 617.853 1701C617.853 1697.32 614.873 1694.34 611.197 1694.34C607.521 1694.34 604.541 1697.32 604.541 1701C604.541 1704.67 607.521 1707.65 611.197 1707.65Z" fill="#CEE4ED"/>
<path d="M695.063 1707.65C698.739 1707.65 701.719 1704.67 701.719 1701C701.719 1697.32 698.739 1694.34 695.063 1694.34C691.386 1694.34 688.406 1697.32 688.406 1701C688.406 1704.67 691.386 1707.65 695.063 1707.65Z" fill="#CEE4ED"/>
<path d="M737 1707.65C740.676 1707.65 743.656 1704.67 743.656 1701C743.656 1697.32 740.676 1694.34 737 1694.34C733.324 1694.34 730.344 1697.32 730.344 1701C730.344 1704.67 733.324 1707.65 737 1707.65Z" fill="#CEE4ED"/>
<path d="M778.927 1707.65C782.603 1707.65 785.583 1704.67 785.583 1701C785.583 1697.32 782.603 1694.34 778.927 1694.34C775.251 1694.34 772.271 1697.32 772.271 1701C772.271 1704.67 775.251 1707.65 778.927 1707.65Z" fill="#CEE4ED"/>
<path d="M820.867 1707.65C824.543 1707.65 827.523 1704.67 827.523 1701C827.523 1697.32 824.543 1694.34 820.867 1694.34C817.191 1694.34 814.211 1697.32 814.211 1701C814.211 1704.67 817.191 1707.65 820.867 1707.65Z" fill="#CEE4ED"/>
<path d="M862.806 1707.65C866.482 1707.65 869.462 1704.67 869.462 1701C869.462 1697.32 866.482 1694.34 862.806 1694.34C859.13 1694.34 856.15 1697.32 856.15 1701C856.15 1704.67 859.13 1707.65 862.806 1707.65Z" fill="#CEE4ED"/>
<path d="M904.732 1707.65C908.408 1707.65 911.388 1704.67 911.388 1701C911.388 1697.32 908.408 1694.34 904.732 1694.34C901.056 1694.34 898.076 1697.32 898.076 1701C898.076 1704.67 901.056 1707.65 904.732 1707.65Z" fill="#CEE4ED"/>
<path d="M1260.6 1598.41C1264.28 1598.41 1267.26 1595.43 1267.26 1591.75C1267.26 1588.08 1264.28 1585.1 1260.6 1585.1C1256.93 1585.1 1253.95 1588.08 1253.95 1591.75C1253.95 1595.43 1256.93 1598.41 1260.6 1598.41Z" fill="#CEE4ED"/>
<path d="M1302.53 1598.41C1306.21 1598.41 1309.19 1595.43 1309.19 1591.75C1309.19 1588.08 1306.21 1585.1 1302.53 1585.1C1298.85 1585.1 1295.88 1588.08 1295.88 1591.75C1295.88 1595.43 1298.85 1598.41 1302.53 1598.41Z" fill="#CEE4ED"/>
<path d="M1344.47 1598.41C1348.15 1598.41 1351.13 1595.43 1351.13 1591.75C1351.13 1588.08 1348.15 1585.1 1344.47 1585.1C1340.8 1585.1 1337.82 1588.08 1337.82 1591.75C1337.82 1595.43 1340.8 1598.41 1344.47 1598.41Z" fill="#CEE4ED"/>
<path d="M1386.41 1598.41C1390.09 1598.41 1393.07 1595.43 1393.07 1591.75C1393.07 1588.08 1390.09 1585.1 1386.41 1585.1C1382.73 1585.1 1379.75 1588.08 1379.75 1591.75C1379.75 1595.43 1382.73 1598.41 1386.41 1598.41Z" fill="#CEE4ED"/>
<path d="M1428.34 1598.41C1432.01 1598.41 1434.99 1595.43 1434.99 1591.75C1434.99 1588.08 1432.01 1585.1 1428.34 1585.1C1424.66 1585.1 1421.68 1588.08 1421.68 1591.75C1421.68 1595.43 1424.66 1598.41 1428.34 1598.41Z" fill="#CEE4ED"/>
<path d="M1470.28 1598.41C1473.95 1598.41 1476.93 1595.43 1476.93 1591.75C1476.93 1588.08 1473.95 1585.1 1470.28 1585.1C1466.6 1585.1 1463.62 1588.08 1463.62 1591.75C1463.62 1595.43 1466.6 1598.41 1470.28 1598.41Z" fill="#CEE4ED"/>
<path d="M1512.21 1598.41C1515.89 1598.41 1518.87 1595.43 1518.87 1591.75C1518.87 1588.08 1515.89 1585.1 1512.21 1585.1C1508.54 1585.1 1505.56 1588.08 1505.56 1591.75C1505.56 1595.43 1508.54 1598.41 1512.21 1598.41Z" fill="#CEE4ED"/>
<path d="M1533.18 1620.26C1536.86 1620.26 1539.84 1617.28 1539.84 1613.6C1539.84 1609.92 1536.86 1606.94 1533.18 1606.94C1529.51 1606.94 1526.53 1609.92 1526.53 1613.6C1526.53 1617.28 1529.51 1620.26 1533.18 1620.26Z" fill="#CEE4ED"/>
<path d="M1239.64 1620.26C1243.31 1620.26 1246.29 1617.28 1246.29 1613.6C1246.29 1609.92 1243.31 1606.94 1239.64 1606.94C1235.96 1606.94 1232.98 1609.92 1232.98 1613.6C1232.98 1617.28 1235.96 1620.26 1239.64 1620.26Z" fill="#CEE4ED"/>
<path d="M1281.58 1620.26C1285.25 1620.26 1288.23 1617.28 1288.23 1613.6C1288.23 1609.92 1285.25 1606.94 1281.58 1606.94C1277.9 1606.94 1274.92 1609.92 1274.92 1613.6C1274.92 1617.28 1277.9 1620.26 1281.58 1620.26Z" fill="#CEE4ED"/>
<path d="M1323.5 1620.26C1327.18 1620.26 1330.16 1617.28 1330.16 1613.6C1330.16 1609.92 1327.18 1606.94 1323.5 1606.94C1319.83 1606.94 1316.85 1609.92 1316.85 1613.6C1316.85 1617.28 1319.83 1620.26 1323.5 1620.26Z" fill="#CEE4ED"/>
<path d="M1365.44 1620.26C1369.12 1620.26 1372.1 1617.28 1372.1 1613.6C1372.1 1609.92 1369.12 1606.94 1365.44 1606.94C1361.76 1606.94 1358.79 1609.92 1358.79 1613.6C1358.79 1617.28 1361.76 1620.26 1365.44 1620.26Z" fill="#CEE4ED"/>
<path d="M1407.38 1620.26C1411.05 1620.26 1414.03 1617.28 1414.03 1613.6C1414.03 1609.92 1411.05 1606.94 1407.38 1606.94C1403.7 1606.94 1400.72 1609.92 1400.72 1613.6C1400.72 1617.28 1403.7 1620.26 1407.38 1620.26Z" fill="#CEE4ED"/>
<path d="M1449.31 1620.26C1452.98 1620.26 1455.96 1617.28 1455.96 1613.6C1455.96 1609.92 1452.98 1606.94 1449.31 1606.94C1445.63 1606.94 1442.65 1609.92 1442.65 1613.6C1442.65 1617.28 1445.63 1620.26 1449.31 1620.26Z" fill="#CEE4ED"/>
<path d="M1491.25 1620.26C1494.92 1620.26 1497.9 1617.28 1497.9 1613.6C1497.9 1609.92 1494.92 1606.94 1491.25 1606.94C1487.57 1606.94 1484.59 1609.92 1484.59 1613.6C1484.59 1617.28 1487.57 1620.26 1491.25 1620.26Z" fill="#CEE4ED"/>
<path d="M1554.15 1642.11C1557.83 1642.11 1560.81 1639.13 1560.81 1635.45C1560.81 1631.77 1557.83 1628.79 1554.15 1628.79C1550.48 1628.79 1547.5 1631.77 1547.5 1635.45C1547.5 1639.13 1550.48 1642.11 1554.15 1642.11Z" fill="#CEE4ED"/>
<path d="M1260.6 1642.11C1264.28 1642.11 1267.26 1639.13 1267.26 1635.45C1267.26 1631.77 1264.28 1628.79 1260.6 1628.79C1256.93 1628.79 1253.95 1631.77 1253.95 1635.45C1253.95 1639.13 1256.93 1642.11 1260.6 1642.11Z" fill="#CEE4ED"/>
<path d="M1302.53 1642.11C1306.21 1642.11 1309.19 1639.13 1309.19 1635.45C1309.19 1631.77 1306.21 1628.79 1302.53 1628.79C1298.85 1628.79 1295.88 1631.77 1295.88 1635.45C1295.88 1639.13 1298.85 1642.11 1302.53 1642.11Z" fill="#CEE4ED"/>
<path d="M1344.47 1642.11C1348.15 1642.11 1351.13 1639.13 1351.13 1635.45C1351.13 1631.77 1348.15 1628.79 1344.47 1628.79C1340.8 1628.79 1337.82 1631.77 1337.82 1635.45C1337.82 1639.13 1340.8 1642.11 1344.47 1642.11Z" fill="#CEE4ED"/>
<path d="M1386.41 1642.11C1390.09 1642.11 1393.07 1639.13 1393.07 1635.45C1393.07 1631.77 1390.09 1628.79 1386.41 1628.79C1382.73 1628.79 1379.75 1631.77 1379.75 1635.45C1379.75 1639.13 1382.73 1642.11 1386.41 1642.11Z" fill="#CEE4ED"/>
<path d="M1428.34 1642.11C1432.01 1642.11 1434.99 1639.13 1434.99 1635.45C1434.99 1631.77 1432.01 1628.79 1428.34 1628.79C1424.66 1628.79 1421.68 1631.77 1421.68 1635.45C1421.68 1639.13 1424.66 1642.11 1428.34 1642.11Z" fill="#CEE4ED"/>
<path d="M1470.28 1642.11C1473.95 1642.11 1476.93 1639.13 1476.93 1635.45C1476.93 1631.77 1473.95 1628.79 1470.28 1628.79C1466.6 1628.79 1463.62 1631.77 1463.62 1635.45C1463.62 1639.13 1466.6 1642.11 1470.28 1642.11Z" fill="#CEE4ED"/>
<path d="M1512.21 1642.11C1515.89 1642.11 1518.87 1639.13 1518.87 1635.45C1518.87 1631.77 1515.89 1628.79 1512.21 1628.79C1508.54 1628.79 1505.56 1631.77 1505.56 1635.45C1505.56 1639.13 1508.54 1642.11 1512.21 1642.11Z" fill="#CEE4ED"/>
<path d="M1533.18 1663.95C1536.86 1663.95 1539.84 1660.97 1539.84 1657.3C1539.84 1653.62 1536.86 1650.64 1533.18 1650.64C1529.51 1650.64 1526.53 1653.62 1526.53 1657.3C1526.53 1660.97 1529.51 1663.95 1533.18 1663.95Z" fill="#CEE4ED"/>
<path d="M1575.11 1663.95C1578.79 1663.95 1581.77 1660.97 1581.77 1657.3C1581.77 1653.62 1578.79 1650.64 1575.11 1650.64C1571.44 1650.64 1568.46 1653.62 1568.46 1657.3C1568.46 1660.97 1571.44 1663.95 1575.11 1663.95Z" fill="#CEE4ED"/>
<path d="M1239.64 1663.95C1243.31 1663.95 1246.29 1660.97 1246.29 1657.3C1246.29 1653.62 1243.31 1650.64 1239.64 1650.64C1235.96 1650.64 1232.98 1653.62 1232.98 1657.3C1232.98 1660.97 1235.96 1663.95 1239.64 1663.95Z" fill="#CEE4ED"/>
<path d="M1281.58 1663.95C1285.25 1663.95 1288.23 1660.97 1288.23 1657.3C1288.23 1653.62 1285.25 1650.64 1281.58 1650.64C1277.9 1650.64 1274.92 1653.62 1274.92 1657.3C1274.92 1660.97 1277.9 1663.95 1281.58 1663.95Z" fill="#CEE4ED"/>
<path d="M1323.5 1663.95C1327.18 1663.95 1330.16 1660.97 1330.16 1657.3C1330.16 1653.62 1327.18 1650.64 1323.5 1650.64C1319.83 1650.64 1316.85 1653.62 1316.85 1657.3C1316.85 1660.97 1319.83 1663.95 1323.5 1663.95Z" fill="#CEE4ED"/>
<path d="M1365.44 1663.95C1369.12 1663.95 1372.1 1660.97 1372.1 1657.3C1372.1 1653.62 1369.12 1650.64 1365.44 1650.64C1361.76 1650.64 1358.79 1653.62 1358.79 1657.3C1358.79 1660.97 1361.76 1663.95 1365.44 1663.95Z" fill="#CEE4ED"/>
<path d="M1407.38 1663.95C1411.05 1663.95 1414.03 1660.97 1414.03 1657.3C1414.03 1653.62 1411.05 1650.64 1407.38 1650.64C1403.7 1650.64 1400.72 1653.62 1400.72 1657.3C1400.72 1660.97 1403.7 1663.95 1407.38 1663.95Z" fill="#CEE4ED"/>
<path d="M1449.31 1663.95C1452.98 1663.95 1455.96 1660.97 1455.96 1657.3C1455.96 1653.62 1452.98 1650.64 1449.31 1650.64C1445.63 1650.64 1442.65 1653.62 1442.65 1657.3C1442.65 1660.97 1445.63 1663.95 1449.31 1663.95Z" fill="#CEE4ED"/>
<path d="M1491.25 1663.95C1494.92 1663.95 1497.9 1660.97 1497.9 1657.3C1497.9 1653.62 1494.92 1650.64 1491.25 1650.64C1487.57 1650.64 1484.59 1653.62 1484.59 1657.3C1484.59 1660.97 1487.57 1663.95 1491.25 1663.95Z" fill="#CEE4ED"/>
<path d="M1554.15 1685.8C1557.83 1685.8 1560.81 1682.82 1560.81 1679.15C1560.81 1675.47 1557.83 1672.49 1554.15 1672.49C1550.48 1672.49 1547.5 1675.47 1547.5 1679.15C1547.5 1682.82 1550.48 1685.8 1554.15 1685.8Z" fill="#CEE4ED"/>
<path d="M1596.08 1685.8C1599.76 1685.8 1602.74 1682.82 1602.74 1679.15C1602.74 1675.47 1599.76 1672.49 1596.08 1672.49C1592.4 1672.49 1589.42 1675.47 1589.42 1679.15C1589.42 1682.82 1592.4 1685.8 1596.08 1685.8Z" fill="#CEE4ED"/>
<path d="M1260.6 1685.8C1264.28 1685.8 1267.26 1682.82 1267.26 1679.15C1267.26 1675.47 1264.28 1672.49 1260.6 1672.49C1256.93 1672.49 1253.95 1675.47 1253.95 1679.15C1253.95 1682.82 1256.93 1685.8 1260.6 1685.8Z" fill="#CEE4ED"/>
<path d="M1302.53 1685.8C1306.21 1685.8 1309.19 1682.82 1309.19 1679.15C1309.19 1675.47 1306.21 1672.49 1302.53 1672.49C1298.85 1672.49 1295.88 1675.47 1295.88 1679.15C1295.88 1682.82 1298.85 1685.8 1302.53 1685.8Z" fill="#CEE4ED"/>
<path d="M1344.47 1685.8C1348.15 1685.8 1351.13 1682.82 1351.13 1679.15C1351.13 1675.47 1348.15 1672.49 1344.47 1672.49C1340.8 1672.49 1337.82 1675.47 1337.82 1679.15C1337.82 1682.82 1340.8 1685.8 1344.47 1685.8Z" fill="#CEE4ED"/>
<path d="M1386.41 1685.8C1390.09 1685.8 1393.07 1682.82 1393.07 1679.15C1393.07 1675.47 1390.09 1672.49 1386.41 1672.49C1382.73 1672.49 1379.75 1675.47 1379.75 1679.15C1379.75 1682.82 1382.73 1685.8 1386.41 1685.8Z" fill="#CEE4ED"/>
<path d="M1428.34 1685.8C1432.01 1685.8 1434.99 1682.82 1434.99 1679.15C1434.99 1675.47 1432.01 1672.49 1428.34 1672.49C1424.66 1672.49 1421.68 1675.47 1421.68 1679.15C1421.68 1682.82 1424.66 1685.8 1428.34 1685.8Z" fill="#CEE4ED"/>
<path d="M1470.28 1685.8C1473.95 1685.8 1476.93 1682.82 1476.93 1679.15C1476.93 1675.47 1473.95 1672.49 1470.28 1672.49C1466.6 1672.49 1463.62 1675.47 1463.62 1679.15C1463.62 1682.82 1466.6 1685.8 1470.28 1685.8Z" fill="#CEE4ED"/>
<path d="M1512.21 1685.8C1515.89 1685.8 1518.87 1682.82 1518.87 1679.15C1518.87 1675.47 1515.89 1672.49 1512.21 1672.49C1508.54 1672.49 1505.56 1675.47 1505.56 1679.15C1505.56 1682.82 1508.54 1685.8 1512.21 1685.8Z" fill="#CEE4ED"/>
<path d="M1533.18 1707.65C1536.86 1707.65 1539.84 1704.67 1539.84 1701C1539.84 1697.32 1536.86 1694.34 1533.18 1694.34C1529.51 1694.34 1526.53 1697.32 1526.53 1701C1526.53 1704.67 1529.51 1707.65 1533.18 1707.65Z" fill="#CEE4ED"/>
<path d="M1575.11 1707.65C1578.79 1707.65 1581.77 1704.67 1581.77 1701C1581.77 1697.32 1578.79 1694.34 1575.11 1694.34C1571.44 1694.34 1568.46 1697.32 1568.46 1701C1568.46 1704.67 1571.44 1707.65 1575.11 1707.65Z" fill="#CEE4ED"/>
<path d="M1617.05 1707.65C1620.73 1707.65 1623.71 1704.67 1623.71 1701C1623.71 1697.32 1620.73 1694.34 1617.05 1694.34C1613.38 1694.34 1610.4 1697.32 1610.4 1701C1610.4 1704.67 1613.38 1707.65 1617.05 1707.65Z" fill="#CEE4ED"/>
<path d="M1239.64 1707.65C1243.31 1707.65 1246.29 1704.67 1246.29 1701C1246.29 1697.32 1243.31 1694.34 1239.64 1694.34C1235.96 1694.34 1232.98 1697.32 1232.98 1701C1232.98 1704.67 1235.96 1707.65 1239.64 1707.65Z" fill="#CEE4ED"/>
<path d="M1281.58 1707.65C1285.25 1707.65 1288.23 1704.67 1288.23 1701C1288.23 1697.32 1285.25 1694.34 1281.58 1694.34C1277.9 1694.34 1274.92 1697.32 1274.92 1701C1274.92 1704.67 1277.9 1707.65 1281.58 1707.65Z" fill="#CEE4ED"/>
<path d="M1323.5 1707.65C1327.18 1707.65 1330.16 1704.67 1330.16 1701C1330.16 1697.32 1327.18 1694.34 1323.5 1694.34C1319.83 1694.34 1316.85 1697.32 1316.85 1701C1316.85 1704.67 1319.83 1707.65 1323.5 1707.65Z" fill="#CEE4ED"/>
<path d="M1365.44 1707.65C1369.12 1707.65 1372.1 1704.67 1372.1 1701C1372.1 1697.32 1369.12 1694.34 1365.44 1694.34C1361.76 1694.34 1358.79 1697.32 1358.79 1701C1358.79 1704.67 1361.76 1707.65 1365.44 1707.65Z" fill="#CEE4ED"/>
<path d="M1407.38 1707.65C1411.05 1707.65 1414.03 1704.67 1414.03 1701C1414.03 1697.32 1411.05 1694.34 1407.38 1694.34C1403.7 1694.34 1400.72 1697.32 1400.72 1701C1400.72 1704.67 1403.7 1707.65 1407.38 1707.65Z" fill="#CEE4ED"/>
<path d="M1449.31 1707.65C1452.98 1707.65 1455.96 1704.67 1455.96 1701C1455.96 1697.32 1452.98 1694.34 1449.31 1694.34C1445.63 1694.34 1442.65 1697.32 1442.65 1701C1442.65 1704.67 1445.63 1707.65 1449.31 1707.65Z" fill="#CEE4ED"/>
<path d="M1491.25 1707.65C1494.92 1707.65 1497.9 1704.67 1497.9 1701C1497.9 1697.32 1494.92 1694.34 1491.25 1694.34C1487.57 1694.34 1484.59 1697.32 1484.59 1701C1484.59 1704.67 1487.57 1707.65 1491.25 1707.65Z" fill="#CEE4ED"/>
<path d="M1554.58 1598.41C1558.26 1598.41 1561.24 1595.43 1561.24 1591.75C1561.24 1588.08 1558.26 1585.1 1554.58 1585.1C1550.91 1585.1 1547.93 1588.08 1547.93 1591.75C1547.93 1595.43 1550.91 1598.41 1554.58 1598.41Z" fill="#CEE4ED"/>
<path d="M1596.51 1598.41C1600.18 1598.41 1603.16 1595.43 1603.16 1591.75C1603.16 1588.08 1600.18 1585.1 1596.51 1585.1C1592.83 1585.1 1589.85 1588.08 1589.85 1591.75C1589.85 1595.43 1592.83 1598.41 1596.51 1598.41Z" fill="#CEE4ED"/>
<path d="M1617.48 1620.26C1621.15 1620.26 1624.13 1617.28 1624.13 1613.6C1624.13 1609.92 1621.15 1606.94 1617.48 1606.94C1613.8 1606.94 1610.82 1609.92 1610.82 1613.6C1610.82 1617.28 1613.8 1620.26 1617.48 1620.26Z" fill="#CEE4ED"/>
<path d="M1575.54 1620.26C1579.22 1620.26 1582.19 1617.28 1582.19 1613.6C1582.19 1609.92 1579.22 1606.94 1575.54 1606.94C1571.86 1606.94 1568.88 1609.92 1568.88 1613.6C1568.88 1617.28 1571.86 1620.26 1575.54 1620.26Z" fill="#CEE4ED"/>
<path d="M1638.45 1642.11C1642.12 1642.11 1645.1 1639.13 1645.1 1635.45C1645.1 1631.77 1642.12 1628.79 1638.45 1628.79C1634.77 1628.79 1631.79 1631.77 1631.79 1635.45C1631.79 1639.13 1634.77 1642.11 1638.45 1642.11Z" fill="#CEE4ED"/>
<path d="M1596.51 1642.11C1600.18 1642.11 1603.16 1639.13 1603.16 1635.45C1603.16 1631.77 1600.18 1628.79 1596.51 1628.79C1592.83 1628.79 1589.85 1631.77 1589.85 1635.45C1589.85 1639.13 1592.83 1642.11 1596.51 1642.11Z" fill="#CEE4ED"/>
<path d="M1617.48 1663.95C1621.15 1663.95 1624.13 1660.97 1624.13 1657.3C1624.13 1653.62 1621.15 1650.64 1617.48 1650.64C1613.8 1650.64 1610.82 1653.62 1610.82 1657.3C1610.82 1660.97 1613.8 1663.95 1617.48 1663.95Z" fill="#CEE4ED"/>
<path d="M1659.42 1663.95C1663.09 1663.95 1666.07 1660.97 1666.07 1657.3C1666.07 1653.62 1663.09 1650.64 1659.42 1650.64C1655.74 1650.64 1652.76 1653.62 1652.76 1657.3C1652.76 1660.97 1655.74 1663.95 1659.42 1663.95Z" fill="#CEE4ED"/>
<path d="M1638.45 1685.8C1642.12 1685.8 1645.1 1682.82 1645.1 1679.15C1645.1 1675.47 1642.12 1672.49 1638.45 1672.49C1634.77 1672.49 1631.79 1675.47 1631.79 1679.15C1631.79 1682.82 1634.77 1685.8 1638.45 1685.8Z" fill="#CEE4ED"/>
<path d="M1680.39 1685.8C1684.06 1685.8 1687.04 1682.82 1687.04 1679.15C1687.04 1675.47 1684.06 1672.49 1680.39 1672.49C1676.71 1672.49 1673.73 1675.47 1673.73 1679.15C1673.73 1682.82 1676.71 1685.8 1680.39 1685.8Z" fill="#CEE4ED"/>
<path d="M1659.42 1707.65C1663.09 1707.65 1666.07 1704.67 1666.07 1701C1666.07 1697.32 1663.09 1694.34 1659.42 1694.34C1655.74 1694.34 1652.76 1697.32 1652.76 1701C1652.76 1704.67 1655.74 1707.65 1659.42 1707.65Z" fill="#CEE4ED"/>
<path d="M1701.34 1707.65C1705.02 1707.65 1708 1704.67 1708 1701C1708 1697.32 1705.02 1694.34 1701.34 1694.34C1697.67 1694.34 1694.69 1697.32 1694.69 1701C1694.69 1704.67 1697.67 1707.65 1701.34 1707.65Z" fill="#CEE4ED"/>
<path d="M1294.57 289.375V1589.51" stroke="#A74602" stroke-width="5" stroke-miterlimit="10"/>
<path d="M1434.71 289.388H1156.44L1198.92 161.574H1392.22L1434.71 289.388Z" fill="#FFC200"/>
<path d="M1203.35 146H1387.81" stroke="white" stroke-width="5" stroke-miterlimit="10" stroke-linecap="round"/>
<path d="M1377.47 289.388V447.82" stroke="#A74602" stroke-width="5" stroke-miterlimit="10"/>
<path d="M1377.29 468.216C1383.16 468.216 1387.92 463.458 1387.92 457.589C1387.92 451.72 1383.16 446.962 1377.29 446.962C1371.43 446.962 1366.67 451.72 1366.67 457.589C1366.67 463.458 1371.43 468.216 1377.29 468.216Z" stroke="#F3B304" stroke-width="5" stroke-miterlimit="10" stroke-linecap="round"/>
<path d="M1061.09 1236.84C1055.25 1247.65 1046.59 1256.69 1036.02 1262.98C1025.46 1269.28 1013.4 1272.6 1001.1 1272.59H583.346V1219.22H658.631L763.385 980.931C768.879 968.432 777.889 957.801 789.317 950.332C800.746 942.863 814.1 938.879 827.753 938.865H1093.82C1145.72 938.865 1179.75 993.136 1157.2 1039.83L1061.09 1236.84Z" fill="#59221D"/>
<path d="M969.186 1272.59L1083.25 1572.29" stroke="#59221D" stroke-width="5" stroke-linecap="round" stroke-linejoin="round"/>
<path d="M715.614 1272.59L601.545 1572.29" stroke="#59221D" stroke-width="5" stroke-linecap="round" stroke-linejoin="round"/>
<path d="M670.746 875.445V824.406C670.746 804.485 674.67 784.76 682.293 766.355C689.916 747.951 701.09 731.229 715.176 717.143C729.262 703.057 745.984 691.883 764.389 684.26C782.793 676.637 802.518 672.713 822.439 672.713H1059.18C1097.79 672.707 1135.46 684.584 1167.09 706.73C1198.71 728.876 1222.75 760.218 1235.94 796.5L1291.72 949.809C1310.17 1000.55 1295.29 1052.77 1261.31 1086.86C1229.01 1119.27 1180.9 1130.19 1137.28 1116.34L1064.52 1083.2L1039 1120.67L670.746 875.445Z" fill="#F5BBBB"/>
<path d="M1148.89 695.508H742.496C745.727 693.488 749.029 691.599 752.403 689.841H1137.57C1141.07 691.444 1144.53 693.16 1147.91 694.99C1148.25 695.154 1148.58 695.331 1148.89 695.508Z" fill="#FED4C7"/>
<path d="M1189.55 725.256H707.699C709.365 723.337 711.082 721.469 712.849 719.602H1183.43C1185.49 721.469 1187.53 723.312 1189.55 725.256Z" fill="#FED4C7"/>
<path d="M1214.66 754.99H687.506L688.339 753.387C689.071 752.024 689.803 750.674 690.573 749.323H1210.56C1211.38 750.409 1212.18 751.532 1212.96 752.655C1213.6 753.425 1214.13 754.182 1214.66 754.99Z" fill="#FED4C7"/>
<path d="M1231.17 784.725H675.996C676.501 782.82 677.056 780.939 677.65 779.059H1228.56C1229.47 780.927 1230.34 782.815 1231.17 784.725Z" fill="#FED4C7"/>
<path d="M1242.47 814.461H671.098C671.199 812.568 671.375 810.675 671.552 808.807H1240.42L1242.47 814.461Z" fill="#FED4C7"/>
<path d="M1253.28 844.208H670.746V838.541H1251.23L1253.28 844.208Z" fill="#FED4C7"/>
<path d="M1264.1 873.944H670.746V868.277H1262.04L1264.1 873.944Z" fill="#FED4C7"/>
<path d="M1274.92 903.679H713.102L706.072 898.996L704.596 898.012H1272.87L1274.92 903.679Z" fill="#FED4C7"/>
<path d="M1285.74 933.414H757.755L749.248 927.76H1283.69L1285.74 933.414Z" fill="#FED4C7"/>
<path d="M1295.84 963.162H802.421L795.29 958.416L793.914 957.495H1294.24C1294.81 959.376 1295.32 961.269 1295.84 963.162Z" fill="#FED4C7"/>
<path d="M1299.69 992.897H847.076L838.582 987.23H1299.48C1299.63 989.136 1299.63 991.017 1299.69 992.897Z" fill="#FED4C7"/>
<path d="M1297.75 1016.98C1297.42 1018.87 1297.04 1020.76 1296.61 1022.63H891.742L884.51 1017.82L883.248 1016.98H1297.75Z" fill="#FED4C7"/>
<path d="M1288.71 1046.71C1287.87 1048.62 1286.98 1050.51 1286.06 1052.38H936.456L927.949 1046.71H1288.71Z" fill="#FED4C7"/>
<path d="M1270.66 1076.45C1269.43 1077.98 1268.16 1079.48 1266.88 1080.95L1265.86 1082.12H981.061L975.141 1078.16L972.617 1076.45H1270.66Z" fill="#FED4C7"/>
<path d="M915.659 672.738V1038.57L909.992 1034.79V672.738H915.659Z" fill="#FED4C7"/>
<path d="M945.407 672.738V1058.36L939.74 1054.6V672.738H945.407Z" fill="#FED4C7"/>
<path d="M975.14 672.738V1078.16L972.565 1076.45L969.473 1074.39V672.738H975.14Z" fill="#FED4C7"/>
<path d="M1004.88 672.738V1097.98L999.209 1094.19V672.738H1004.88Z" fill="#FED4C7"/>
<path d="M1034.61 672.738V1117.77L1028.96 1114.01V672.738H1034.61Z" fill="#FED4C7"/>
<path d="M1064.36 672.814V1083.47L1058.69 1091.78V672.764H1059.19H1061.91H1064.03L1064.36 672.814Z" fill="#FED4C7"/>
<path d="M1094.09 676.033V1102.63L1088.43 1100.82V675.023C1090.33 675.314 1092.21 675.642 1094.09 676.033Z" fill="#FED4C7"/>
<path d="M1123.83 684.198V1112.05L1118.18 1110.26V682.229C1120.07 682.835 1121.96 683.504 1123.83 684.198Z" fill="#FED4C7"/>
<path d="M1153.58 698.144V1120.36C1151.67 1120.03 1149.79 1119.64 1147.91 1119.22V694.964C1148.25 695.128 1148.58 695.305 1148.9 695.481C1150.47 696.365 1152.03 697.236 1153.58 698.144Z" fill="#FED4C7"/>
<path d="M1183.31 719.512V1121.99C1181.43 1122.11 1179.53 1122.19 1177.65 1122.23V714.729C1179.56 716.285 1181.45 717.879 1183.31 719.512Z" fill="#FED4C7"/>
<path d="M1213.05 752.655V1116.32C1212.15 1116.62 1211.26 1116.9 1210.35 1117.16L1208.16 1117.78L1207.38 1118V745.02C1208.5 746.433 1209.59 747.872 1210.65 749.323C1211.47 750.409 1212.27 751.532 1213.05 752.655Z" fill="#FED4C7"/>
<path d="M1242.83 815.358V1102.03C1241.94 1102.64 1241.03 1103.29 1240.12 1103.8C1239.21 1104.3 1238.42 1104.85 1237.6 1105.35L1237.22 1105.59V799.796L1240.49 808.795L1242.56 814.462L1242.83 815.358Z" fill="#FED4C7"/>
<path d="M1272.53 897.104V1074.08C1271.93 1074.87 1271.27 1075.68 1270.66 1076.45C1269.43 1077.98 1268.16 1079.48 1266.88 1080.95V881.542L1272.53 897.104Z" fill="#FED4C7"/>
<path d="M706.073 727.136V898.997L704.597 898.012L700.406 895.223V734.317C702.224 731.869 704.104 729.471 706.073 727.136Z" fill="#FED4C7"/>
<path d="M735.807 699.911V918.811L730.141 915.025V704.051C731.996 702.612 733.889 701.274 735.807 699.911Z" fill="#FED4C7"/>
<path d="M765.557 683.77V938.551L759.891 934.765V686.13C761.759 685.36 763.639 684.539 765.557 683.77Z" fill="#FED4C7"/>
<path d="M795.29 675.162V958.417L793.914 957.495L789.623 954.63V676.311C791.491 675.881 793.397 675.503 795.29 675.162Z" fill="#FED4C7"/>
<path d="M825.075 672.738V978.168L819.408 974.382V672.738H822.488H825.075Z" fill="#FED4C7"/>
<path d="M854.774 672.738V998.008L849.107 994.247V672.738H854.774Z" fill="#FED4C7"/>
<path d="M884.511 672.738V1017.82L883.236 1016.98L878.844 1014.04V672.738H884.511Z" fill="#FED4C7"/>
<path d="M1120.35 934.928L1074.66 841.368" stroke="#59221D" stroke-width="4" stroke-linecap="round" stroke-linejoin="round"/>
<path d="M837.582 949.418H567.832L515.593 784.789C514.801 782.295 514.608 779.649 515.031 777.067C515.453 774.484 516.479 772.038 518.025 769.926C519.571 767.815 521.593 766.098 523.927 764.915C526.261 763.732 528.841 763.116 531.458 763.118H758.422C764.237 763.117 769.901 764.967 774.594 768.4C779.286 771.833 782.764 776.672 784.523 782.214L837.582 949.418Z" fill="#59221D"/>
<path d="M1258.33 1094.76C1220.19 1140.29 1135.3 1122.11 1111.46 1112.43C1044.86 1085.3 957.928 1011.6 938.959 1000.1C935.993 997.786 932.371 996.465 928.61 996.332C924.849 996.198 921.142 997.257 918.02 999.358L871.6 1036.46C859.585 1044.93 847.532 1045.37 836.425 1035.74L776.488 985.084L763.791 991.824C757.282 995.398 749.627 996.26 742.486 994.222C740.383 993.527 738.521 992.248 737.118 990.534C735.715 988.819 734.829 986.741 734.564 984.542C734.299 982.342 734.666 980.113 735.622 978.115C736.578 976.117 738.084 974.432 739.962 973.258L837.649 911.73C862.997 895.135 892.633 886.293 922.93 886.286H929.24C946.331 886.287 963.381 887.939 980.154 891.221L1180.7 938.929C1244.45 949.417 1323.51 1016.98 1258.33 1094.76Z" fill="#F6ACC1"/>
<path d="M777.271 985.299L825.13 956.22" stroke="#59221D" stroke-width="4" stroke-linecap="round" stroke-linejoin="round"/>
<path d="M801.426 1003.61L846.937 976.337" stroke="#59221D" stroke-width="4" stroke-linecap="round" stroke-linejoin="round"/>
<path d="M824.697 1023.94L870.222 996.657" stroke="#59221D" stroke-width="4" stroke-linecap="round" stroke-linejoin="round"/>
<path d="M1038.99 1120.7L1015.07 1147.9C982.512 1184.94 938.073 1209.5 889.381 1217.36C840.689 1225.22 790.779 1215.89 748.215 1190.97L521.388 1058.2C517.25 1055.78 512.396 1054.89 507.668 1055.67C502.94 1056.46 498.636 1058.88 495.503 1062.5L255.21 1340.87L178.588 1280.13C171.406 1274.39 166.094 1266.65 163.329 1257.89L154.658 1230.35C150.08 1215.82 141.295 1202.98 129.416 1193.45L106.471 1175.11L400.189 856.363C425.653 828.473 460.262 810.62 497.749 806.036C535.237 801.452 573.127 810.44 604.561 831.373L1038.99 1120.7Z" fill="#B9CCF1"/>
<path d="M806.522 1219.82L605.468 1219.37C602.553 1219.36 599.664 1219.93 596.968 1221.04C594.271 1222.15 591.821 1223.78 589.756 1225.84C587.691 1227.9 586.053 1230.34 584.936 1233.04C583.818 1235.73 583.242 1238.62 583.243 1241.53V1518.39H485.821C476.628 1518.39 467.643 1515.65 460.011 1510.53L436.03 1494.45C423.374 1485.95 408.476 1481.41 393.233 1481.41H363.863C364.154 1478.24 364.317 1475.1 364.317 1471.8V1148.83C364.317 1067.87 452.198 1017.46 522.081 1058.34L806.522 1219.82Z" fill="#839BCA"/>
<path d="M583.297 1518.39V1535.35C583.293 1545.51 579.255 1555.26 572.07 1562.44C564.885 1569.63 555.141 1573.67 544.979 1573.67H301.393L328.768 1549.87C348.848 1532.42 361.428 1507.9 363.892 1481.41H393.261C408.505 1481.41 423.402 1485.95 436.059 1494.45L460.039 1510.53C467.672 1515.65 476.656 1518.39 485.849 1518.39H583.297Z" fill="#484848"/>
<path d="M583.297 1518.39V1535.35C583.293 1545.51 579.255 1555.26 572.07 1562.44C564.885 1569.63 555.141 1573.67 544.979 1573.67H301.393L328.768 1549.87C348.848 1532.42 361.428 1507.9 363.892 1481.41H393.261C408.505 1481.41 423.402 1485.95 436.059 1494.45L460.039 1510.53C467.672 1515.65 476.656 1518.39 485.849 1518.39H583.297Z" stroke="#59221D" stroke-width="5" stroke-linecap="round" stroke-linejoin="round"/>
<path d="M583.295 1518.39V1527.55C583.295 1527.55 569.917 1557.45 553.383 1557.45H320.045L328.753 1549.88C348.833 1532.43 361.414 1507.91 363.878 1481.42H393.247C408.491 1481.43 423.388 1485.96 436.045 1494.46L460.025 1510.54C467.658 1515.66 476.642 1518.4 485.835 1518.4L583.295 1518.39Z" stroke="#484848" stroke-width="5" stroke-linecap="round" stroke-linejoin="round"/>
<path d="M583.297 1527.55V1535.35C583.293 1545.51 579.255 1555.26 572.07 1562.44C564.885 1569.63 555.141 1573.67 544.979 1573.67H301.393L320.059 1557.45H553.397C569.918 1557.45 583.297 1527.55 583.297 1527.55Z" fill="white" stroke="#59221D" stroke-width="5" stroke-linejoin="round"/>
<path d="M254.719 1340.99L244.129 1354.24C237.778 1362.17 228.538 1367.26 218.439 1368.39C208.339 1369.51 198.205 1366.59 190.263 1360.25L0 1208.15L36.2477 1206.64C62.8281 1205.54 87.9631 1194.24 106.421 1175.08L129.366 1193.42C141.245 1202.95 150.03 1215.8 154.608 1230.33L163.291 1257.86C166.047 1266.63 171.356 1274.37 178.538 1280.1L254.719 1340.99Z" fill="#484848"/>
<path d="M254.719 1340.99L244.129 1354.24C237.778 1362.17 228.538 1367.26 218.439 1368.39C208.339 1369.51 198.205 1366.59 190.263 1360.25L0 1208.15L36.2477 1206.64C62.8281 1205.54 87.9631 1194.24 106.421 1175.08L129.366 1193.42C141.245 1202.95 150.03 1215.8 154.608 1230.33L163.291 1257.86C166.047 1266.63 171.356 1274.37 178.538 1280.1L254.719 1340.99Z" stroke="#59221D" stroke-width="5" stroke-linecap="round" stroke-linejoin="round"/>
<path d="M254.719 1340.99L249.002 1348.14C249.002 1348.14 219.885 1363.14 206.974 1352.81L24.7129 1207.13L36.2484 1206.64C62.8288 1205.54 87.9638 1194.24 106.422 1175.08L129.367 1193.42C141.246 1202.95 150.031 1215.8 154.609 1230.33L163.292 1257.86C166.048 1266.63 171.357 1274.37 178.538 1280.1L254.719 1340.99Z" stroke="#59221D" stroke-width="5" stroke-linecap="round" stroke-linejoin="round"/>
<path d="M249.001 1348.14L244.129 1354.24C237.778 1362.17 228.538 1367.26 218.439 1368.39C208.339 1369.51 198.205 1366.59 190.263 1360.25L0 1208.15L24.7122 1207.13L206.973 1352.81C219.884 1363.14 249.001 1348.14 249.001 1348.14Z" fill="white" stroke="#59221D" stroke-width="5" stroke-linejoin="round"/>
<path d="M911.277 732.071L1012.99 672.739L978.333 605.683L911.277 626.672V732.071Z" fill="#F6ACC1"/>
<path d="M911.277 627.315V732.07L1012.99 672.739" stroke="#59221D" stroke-width="4" stroke-linecap="round" stroke-linejoin="round"/>
<path d="M911.277 673.61L959.401 643.862C965.188 640.281 969.964 635.282 973.277 629.338C976.59 623.395 978.33 616.703 978.333 609.898V605.683L911.277 626.672V673.61Z" fill="#59221D"/>
<path d="M998.389 589.124V593.213C998.389 597.66 996.624 601.924 993.481 605.07C990.338 608.215 986.075 609.984 981.628 609.987H970.105L967.821 614.429C964.918 620.109 960.588 624.935 955.254 628.434C949.921 631.932 943.77 633.983 937.404 634.383L915.191 635.645C912.989 635.782 910.783 635.465 908.708 634.716C906.633 633.967 904.734 632.801 903.127 631.29C901.52 629.779 900.239 627.954 899.364 625.929C898.489 623.905 898.038 621.722 898.039 619.516V569.852C898.039 562.535 900.946 555.517 906.12 550.343C911.294 545.169 918.311 542.262 925.629 542.262H934.047C940.282 542.262 946.333 544.374 951.212 548.255C956.092 552.135 959.513 557.555 960.917 563.63L964.363 578.51C965.596 576.62 967.28 575.066 969.262 573.989C971.245 572.911 973.465 572.344 975.722 572.338H981.578C983.785 572.333 985.971 572.764 988.011 573.605C990.052 574.447 991.906 575.683 993.467 577.242C995.029 578.801 996.268 580.654 997.112 582.693C997.957 584.732 998.391 586.917 998.389 589.124Z" fill="#F6ACC1"/>
<path d="M899.439 570.963H914.067L911.026 601.039H920.189" stroke="#59221D" stroke-width="4" stroke-linecap="round" stroke-linejoin="round"/>
<path d="M930.992 570.937L949.066 572.376" stroke="#59221D" stroke-width="4" stroke-linecap="round" stroke-linejoin="round"/>
<path d="M982.309 583.432C979.541 583.432 976.886 584.532 974.928 586.489C972.971 588.447 971.871 591.102 971.871 593.87" stroke="#59221D" stroke-width="4" stroke-linecap="round" stroke-linejoin="round"/>
<path d="M937.315 591.169C938.94 591.169 940.256 588.829 940.256 585.943C940.256 583.058 938.94 580.718 937.315 580.718C935.691 580.718 934.375 583.058 934.375 585.943C934.375 588.829 935.691 591.169 937.315 591.169Z" fill="#59221D"/>
<path d="M901.913 591.169C903.537 591.169 904.854 588.829 904.854 585.943C904.854 583.058 903.537 580.718 901.913 580.718C900.289 580.718 898.973 583.058 898.973 585.943C898.973 588.829 900.289 591.169 901.913 591.169Z" fill="#59221D"/>
<path d="M914.17 614.429H921.086C924.206 614.43 927.218 613.29 929.555 611.223" stroke="#59221D" stroke-width="4" stroke-linecap="round" stroke-linejoin="round"/>
<path d="M991.131 558.656C991.14 563.859 989.317 568.899 985.981 572.893C984.562 572.507 983.098 572.311 981.627 572.312H975.758C973.502 572.318 971.282 572.885 969.299 573.963C967.316 575.04 965.632 576.594 964.399 578.484L960.954 563.604C960.048 559.665 958.281 555.975 955.779 552.8C953.38 555.718 950.209 557.904 946.629 559.111C944.339 559.9 941.933 560.302 939.511 560.297C934.983 560.328 930.563 558.918 926.89 556.271C924.726 554.747 922.911 552.781 921.564 550.503C920.218 548.225 919.37 545.687 919.077 543.057C913.936 544.314 909.264 547.022 905.619 550.86C901.973 554.698 899.508 559.502 898.517 564.702C895.561 563.321 892.944 561.308 890.852 558.804C888.759 556.3 887.242 553.368 886.408 550.213C885.574 547.059 885.443 543.759 886.025 540.549C886.606 537.338 887.886 534.294 889.773 531.633C891.661 528.971 894.11 526.756 896.947 525.146C899.785 523.535 902.942 522.567 906.195 522.311C909.447 522.055 912.717 522.516 915.772 523.663C918.827 524.809 921.592 526.613 923.873 528.946C925.867 526.809 928.283 525.109 930.968 523.955C933.654 522.801 936.55 522.219 939.473 522.245C949.734 522.245 958.228 529.237 959.73 538.362C962.596 537.064 965.708 536.397 968.855 536.405C974.758 536.405 980.421 538.749 984.597 542.921C988.774 547.093 991.124 552.753 991.131 558.656Z" fill="#FFC200"/>
<path d="M1361.59 1497.46H1457.84C1462.65 1497.46 1467.26 1499.37 1470.66 1502.77C1474.06 1506.17 1475.96 1510.78 1475.96 1515.58V1574.06H1343.44V1515.57C1343.45 1513.19 1343.92 1510.83 1344.83 1508.63C1345.74 1506.44 1347.08 1504.44 1348.77 1502.76C1350.45 1501.07 1352.45 1499.74 1354.65 1498.83C1356.85 1497.92 1359.21 1497.46 1361.59 1497.46Z" fill="#F5BBBB"/>
<path d="M1597.59 734V844.901C1597.59 855.497 1595.29 865.967 1590.83 875.581C1586.38 885.195 1579.88 893.723 1571.8 900.573C1562.51 908.447 1555.04 918.25 1549.92 929.3C1544.8 940.35 1542.15 952.383 1542.15 964.562V1016.56C1542.15 1029.26 1538.84 1041.74 1532.54 1052.77C1526.24 1063.8 1517.17 1072.99 1506.23 1079.44C1496.59 1085.13 1488.6 1093.23 1483.04 1102.95C1477.49 1112.67 1474.57 1123.66 1474.56 1134.86V1177.21C1474.56 1189.99 1471.11 1202.53 1464.58 1213.5C1458.04 1224.48 1448.66 1233.49 1437.43 1239.57L1419.99 1249.03V1103.27C1419.99 1021.53 1445.94 941.91 1494.1 875.873L1597.59 734Z" fill="#FFC200"/>
<path d="M1597.59 734V844.901C1597.59 855.498 1595.29 865.967 1590.83 875.582C1586.38 885.196 1579.88 893.724 1571.8 900.573C1562.51 908.45 1555.05 918.253 1549.93 929.303C1544.81 940.353 1542.15 952.384 1542.15 964.562V1016.56C1542.15 1029.26 1538.84 1041.74 1532.54 1052.77C1526.24 1063.8 1517.17 1072.99 1506.23 1079.44C1496.58 1085.12 1488.59 1093.22 1483.03 1102.94C1480.39 1107.56 1478.33 1112.5 1476.92 1117.63L1436.54 991.684C1449.08 950.11 1468.57 910.955 1494.16 875.873L1597.59 734Z" fill="#A74602"/>
<path d="M1397.91 1387.05V1331.22C1397.92 1283.76 1387.61 1236.86 1367.69 1193.78C1347.78 1150.7 1318.74 1112.47 1282.58 1081.72L1210 1019.99V1094.09C1210.01 1106.2 1213.3 1118.07 1219.52 1128.45C1225.74 1138.84 1234.67 1147.33 1245.34 1153.04C1253.5 1157.41 1260.33 1163.91 1265.09 1171.85C1269.85 1179.8 1272.36 1188.88 1272.36 1198.14V1213.01C1272.36 1225.79 1275.84 1238.33 1282.42 1249.29C1289 1260.25 1298.44 1269.21 1309.72 1275.22C1314.88 1277.96 1319.2 1282.06 1322.21 1287.07C1325.22 1292.08 1326.81 1297.82 1326.81 1303.66C1326.8 1320 1331.71 1335.97 1340.91 1349.47C1350.1 1362.98 1363.15 1373.41 1378.35 1379.39L1397.91 1387.05Z" fill="#FFC200"/>
<path d="M1419.99 1497.46V1234.87C1419.96 1234.39 1420.03 1233.92 1420.19 1233.47C1420.35 1233.02 1420.61 1232.61 1420.93 1232.26C1421.26 1231.91 1421.65 1231.64 1422.09 1231.45C1422.53 1231.26 1423 1231.16 1423.48 1231.16C1423.96 1231.16 1424.43 1231.26 1424.86 1231.45C1425.3 1231.64 1425.7 1231.91 1426.02 1232.26C1426.35 1232.61 1426.6 1233.02 1426.77 1233.47C1426.93 1233.92 1427 1234.39 1426.97 1234.87V1497.46H1419.99Z" fill="#FFC200"/>
<path d="M1390.94 1497.46V1358.73C1390.91 1358.25 1390.98 1357.78 1391.14 1357.33C1391.3 1356.88 1391.55 1356.47 1391.88 1356.12C1392.21 1355.78 1392.6 1355.5 1393.04 1355.31C1393.48 1355.12 1393.95 1355.02 1394.43 1355.02C1394.9 1355.02 1395.37 1355.12 1395.81 1355.31C1396.25 1355.5 1396.64 1355.78 1396.97 1356.12C1397.3 1356.47 1397.55 1356.88 1397.71 1357.33C1397.87 1357.78 1397.94 1358.25 1397.92 1358.73V1497.46H1390.94Z" fill="#FFC200"/>
<path d="M1441.32 1497.46V1363.17C1441.32 1362.25 1441.69 1361.36 1442.34 1360.7C1443 1360.05 1443.89 1359.68 1444.81 1359.68C1445.74 1359.68 1446.63 1360.05 1447.29 1360.7C1447.94 1361.36 1448.31 1362.25 1448.31 1363.17V1497.46H1441.32Z" fill="#FFC200"/>
<path d="M1448.85 1366.16C1456.67 1366.16 1463.01 1359.82 1463.01 1352C1463.01 1344.18 1456.67 1337.84 1448.85 1337.84C1441.03 1337.84 1434.69 1344.18 1434.69 1352C1434.69 1359.82 1441.03 1366.16 1448.85 1366.16Z" fill="#A74602"/>
<path d="M1370.09 1138.23C1377.91 1138.23 1384.25 1131.89 1384.25 1124.07C1384.25 1116.25 1377.91 1109.91 1370.09 1109.91C1362.27 1109.91 1355.93 1116.25 1355.93 1124.07C1355.93 1131.89 1362.27 1138.23 1370.09 1138.23Z" fill="#A74602"/>
</g>
<defs>
<clipPath id="clip0">
<rect width="1708" height="1708" fill="white"/>
</clipPath>
</defs>
</svg>
