<svg width="353" height="211" viewBox="0 0 353 211" fill="none" xmlns="http://www.w3.org/2000/svg">
<rect width="353" height="211" fill="white"/>
<path d="M185.597 210.552C187.111 210.552 188.338 209.325 188.338 207.811C188.338 206.296 187.111 205.069 185.597 205.069C184.083 205.069 182.855 206.296 182.855 207.811C182.855 209.325 184.083 210.552 185.597 210.552Z" fill="#F61D37"/>
<path d="M204.337 210.332C205.851 210.332 207.079 209.105 207.079 207.591C207.079 206.077 205.851 204.849 204.337 204.849C202.823 204.849 201.596 206.077 201.596 207.591C201.596 209.105 202.823 210.332 204.337 210.332Z" fill="#F61D37"/>
<path d="M97.1127 148.848C97.1266 150.362 98.3652 151.578 99.8792 151.564C101.393 151.55 102.609 150.312 102.595 148.798C102.582 147.284 101.343 146.068 99.8289 146.081C98.3149 146.095 97.0988 147.334 97.1127 148.848Z" fill="#F61D37"/>
<path d="M97.5014 167.585C97.5152 169.099 98.7538 170.315 100.268 170.301C101.782 170.287 102.998 169.049 102.984 167.534C102.97 166.02 101.732 164.804 100.218 164.818C98.7036 164.832 97.4875 166.071 97.5014 167.585Z" fill="#F61D37"/>
<path fill-rule="evenodd" clip-rule="evenodd" d="M227.593 205.292C227.197 204.781 226.496 198.043 230.859 200.472C230.859 200.472 233.363 195.096 238.599 194.855C239.286 194.823 240.286 195.246 240.043 195.873C240.043 195.873 243.447 194.853 244.822 195.323C245.958 195.711 245.818 196.962 243.157 198.209L227.593 205.292Z" fill="#FFD274"/>
<path fill-rule="evenodd" clip-rule="evenodd" d="M170.061 204.188C170.061 204.188 115.141 204.595 97.8898 204.188C93.1895 204.077 85.277 201.446 88.9209 193.301C89.653 191.665 93.1367 185.766 101.268 187.404C101.268 187.404 101.387 181.366 108.986 181.735C111.722 181.866 117.906 185.425 123.286 190.206C123.286 190.206 127.667 183.256 137.332 190.206C140.13 192.219 156.529 202.06 170.061 204.188Z" fill="#FFD274"/>
<path fill-rule="evenodd" clip-rule="evenodd" d="M171.424 199.368C171.424 199.368 161.938 186.905 160.937 194.898C160.937 194.898 157.791 194.368 157.677 197.081C157.634 198.116 158.795 200.257 171.424 199.368Z" fill="#FFD274"/>
<path fill-rule="evenodd" clip-rule="evenodd" d="M213.916 55.5124L215.284 60.6133L216.576 60.353L215.699 55L213.916 55.5124Z" fill="#668CDA"/>
<path fill-rule="evenodd" clip-rule="evenodd" d="M223.026 55.3843L221.6 60.3305L223.249 60.8219L225.191 56.051L223.026 55.3843Z" fill="#668CDA"/>
<path fill-rule="evenodd" clip-rule="evenodd" d="M226.539 62.7854L227.511 64.3759L231.792 62.0763L230.274 59.9044L226.539 62.7854Z" fill="#668CDA"/>
<path fill-rule="evenodd" clip-rule="evenodd" d="M70.1829 118.713L284 117.376C284 117.376 281.648 99.7472 259.244 102.628C251.987 103.561 248.023 95.6166 240.752 84.2007C234.183 73.8956 215.702 45.5724 184.895 70.871C179.569 75.2421 166.973 80.0604 157.401 71.7317C150.491 65.716 127.604 36.8782 110.138 72.453C106.694 79.4689 101.162 91.8995 91.1301 95.7657C82.3053 99.1702 68.2341 101.959 70.1829 118.713Z" fill="#A8C1F2"/>
<path fill-rule="evenodd" clip-rule="evenodd" d="M113.138 141.257L114.558 168.396L108.391 168.511C108.391 168.511 107.367 172.078 104.971 172.739V141.408L113.138 141.257Z" fill="black"/>
<path fill-rule="evenodd" clip-rule="evenodd" d="M109.696 169.959C109.636 169.801 109.706 169.62 109.861 169.545C110.025 169.466 110.222 169.535 110.301 169.7C110.323 169.745 110.344 169.817 110.355 169.914C110.367 170.036 110.366 170.228 110.357 170.468C110.332 171.186 110.245 172.382 110.417 173.311C110.468 173.588 110.542 173.841 110.655 174.04C110.743 174.195 110.853 174.316 111.004 174.372C111.14 174.421 111.304 174.417 111.501 174.363C111.676 174.315 111.857 174.418 111.905 174.593C111.954 174.768 111.851 174.95 111.675 174.998C111.193 175.131 110.82 175.058 110.53 174.863C110.136 174.601 109.889 174.075 109.769 173.43C109.588 172.456 109.672 171.199 109.699 170.445C109.707 170.223 109.697 169.987 109.696 169.959Z" fill="black"/>
<path fill-rule="evenodd" clip-rule="evenodd" d="M110.683 170.968C110.377 170.692 110.065 170.407 109.807 170.088C109.802 170.081 109.732 169.985 109.703 169.93C109.669 169.866 109.66 169.81 109.657 169.78C109.65 169.683 109.682 169.612 109.717 169.561C109.763 169.498 109.826 169.45 109.911 169.431C110.014 169.405 110.173 169.425 110.34 169.548C110.614 169.752 111.041 170.332 111.117 170.435C111.138 170.464 111.162 170.498 111.187 170.537L111.239 170.584C111.565 170.879 111.937 171.23 112.346 171.511C112.716 171.766 113.114 171.968 113.538 171.991C113.719 172.001 113.858 172.156 113.849 172.338C113.839 172.519 113.683 172.658 113.502 172.648C112.953 172.619 112.429 172.362 111.951 172.029C112.192 172.611 112.391 173.241 112.414 173.75C112.442 174.387 112.214 174.853 111.668 175.004C111.493 175.052 111.312 174.949 111.263 174.773C111.215 174.597 111.318 174.416 111.493 174.368C111.629 174.331 111.699 174.233 111.731 174.104C111.783 173.896 111.757 173.632 111.695 173.345C111.509 172.476 110.976 171.432 110.683 170.968Z" fill="black"/>
<path fill-rule="evenodd" clip-rule="evenodd" d="M113.194 172.654C113.624 172.677 113.865 172.53 113.996 172.348C114.128 172.163 114.16 171.902 114.09 171.62C113.984 171.2 113.648 170.719 113.383 170.515C112.464 169.802 111.142 169.658 110.022 169.533C109.842 169.512 109.679 169.643 109.658 169.823C109.638 170.004 109.768 170.166 109.949 170.187C110.955 170.3 112.154 170.393 112.98 171.035C113.157 171.173 113.38 171.497 113.451 171.781C113.469 171.852 113.493 171.918 113.46 171.965C113.45 171.978 113.431 171.98 113.409 171.986C113.36 171.998 113.301 172 113.23 171.997C113.048 171.987 112.893 172.126 112.883 172.307C112.873 172.488 113.012 172.644 113.194 172.654Z" fill="black"/>
<path fill-rule="evenodd" clip-rule="evenodd" d="M182.533 193.339L203.046 195.669L202.481 198.498C202.481 198.498 207.59 198.719 207.193 201.273H180.514L182.533 193.339Z" fill="black"/>
<path fill-rule="evenodd" clip-rule="evenodd" d="M204.595 198.037C204.635 198.18 204.573 198.337 204.437 198.413C204.278 198.501 204.078 198.443 203.99 198.284C203.943 198.199 203.917 198.056 203.952 197.883C203.992 197.682 204.113 197.399 204.195 197.222C204.509 196.551 204.866 195.883 205.41 195.368C205.545 195.239 205.837 194.98 206.102 194.896C206.294 194.834 206.477 194.846 206.633 194.94C206.789 195.033 206.84 195.235 206.747 195.391C206.659 195.538 206.474 195.592 206.322 195.519C206.298 195.528 206.228 195.554 206.187 195.579C206.054 195.663 205.933 195.779 205.863 195.845C205.379 196.304 205.071 196.903 204.791 197.501C204.728 197.637 204.615 197.977 204.595 198.037Z" fill="black"/>
<path fill-rule="evenodd" clip-rule="evenodd" d="M206.262 195.466C206.131 195.365 206.094 195.181 206.181 195.036C206.274 194.88 206.476 194.83 206.632 194.923C206.839 195.047 206.931 195.263 206.923 195.519C206.914 195.755 206.809 196.028 206.742 196.171C206.399 196.902 205.767 197.406 205.137 197.877C205.194 197.871 205.236 197.865 205.255 197.864C205.668 197.833 206.198 197.78 206.653 197.608C206.904 197.514 207.132 197.383 207.287 197.188H207.282C207.1 197.172 206.967 197.011 206.983 196.83C206.998 196.65 207.159 196.515 207.34 196.532C207.618 196.556 207.816 196.691 207.912 196.856C208.017 197.037 208.036 197.285 207.835 197.556C207.608 197.863 207.269 198.079 206.885 198.224C206.37 198.419 205.77 198.486 205.302 198.52C205.207 198.527 204.596 198.607 204.325 198.559C204.109 198.521 203.997 198.396 203.957 198.293C203.921 198.199 203.915 198.031 204.062 197.866C204.205 197.704 204.626 197.437 204.683 197.395C205.247 196.974 205.838 196.546 206.145 195.892C206.181 195.815 206.238 195.682 206.259 195.552C206.262 195.526 206.262 195.487 206.262 195.466Z" fill="black"/>
<path fill-rule="evenodd" clip-rule="evenodd" d="M207.661 196.548C207.202 196.508 206.72 196.651 206.307 196.838C205.948 197.002 205.606 197.208 205.268 197.411C205.113 197.504 205.063 197.707 205.156 197.863C205.25 198.019 205.453 198.068 205.609 197.975C205.924 197.785 206.242 197.591 206.579 197.438C206.892 197.297 207.255 197.174 207.603 197.205C207.784 197.22 207.944 197.086 207.959 196.905C207.976 196.724 207.842 196.565 207.661 196.548Z" fill="black"/>
<path d="M162.57 118.151L169.316 103.909L170.066 99.2242L181.684 98.662L184.682 104.471L197.987 118.713L162.57 118.151Z" fill="white"/>
<path fill-rule="evenodd" clip-rule="evenodd" d="M192.208 150.218C158.359 125.093 168.454 103.994 168.454 103.994C168.559 103.775 168.821 103.681 169.039 103.785C169.259 103.889 169.352 104.151 169.248 104.37C169.248 104.37 159.545 125.004 192.958 149.682C193.098 149.785 193.163 149.961 193.126 150.13L183.652 193.437L182.782 193.341L192.208 150.218Z" fill="#678DDA"/>
<path fill-rule="evenodd" clip-rule="evenodd" d="M185.903 106.332C185.903 106.332 200.967 122.258 211.279 133.161C216.972 139.178 218.846 147.861 216.144 155.691C210.746 171.331 202.308 195.588 202.308 195.588L203.095 195.678C203.095 195.678 211.576 171.618 216.974 155.978C219.783 147.838 217.834 138.813 211.918 132.557C201.605 121.655 186.54 105.728 186.54 105.728C186.374 105.552 186.096 105.545 185.92 105.711C185.745 105.878 185.737 106.156 185.903 106.332Z" fill="#678DDA"/>
<path fill-rule="evenodd" clip-rule="evenodd" d="M153.252 139.357L168.133 104.886C168.23 104.664 168.488 104.561 168.711 104.657C168.934 104.753 169.036 105.012 168.94 105.234L153.95 139.956C153.883 140.11 153.735 140.213 153.568 140.221L113.237 142.184L113.17 141.245L153.252 139.357Z" fill="#678DDA"/>
<path fill-rule="evenodd" clip-rule="evenodd" d="M114.383 168.403C114.383 168.403 144.406 167.443 160.011 166.9C165.8 166.698 171.036 163.404 173.725 158.274L182.457 141.607C182.569 141.393 182.487 141.127 182.272 141.015C182.058 140.902 181.792 140.985 181.679 141.199L172.947 157.865C170.405 162.717 165.454 165.831 159.98 166.022C144.375 166.565 114.34 167.488 114.34 167.488L114.383 168.403Z" fill="#678DDA"/>
<path fill-rule="evenodd" clip-rule="evenodd" d="M192.227 152.804L192.782 153.088C192.782 153.088 196.188 154.415 198.345 154.043C198.576 154.003 198.759 153.822 198.8 153.59C198.842 153.358 198.734 153.126 198.533 153.006C196.682 151.915 192.782 149.62 192.782 149.62C192.782 149.62 192.433 152.939 192.227 152.804Z" fill="#6A8FDB"/>
<path fill-rule="evenodd" clip-rule="evenodd" d="M204.452 191.688C204.256 192.308 204.076 192.877 203.915 193.386C203.789 193.418 203.669 193.451 203.552 193.483C201.99 193.914 201.224 194.446 200.571 195.372L198.961 195.189C199.728 193.844 200.773 192.656 203.144 192.002C203.536 191.894 203.975 191.781 204.452 191.688ZM186.446 189.356C187.23 189.356 187.865 190.002 187.865 190.798C187.865 191.593 187.23 192.239 186.446 192.239C185.663 192.239 185.027 191.593 185.027 190.798C185.027 190.002 185.663 189.356 186.446 189.356ZM199.377 187.794C199.377 187.794 196.687 190.285 193.278 189.108C191.655 188.546 189.1 187.548 187.958 184.474C187.809 184.077 187.367 183.874 186.97 184.021C186.573 184.169 186.37 184.611 186.517 185.009C187.871 188.654 190.852 189.895 192.777 190.56C197.047 192.036 200.419 188.922 200.419 188.922C200.731 188.635 200.75 188.147 200.462 187.837C200.174 187.525 199.687 187.506 199.377 187.794ZM202.082 168.654C202.082 168.654 204.96 170.925 204.324 174.475C204.021 176.165 203.431 178.844 200.571 180.449C200.201 180.656 200.069 181.125 200.275 181.495C200.484 181.864 200.953 181.996 201.321 181.789C204.714 179.887 205.476 176.75 205.836 174.746C206.634 170.298 203.036 167.448 203.036 167.448C202.703 167.186 202.219 167.242 201.957 167.574C201.693 167.907 201.749 168.391 202.082 168.654ZM188.128 169.577C189.282 170.024 190.493 170.803 191.446 172.148C192.623 173.809 194.325 176.553 193.303 180.305C193.192 180.713 192.77 180.956 192.361 180.844C191.951 180.733 191.71 180.31 191.821 179.901C192.682 176.736 191.185 174.438 190.192 173.035C189.497 172.055 188.63 171.453 187.783 171.085L188.128 169.577ZM198.397 173.313C199.179 173.313 199.816 173.959 199.816 174.754C199.816 175.55 199.179 176.196 198.397 176.196C197.613 176.196 196.976 175.55 196.976 174.754C196.976 173.959 197.613 173.313 198.397 173.313ZM210.624 172.593C210.025 172.424 209.585 171.866 209.585 171.204C209.585 170.408 210.221 169.763 211.004 169.763C211.193 169.763 211.374 169.8 211.54 169.868C211.245 170.738 210.938 171.65 210.624 172.593ZM196.23 169.402C196.23 169.402 194.503 166.168 196.508 163.17C197.463 161.743 199.077 159.524 202.341 159.2C202.762 159.157 203.071 158.781 203.029 158.359C202.987 157.937 202.611 157.628 202.188 157.67C198.319 158.055 196.363 160.623 195.23 162.315C192.718 166.072 194.875 170.124 194.875 170.124C195.073 170.498 195.54 170.64 195.914 170.441C196.288 170.241 196.43 169.776 196.23 169.402ZM122.59 167.761C121.42 166.812 120.303 165.397 119.357 163.331C119.18 162.945 119.35 162.489 119.736 162.312C120.121 162.137 120.578 162.306 120.754 162.691C121.96 165.327 123.448 166.759 124.972 167.445C125.151 167.525 125.331 167.595 125.51 167.657L123.899 167.714L122.59 167.761ZM130.335 167.483C131.37 167.116 132.034 166.68 132.034 166.68C132.389 166.45 132.865 166.551 133.096 166.906C133.191 167.052 133.23 167.218 133.218 167.379L131.284 167.449L130.335 167.483ZM152.785 166.648C152.672 166.519 152.561 166.385 152.455 166.244C151.271 164.688 150.475 162.401 150.706 159.019C150.734 158.595 151.102 158.276 151.524 158.304C151.948 158.333 152.267 158.7 152.239 159.123C152.041 162.015 152.665 163.984 153.677 165.313C154.06 165.816 154.496 166.227 154.957 166.561C154.262 166.59 153.538 166.619 152.785 166.648ZM211.766 165.264C211.766 165.264 209.565 162.332 211.09 159.064C211.815 157.506 213.071 155.068 216.247 154.249C216.657 154.143 216.905 153.723 216.799 153.313C216.693 152.903 216.274 152.656 215.864 152.761C212.097 153.732 210.558 156.568 209.697 158.414C207.788 162.51 210.537 166.185 210.537 166.185C210.791 166.524 211.273 166.593 211.612 166.34C211.951 166.085 212.02 165.603 211.766 165.264ZM144.526 155.249C144.526 155.249 145.593 159.376 142.979 162.182C141.84 163.405 140.005 164.352 137.122 164.648C136.7 164.691 136.393 165.069 136.436 165.49C136.48 165.912 136.857 166.22 137.279 166.176C140.651 165.832 142.771 164.66 144.103 163.23C147.257 159.843 146.015 154.871 146.015 154.871C145.911 154.46 145.493 154.212 145.081 154.316C144.671 154.42 144.422 154.838 144.526 155.249ZM164.512 157.843C165.289 157.843 165.918 158.473 165.918 159.249C165.918 160.026 165.289 160.656 164.512 160.656C163.736 160.656 163.106 160.026 163.106 159.249C163.106 158.473 163.736 157.843 164.512 157.843ZM113.754 156.09L113.798 156.138C116.215 158.815 119.772 157.93 119.772 157.93C120.184 157.828 120.601 158.079 120.703 158.491C120.805 158.902 120.554 159.318 120.142 159.42C120.142 159.42 116.751 160.259 113.875 158.246L113.754 156.09ZM127.769 156.538C128.552 156.538 129.188 157.185 129.188 157.98C129.188 158.776 128.552 159.421 127.769 159.421C126.986 159.421 126.35 158.776 126.35 157.98C126.35 157.185 126.986 156.538 127.769 156.538ZM156.825 158.16C156.825 158.16 157.197 153.914 160.597 152.142C162.078 151.369 164.125 151.087 166.941 151.772C167.353 151.872 167.769 151.619 167.869 151.207C167.97 150.794 167.716 150.38 167.303 150.279C164.009 149.479 161.62 149.876 159.887 150.779C155.783 152.918 155.295 158.02 155.295 158.02C155.257 158.441 155.567 158.816 155.99 158.855C156.412 158.894 156.787 158.583 156.825 158.16ZM193.729 155.949C194.513 155.949 195.149 156.594 195.149 157.39C195.149 158.186 194.513 158.832 193.729 158.832C192.947 158.832 192.31 158.186 192.31 157.39C192.31 156.594 192.947 155.949 193.729 155.949ZM125.066 154.426C125.066 154.426 127.557 151.736 131.046 152.649C132.707 153.084 135.332 153.883 136.706 156.861C136.884 157.246 137.341 157.414 137.726 157.236C138.111 157.059 138.279 156.602 138.101 156.217C136.472 152.686 133.405 151.679 131.435 151.163C127.064 150.018 123.94 153.381 123.94 153.381C123.652 153.692 123.67 154.179 123.981 154.466C124.292 154.755 124.778 154.736 125.066 154.426ZM176.111 152.971C176.149 152.093 176.036 151.313 175.814 150.622C174.643 146.972 170.521 145.887 170.521 145.887C170.112 145.777 169.868 145.355 169.978 144.945C170.089 144.536 170.51 144.293 170.92 144.403C170.92 144.403 175.865 145.747 177.277 150.153C177.317 150.275 177.353 150.398 177.387 150.524L176.111 152.971ZM151.496 146.085C151.496 146.085 149.546 149.189 145.948 148.936C144.235 148.816 141.508 148.516 139.607 145.843C139.361 145.497 138.881 145.417 138.536 145.663C138.19 145.907 138.109 146.388 138.355 146.734C140.609 149.902 143.809 150.326 145.841 150.468C150.348 150.786 152.796 146.903 152.796 146.903C153.022 146.545 152.915 146.07 152.556 145.844C152.197 145.618 151.722 145.726 151.496 146.085ZM208.367 147.545C209.151 147.545 209.787 148.191 209.787 148.987C209.787 149.783 209.151 150.428 208.367 150.428C207.585 150.428 206.948 149.783 206.948 148.987C206.948 148.191 207.585 147.545 208.367 147.545ZM199.304 148.903C199.304 148.903 198.903 145.259 201.878 143.222C203.296 142.251 205.618 140.791 208.769 141.703C209.176 141.822 209.602 141.587 209.72 141.18C209.838 140.772 209.603 140.345 209.196 140.228C205.46 139.146 202.691 140.803 201.01 141.954C197.282 144.507 197.777 149.07 197.777 149.07C197.823 149.492 198.202 149.796 198.624 149.751C199.045 149.705 199.35 149.325 199.304 148.903ZM128.738 140.866C129.593 142.317 130.222 144.203 129.846 146.593C129.78 147.013 129.387 147.299 128.968 147.233C128.549 147.167 128.262 146.773 128.328 146.355C128.698 144.004 127.884 142.243 126.974 140.963L128.738 140.866ZM165.022 145.521C165.022 145.521 161.363 145.286 159.872 142.004C159.16 140.44 158.124 137.899 159.568 134.955C159.754 134.574 159.597 134.113 159.216 133.926C158.836 133.74 158.375 133.898 158.188 134.278C156.477 137.77 157.629 140.784 158.472 142.639C160.342 146.752 164.922 147.054 164.922 147.054C165.345 147.082 165.711 146.761 165.739 146.338C165.766 145.915 165.445 145.55 165.022 145.521ZM189.936 143.591C190.72 143.591 191.355 144.237 191.355 145.033C191.355 145.828 190.72 146.474 189.936 146.474C189.154 146.474 188.517 145.828 188.517 145.033C188.517 144.237 189.154 143.591 189.936 143.591ZM115.983 143.405C116.766 143.405 117.402 144.052 117.402 144.846C117.402 145.642 116.766 146.288 115.983 146.288C115.199 146.288 114.563 145.642 114.563 144.846C114.563 144.052 115.199 143.405 115.983 143.405ZM145.564 142.572C146.346 142.572 146.983 143.218 146.983 144.013C146.983 144.809 146.346 145.455 145.564 145.455C144.78 145.455 144.144 144.809 144.144 144.013C144.144 143.218 144.78 142.572 145.564 142.572ZM180.103 145.317C179.682 145.073 179.397 144.619 179.397 144.098C179.397 143.321 180.027 142.691 180.804 142.691C181.017 142.691 181.22 142.739 181.402 142.825L180.103 145.317ZM180.484 139.433C181.095 138.985 181.822 138.603 182.683 138.347C184.636 137.768 187.78 137.04 191.004 139.215C191.355 139.452 191.448 139.931 191.21 140.282C190.973 140.633 190.496 140.726 190.144 140.489C187.425 138.654 184.767 139.33 183.12 139.82C182.523 139.996 182.007 140.251 181.562 140.55L180.484 139.433ZM176.793 135.393C177.128 135.832 177.475 136.27 177.812 136.668C177.207 137.606 176.328 138.517 175.052 139.175C173.241 140.106 170.285 141.406 166.714 139.866C166.325 139.698 166.145 139.246 166.312 138.856C166.48 138.467 166.933 138.288 167.322 138.456C170.335 139.753 172.82 138.594 174.348 137.808C175.554 137.187 176.315 136.282 176.793 135.393ZM195.326 122.793C195.326 122.793 198.369 124.837 198.007 128.425C197.835 130.134 197.452 132.851 194.722 134.669C194.37 134.904 194.275 135.382 194.509 135.735C194.744 136.087 195.222 136.183 195.575 135.948C198.811 133.791 199.332 130.606 199.536 128.58C199.99 124.083 196.183 121.518 196.183 121.518C195.832 121.282 195.354 121.375 195.117 121.727C194.88 122.079 194.974 122.556 195.326 122.793ZM169.185 131.063C169.968 131.063 170.605 131.709 170.605 132.504C170.605 133.3 169.968 133.946 169.185 133.946C168.402 133.946 167.766 133.3 167.766 132.504C167.766 131.709 168.402 131.063 169.185 131.063ZM205.999 129.458C206.781 129.458 207.418 130.104 207.418 130.9C207.418 131.695 206.781 132.341 205.999 132.341C205.215 132.341 204.579 131.695 204.579 130.9C204.579 130.104 205.215 129.458 205.999 129.458ZM189.71 128.865C190.493 128.865 191.129 129.511 191.129 130.307C191.129 131.103 190.493 131.749 189.71 131.749C188.927 131.749 188.29 131.103 188.29 130.307C188.29 129.511 188.927 128.865 189.71 128.865ZM162.916 118.007C164.227 118.793 165.756 120.164 166.381 122.452C166.916 124.417 167.573 127.577 165.326 130.75C165.081 131.097 164.602 131.18 164.255 130.934C163.909 130.689 163.827 130.209 164.073 129.864C165.968 127.186 165.35 124.513 164.898 122.856C164.426 121.125 163.303 120.053 162.295 119.413L162.916 118.007ZM177.594 129.407C177.594 129.407 177.351 125.749 180.41 123.842C181.868 122.934 184.251 121.575 187.359 122.623C187.762 122.758 188.198 122.542 188.333 122.14C188.469 121.738 188.253 121.302 187.85 121.167C184.165 119.925 181.327 121.461 179.598 122.538C175.763 124.928 176.061 129.508 176.061 129.508C176.089 129.932 176.455 130.252 176.878 130.225C177.301 130.197 177.622 129.831 177.594 129.407ZM172.149 124.66C172.932 124.66 173.569 125.306 173.569 126.102C173.569 126.897 172.932 127.544 172.149 127.544C171.366 127.544 170.73 126.897 170.73 126.102C170.73 125.306 171.366 124.66 172.149 124.66ZM170.446 106.738C170.446 106.738 173.853 108.092 174.258 111.675C174.45 113.382 174.651 116.118 172.368 118.473C172.073 118.778 172.081 119.264 172.385 119.559C172.69 119.855 173.176 119.847 173.471 119.542C176.179 116.75 176.013 113.527 175.785 111.503C175.277 107.013 171.014 105.311 171.014 105.311C170.62 105.154 170.173 105.346 170.016 105.74C169.859 106.134 170.052 106.581 170.446 106.738ZM180.352 112.516C181.136 112.516 181.771 113.162 181.771 113.957C181.771 114.753 181.136 115.399 180.352 115.399C179.569 115.399 178.933 114.753 178.933 113.957C178.933 113.162 179.569 112.516 180.352 112.516ZM182.358 101.657L183.377 102.738C182.332 105.756 183.604 108.127 184.461 109.587C186.288 112.696 189.952 112.547 189.952 112.547C190.375 112.53 190.733 112.861 190.75 113.284C190.767 113.708 190.437 114.065 190.012 114.082C190.012 114.082 185.426 114.261 183.136 110.365C182.105 108.609 180.643 105.732 181.98 102.08C182.05 101.888 182.189 101.741 182.358 101.657Z" fill="#668CDA"/>
<path fill-rule="evenodd" clip-rule="evenodd" d="M167.047 75.5446C167.047 75.5446 174.169 72.6033 188.311 77.5871L187.124 79.1289L167.047 75.5446Z" fill="black"/>
<path fill-rule="evenodd" clip-rule="evenodd" d="M188.227 78.3275L167.479 75.5427C167.479 75.5427 154.282 83.2464 156.088 92.7489C157.697 101.22 168.835 103.004 168.835 103.004L188.227 78.3275Z" fill="#3768BE"/>
<path fill-rule="evenodd" clip-rule="evenodd" d="M158.85 77.1734C158.924 77.5535 159.234 77.7876 159.646 77.9017C160.143 78.0391 160.791 78.0035 161.129 77.976C163.142 77.8121 167.311 76.0643 167.311 76.0643C167.439 76.0104 167.499 75.8622 167.446 75.7338C167.391 75.6054 167.244 75.545 167.116 75.599C167.116 75.599 163.051 77.3129 161.088 77.4728C160.791 77.4971 160.219 77.5362 159.781 77.4151C159.571 77.3569 159.384 77.2712 159.346 77.0773C159.319 76.9405 159.187 76.851 159.05 76.8775C158.913 76.9041 158.824 77.0366 158.85 77.1734Z" fill="#3768BE"/>
<path fill-rule="evenodd" clip-rule="evenodd" d="M167.255 75.5806C165.198 75.3199 162.87 75.1066 160.82 75.6104C160.481 75.6939 159.818 75.8814 159.374 76.1858C159.003 76.4399 158.784 76.7769 158.861 77.1728C158.888 77.3096 159.02 77.3991 159.157 77.3726C159.294 77.3461 159.383 77.2135 159.357 77.0767C159.318 76.8764 159.472 76.7308 159.659 76.6022C160.052 76.3331 160.641 76.1744 160.941 76.1006C162.932 75.6112 165.193 75.8282 167.191 76.0815C167.33 76.099 167.456 76.0011 167.474 75.8629C167.492 75.7246 167.393 75.5982 167.255 75.5806Z" fill="#3768BE"/>
<path fill-rule="evenodd" clip-rule="evenodd" d="M167.125 75.6272C167.136 75.6118 167.15 75.5974 167.165 75.5845C167.27 75.4942 167.431 75.5071 167.521 75.6133C167.578 75.6802 167.632 75.7972 167.529 75.9379C167.513 75.9596 167.48 75.9941 167.432 76.0302C167.34 76.0986 167.157 76.2066 167.112 76.2327C166.711 76.4741 166.307 76.7094 165.901 76.9421C164.806 77.5693 163.714 78.2022 162.628 78.8455C159.476 80.7129 156.307 82.6261 153.397 84.8646C153.286 84.9496 153.127 84.9288 153.042 84.8184C152.957 84.708 152.979 84.5493 153.089 84.4644C156.015 82.2136 159.201 80.289 162.37 78.4112C163.458 77.7666 164.552 77.1325 165.65 76.5041C166.052 76.2732 166.454 76.0398 166.852 75.8002C166.887 75.7798 167.068 75.6634 167.125 75.6272ZM167.079 75.8172C167.086 75.8641 167.106 75.9047 167.136 75.9402C167.105 75.9039 167.087 75.8611 167.079 75.8172Z" fill="#3768BE"/>
<path fill-rule="evenodd" clip-rule="evenodd" d="M167.591 75.6475C166.651 76.1687 165.719 76.9673 164.813 77.5871C162.296 79.3081 159.856 81.1163 157.446 82.982C155.238 84.6902 152.804 86.1557 150.732 88.0319C150.628 88.1254 150.62 88.2852 150.714 88.3884C150.807 88.4917 150.967 88.4997 151.071 88.4062C153.134 86.5387 155.558 85.0815 157.754 83.3812C160.157 81.5216 162.59 79.7192 165.099 78.0039C165.992 77.3926 166.909 76.6028 167.835 76.089C167.957 76.0214 168.002 75.8677 167.934 75.7458C167.866 75.6241 167.713 75.5799 167.591 75.6475Z" fill="#3768BE"/>
<path d="M153.015 85.3596C153.352 85.3596 153.625 85.0874 153.625 84.7516C153.625 84.4158 153.352 84.1436 153.015 84.1436C152.678 84.1436 152.404 84.4158 152.404 84.7516C152.404 85.0874 152.678 85.3596 153.015 85.3596Z" fill="#3768BE"/>
<path d="M150.673 88.8366C151.01 88.8366 151.284 88.5644 151.284 88.2286C151.284 87.8928 151.01 87.6206 150.673 87.6206C150.336 87.6206 150.062 87.8928 150.062 88.2286C150.062 88.5644 150.336 88.8366 150.673 88.8366Z" fill="#3768BE"/>
<path fill-rule="evenodd" clip-rule="evenodd" d="M168.064 76.7629C168.046 76.803 167.99 76.9202 167.983 76.9333C167.83 77.2216 167.695 77.52 167.569 77.8205C167.219 78.6573 166.918 79.5651 166.97 80.4839C166.978 80.6382 166.992 80.8249 167.035 81.0009C167.069 81.142 167.119 81.2783 167.218 81.3682C167.321 81.4621 167.329 81.6218 167.235 81.7248C167.141 81.8277 166.981 81.8352 166.878 81.7414C166.564 81.4555 166.487 80.9054 166.465 80.5122C166.41 79.517 166.724 78.5314 167.104 77.6251C167.236 77.3109 167.377 76.999 167.536 76.6977C167.544 76.6832 167.58 76.5946 167.614 76.5305C167.645 76.473 167.68 76.428 167.703 76.4055C167.762 76.3488 167.825 76.3331 167.872 76.3301C168.01 76.321 168.131 76.4266 168.14 76.5657C168.145 76.6423 168.116 76.7131 168.064 76.7629Z" fill="white"/>
<path fill-rule="evenodd" clip-rule="evenodd" d="M167.494 81.4039C167.504 81.3969 167.524 81.3823 167.536 81.3701C167.558 81.3485 167.579 81.3228 167.599 81.2946C167.795 81.0188 167.927 80.5385 167.961 80.4043C168.289 79.1259 168.208 77.731 167.993 76.4405C167.97 76.3031 168.063 76.173 168.2 76.15C168.339 76.1271 168.468 76.22 168.491 76.3576C168.717 77.716 168.795 79.1843 168.45 80.53C168.401 80.722 168.169 81.4826 167.86 81.7589C167.754 81.8546 167.635 81.9059 167.517 81.9118C167.394 81.9177 167.261 81.8793 167.127 81.758C167.024 81.6641 167.017 81.5044 167.111 81.4014C167.205 81.2984 167.364 81.2911 167.467 81.3849C167.475 81.3917 167.486 81.3994 167.494 81.4039Z" fill="white"/>
<path fill-rule="evenodd" clip-rule="evenodd" d="M168.803 86.8762L173.925 102.403L180.104 100.383L185.646 106.261L188.297 104.239L191.918 108.523L205.309 96.3143C205.309 96.3143 199.924 87.7832 196.12 81.753C194.01 78.4105 189.747 77.1539 186.162 78.8181C179.162 82.0675 168.803 86.8762 168.803 86.8762Z" fill="#FFD274"/>
<path fill-rule="evenodd" clip-rule="evenodd" d="M195.159 91.4464C194.981 91.6439 194.803 91.843 194.597 92.0099C193.879 92.5913 193.166 93.1836 192.392 93.6875C189.629 95.4876 187.205 96.8221 184.295 98.2513C182.906 98.9342 181.496 99.5763 180.093 100.232C180.038 100.258 179.93 100.331 179.93 100.331L180.574 101.119C180.574 101.119 180.713 101.053 180.782 101.021C182.188 100.361 183.601 99.713 184.993 99.024C187.939 97.5665 190.388 96.2024 193.177 94.3562C194.182 93.6904 195.278 93.04 195.962 92.0471C196.33 91.515 195.549 90.9247 195.159 91.4464Z" fill="#E64B4D"/>
<path fill-rule="evenodd" clip-rule="evenodd" d="M196.557 86.2691C196.557 86.2691 198.098 94.5188 188.326 103.995C188.26 104.059 188.127 104.186 188.127 104.186L188.748 104.98C188.748 104.98 188.903 104.832 188.98 104.758C199.265 94.7832 197.255 85.5295 197.255 85.5295C197.197 85.2586 196.931 85.0853 196.66 85.1428C196.389 85.2003 196.499 85.9982 196.557 86.2691Z" fill="#E64B4D"/>
<path fill-rule="evenodd" clip-rule="evenodd" d="M196.243 82.2038C196.243 82.2038 197.491 89.367 192.787 94.7411C190.382 97.4899 186.486 99.8589 179.93 100.379L181.984 102.682C181.984 102.682 200.234 99.4776 197.005 83.2205C196.852 82.4484 196.576 82.3183 196.243 82.2038Z" fill="#3768BE"/>
<path fill-rule="evenodd" clip-rule="evenodd" d="M192.225 108.503C192.225 108.503 194.919 111.323 197.514 114.039C200.403 117.061 204.786 118.123 208.737 116.756V116.756C213.939 114.957 217.79 110.525 218.844 105.123C221.275 92.7795 223.497 81.0148 225.012 67.9446C225.066 67.4767 224.807 67.0286 224.375 66.8419C223.91 66.6446 223.31 66.6151 222.861 67.3937C222.861 67.3937 221.815 65.0735 220.154 66.4617C220.154 66.4617 218.93 64.4464 217.399 65.9435C217.399 65.9435 215.69 63.7237 214.435 66.4587C214.435 66.4587 211.825 65.4145 210.842 70.6479L205.57 96.2767L192.225 108.503Z" fill="white"/>
<path fill-rule="evenodd" clip-rule="evenodd" d="M202.909 108.729L205.786 96.2399L204.94 97.0381L202.186 108.591C202.149 108.79 202.28 108.983 202.479 109.021C202.678 109.059 202.872 108.928 202.909 108.729Z" fill="black"/>
<path d="M216.245 72.3402C216.189 72.3832 216.367 72.6517 216.386 72.69C216.573 73.0716 216.757 73.4562 216.936 73.842C217.087 74.1689 217.227 74.5011 217.35 74.8397C217.44 75.0842 217.523 75.3312 217.601 75.5798C217.669 75.7978 217.73 76.0179 217.784 76.2398C217.947 76.9114 218.221 78.5094 217.278 78.824C216.966 78.9278 216.73 78.6939 216.652 78.4087C216.528 77.9559 216.715 77.4648 216.965 77.0893C217.621 76.1048 218.948 75.6689 220.076 75.6118" stroke="black" stroke-width="0.00219619" stroke-miterlimit="2.28659" stroke-linecap="round" stroke-linejoin="round"/>
<path fill-rule="evenodd" clip-rule="evenodd" d="M214.434 66.4709C214.434 66.4709 216.387 67.5426 217.627 68.8512C217.918 69.1643 218.007 69.6186 217.854 70.0211C217.701 70.4238 217.334 70.7053 216.906 70.7475C216.797 70.756 216.674 70.7653 216.544 70.7733C215.836 70.8175 214.508 70.662 213.1 70.4447C212.921 70.4169 212.752 70.5403 212.725 70.7198C212.697 70.8994 212.82 71.0677 213 71.0955C214.465 71.3217 215.849 71.4765 216.585 71.4306C216.719 71.4222 216.844 71.4127 216.964 71.4033C216.966 71.4032 216.968 71.403 216.971 71.4028C217.648 71.336 218.229 70.8909 218.47 70.2543C218.711 69.6177 218.571 68.8994 218.106 68.4007C217.149 67.3899 215.539 66.4855 214.758 66.0775C214.722 66.0587 214.674 66.0268 214.674 66.0268C214.574 66.1776 214.434 66.4709 214.434 66.4709Z" fill="black"/>
<path fill-rule="evenodd" clip-rule="evenodd" d="M213.947 71.0027C213.947 71.0027 213.806 71.8224 213.978 72.5467C214.112 73.108 214.428 73.6029 215.045 73.7504C215.369 73.8277 216.505 73.9604 217.039 71.2528C217.074 71.0744 216.958 70.9013 216.78 70.8661C216.602 70.831 216.429 70.9472 216.394 71.1256C216.223 71.9862 216.004 72.5027 215.775 72.8046C215.534 73.1215 215.306 73.1358 215.198 73.1099C214.845 73.0255 214.696 72.7155 214.619 72.394C214.476 71.7944 214.596 71.1155 214.596 71.1155C214.627 70.9365 214.507 70.7658 214.327 70.7348C214.148 70.7036 213.978 70.8237 213.947 71.0027Z" fill="black"/>
<path fill-rule="evenodd" clip-rule="evenodd" d="M217.477 67.9272C217.55 67.3053 217.617 66.6151 217.675 65.8492C217.681 65.7898 217.669 65.7329 217.645 65.6826C217.641 65.6755 217.64 65.6574 217.634 65.6614C217.482 65.751 217.279 65.9489 217.279 65.9489C217.28 65.9451 217.049 65.6872 217.045 65.6954C217.031 65.7282 217.022 65.7619 217.019 65.7994C216.962 66.555 216.896 67.2358 216.823 67.8494C216.802 68.0299 216.93 68.1938 217.111 68.2153C217.291 68.2367 217.455 68.1076 217.477 67.9272Z" fill="black"/>
<path fill-rule="evenodd" clip-rule="evenodd" d="M216.834 71.0831C216.793 71.9674 216.838 72.7509 217.024 73.2652C217.187 73.7182 217.463 73.9897 217.832 74.0591C218.039 74.0984 218.361 74.1742 218.731 74.0076C219.064 73.8568 219.465 73.4908 219.822 72.5922C220.242 71.5414 220.638 69.6895 220.875 66.4512C220.883 66.3527 220.875 66.155 220.875 66.155C220.726 66.2062 220.569 66.3198 220.409 66.4507C220.353 66.3645 220.294 66.2861 220.231 66.2199C220.231 66.2199 220.221 66.3757 220.219 66.4031C219.989 69.5372 219.616 71.3313 219.211 72.3484C218.951 73.001 218.702 73.2979 218.459 73.4074C218.252 73.5011 218.07 73.4341 217.954 73.412C217.795 73.3824 217.713 73.2349 217.643 73.0416C217.479 72.5874 217.456 71.894 217.491 71.1129C217.5 70.9314 217.36 70.7773 217.178 70.7691C216.997 70.7609 216.842 70.9016 216.834 71.0831Z" fill="black"/>
<path fill-rule="evenodd" clip-rule="evenodd" d="M220.425 74.4795C219.746 74.4406 219.349 73.8479 219.219 72.924C218.97 71.1457 219.648 68.0709 219.657 67.3461C219.659 67.1645 219.808 67.0188 219.991 67.021C220.173 67.0233 220.318 67.1727 220.315 67.3544C220.307 68.0664 219.626 71.0857 219.871 72.8326C219.907 73.0946 219.964 73.3247 220.055 73.5054C220.152 73.6968 220.288 73.8234 220.499 73.8231C220.55 73.8231 220.601 73.8351 220.647 73.8585C220.657 73.8576 220.883 73.8336 221.103 73.4941C221.557 72.7959 222.088 70.6905 222.313 66.9793C222.314 66.9571 222.32 66.9052 222.32 66.9052C222.421 67.0348 222.517 67.2001 222.617 67.4012C222.719 67.2231 222.832 67.0608 222.983 66.956C222.983 66.956 222.979 67.0251 222.977 67.0596C222.739 70.9492 222.132 73.1192 221.655 73.8528C221.345 74.3304 221.036 74.4679 220.822 74.5071C220.647 74.5393 220.51 74.5097 220.425 74.4795Z" fill="black"/>
<path fill-rule="evenodd" clip-rule="evenodd" d="M222.988 74.5691C222.762 74.5267 222.572 74.3857 222.43 74.1449C222.268 73.8737 222.166 73.4452 222.121 72.9211C222 71.5139 222.261 69.3491 222.367 68.066C222.397 67.7018 223.054 67.6823 223.023 68.0516C222.916 69.3294 222.658 71.4708 222.777 72.8647C222.807 73.2093 222.858 73.5036 222.949 73.7156C222.995 73.8228 223.032 73.9139 223.12 73.9235C223.156 73.9274 223.19 73.9371 223.223 73.9523C223.232 73.9512 223.28 73.9443 223.325 73.9148C223.413 73.8577 223.507 73.7526 223.611 73.5796C223.891 73.116 224.531 70.7893 224.531 70.7893C224.525 71.0667 224.161 73.7299 224.109 73.9893C224.075 74.1578 223.957 74.2314 223.874 74.3133C223.63 74.5522 223.41 74.6047 223.257 74.6108C223.138 74.6156 223.046 74.5914 222.988 74.5691Z" fill="black"/>
<path fill-rule="evenodd" clip-rule="evenodd" d="M121.619 108.31L169.066 86.8704L174.188 102.398C174.188 102.398 142.258 115.821 129.919 117.671C129.919 117.671 115.962 118.661 105.149 115.3C105.149 115.3 103.745 114.698 104.573 114.004C104.573 114.004 105.662 113.21 106.764 113.058C106.764 113.058 104.683 111.945 103.874 111C103.785 110.884 103.774 110.725 103.847 110.599C104.035 110.281 104.566 109.805 106.037 110.157C106.037 110.157 105.097 109.495 104.591 108.61C104.54 108.517 104.54 108.405 104.59 108.312C104.787 107.947 105.612 107.258 109.045 108.446C109.045 108.446 107.941 107.433 107.542 106.361C107.469 106.162 107.501 105.94 107.628 105.771C107.755 105.602 107.96 105.509 108.171 105.524C109.185 105.735 111.265 106.347 114.647 108.172C114.647 108.172 113.823 105.327 117.207 106.082C117.207 106.082 118.959 106.63 121.619 108.31Z" fill="white"/>
<path fill-rule="evenodd" clip-rule="evenodd" d="M114.344 107.366C114.334 107.628 114.355 107.892 114.414 108.16C114.414 108.16 114.463 108.183 114.489 108.195C115.286 108.564 116.655 108.926 118.674 108.573C119.393 108.448 120.362 108.348 121.269 108.307C121.316 108.305 121.411 108.301 121.411 108.301L120.416 107.71C120.416 107.71 120.319 107.721 120.275 107.724C119.654 107.771 119.055 107.838 118.561 107.925C116.356 108.309 115.022 107.767 114.436 107.422C114.403 107.403 114.344 107.366 114.344 107.366Z" fill="#1D1A1A"/>
<path fill-rule="evenodd" clip-rule="evenodd" d="M109.1 108.454L107.9 108.08C107.9 108.08 107.986 108.192 108.035 108.253C108.774 109.165 110.495 110.803 114.21 112.498C114.375 112.574 114.571 112.501 114.646 112.335C114.722 112.17 114.649 111.975 114.483 111.899C111.749 110.651 110.148 109.451 109.237 108.581C109.165 108.512 109.1 108.454 109.1 108.454Z" fill="#1D1A1A"/>
<path fill-rule="evenodd" clip-rule="evenodd" d="M106.19 110.15C105.796 110.055 105.374 109.975 104.971 110.047L105.042 110.106C105.042 110.106 109.031 113.336 113.269 114.72C113.442 114.776 113.628 114.682 113.685 114.509C113.741 114.336 113.647 114.15 113.474 114.094C110.219 113.029 106.286 110.22 106.286 110.22L106.19 110.15Z" fill="#1D1A1A"/>
<path fill-rule="evenodd" clip-rule="evenodd" d="M107.063 113.057C106.761 113.117 106.441 113.196 106.145 113.31C106.145 113.31 106.18 113.329 106.199 113.34C107.187 113.889 110.642 115.754 114.43 117.127C114.498 117.151 114.633 117.2 114.633 117.2L117.87 117.538C117.87 117.538 117.727 117.472 117.671 117.458C113.467 116.387 108.952 114.084 107.106 113.087C107.085 113.076 107.063 113.057 107.063 113.057Z" fill="#1D1A1A"/>
<path fill-rule="evenodd" clip-rule="evenodd" d="M188.711 76.0428C188.711 76.0428 188.724 74.1319 188.737 72.2092C188.754 69.763 190.718 67.7762 193.163 67.7307C195.867 67.6882 198.994 68.294 199.971 71.0948C199.975 71.2921 198.558 71.9634 195.754 70.7873C195.754 70.7873 195.521 72.2549 193.295 73.441C193.295 73.441 192.821 72.3848 191.562 73.0932C191.167 73.3155 190.948 73.8547 191.407 74.9125C191.407 74.9125 191.315 75.5057 188.711 76.0428Z" fill="black"/>
<path fill-rule="evenodd" clip-rule="evenodd" d="M188.711 78.2549L188.779 75.9858C188.779 75.9858 190.674 75.6738 191.455 74.9838C191.455 74.9838 190.68 73.4936 191.705 72.9548C192.248 72.6695 193.051 72.826 193.321 73.4293C193.321 73.4293 195.634 72.0917 195.736 70.7482C195.761 70.8724 199.012 71.8502 199.994 71.1248C199.86 73.6489 199.878 77.85 198.58 79.074C198.065 79.5615 197.442 79.7566 196.579 79.7637L196.63 82.1655C196.63 82.1655 194.095 77.4668 188.711 78.2549Z" fill="white"/>
<path fill-rule="evenodd" clip-rule="evenodd" d="M196.606 79.7689C196.606 79.7689 194.718 79.1175 193.55 78.2383C193.516 78.207 193.463 78.2066 193.428 78.2373C193.393 78.268 193.386 78.3202 193.413 78.3582C194.291 79.558 195.499 80.4859 196.652 81.4605L196.606 79.7689Z" fill="black"/>
<path fill-rule="evenodd" clip-rule="evenodd" d="M190.504 74.7157C190.504 74.7157 190.993 75.5385 191.351 75.8656C191.454 75.9595 191.615 75.9523 191.708 75.8495C191.802 75.7465 191.795 75.5867 191.693 75.4928C191.371 75.2001 190.939 74.4592 190.939 74.4592C190.868 74.3391 190.713 74.2992 190.593 74.37C190.473 74.4408 190.433 74.5957 190.504 74.7157Z" fill="black"/>
<path fill-rule="evenodd" clip-rule="evenodd" d="M197.656 75.5978C197.382 75.6088 197.033 75.7682 196.936 76.0955C196.878 76.293 196.904 76.5708 197.152 76.9316C197.243 77.0629 197.407 77.2398 197.601 77.3505C197.753 77.4366 197.921 77.4826 198.09 77.46C198.27 77.4361 198.458 77.3374 198.624 77.0973C198.693 76.9976 198.668 76.8608 198.569 76.7919C198.469 76.7229 198.332 76.7479 198.263 76.8474C198.188 76.9559 198.113 77.0141 198.032 77.025C197.934 77.038 197.84 76.9886 197.758 76.93C197.653 76.8556 197.566 76.7581 197.514 76.6827C197.374 76.4783 197.325 76.3311 197.358 76.2193C197.397 76.0828 197.558 76.0411 197.674 76.0365C197.794 76.0317 197.889 75.9294 197.883 75.8083C197.879 75.6873 197.777 75.593 197.656 75.5978Z" fill="#DE735A"/>
<path fill-rule="evenodd" clip-rule="evenodd" d="M198.675 77.0983C198.759 76.9763 198.811 76.7838 198.799 76.5729C198.784 76.2971 198.662 75.9929 198.406 75.7987C198.237 75.6704 198.009 75.5867 197.707 75.5988C197.585 75.6036 197.491 75.7059 197.496 75.827C197.501 75.948 197.603 76.0423 197.725 76.0375C197.903 76.0302 198.041 76.0723 198.141 76.1483C198.289 76.2604 198.352 76.4389 198.361 76.5979C198.367 76.6975 198.355 76.7909 198.314 76.8484C198.246 76.948 198.27 77.0849 198.37 77.1538C198.47 77.2227 198.607 77.1978 198.675 77.0983Z" fill="#DE735A"/>
</svg>
