<svg width="44" height="44" viewBox="0 0 44 44" fill="none" xmlns="http://www.w3.org/2000/svg">
<path fill-rule="evenodd" clip-rule="evenodd" d="M22 44C34.1503 44 44 34.1503 44 22C44 9.84974 34.1503 0 22 0C9.84974 0 0 9.84974 0 22C0 34.1503 9.84974 44 22 44Z" fill="#D291FF"/>
<mask id="mask0" mask-type="alpha" maskUnits="userSpaceOnUse" x="0" y="0" width="44" height="44">
<path fill-rule="evenodd" clip-rule="evenodd" d="M22 44C34.1503 44 44 34.1503 44 22C44 9.84974 34.1503 0 22 0C9.84974 0 0 9.84974 0 22C0 34.1503 9.84974 44 22 44Z" fill="#FFE5E3"/>
</mask>
<g mask="url(#mask0)">
<path d="M9 38.8743L19.0375 59L32 42.5L29.8058 27.2808C28.9491 28.024 27.8482 28.4691 26.6478 28.4691H19.0375C16.351 28.4691 14.0892 26.5768 13.4072 24H10.6664L9 38.8743Z" fill="white"/>
</g>
<path d="M32.1362 15.5804V29.5443C32.1362 32.3115 29.8924 34.5553 27.1253 34.5553H19.2959C16.7282 34.5553 14.6474 32.4744 14.6474 29.9085V26.1568H8.89527C7.29573 26.1568 6 24.861 6 23.2615V21.1037C6 19.5042 7.29573 18.2085 8.89527 18.2085H11.3861C13.1869 18.2085 14.6474 19.6671 14.6474 21.4698V16.0947C14.6474 13.9937 16.3512 12.2898 18.4522 12.2898H28.8456C30.6629 12.2898 32.1362 13.7631 32.1362 15.5804Z" fill="white"/>
<path d="M35.0013 9.20783C35.0013 12.6375 32.0932 15.4175 28.5061 15.4175C27.3769 15.4175 26.3136 15.1411 25.3875 14.6561L21.0025 12.7821C20.6219 12.6192 20.2284 12.4966 19.8239 12.4142C19.4213 12.3319 19.0095 12.2898 18.5959 12.2898C16.4162 12.2898 14.6483 14.0577 14.6483 16.2392V21.2867H14.6428C14.5477 19.5701 13.1275 18.2084 11.387 18.2084H10.9844V13.2286C10.9844 10.833 12.928 8.88938 15.3236 8.88938H22.0201C22.194 5.60977 25.0307 3 28.5061 3C32.0932 3 35.0013 5.77999 35.0013 9.20783Z" fill="#FFDB43"/>
<path fill-rule="evenodd" clip-rule="evenodd" d="M9.90625 20.113C9.90625 19.8603 10.1111 19.6555 10.3638 19.6555C11.9305 19.6555 13.2005 20.9254 13.2005 22.4922C13.2005 22.7449 12.9957 22.9497 12.743 22.9497C12.4903 22.9497 12.2854 22.7449 12.2854 22.4922C12.2854 21.4308 11.4251 20.5705 10.3638 20.5705C10.1111 20.5705 9.90625 20.3657 9.90625 20.113Z" fill="#573240"/>
<path fill-rule="evenodd" clip-rule="evenodd" d="M23.433 26.8823L23.6592 27.4715C24.0179 28.4056 25.247 28.9204 26.4921 28.4424C26.728 28.3518 26.9927 28.4697 27.0832 28.7056C27.1738 28.9415 27.056 29.2061 26.8201 29.2967C25.4307 29.8301 23.8582 29.4509 23.0902 28.3407L22.633 28.7126C22.437 28.872 22.1488 28.8424 21.9893 28.6464C21.8299 28.4503 21.8595 28.1622 22.0556 28.0027L23.433 26.8823Z" fill="#573240"/>
<path d="M22.9855 18.7254H19.3002C18.8906 18.7254 18.5586 18.3935 18.5586 17.984V17.8267C18.5586 17.4171 18.8906 17.0853 19.3002 17.0853H22.9855C23.3951 17.0853 23.7271 17.4173 23.7271 17.8267V17.984C23.7271 18.3935 23.3951 18.7254 22.9855 18.7254Z" fill="#FF6E00"/>
<path fill-rule="evenodd" clip-rule="evenodd" d="M28.339 17.448C28.5917 17.448 28.7966 17.6528 28.7966 17.9055V24.7711C28.7966 25.6878 28.0533 26.431 27.1366 26.431H25.8638C25.6111 26.431 25.4062 26.2262 25.4062 25.9735C25.4062 25.7208 25.6111 25.516 25.8638 25.516H27.1366C27.5479 25.516 27.8815 25.1824 27.8815 24.7711V17.9055C27.8815 17.6528 28.0863 17.448 28.339 17.448Z" fill="#573240"/>
<path d="M21.3063 22.4951C21.7106 22.4951 22.0383 22.0269 22.0383 21.4494C22.0383 20.8718 21.7106 20.4036 21.3063 20.4036C20.902 20.4036 20.5742 20.8718 20.5742 21.4494C20.5742 22.0269 20.902 22.4951 21.3063 22.4951Z" fill="#573240"/>
<path d="M30.455 22.3645C30.8088 22.3645 31.0955 21.9548 31.0955 21.4494C31.0955 20.9441 30.8088 20.5344 30.455 20.5344C30.1012 20.5344 29.8145 20.9441 29.8145 21.4494C29.8145 21.9548 30.1012 22.3645 30.455 22.3645Z" fill="#573240"/>
<path d="M32.3215 18.7254H28.6361C28.2265 18.7254 27.8945 18.3935 27.8945 17.984V17.8267C27.8945 17.4171 28.2265 17.0853 28.6361 17.0853H32.3215C32.7311 17.0853 33.063 17.4173 33.063 17.8267V17.984C33.063 18.3935 32.7311 18.7254 32.3215 18.7254Z" fill="#FF6E00"/>
<path fill-rule="evenodd" clip-rule="evenodd" d="M14.8325 29.8164C15.0852 29.8164 15.2901 30.0213 15.2901 30.2739C15.2901 32.588 17.1661 34.464 19.4801 34.464H27.8594C28.1121 34.464 28.317 34.6689 28.317 34.9216C28.317 35.1743 28.1121 35.3791 27.8594 35.3791H19.4801C16.6607 35.3791 14.375 33.0934 14.375 30.2739C14.375 30.0213 14.5798 29.8164 14.8325 29.8164Z" fill="#573240"/>
</svg>
