<svg width="44" height="44" viewBox="0 0 44 44" fill="none" xmlns="http://www.w3.org/2000/svg">
<g clip-path="url(#clip0)">
<path fill-rule="evenodd" clip-rule="evenodd" d="M22 44C34.1503 44 44 34.1503 44 22C44 9.84974 34.1503 0 22 0C9.84974 0 0 9.84974 0 22C0 34.1503 9.84974 44 22 44Z" fill="#D291FF"/>
<mask id="mask0" mask-type="alpha" maskUnits="userSpaceOnUse" x="-1" y="-1" width="46" height="46">
<path fill-rule="evenodd" clip-rule="evenodd" d="M21.0128 43.9778C8.87473 43.4326 -0.523115 33.1509 0.02205 21.0129C0.567213 8.87483 10.8489 -0.523054 22.987 0.0221111C35.125 0.567274 44.5229 10.849 43.9777 22.9871C43.4326 35.1251 33.1508 44.523 21.0128 43.9778Z" fill="#FFE5E3"/>
</mask>
<g mask="url(#mask0)">
<path d="M3.92679 45.5336C8.15939 39.2233 7.56822 12.179 8.17084 11.1089C8.71625 10.1405 10.451 6.60856 16.9308 9.05909C20.7547 6.99486 18.5 1.61492 25.7331 2C31.5 2.30702 32.3003 11.6182 36.0008 16.5C39.6263 21.2828 42.0506 21.3417 41.8123 26.6479C41.4886 33.856 36.7163 43.1215 25.7343 45.9687C14.752 48.8162 3.92679 45.5336 3.92679 45.5336Z" fill="#573240"/>
<path d="M19.1851 40.1751L19.8133 26.1888L30.144 25.3687L36.1658 40.9378C36.1658 40.9378 35.6672 50.642 27.0272 50.2539C18.3872 49.8659 19.1851 40.1751 19.1851 40.1751Z" fill="white"/>
<path d="M11.6497 21.7165C11.8127 25.0539 12.6944 28.496 13.401 30.7882C13.8756 32.325 15.4416 33.2459 17.0167 32.9197L23.1849 31.6402C25.9916 31.0584 28.125 28.8371 28.6417 26.0836L32.1008 25.7364C34.5522 25.4906 36.3419 23.3046 36.0961 20.8532L36.0071 19.9595C35.7613 17.5081 33.5754 15.7185 31.122 15.9642L29.5958 16.1166C28.8396 16.1921 28.1681 16.514 27.6518 16.9953C26.6168 13.6558 24.6887 10.3037 21.1215 10.3586C20.5853 10.3677 20.0796 10.3958 19.6003 10.4428C19.3372 11.9914 18.5575 14.4613 16.263 15.9597C14.3331 17.2203 12.7611 17.3022 11.8359 17.1785C11.59 18.6047 11.5733 20.1527 11.6497 21.7165Z" fill="white"/>
<path fill-rule="evenodd" clip-rule="evenodd" d="M32.3687 18.2162C32.3418 17.9479 32.1024 17.7521 31.8341 17.779C30.0077 17.9619 28.6751 19.5907 28.8581 21.4174C28.885 21.6858 29.1243 21.8815 29.3927 21.8547C29.6611 21.8278 29.8568 21.5884 29.8299 21.3201C29.7008 20.0302 30.6417 18.88 31.9314 18.7508C32.1998 18.724 32.3955 18.4846 32.3687 18.2162Z" fill="#573240"/>
<path fill-rule="evenodd" clip-rule="evenodd" d="M19.9642 16.6609C21.6799 15.7025 23.6995 16.2195 24.5166 17.6821C24.6482 17.9175 24.9457 18.0018 25.1812 17.8702C25.4166 17.7387 25.5009 17.4411 25.3693 17.2057C24.2469 15.1967 21.5952 14.631 19.4879 15.8082C19.2524 15.9398 19.1682 16.2373 19.2997 16.4728C19.4313 16.7082 19.7288 16.7925 19.9642 16.6609Z" fill="#573240"/>
<path fill-rule="evenodd" clip-rule="evenodd" d="M15.7452 18.9945C15.0801 17.509 13.7772 16.6501 12.2552 16.1871C12.0487 16.1243 11.8305 16.2408 11.7677 16.4472C11.7049 16.6537 11.8213 16.8719 12.0278 16.9347C13.4151 17.3567 14.4892 18.1014 15.0321 19.3138C15.5796 20.5368 15.626 22.3216 14.7582 24.9062C14.6895 25.1108 14.7996 25.3323 15.0042 25.401C15.2087 25.4697 15.4302 25.3595 15.4989 25.155C16.3981 22.477 16.4056 20.4694 15.7452 18.9945Z" fill="#573240"/>
<path d="M13.1898 21.0949C13.1244 20.4415 13.3998 19.8789 13.8049 19.8383C14.21 19.7977 14.5914 20.2945 14.6569 20.9479C14.7223 21.6013 14.447 22.1639 14.0419 22.2045C13.6368 22.2451 13.2553 21.7483 13.1898 21.0949Z" fill="#573240"/>
<path d="M20.9112 19.9246C20.8457 19.2707 21.1213 18.7077 21.5267 18.667C21.9322 18.6264 22.3139 19.1236 22.3794 19.7775C22.4449 20.4315 22.1694 20.9945 21.7639 21.0351C21.3585 21.0757 20.9767 20.5785 20.9112 19.9246Z" fill="#573240"/>
<path fill-rule="evenodd" clip-rule="evenodd" d="M28.5453 25.0333C28.2759 25.0212 28.0476 25.2298 28.0355 25.4993C27.902 28.4725 25.7692 30.9766 22.8552 31.5816L16.4711 32.8508L16.4691 32.8512C15.1404 33.1267 13.8199 32.3492 13.4202 31.0543C13.3407 30.7966 13.0673 30.6522 12.8096 30.7317C12.5518 30.8113 12.4074 31.0847 12.4869 31.3424C13.0355 33.1196 14.8461 34.1842 16.6653 33.808L23.0496 32.5388L23.0516 32.5384C26.4039 31.8434 28.8577 28.9631 29.0113 25.5431C29.0234 25.2737 28.8148 25.0454 28.5453 25.0333Z" fill="#573240"/>
<path fill-rule="evenodd" clip-rule="evenodd" d="M20.4305 25.1509C20.2175 25.1161 20.0167 25.2606 19.9819 25.4735C19.7932 26.6294 18.7116 27.3036 17.4736 27.1016C17.2607 27.0669 17.0599 27.2113 17.0251 27.4243C16.9904 27.6372 17.1348 27.8381 17.3478 27.8728C18.9272 28.1305 20.4817 27.261 20.7531 25.5995C20.7879 25.3865 20.6434 25.1857 20.4305 25.1509Z" fill="#573240"/>
</g>
<circle cx="13" cy="21" r="2.65" stroke="#573240" stroke-width="0.7"/>
<circle cx="21" cy="20" r="2.65" stroke="#573240" stroke-width="0.7"/>
<path d="M16 20.5L18 20" stroke="#573240" stroke-width="0.7"/>
<path d="M23 19L28 17" stroke="#573240" stroke-width="0.7"/>
</g>
<defs>
<clipPath id="clip0">
<rect width="44" height="44" fill="white"/>
</clipPath>
</defs>
</svg>
