<svg width="44" height="44" viewBox="0 0 44 44" fill="none" xmlns="http://www.w3.org/2000/svg">
<path fill-rule="evenodd" clip-rule="evenodd" d="M22 44C34.1503 44 44 34.1503 44 22C44 9.84974 34.1503 0 22 0C9.84974 0 0 9.84974 0 22C0 34.1503 9.84974 44 22 44Z" fill="#FFE5E3"/>
<mask id="mask0" mask-type="alpha" maskUnits="userSpaceOnUse" x="0" y="0" width="44" height="44">
<path fill-rule="evenodd" clip-rule="evenodd" d="M22 44C34.1503 44 44 34.1503 44 22C44 9.84974 34.1503 0 22 0C9.84974 0 0 9.84974 0 22C0 34.1503 9.84974 44 22 44Z" fill="#FFE5E3"/>
</mask>
<g mask="url(#mask0)">
<path d="M39 37.0211C35.0548 31.8847 35.8661 13.7023 35.3121 12.8354C34.309 11.266 22.0442 4.97196 17.7638 5.00009C15.3124 5.01611 2 12.2646 2 20.7539C2 26.4609 6.3517 33.9515 17.1949 36.591C28.0384 39.2307 39 37.0211 39 37.0211Z" fill="#FFDB43"/>
<path d="M23.9978 40.2832V26.2827L13.7143 25L7 40.2832C7 40.2832 7.06267 50 15.7114 50C24.3601 50 23.9978 40.2832 23.9978 40.2832Z" fill="white"/>
<path d="M32.3541 22.1814C32.0416 25.5081 31.0062 28.9071 30.1975 31.1653C29.6544 32.6792 28.0487 33.529 26.4898 33.1324L20.3853 31.5775C17.6075 30.8703 15.5759 28.5555 15.1833 25.7816L11.7432 25.2795C9.30529 24.924 7.61554 22.66 7.97107 20.2221L8.10003 19.3332C8.45556 16.8953 10.7196 15.2056 13.1595 15.5611L14.6773 15.7818C15.4294 15.8912 16.0857 16.2429 16.58 16.7469C17.7638 13.4572 19.8403 10.195 23.4015 10.4098C23.9367 10.4431 24.4407 10.4938 24.9173 10.5622C25.1107 12.1211 25.7788 14.6234 28.0038 16.2233C29.8752 17.5693 31.4419 17.7216 32.3717 17.6396C32.5534 19.0754 32.5006 20.6225 32.3541 22.1814Z" fill="white"/>
<path fill-rule="evenodd" clip-rule="evenodd" d="M11.8118 17.7549C11.8507 17.488 12.0986 17.3031 12.3655 17.342C14.1818 17.6067 15.4399 19.2937 15.1752 21.1103C15.1363 21.3772 14.8884 21.562 14.6215 21.5231C14.3546 21.4842 14.1698 21.2364 14.2087 20.9695C14.3956 19.6867 13.5073 18.4955 12.2246 18.3085C11.9577 18.2696 11.7729 18.0217 11.8118 17.7549Z" fill="#573240"/>
<path fill-rule="evenodd" clip-rule="evenodd" d="M24.2727 16.7576C22.6018 15.7232 20.561 16.1491 19.679 17.5735C19.5371 17.8028 19.2361 17.8736 19.0067 17.7316C18.7774 17.5897 18.7066 17.2887 18.8486 17.0593C20.06 15.1027 22.7345 14.6566 24.7868 15.9272C25.0161 16.0692 25.087 16.3702 24.945 16.5995C24.803 16.8288 24.502 16.8996 24.2727 16.7576Z" fill="#573240"/>
<path fill-rule="evenodd" clip-rule="evenodd" d="M28.1169 18.3014C29.3203 17.2055 30.8579 16.939 32.4381 17.1229C32.6525 17.1479 32.806 17.3418 32.781 17.5562C32.7561 17.7705 32.5621 17.924 32.3478 17.8991C30.9074 17.7314 29.6252 17.9847 28.643 18.8791C27.6522 19.7813 26.8964 21.3988 26.6588 24.1149C26.64 24.3298 26.4505 24.4889 26.2356 24.4701C26.0206 24.4513 25.8616 24.2618 25.8804 24.0468C26.1265 21.2327 26.922 19.3894 28.1169 18.3014Z" fill="#573240"/>
<path d="M30.8414 21.4911C30.9361 20.8413 30.6862 20.2669 30.2833 20.2082C29.8805 20.1495 29.4771 20.6287 29.3824 21.2785C29.2877 21.9283 29.5375 22.5027 29.9404 22.5614C30.3433 22.6201 30.7467 22.1409 30.8414 21.4911Z" fill="#573240"/>
<path d="M23.1806 19.9755C23.2754 19.3252 23.0253 18.7504 22.6221 18.6916C22.2189 18.6329 21.8152 19.1124 21.7204 19.7628C21.6257 20.4131 21.8757 20.9879 22.2789 21.0467C22.6821 21.1055 23.0858 20.6259 23.1806 19.9755Z" fill="#573240"/>
<path d="M15.8146 25.225C15.8146 24.9553 15.596 24.7366 15.3263 24.7366C15.0565 24.7366 14.8379 24.9553 14.8379 25.225C14.8379 28.6484 17.16 31.636 20.4777 32.4807L20.4796 32.4811L24 33.5V32.4807L20.7168 31.5336C17.8329 30.7985 15.8146 28.2012 15.8146 25.225Z" fill="#573240"/>
<path fill-rule="evenodd" clip-rule="evenodd" d="M23.0854 24.3664C23.2997 24.3412 23.4938 24.4945 23.519 24.7088C23.6557 25.872 24.7059 26.594 25.9517 26.4478C26.166 26.4226 26.3602 26.5759 26.3853 26.7902C26.4105 27.0045 26.2571 27.1987 26.0428 27.2238C24.4534 27.4104 22.9395 26.472 22.7429 24.8C22.7178 24.5857 22.8711 24.3915 23.0854 24.3664Z" fill="#573240"/>
</g>
</svg>
