<svg width="44" height="44" viewBox="0 0 44 44" fill="none" xmlns="http://www.w3.org/2000/svg">
<path fill-rule="evenodd" clip-rule="evenodd" d="M22 44C34.1503 44 44 34.1503 44 22C44 9.84974 34.1503 0 22 0C9.84974 0 0 9.84974 0 22C0 34.1503 9.84974 44 22 44Z" fill="#F6ACC1"/>
<mask id="mask0" mask-type="alpha" maskUnits="userSpaceOnUse" x="0" y="0" width="44" height="44">
<path fill-rule="evenodd" clip-rule="evenodd" d="M22 44C34.1503 44 44 34.1503 44 22C44 9.84974 34.1503 0 22 0C9.84974 0 0 9.84974 0 22C0 34.1503 9.84974 44 22 44Z" fill="#FFE5E3"/>
</mask>
<g mask="url(#mask0)">
<path d="M9 43.8743L19.097 80L31 43.8743L28.9012 32.2808C28.0818 33.024 27.0288 33.4691 25.8805 33.4691H18.6011C16.0314 33.4691 13.8679 31.5768 13.2156 29H10.5939L9 43.8743Z" fill="white"/>
</g>
<path d="M4.99839 24.9575V25.9628C4.99839 28.2296 6.83812 30.0693 9.10497 30.0693H12.2996C13.0208 32.6799 15.4128 34.597 18.2538 34.597H26.302C27.5715 34.597 28.7357 34.1461 29.6417 33.3931C30.8039 32.4335 31.543 30.9812 31.543 29.3561V17.0682C31.543 14.0742 28.686 11.9067 25.8033 12.7133L18.077 14.8729C16.3803 15.3477 15.2062 16.8934 15.2062 18.6576V22.335C15.2062 23.229 14.5247 23.8926 13.73 23.982V23.6204C13.73 22.0906 12.4903 20.8509 10.9605 20.8509H9.10497C6.83812 20.8509 4.99839 22.6906 4.99839 24.9575Z" fill="white"/>
<path d="M8.6742 17.3126C8.6742 17.8848 9.12121 19.5199 9.51458 20.851H10.9609C12.4907 20.851 13.7304 22.0907 13.7304 23.6204V23.9622L13.7702 23.9761L13.7781 23.9781C13.7781 23.9781 13.786 23.9761 13.7999 23.9701H13.8019C13.8615 23.9522 14.0364 23.8966 14.3046 23.8092C14.8271 23.541 15.2066 23.0026 15.2066 22.335V18.6576C15.2066 16.8934 16.3807 15.3477 18.0774 14.8729L25.8037 12.7133C28.3328 12.0061 30.84 13.5855 31.4182 16.0053C31.4619 15.9616 31.5036 15.9179 31.5434 15.8762C34.9466 12.2683 35.0161 5.53534 30.4546 4.1049C25.8931 2.67645 8.6742 16.2914 8.6742 17.3126Z" fill="#573240"/>
<path d="M27.5106 20.0744H31.4323C31.7804 20.0744 32.0625 19.7923 32.0625 19.4442V18.7077C32.0625 18.3596 31.7804 18.0775 31.4323 18.0775H27.5106C27.1625 18.0775 26.8803 18.3596 26.8803 18.7077V19.4442C26.8803 19.7923 27.1625 20.0744 27.5106 20.0744Z" fill="#573240"/>
<path d="M19.1941 20.0744H23.0221C23.3702 20.0744 23.6523 19.7923 23.6523 19.4442V18.7077C23.6523 18.3596 23.3702 18.0775 23.0221 18.0775H19.1941C18.846 18.0775 18.5639 18.3596 18.5639 18.7077V19.4442C18.5639 19.7923 18.846 20.0744 19.1941 20.0744Z" fill="#573240"/>
<path d="M30.0676 23.9773C29.6541 23.9773 29.3188 23.4592 29.3188 22.82C29.3188 22.1809 29.6541 21.6628 30.0676 21.6628C30.4812 21.6628 30.8164 22.1809 30.8164 22.82C30.8164 23.4592 30.4812 23.9773 30.0676 23.9773Z" fill="#573240"/>
<path d="M21.8606 23.9773C21.447 23.9773 21.1118 23.4592 21.1118 22.82C21.1118 22.1809 21.447 21.6628 21.8606 21.6628C22.2741 21.6628 22.6094 22.1809 22.6094 22.82C22.6094 23.4592 22.2741 23.9773 21.8606 23.9773Z" fill="#573240"/>
<path fill-rule="evenodd" clip-rule="evenodd" d="M28.7715 18.6439C28.7715 18.4245 28.5936 18.2466 28.3741 18.2466C27.5609 18.2466 26.9016 18.9059 26.9016 19.7191V26.0329C26.9016 26.2805 26.7925 26.6393 26.5596 26.8536C26.4511 26.9534 26.3123 27.026 26.1273 27.046C25.938 27.0665 25.6763 27.0341 25.3255 26.8806C25.1245 26.7926 24.8902 26.8843 24.8023 27.0854C24.7143 27.2864 24.806 27.5207 25.007 27.6087C25.451 27.8029 25.8532 27.875 26.2127 27.8361C26.5766 27.7968 26.8717 27.6463 27.0976 27.4384C27.5337 27.0373 27.6963 26.4426 27.6963 26.0329V19.7191C27.6963 19.3447 27.9998 19.0413 28.3741 19.0413C28.5936 19.0413 28.7715 18.8634 28.7715 18.6439Z" fill="#573240"/>
<path fill-rule="evenodd" clip-rule="evenodd" d="M32.8211 20.4675C32.9222 20.4675 33.0041 20.5495 33.0041 20.6505V24.7812C33.0041 24.8822 32.9222 24.9642 32.8211 24.9642H27.8772C27.7762 24.9642 27.6942 24.8823 27.6942 24.7812V20.6505C27.6942 20.5493 27.7761 20.4675 27.8772 20.4675H32.8211ZM33.7988 20.6505C33.7988 20.1105 33.361 19.6728 32.8211 19.6728H27.8772C27.337 19.6728 26.8995 20.1107 26.8995 20.6505V24.7812C26.8995 25.3211 27.3373 25.7589 27.8772 25.7589H32.8211C33.361 25.7589 33.7988 25.3212 33.7988 24.7812V20.6505Z" fill="#FF6E00"/>
<path fill-rule="evenodd" clip-rule="evenodd" d="M23.4832 20.4667C23.5843 20.4667 23.6662 20.5487 23.6662 20.6497V24.7805C23.6662 24.8815 23.5843 24.9635 23.4832 24.9635H18.5393C18.4383 24.9635 18.3563 24.8815 18.3563 24.7805V20.6497C18.3563 20.5486 18.4382 20.4667 18.5393 20.4667H23.4832ZM24.4609 20.6497C24.4609 20.1098 24.0231 19.6721 23.4832 19.6721H18.5393C17.9991 19.6721 17.5616 20.1099 17.5616 20.6497V24.7805C17.5616 25.3204 17.9994 25.7582 18.5393 25.7582H23.4832C24.0231 25.7582 24.4609 25.3204 24.4609 24.7805V20.6497Z" fill="#FF6E00"/>
<path fill-rule="evenodd" clip-rule="evenodd" d="M24.0639 22.5085H27.2969V21.7138H24.0639V22.5085Z" fill="#FF6E00"/>
<path fill-rule="evenodd" clip-rule="evenodd" d="M12.6902 22.5085H17.959V21.7138H12.6902V22.5085Z" fill="#FF6E00"/>
<path fill-rule="evenodd" clip-rule="evenodd" d="M11.8817 30.3217C11.6248 30.4178 11.4944 30.704 11.5905 30.9609C12.5379 33.4936 14.9801 35.298 17.845 35.298H17.8537L17.8624 35.2977C19.3154 35.2468 21.5646 35.1605 23.5904 35.067C25.5996 34.9743 27.4306 34.8729 28.0169 34.7891C28.2884 34.7504 28.4771 34.4988 28.4383 34.2272C28.3995 33.9557 28.1479 33.767 27.8764 33.8058C27.3501 33.8809 25.5821 33.9806 23.5446 34.0747C21.5277 34.1678 19.2873 34.2537 17.8365 34.3046C15.4029 34.301 13.3269 32.7676 12.5209 30.6129C12.4248 30.356 12.1386 30.2256 11.8817 30.3217Z" fill="#573240"/>
<path fill-rule="evenodd" clip-rule="evenodd" d="M8.75011 23.5057C9.92156 23.5057 10.8713 24.4555 10.8713 25.6269C10.8713 25.8464 11.0492 26.0243 11.2687 26.0243C11.4881 26.0243 11.666 25.8464 11.666 25.6269C11.666 24.0166 10.3605 22.711 8.75011 22.711C8.53066 22.711 8.35276 22.8889 8.35276 23.1083C8.35276 23.3278 8.53066 23.5057 8.75011 23.5057Z" fill="#573240"/>
<path fill-rule="evenodd" clip-rule="evenodd" d="M27.1346 28.6281C27.0345 28.3597 26.7358 28.2233 26.4674 28.3234C25.3089 28.7555 23.9831 28.645 22.8655 28.0123C22.6163 27.8712 22.2998 27.9588 22.1587 28.2081C22.0176 28.4574 22.1052 28.7738 22.3545 28.9149C23.7303 29.6939 25.3753 29.8377 26.8298 29.2953C27.0982 29.1952 27.2346 28.8965 27.1346 28.6281Z" fill="#573240"/>
<rect x="21" y="32" width="6" height="3" fill="#573240"/>
</svg>
