<svg width="44" height="44" viewBox="0 0 44 44" fill="none" xmlns="http://www.w3.org/2000/svg">
<path fill-rule="evenodd" clip-rule="evenodd" d="M22 44C34.1503 44 44 34.1503 44 22C44 9.84974 34.1503 0 22 0C9.84974 0 0 9.84974 0 22C0 34.1503 9.84974 44 22 44Z" fill="#D291FF"/>
<mask id="mask0" mask-type="alpha" maskUnits="userSpaceOnUse" x="0" y="0" width="44" height="44">
<path fill-rule="evenodd" clip-rule="evenodd" d="M22 44C34.1503 44 44 34.1503 44 22C44 9.84974 34.1503 0 22 0C9.84974 0 0 9.84974 0 22C0 34.1503 9.84974 44 22 44Z" fill="#FFE5E3"/>
</mask>
<g mask="url(#mask0)">
<path d="M15.0894 11.6381C14.1949 13.2524 10.7357 7.90147 5.39684 12.4355C1.05065 16.1265 4.73448 19.8695 3.83754 20.9395C2.94059 22.0096 -4.81936 22.3569 -2.60389 30.241C-0.0385208 39.3696 13.067 37.1523 14.7304 35.5075C16.394 33.8628 27.597 36.4379 27.597 36.4379C27.597 36.4379 41.7723 37.8791 41.9963 27.854C42.1989 18.78 34.0057 19.7049 34.0057 19.2111C34.0057 18.7173 38.5814 14.3515 37.1856 8.83957C35.5549 2.39952 29.0811 1.92529 27.369 2.00766C25.6569 2.08965 20.4709 1.92511 15.0894 11.6381Z" fill="#573240"/>
<path d="M10.4461 41.3606L24.4229 83.819L32.898 49.3766L26.13 45.0345L26.6679 28.8801L18.2807 26.9859L10.4461 41.3606Z" fill="white"/>
</g>
<path d="M20.187 18.0202V26.0175C20.187 28.7414 21.8998 31.1708 24.4651 32.0861L28.9509 33.6866C30.9435 34.3976 33.0763 33.0574 33.3001 30.9536L34.2202 22.3124C34.494 19.7398 33.2564 17.2404 31.0439 15.899L27.3089 13.8267C26.5971 13.4317 25.7964 13.2245 24.9826 13.2245C22.3342 13.2249 20.187 15.3718 20.187 18.0202Z" fill="white"/>
<path fill-rule="evenodd" clip-rule="evenodd" d="M19.3321 25.7366C19.6018 25.7366 19.8205 25.9553 19.8205 26.225C19.8205 29.2012 21.8388 31.7985 24.7227 32.5336L31.0435 34.088L31.0454 34.0885C32.3604 34.4233 33.7145 33.7058 34.1718 32.4302C34.2629 32.1763 34.5425 32.0443 34.7964 32.1353C35.0503 32.2263 35.1823 32.506 35.0913 32.7598C34.4635 34.5106 32.6069 35.4929 30.8064 35.0355L24.4855 33.4811L24.4836 33.4807C21.1658 32.636 18.8438 29.6484 18.8438 26.225C18.8438 25.9553 19.0624 25.7366 19.3321 25.7366Z" fill="#573240"/>
<path fill-rule="evenodd" clip-rule="evenodd" d="M30.6799 28.5619C30.6564 28.2765 30.4059 28.0641 30.1204 28.0877C28.8882 28.1893 27.6421 27.7233 26.738 26.8111C26.5364 26.6077 26.208 26.6062 26.0046 26.8078C25.8011 27.0095 25.7997 27.3378 26.0013 27.5413C27.1142 28.6642 28.6585 29.249 30.2056 29.1214C30.4911 29.0979 30.7034 28.8474 30.6799 28.5619Z" fill="#573240"/>
<path fill-rule="evenodd" clip-rule="evenodd" d="M23.7001 19.8759C24.3804 19.1312 25.4792 18.9191 26.4854 19.3086C26.7526 19.4119 27.0529 19.2792 27.1563 19.0121C27.2597 18.7449 27.1269 18.4446 26.8598 18.3412C25.5086 17.8183 23.9402 18.0751 22.9343 19.1763C22.7411 19.3878 22.756 19.7158 22.9674 19.909C23.1789 20.1022 23.507 20.0873 23.7001 19.8759Z" fill="#573240"/>
<path fill-rule="evenodd" clip-rule="evenodd" d="M31.5449 19.3996C32.4301 18.9326 33.5282 19.098 34.3441 19.7936C34.562 19.9794 34.8894 19.9534 35.0752 19.7355C35.2611 19.5175 35.235 19.1901 35.0171 19.0043C33.9159 18.0654 32.3533 17.789 31.041 18.4927C31.037 18.4948 31.0329 18.497 31.0286 18.4993C31.0173 18.5056 31.0048 18.5128 30.9914 18.5213C30.9645 18.5382 30.9337 18.5596 30.9001 18.5867C30.8325 18.6411 30.7545 18.7169 30.6718 18.8216C30.5065 19.0309 30.3253 19.3519 30.168 19.8441C29.8553 20.8222 29.6241 22.5165 29.8302 25.4707C29.8501 25.7564 30.0979 25.9719 30.3837 25.952C30.6694 25.932 30.8849 25.6842 30.8649 25.3985C30.6634 22.5094 30.8995 20.9623 31.156 20.1599C31.2832 19.7619 31.4121 19.5578 31.4858 19.4646C31.5144 19.4283 31.5351 19.4082 31.5449 19.3996Z" fill="#573240"/>
<path d="M25.2846 22.9188C24.8906 22.9188 24.5712 22.4169 24.5712 21.7977C24.5712 21.1785 24.8906 20.6766 25.2846 20.6766C25.6786 20.6766 25.998 21.1785 25.998 21.7977C25.998 22.4169 25.6786 22.9188 25.2846 22.9188Z" fill="#573240"/>
<path d="M32.657 23.2312C32.2971 23.2312 32.0054 22.7727 32.0054 22.2072C32.0054 21.6417 32.2971 21.1832 32.657 21.1832C33.0168 21.1832 33.3086 21.6417 33.3086 22.2072C33.3086 22.7727 33.0168 23.2312 32.657 23.2312Z" fill="#573240"/>
<path d="M16.335 27.6445H19.3045C20.0046 27.6445 20.5723 27.0769 20.5723 26.3767V22.0505C20.5723 20.5896 19.3878 19.4053 17.9269 19.4053H16.335C14.2497 19.4053 12.5594 21.0956 12.5594 23.1809V23.8688C12.5594 25.9539 14.2499 27.6445 16.335 27.6445Z" fill="white"/>
<path fill-rule="evenodd" clip-rule="evenodd" d="M16.1163 21.9717C17.272 21.9717 18.2088 22.9085 18.2088 24.0642C18.2088 24.3507 18.441 24.5829 18.7275 24.5829C19.0139 24.5829 19.2461 24.3507 19.2461 24.0642C19.2461 22.3356 17.8449 20.9344 16.1163 20.9344C15.8298 20.9344 15.5976 21.1666 15.5976 21.453C15.5976 21.7395 15.8298 21.9717 16.1163 21.9717Z" fill="#573240"/>
</svg>
