<svg width="44" height="44" viewBox="0 0 44 44" fill="none" xmlns="http://www.w3.org/2000/svg">
<path fill-rule="evenodd" clip-rule="evenodd" d="M22 44C34.1503 44 44 34.1503 44 22C44 9.84974 34.1503 0 22 0C9.84974 0 0 9.84974 0 22C0 34.1503 9.84974 44 22 44Z" fill="#FFE5E3"/>
<path fill-rule="evenodd" clip-rule="evenodd" d="M22 44C34.1503 44 44 34.1503 44 22C44 9.84974 34.1503 0 22 0C9.84974 0 0 9.84974 0 22C0 34.1503 9.84974 44 22 44Z" fill="#E5E5E5"/>
<path d="M30.931 16.9462C33.7297 16.9462 36 14.5042 36 11.4897C36 8.47514 33.7297 6.03094 30.931 6.03094C29.8763 6.03094 28.8964 6.37885 28.0839 6.97338C27.8637 6.49775 27.5488 6.07938 27.137 5.73807C25.2785 4.20108 22.1781 4.8793 20.2096 7.25524C19.6679 7.91143 19.2693 8.62707 19.0161 9.35152C16.8648 7.73086 13.9317 7.48204 11.6262 8.95517C8.62052 10.8753 7.33739 15.4805 9.83599 19.2539L19.0161 24.3427L30.931 16.9462Z" fill="#FF6E00"/>
<path d="M12.2512 40.1291L10.7674 26.8307H29.9813L34.1465 41.2915C34.1465 41.2915 31.4318 43.9296 21.481 43.9296C11.5301 43.9296 12.2512 40.1291 12.2512 40.1291Z" fill="white"/>
<path d="M11.1655 19.2811C8.86397 19.2811 6.99865 21.1462 6.99865 23.4455C6.99865 24.5974 7.46547 25.6392 8.21877 26.3922C8.97185 27.1453 10.0134 27.6121 11.1655 27.6121H15.1444L15.6395 29.5829C16.3106 32.2528 18.713 34.1249 21.4648 34.1249H31.8135C34.054 34.1249 35.6916 32.0064 35.1286 29.8364L31.4356 15.6353C30.6896 12.7707 28.104 10.7718 25.1457 10.7718H21.3358C18.6751 10.7718 16.5825 13.0451 16.8008 15.6985L16.8664 16.4844C16.9908 17.9765 15.813 19.2552 14.3139 19.2552L11.1655 19.2811Z" fill="white"/>
<path d="M34.0629 30.1129L30.3702 15.9128L31.4356 15.6353L35.1286 29.8364C35.6916 32.0064 34.054 34.125 31.8135 34.125H21.4648C18.713 34.125 16.3106 32.2528 15.6395 29.5829L15.1444 27.6121H11.1655C10.0134 27.6121 8.97185 27.1453 8.21877 26.3922C7.46547 25.6392 6.99865 24.5974 6.99865 23.4456C6.99865 21.1462 8.86397 19.2811 11.1655 19.2811L14.3139 19.2552L14.3187 20.3562L11.17 20.3821H11.1655C9.47157 20.3821 8.09964 21.7548 8.09964 23.4456C8.09964 24.2937 8.44218 25.0588 8.99729 25.6137C9.5523 26.1687 10.3171 26.5112 11.1655 26.5112H16.0031L16.7073 29.3147C17.2554 31.4949 19.2176 33.024 21.4648 33.024H31.8135C33.3325 33.024 34.4448 31.5864 34.0629 30.1129Z" fill="#573240"/>
<path fill-rule="evenodd" clip-rule="evenodd" d="M10.7105 22.4122C11.4035 22.4122 11.9654 22.9741 11.9654 23.6671C11.9654 23.9712 12.2119 24.2176 12.5159 24.2176C12.8199 24.2176 13.0664 23.9712 13.0664 23.6671C13.0664 22.366 12.0116 21.3112 10.7105 21.3112C10.4065 21.3112 10.16 21.5577 10.16 21.8617C10.16 22.1657 10.4065 22.4122 10.7105 22.4122Z" fill="#573240"/>
<path fill-rule="evenodd" clip-rule="evenodd" d="M23.0713 26.1928C22.8479 26.2888 22.7445 26.5478 22.8404 26.7713C23.4882 28.2798 25.2364 28.9778 26.745 28.33C26.9685 28.234 27.0718 27.975 26.9759 27.7515C26.8799 27.528 26.6209 27.4247 26.3974 27.5206C25.3359 27.9765 24.1056 27.4853 23.6498 26.4237C23.5538 26.2002 23.2948 26.0969 23.0713 26.1928Z" fill="#573240"/>
<path d="M30.4503 22.2329C30.0345 22.2329 29.6974 21.712 29.6974 21.0694C29.6974 20.4268 30.0345 19.9059 30.4503 19.9059C30.8661 19.9059 31.2031 20.4268 31.2031 21.0694C31.2031 21.712 30.8661 22.2329 30.4503 22.2329Z" fill="#573240"/>
<path d="M22.669 22.2329C22.2532 22.2329 21.9162 21.712 21.9162 21.0694C21.9162 20.4268 22.2532 19.9059 22.669 19.9059C23.0848 19.9059 23.4219 20.4268 23.4219 21.0694C23.4219 21.712 23.0848 22.2329 22.669 22.2329Z" fill="#573240"/>
<path fill-rule="evenodd" clip-rule="evenodd" d="M28.1319 17.511C27.8886 17.511 27.6915 17.7082 27.6915 17.9514V24.3C27.6915 24.7176 27.3529 25.0562 26.9353 25.0562H26.2153C25.9721 25.0562 25.7749 25.2533 25.7749 25.4966C25.7749 25.7398 25.9721 25.9369 26.2153 25.9369H26.9353C27.8394 25.9369 28.5723 25.204 28.5723 24.3V17.9514C28.5723 17.7082 28.3751 17.511 28.1319 17.511Z" fill="#573240"/>
<path d="M28.3293 17.7816H32.1434C32.5291 17.7816 32.8418 17.4689 32.8418 17.0831V16.4723C32.8418 16.0865 32.5291 15.7738 32.1434 15.7738H28.3293C27.9435 15.7738 27.6308 16.0865 27.6308 16.4723V17.0831C27.6308 17.4689 27.9435 17.7816 28.3293 17.7816Z" fill="#FF6E00"/>
<path d="M20.0507 18.3086H23.7703C24.156 18.3086 24.4688 17.9959 24.4688 17.6101V16.9993C24.4688 16.6135 24.156 16.3008 23.7703 16.3008H20.0507C19.6649 16.3008 19.3522 16.6135 19.3522 16.9993V17.6101C19.3522 17.9959 19.6649 18.3086 20.0507 18.3086Z" fill="#FF6E00"/>
</svg>
