<svg width="44" height="44" viewBox="0 0 44 44" fill="none" xmlns="http://www.w3.org/2000/svg">
<path fill-rule="evenodd" clip-rule="evenodd" d="M22 44C34.1503 44 44 34.1503 44 22C44 9.84974 34.1503 0 22 0C9.84974 0 0 9.84974 0 22C0 34.1503 9.84974 44 22 44Z" fill="#E5E5E5"/>
<mask id="mask0" mask-type="alpha" maskUnits="userSpaceOnUse" x="0" y="0" width="44" height="44">
<path fill-rule="evenodd" clip-rule="evenodd" d="M22 44C34.1503 44 44 34.1503 44 22C44 9.84974 34.1503 0 22 0C9.84974 0 0 9.84974 0 22C0 34.1503 9.84974 44 22 44Z" fill="#FFE5E3"/>
</mask>
<g mask="url(#mask0)">
<path d="M7.08064 40.5C16.5806 33.5 12.9177 24 12.9177 24L28.0807 26.5L29.2448 40.5C29.2448 40.5 30.6641 46.5 21.5 46.5C12.3359 46.5 -2.41936 47.5 7.08064 40.5Z" fill="white"/>
<path d="M76.8242 76H43.1631C43.1631 76 32.6993 53.8601 30.6528 48.0701C29.5036 44.8222 29.4717 38.2832 29.6646 33.1654C31.8131 32.7582 34.722 30.4955 34.722 26.9171V15.9901C34.722 13.5948 32.7822 11.6531 30.393 11.6531C29.5897 11.6531 28.8214 11.8751 28.1584 12.2743C27.4969 12.6735 26.9407 13.2499 26.5661 13.9589L25.5667 15.8543C24.2279 18.3853 21.6044 19.9693 18.745 19.9693H14.9978C12.9273 19.9693 11.249 21.6508 11.249 23.725C11.249 24.0492 11.2904 24.3638 11.3669 24.664L9.43514 18.9394C9.14347 18.0739 9 17.1781 9 16.2887C9 14.5338 9.55627 12.7996 10.6258 11.3529C12.2531 9.15409 14.8575 7.90219 17.5878 8.00598L28.3799 8.40679C32.1064 8.5489 35.0535 12.2168 35.0535 15.9533C35.0535 15.9533 34.918 36.292 50.9094 40.268C65.8918 43.9934 78.6572 48.3543 76.8242 76Z" fill="#FF6E00"/>
</g>
<path d="M35 15.6233V27.2703C35 31.4967 31.1973 34 28.9084 34C22.0103 34 19.1245 29.5653 18.2736 27.8705H13.9925C12.891 27.8705 11.8916 27.4224 11.1693 26.6983C10.447 25.974 10 24.9737 10 23.8675C10 21.6568 11.7875 19.8644 13.9923 19.8644H17.9849C21.029 19.8644 23.8242 18.1763 25.249 15.4778L26.3142 13.4587C26.7133 12.7014 27.3052 12.088 28.0094 11.6614C28.7152 11.2366 29.5348 11 30.3891 11C32.9354 11.0002 35 13.0703 35 15.6233Z" fill="white"/>
<path d="M14.2173 19.6893H18.1043V19H14.2173C11.8883 19 10 20.9688 10 23.3973C10 24.6123 10.4725 25.7117 11.2352 26.5069C11.9979 27.3019 13.0539 27.7945 14.2175 27.7945H18.1842C19.1477 29.6869 22.08 34 28.739 34C29.9553 34 31.7499 33.2131 33 32C34.2595 30.7778 35 29.093 35 26.8423V21.9432L35 16.5L34.3389 26.8423C34.3389 28.8704 33.6487 30.3853 32.5 31.5C31.3419 32.6238 29.7509 33.3107 28.739 33.3107C22.1998 33.3107 19.4806 28.9519 18.6806 27.2949L18.5891 27.1053H14.2175C13.2362 27.1053 12.3463 26.6904 11.7026 26.0194C11.0588 25.3482 10.6611 24.4221 10.6611 23.3973C10.6611 21.3495 12.2534 19.6893 14.2173 19.6893Z" fill="#573240"/>
<path fill-rule="evenodd" clip-rule="evenodd" d="M13.8203 22.042C13.8203 21.8104 14.0081 21.6227 14.2397 21.6227C15.6406 21.6227 16.7909 22.7298 16.8445 24.1297C16.8533 24.3611 16.6729 24.5559 16.4414 24.5648C16.21 24.5737 16.0152 24.3932 16.0063 24.1618C15.97 23.2123 15.1899 22.4614 14.2397 22.4614C14.0081 22.4614 13.8203 22.2737 13.8203 22.042Z" fill="#573240"/>
<path fill-rule="evenodd" clip-rule="evenodd" d="M26.8327 25.7255C27.0511 25.6484 27.2906 25.763 27.3677 25.9814C27.5263 26.431 27.9274 26.8105 28.4535 27.038C28.9791 27.2651 29.5748 27.3155 30.0599 27.1649C30.2811 27.0962 30.516 27.2199 30.5847 27.4411C30.6534 27.6623 30.5297 27.8973 30.3085 27.9659C29.6024 28.1851 28.7996 28.1013 28.1208 27.8078C27.4425 27.5147 26.8331 26.9871 26.5767 26.2605C26.4997 26.0421 26.6143 25.8025 26.8327 25.7255Z" fill="#573240"/>
<path fill-rule="evenodd" clip-rule="evenodd" d="M33.2276 17.9419C33.3425 18.143 33.2727 18.3992 33.0716 18.5141C31.3548 19.4951 31.0014 21.1163 31.0274 21.7508L31.0278 21.7594V24.8728L30.1891 24.8729V21.7761C30.1564 20.889 30.6217 18.948 32.6554 17.7859C32.8565 17.6709 33.1127 17.7408 33.2276 17.9419Z" fill="#573240"/>
<path fill-rule="evenodd" clip-rule="evenodd" d="M23.8901 19.2701L23.618 18.951C23.4418 19.1012 23.4207 19.3659 23.5709 19.5422C23.7208 19.718 23.9847 19.7394 24.161 19.5902C24.161 19.5902 24.161 19.5902 24.161 19.5902C24.1611 19.5901 24.1613 19.59 24.1615 19.5898C24.1627 19.5888 24.1651 19.5869 24.1688 19.5839C24.1762 19.5779 24.1888 19.568 24.2065 19.5546C24.2419 19.528 24.2975 19.4879 24.3728 19.439C24.5233 19.341 24.7515 19.2083 25.052 19.0774C25.6522 18.8161 26.5407 18.5624 27.6791 18.6088C27.9106 18.6183 28.1058 18.4383 28.1152 18.2069C28.1247 17.9755 27.9447 17.7803 27.7133 17.7708C26.4288 17.7184 25.4143 18.0049 24.7172 18.3084C24.369 18.46 24.0999 18.6158 23.9154 18.7359C23.823 18.796 23.7517 18.8472 23.702 18.8847C23.6771 18.9034 23.6576 18.9187 23.6436 18.9299C23.6366 18.9356 23.631 18.9402 23.6267 18.9437L23.6213 18.9482L23.6194 18.9498L23.6187 18.9504L23.6183 18.9507C23.6182 18.9508 23.618 18.951 23.8901 19.2701Z" fill="#573240"/>
<path d="M26.4731 22.4472C26.8024 22.4472 27.0693 22.0052 27.0693 21.46C27.0693 20.9148 26.8024 20.4728 26.4731 20.4728C26.1439 20.4728 25.877 20.9148 25.877 21.46C25.877 22.0052 26.1439 22.4472 26.4731 22.4472Z" fill="#573240"/>
<path d="M32.7739 22.4472C33.1031 22.4472 33.3701 22.0052 33.3701 21.46C33.3701 20.9148 33.1031 20.4728 32.7739 20.4728C32.4446 20.4728 32.1777 20.9148 32.1777 21.46C32.1777 22.0052 32.4446 22.4472 32.7739 22.4472Z" fill="#573240"/>
</svg>
