<svg width="40" height="40" viewBox="0 0 40 40" fill="none" xmlns="http://www.w3.org/2000/svg">
<g clip-path="url(#clip0)">
<path d="M11.1709 24.2428C10.7709 26.2428 11.5703 35.4094 12.0703 39.7428H32.6708V34.2427C32.8375 31.2427 33.9703 24.8427 33.5703 23.2427C33.0703 21.2427 32.1708 21.7427 31.1708 20.7427C30.1708 19.7427 29.6708 19.2427 29.6708 18.7427C29.6708 18.2427 30.7774 16.9498 30.0703 16.2427C29.0703 15.2427 27.9703 15.2427 27.5703 15.2427C27.1703 15.2427 26.0703 15.576 25.5703 15.7427L24.6708 14.2427C24.6708 14.076 24.4708 13.7427 23.6708 13.7427C22.8708 13.7427 21.6708 14.7427 21.1708 15.2427L19.6708 14.2427C19.1708 14.076 17.9708 13.8427 17.1708 14.2427C16.3708 14.6427 16.1708 16.7427 16.1708 17.7427C15.9706 17.576 15.5703 17.1427 15.5703 16.7427C15.5703 16.2427 13.5703 15.7427 12.5703 16.2427C11.7703 16.6427 11.6373 18.7427 11.6708 19.7428C11.6708 20.4094 11.5709 22.2428 11.1709 24.2428Z" fill="#E6E5E4"/>
<path fill-rule="evenodd" clip-rule="evenodd" d="M33.6897 40.1493L32.2841 40.1332C32.2841 40.1332 32.7585 28.2328 32.7643 23.5584C32.7673 22.1066 31.7424 20.8559 30.3192 20.5713C29.0747 20.3262 27.6692 20.1408 26.6706 20.3464C26.2578 20.4313 25.9122 20.5534 25.8273 20.8986C25.7482 21.2257 25.8332 21.576 26.1992 21.9722C26.7321 22.5519 27.7365 23.1645 29.4496 23.8536C29.8097 23.9982 29.9854 24.4079 29.839 24.7678C29.6955 25.1276 29.2856 25.3025 28.9254 25.1575C26.9312 24.3558 25.7863 23.6 25.1655 22.925C24.372 22.0661 24.29 21.2755 24.4627 20.566C24.6706 19.7095 25.3646 19.1803 26.3866 18.9698C27.5374 18.7329 29.1597 18.9098 30.5916 19.1926C32.6765 19.609 34.1728 21.4377 34.1699 23.5602C34.1641 28.2345 33.6897 40.1423 33.6897 40.1423V40.1493Z" fill="#8B8B8B"/>
<path fill-rule="evenodd" clip-rule="evenodd" d="M21.2606 29.1017C21.612 28.6487 22.0131 28.2235 22.4348 27.8285C24.6544 25.7509 27.4978 24.5023 27.4978 24.5023C27.855 24.3465 28.0161 23.9316 27.8609 23.5764C27.7028 23.2212 27.2899 23.0595 26.9326 23.2153C26.9326 23.2153 23.8667 24.5623 21.4743 26.8024C20.9062 27.3357 20.3792 27.9193 19.9311 28.5462C19.202 28.3134 18.4436 28.1483 17.8023 27.8798C17.4451 27.7298 17.0322 27.8982 16.8828 28.256C16.7335 28.6136 16.9004 29.0259 17.2576 29.1761C17.8433 29.4215 18.5226 29.5858 19.1961 29.7878C18.7628 30.692 18.5256 31.6648 18.5812 32.6894C18.6368 33.7325 19.0937 34.3978 19.6676 34.7658C20.549 35.3339 21.7759 35.1957 22.5783 34.461C23.3865 33.719 23.8375 32.3366 22.7423 30.5014C22.3675 29.8736 21.8521 29.4317 21.2606 29.1017ZM20.5051 30.2868C20.9151 30.5038 21.2782 30.7925 21.5359 31.2224C22.1449 32.2431 22.0776 33.0124 21.6266 33.4253C21.2957 33.7289 20.7921 33.8188 20.426 33.584C20.1654 33.4165 20.0102 33.0891 19.9839 32.6147C19.9399 31.7878 20.1449 31.0098 20.5051 30.2868Z" fill="#8B8B8B"/>
<path fill-rule="evenodd" clip-rule="evenodd" d="M29.3193 25.0316C28.8035 25.6504 28.2582 26.307 27.0985 26.153C25.607 25.9557 24.6675 24.7476 24.6675 22.6873C24.6675 22.2995 24.9829 21.9844 25.3705 21.9844C25.7582 21.9844 26.0735 22.2995 26.0735 22.6873C26.0735 23.855 26.4382 24.6479 27.2825 24.7598C27.8147 24.8305 28.002 24.417 28.2385 24.1322C28.4882 23.834 28.9317 23.7936 29.2306 24.0418C29.5263 24.2896 29.569 24.7333 29.3193 25.0316Z" fill="#8B8B8B"/>
<path fill-rule="evenodd" clip-rule="evenodd" d="M23.4303 26.1739C21.9159 26.1739 20.6412 24.7832 20.6412 22.7107V16.6252C20.6412 14.5732 21.9783 13 23.4763 13C24.9744 13 26.3114 14.5732 26.3114 16.6252C26.3114 16.6155 26.3574 19.9601 26.3574 19.9601C26.3607 20.3479 26.0519 20.6672 25.6642 20.6727C25.2766 20.6781 24.9579 20.3673 24.9514 19.9794L24.9054 16.6348C24.9054 16.6315 24.9054 16.6281 24.9054 16.6252C24.9054 15.9811 24.7247 15.3956 24.4159 14.9733C24.1728 14.638 23.8475 14.4054 23.4763 14.4054C23.1018 14.4054 22.7799 14.638 22.5368 14.9733C22.228 15.3956 22.0472 15.9811 22.0472 16.6252V22.7107C22.0472 23.8662 22.586 24.7685 23.4303 24.7685C23.818 24.7685 24.1334 25.0832 24.1334 25.471C24.1334 25.8588 23.818 26.1739 23.4303 26.1739Z" fill="#8B8B8B"/>
<path fill-rule="evenodd" clip-rule="evenodd" d="M15.9997 16.6252C15.9997 14.5732 17.3368 13 18.8348 13C20.3329 13 21.6699 14.5732 21.6699 16.6252V22.7107C21.6699 24.7626 20.3329 26.3358 18.8348 26.3358C17.3368 26.3358 15.9997 24.7626 15.9997 22.7107V16.6252ZM17.4057 16.6252V22.7107C17.4057 23.3543 17.5864 23.9403 17.8953 24.3626C18.1384 24.6974 18.4603 24.93 18.8348 24.93C19.206 24.93 19.5313 24.6974 19.7744 24.3626C20.0832 23.9403 20.2639 23.3543 20.2639 22.7107V16.6252C20.2639 15.9811 20.0832 15.3956 19.7744 14.9733C19.5313 14.638 19.206 14.4054 18.8348 14.4054C18.4603 14.4054 18.1384 14.638 17.8953 14.9733C17.5864 15.3956 17.4057 15.9811 17.4057 16.6252Z" fill="#8B8B8B"/>
<path fill-rule="evenodd" clip-rule="evenodd" d="M10.9997 18.9902C10.9997 17.2977 12.3368 16 13.8348 16C15.3329 16 16.6699 17.2977 16.6699 18.9902V24.0098C16.6699 25.7023 15.3329 27 13.8348 27C12.3368 27 10.9997 25.7023 10.9997 24.0098V18.9902ZM12.4057 18.9902V24.0098C12.4057 24.5407 12.5864 25.024 12.8953 25.3724C13.1384 25.6486 13.4603 25.8404 13.8348 25.8404C14.206 25.8404 14.5313 25.6486 14.7744 25.3724C15.0832 25.024 15.2639 24.5407 15.2639 24.0098V18.9902C15.2639 18.459 15.0832 17.976 14.7744 17.6276C14.5313 17.3511 14.206 17.1592 13.8348 17.1592C13.4603 17.1592 13.1384 17.3511 12.8953 17.6276C12.5864 17.976 12.4057 18.459 12.4057 18.9902Z" fill="#8B8B8B"/>
<path d="M25.07 17.8678C25.07 15.8159 26.4071 14.2427 27.9051 14.2427C29.4032 14.2427 30.7402 15.8159 30.7402 17.8678V19.6616L29.3342 19.55V17.8678C29.3342 17.2238 29.1535 16.6383 28.8447 16.2159C28.6016 15.8807 28.2763 15.6481 27.9051 15.6481C27.5306 15.6481 27.2087 15.8807 26.9656 16.2159C26.6568 16.6383 26.476 17.2238 26.476 17.8678V19.4198L25.0703 19.7427L25.07 17.8678Z" fill="#8B8B8B"/>
<path d="M11.5698 23.7427C11.0716 28.7427 11.5685 38.2427 12.0706 39.7427" stroke="#8B8B8B" stroke-width="1.4"/>
<path fill-rule="evenodd" clip-rule="evenodd" d="M10.9922 7.7375L12.569 6.64105L14.5057 10.0534L13.3389 11.0186L10.9922 7.7375Z" fill="#E5E5E4"/>
<path fill-rule="evenodd" clip-rule="evenodd" d="M18.6888 5.40035L18.9333 9.08799L20.3879 9.24195L20.8811 4.85753L18.6888 5.40035Z" fill="#E5E5E4"/>
<path fill-rule="evenodd" clip-rule="evenodd" d="M26.2371 5.74095L25.4002 9.74096L26.5862 10.6464L28.5088 6.30241L26.2371 5.74095Z" fill="#E5E5E4"/>
</g>
<defs>
<clipPath id="clip0">
<rect width="40" height="40" fill="white"/>
</clipPath>
</defs>
</svg>
