<svg width="32" height="32" viewBox="0 0 32 32" fill="none" xmlns="http://www.w3.org/2000/svg">
<path fill-rule="evenodd" clip-rule="evenodd" d="M2.3335 12C1.78121 12 1.3335 12.4477 1.3335 13V13.6667C1.3335 14.219 1.78121 14.6667 2.3335 14.6667H27.0002C27.5524 14.6667 28.0002 14.219 28.0002 13.6667V13C28.0002 12.4477 27.5524 12 27.0002 12H2.3335ZM10.3335 18.6667C9.78121 18.6667 9.3335 19.1144 9.3335 19.6667V20.3333C9.3335 20.8856 9.78121 21.3333 10.3335 21.3333H27.0002C27.5524 21.3333 28.0002 20.8856 28.0002 20.3333V19.6667C28.0002 19.1144 27.5525 18.6667 27.0002 18.6667H10.3335Z" fill="black"/>
<path fill-rule="evenodd" clip-rule="evenodd" d="M25.3333 18.6667C28.2789 18.6667 30.6667 16.2789 30.6667 13.3333C30.6667 10.3878 28.2789 8 25.3333 8C22.3878 8 20 10.3878 20 13.3333C20 16.2789 22.3878 18.6667 25.3333 18.6667Z" fill="white"/>
<path fill-rule="evenodd" clip-rule="evenodd" d="M25.3334 16.8889C27.2971 16.8889 28.8889 15.2971 28.8889 13.3334C28.8889 11.3697 27.2971 9.77783 25.3334 9.77783C23.3697 9.77783 21.7778 11.3697 21.7778 13.3334C21.7778 15.2971 23.3697 16.8889 25.3334 16.8889Z" fill="#12C35A"/>
</svg>
