<svg width="32" height="32" viewBox="0 0 32 32" fill="none" xmlns="http://www.w3.org/2000/svg">
<path d="M16.6571 20.0143C16.6937 20.1002 16.7132 20.1924 16.7143 20.2857C16.7133 20.4509 16.6551 20.6107 16.5496 20.7378C16.4441 20.8649 16.2978 20.9515 16.1356 20.9829C15.9734 21.0142 15.8054 20.9884 15.6601 20.9098C15.5148 20.8312 15.4012 20.7046 15.3388 20.5517C15.2763 20.3987 15.2688 20.2289 15.3175 20.071C15.3662 19.9132 15.4681 19.7771 15.6059 19.6859C15.7436 19.5947 15.9087 19.5541 16.0731 19.571C16.2374 19.5879 16.3908 19.6613 16.5071 19.7786C16.5702 19.848 16.621 19.9277 16.6571 20.0143ZM26 8.14286V23.8571C26 24.4255 25.7742 24.9705 25.3724 25.3724C24.9705 25.7742 24.4255 26 23.8571 26H8.14286C7.57454 26 7.02949 25.7742 6.62763 25.3724C6.22576 24.9705 6 24.4255 6 23.8571V8.14286C6 7.57454 6.22576 7.02949 6.62763 6.62763C7.02949 6.22576 7.57454 6 8.14286 6H23.8571C24.4255 6 24.9705 6.22576 25.3724 6.62763C25.7742 7.02949 26 7.57454 26 8.14286ZM24.5714 8.14286C24.5714 7.95342 24.4962 7.77174 24.3622 7.63778C24.2283 7.50383 24.0466 7.42857 23.8571 7.42857H8.14286C7.95342 7.42857 7.77174 7.50383 7.63778 7.63778C7.50383 7.77174 7.42857 7.95342 7.42857 8.14286V23.8571C7.42857 24.0466 7.50383 24.2283 7.63778 24.3622C7.77174 24.4962 7.95342 24.5714 8.14286 24.5714H23.8571C24.0466 24.5714 24.2283 24.4962 24.3622 24.3622C24.4962 24.2283 24.5714 24.0466 24.5714 23.8571V8.14286ZM16.5143 11.0429C16.1005 10.9682 15.6753 10.9859 15.269 11.0945C14.8628 11.2032 14.4856 11.4002 14.1643 11.6714C13.8449 11.9392 13.588 12.2736 13.4116 12.6512C13.2351 13.0288 13.1434 13.4404 13.1429 13.8571C13.1429 14.0466 13.2181 14.2283 13.3521 14.3622C13.486 14.4962 13.6677 14.5714 13.8571 14.5714C14.0466 14.5714 14.2283 14.4962 14.3622 14.3622C14.4962 14.2283 14.5714 14.0466 14.5714 13.8571C14.5713 13.649 14.6166 13.4434 14.7042 13.2546C14.7918 13.0659 14.9195 12.8985 15.0786 12.7643C15.2364 12.6318 15.421 12.535 15.6197 12.4805C15.8184 12.4261 16.0265 12.4152 16.2298 12.4488C16.4331 12.4823 16.6268 12.5595 16.7975 12.6749C16.9682 12.7903 17.1119 12.9413 17.2187 13.1175C17.3256 13.2936 17.393 13.4909 17.4165 13.6956C17.44 13.9003 17.4189 14.1076 17.3547 14.3034C17.2905 14.4992 17.1847 14.6788 17.0446 14.8299C16.9044 14.9809 16.7333 15.0999 16.5429 15.1786C16.1632 15.3418 15.8408 15.6145 15.6169 15.9618C15.393 16.3092 15.2777 16.7154 15.2857 17.1286V18.1429C15.2857 18.3323 15.361 18.514 15.4949 18.6479C15.6289 18.7819 15.8106 18.8571 16 18.8571C16.1894 18.8571 16.3711 18.7819 16.5051 18.6479C16.639 18.514 16.7143 18.3323 16.7143 18.1429V17.1286C16.7087 16.9982 16.7416 16.8691 16.8089 16.7573C16.8762 16.6455 16.975 16.556 17.0929 16.5C17.698 16.2506 18.1992 15.8009 18.5125 15.2262C18.8259 14.6515 18.9324 13.9867 18.8143 13.3429C18.7057 12.7731 18.4283 12.2491 18.0182 11.839C17.608 11.4288 17.0841 11.1515 16.5143 11.0429V11.0429Z" fill="#777777"/>
</svg>
