<svg width="32" height="32" viewBox="0 0 32 32" fill="none" xmlns="http://www.w3.org/2000/svg">
<rect opacity="0.01" width="32" height="32" fill="#D8D8D8"/>
<path d="M24.1867 10.3749H21.2333C21.7195 9.64127 21.9134 8.73545 21.7734 7.85236C21.6334 6.96928 21.1707 6.17952 20.4848 5.65303C19.7989 5.12655 18.9447 4.90542 18.1059 5.03724C17.2672 5.16906 16.5109 5.64328 16 6.35786C15.4891 5.64328 14.7328 5.16906 13.8941 5.03724C13.0553 4.90542 12.2011 5.12655 11.5152 5.65303C10.8293 6.17952 10.3666 6.96928 10.2266 7.85236C10.0866 8.73545 10.2805 9.64127 10.7667 10.3749H7.81333C7.33256 10.3768 6.87202 10.5794 6.53227 10.9386C6.19252 11.2977 6.00117 11.7843 6 12.2919V23.0853C6.00117 23.5928 6.1926 24.079 6.53241 24.4378C6.87222 24.7966 7.33277 24.9988 7.81333 25H24.1867C24.668 24.9988 25.1292 24.796 25.4692 24.4362C25.8091 24.0764 26 23.5889 26 23.0806V12.2872C25.9977 11.7804 25.8058 11.2951 25.4662 10.9369C25.1265 10.5787 24.6667 10.3767 24.1867 10.3749ZM24.6667 23.0806C24.6649 23.2145 24.6138 23.3424 24.5242 23.437C24.4345 23.5317 24.3134 23.5856 24.1867 23.5875H7.81333C7.68657 23.5856 7.56548 23.5317 7.47583 23.437C7.38618 23.3424 7.33506 23.2145 7.33333 23.0806V20.5536H24.6667V23.0806ZM7.33333 19.1457V12.2919C7.33448 12.1576 7.38535 12.0292 7.47506 11.934C7.56477 11.8389 7.68619 11.7846 7.81333 11.7827L14.3822 11.8602L12.6244 13.7162C12.5589 13.7806 12.5064 13.8583 12.47 13.9447C12.4335 14.031 12.4139 14.1242 12.4124 14.2187C12.4108 14.3133 12.4273 14.4071 12.4608 14.4948C12.4943 14.5824 12.5442 14.6621 12.6075 14.7289C12.6708 14.7958 12.7462 14.8484 12.8292 14.8839C12.9123 14.9193 13.0012 14.9366 13.0907 14.935C13.1802 14.9333 13.2685 14.9126 13.3503 14.8741C13.432 14.8357 13.5056 14.7802 13.5667 14.711L16 12.1511L18.3289 14.6195C18.3908 14.685 18.4642 14.737 18.5451 14.7725C18.626 14.808 18.7127 14.8263 18.8003 14.8264C18.8879 14.8265 18.9747 14.8084 19.0556 14.7731C19.1366 14.7378 19.2102 14.686 19.2722 14.6207C19.3342 14.5554 19.3835 14.4778 19.4171 14.3924C19.4507 14.307 19.468 14.2154 19.4681 14.1229C19.4683 14.0304 19.4511 13.9388 19.4177 13.8533C19.3842 13.7678 19.3352 13.6901 19.2733 13.6247L17.6022 11.8602L24.1867 11.7827C24.3138 11.7846 24.4352 11.8389 24.5249 11.934C24.6146 12.0292 24.6655 12.1576 24.6667 12.2919V19.1457H7.33333ZM18.5644 6.42591C19.0259 6.42385 19.4723 6.59875 19.8208 6.9181C20.1692 7.23744 20.3961 7.67952 20.4591 8.16216C20.5221 8.6448 20.417 9.13518 20.1634 9.54216C19.9097 9.94915 19.5247 10.2451 19.08 10.3749H16.6667V8.43912C16.6667 8.38046 16.6667 8.32415 16.6667 8.26783C16.7078 7.76593 16.9254 7.29848 17.2766 6.95756C17.6279 6.61664 18.0873 6.42697 18.5644 6.42591ZM11.5289 8.43912C11.5341 7.92381 11.7264 7.43025 12.0659 7.06009C12.4055 6.68993 12.8666 6.47137 13.3542 6.44941C13.8418 6.42746 14.3189 6.60379 14.6871 6.94208C15.0552 7.28037 15.2866 7.75486 15.3333 8.26783C15.3333 8.32415 15.3333 8.38046 15.3333 8.43912V10.3749H12.92C12.5199 10.2566 12.1674 10.0035 11.9162 9.65397C11.665 9.30447 11.529 8.87784 11.5289 8.43912Z" fill="#777777"/>
</svg>
