<svg width="40" height="40" viewBox="0 0 40 40" fill="none" xmlns="http://www.w3.org/2000/svg">
<g clip-path="url(#clip0)">
<path d="M11.1084 24.0001C10.7084 26.0001 11.5078 35.1667 12.0078 39.5001H32.6083V34C32.775 31 33.4078 24.1 33.0078 22.5C32.5078 20.5 32.1083 21.5 31.1083 20.5C30.1083 19.5 29.6083 19 29.6083 18.5C29.6083 18 30.1083 12.5 30.1083 11.5C30.1083 10.5 31.1083 6 31.1083 4.5C31.1083 3 30.1083 2 29.1083 2C28.1083 2 27.1083 4 27.1083 4.5C27.1083 4.9 25.4416 11 24.6083 14C24.6083 13.8333 24.4083 13.5 23.6083 13.5C22.8083 13.5 21.6083 14.5 21.1083 15L19.6083 14C19.1083 13.8333 17.9083 13.6 17.1083 14C16.3083 14.4 16.1083 16.5 16.1083 17.5C15.775 15.6667 15.0083 11.4001 14.6083 9.00008C14.1083 6.00008 12.1084 7.00008 11.6083 7.50008C11.2083 7.90008 11.1083 9.33341 11.1084 10.0001L11.6083 19.5001C11.6083 20.1667 11.5084 22.0001 11.1084 24.0001Z" fill="#FFD47B"/>
<path fill-rule="evenodd" clip-rule="evenodd" d="M33.6272 39.9066L32.2216 39.8905C32.2216 39.8905 32.696 27.9901 32.7018 23.3157C32.7048 21.8639 31.6799 20.6132 30.2567 20.3286C29.0122 20.0835 27.6067 19.8981 26.6081 20.1037C26.1953 20.1886 25.8497 20.3107 25.7648 20.656C25.6857 20.9831 25.7707 21.3333 26.1367 21.7295C26.6696 22.3093 27.674 22.9219 29.3871 23.6109C29.7472 23.7555 29.9229 24.1652 29.7765 24.5251C29.633 24.885 29.2231 25.0598 28.8629 24.9148C26.8687 24.1131 25.7238 23.3573 25.103 22.6823C24.3095 21.8235 24.2275 21.0328 24.4002 20.3233C24.6081 19.4668 25.3021 18.9377 26.3241 18.7271C27.4749 18.4902 29.0972 18.6671 30.5291 18.95C32.614 19.3664 34.1103 21.1951 34.1074 23.3175C34.1016 27.9919 33.6272 39.8996 33.6272 39.8996V39.9066Z" fill="#FF6E00"/>
<path fill-rule="evenodd" clip-rule="evenodd" d="M21.1981 28.859C21.5495 28.406 21.9506 27.9808 22.3723 27.5858C24.5919 25.5082 27.4353 24.2596 27.4353 24.2596C27.7925 24.1038 27.9536 23.6889 27.7984 23.3337C27.6403 22.9785 27.2274 22.8169 26.8701 22.9726C26.8701 22.9726 23.8042 24.3196 21.4118 26.5598C20.8437 27.093 20.3167 27.6766 19.8686 28.3035C19.1395 28.0707 18.3811 27.9056 17.7398 27.6371C17.3826 27.4871 16.9697 27.6555 16.8203 28.0134C16.671 28.3709 16.8379 28.7832 17.1951 28.9334C17.7808 29.1788 18.4601 29.3431 19.1336 29.5451C18.7003 30.4494 18.4631 31.4221 18.5187 32.4467C18.5743 33.4898 19.0312 34.1551 19.6051 34.5232C20.4865 35.0912 21.7134 34.953 22.5158 34.2183C23.324 33.4763 23.775 32.0939 22.6798 30.2587C22.305 29.6309 21.7896 29.1891 21.1981 28.859ZM20.4426 30.0441C20.8526 30.2611 21.2157 30.5498 21.4734 30.9797C22.0824 32.0005 22.0151 32.7697 21.5641 33.1826C21.2332 33.4863 20.7296 33.5762 20.3635 33.3413C20.1029 33.1738 19.9477 32.8464 19.9214 32.3721C19.8774 31.5451 20.0824 30.7671 20.4426 30.0441Z" fill="#FF6E00"/>
<path fill-rule="evenodd" clip-rule="evenodd" d="M29.2568 24.7889C28.741 25.4077 28.1957 26.0643 27.036 25.9104C25.5445 25.7131 24.605 24.505 24.605 22.4446C24.605 22.0568 24.9204 21.7417 25.308 21.7417C25.6957 21.7417 26.011 22.0568 26.011 22.4446C26.011 23.6123 26.3757 24.4053 27.22 24.5172C27.7522 24.5878 27.9395 24.1743 28.176 23.8896C28.4257 23.5913 28.8692 23.5509 29.1681 23.7991C29.4638 24.0469 29.5065 24.4907 29.2568 24.7889Z" fill="#FF6E00"/>
<path fill-rule="evenodd" clip-rule="evenodd" d="M23.3678 25.9312C21.8534 25.9312 20.5787 24.5406 20.5787 22.468V16.3825C20.5787 14.3305 21.9158 12.7573 23.4138 12.7573C24.9119 12.7573 26.2489 14.3305 26.2489 16.3825C26.2489 16.3728 26.2949 19.7174 26.2949 19.7174C26.2982 20.1052 25.9894 20.4245 25.6017 20.43C25.2141 20.4354 24.8954 20.1246 24.8889 19.7367L24.8429 16.3922C24.8429 16.3888 24.8429 16.3854 24.8429 16.3825C24.8429 15.7385 24.6622 15.1529 24.3534 14.7306C24.1103 14.3953 23.785 14.1627 23.4138 14.1627C23.0393 14.1627 22.7174 14.3953 22.4743 14.7306C22.1655 15.1529 21.9847 15.7385 21.9847 16.3825V22.468C21.9847 23.6236 22.5235 24.5259 23.3678 24.5259C23.7555 24.5259 24.0709 24.8405 24.0709 25.2283C24.0709 25.6162 23.7555 25.9312 23.3678 25.9312Z" fill="#FF6E00"/>
<path fill-rule="evenodd" clip-rule="evenodd" d="M15.9372 16.3825C15.9372 14.3305 17.2743 12.7573 18.7723 12.7573C20.2704 12.7573 21.6074 14.3305 21.6074 16.3825V22.468C21.6074 24.5199 20.2704 26.0932 18.7723 26.0932C17.2743 26.0932 15.9372 24.5199 15.9372 22.468V16.3825ZM17.3432 16.3825V22.468C17.3432 23.1116 17.5239 23.6976 17.8328 24.1199C18.0759 24.4547 18.3978 24.6874 18.7723 24.6874C19.1435 24.6874 19.4688 24.4547 19.7119 24.1199C20.0207 23.6976 20.2014 23.1116 20.2014 22.468V16.3825C20.2014 15.7385 20.0207 15.1529 19.7119 14.7306C19.4688 14.3953 19.1435 14.1627 18.7723 14.1627C18.3978 14.1627 18.0759 14.3953 17.8328 14.7306C17.5239 15.1529 17.3432 15.7385 17.3432 16.3825Z" fill="#FF6E00"/>
<path d="M16.6074 18.2573L15.1074 9.75732C15.1074 8.92399 14.8074 7.15732 13.6074 6.75732C12.1074 6.25732 11.1074 7.25732 11.1074 8.75732C11.1074 10.2573 11.6074 19 11.6074 20C11.6074 21 11.1074 22.7573 11.1074 25.2573C11.1074 27.2573 11.7741 35.7573 12.1074 39.7573" stroke="#FF6E00" stroke-width="1.4"/>
<path d="M25.1068 14.6275C25.1068 13.1275 26.6077 6.62736 27.1077 4.62736C27.6077 2.62736 28.607 1.62753 30.1071 2.12736C31.6076 2.62731 31.1075 5.62744 31.1075 5.62744C30.1071 13 30.1071 17.5 30.1071 19.5" stroke="#FF6E00" stroke-width="1.3"/>
<path fill-rule="evenodd" clip-rule="evenodd" d="M19.5499 6.06512L21.7731 2.32312C21.958 2.00951 22.3652 1.90629 22.6778 2.09309C22.9904 2.2799 23.0938 2.68636 22.9067 2.99998L20.1288 7.67665C20.0099 7.87514 19.7986 7.99776 19.5675 7.99997C19.3363 8.00218 19.1228 7.88374 18.9996 7.68745L16.1005 3.01079C15.9068 2.7007 16.0015 2.29247 16.3119 2.09971C16.6222 1.90695 17.0294 2.00223 17.2209 2.31254L19.5499 6.06512Z" fill="#A8C1F2"/>
<path fill-rule="evenodd" clip-rule="evenodd" d="M34.8945 16.6341L38.7284 15.0675C39.0606 14.9324 39.4387 15.0911 39.5745 15.4227C39.7101 15.7545 39.5499 16.1329 39.2196 16.2691L34.4476 18.2183C34.2425 18.3015 34.0092 18.275 33.8288 18.148C33.6466 18.0198 33.5438 17.8098 33.5526 17.5884L33.7784 12.4072C33.7939 12.0494 34.0957 11.7706 34.4535 11.7862C34.8113 11.8017 35.0894 12.1048 35.0739 12.4626L34.8945 16.6341Z" fill="#A8C1F2"/>
<path fill-rule="evenodd" clip-rule="evenodd" d="M4.98245 19.1039L1.14855 17.5372C0.816338 17.4021 0.438219 17.5608 0.302472 17.8925C0.16685 18.2243 0.327066 18.6026 0.657388 18.7388L5.42939 20.688C5.6345 20.7712 5.86775 20.7447 6.04818 20.6178C6.23037 20.4896 6.33315 20.2796 6.32433 20.0581L6.09856 14.877C6.08301 14.5192 5.78128 14.2403 5.42347 14.2559C5.06566 14.2714 4.78754 14.5745 4.80309 14.9323L4.98245 19.1039Z" fill="#A8C1F2"/>
</g>
<defs>
<clipPath id="clip0">
<rect width="40" height="40" fill="white"/>
</clipPath>
</defs>
</svg>
