<svg width="1400" height="301" viewBox="0 0 1400 301" fill="none" xmlns="http://www.w3.org/2000/svg">
<g clip-path="url(#clip0)">
<rect width="1400" height="301" fill="white"/>
<path d="M-6.75378 169.925V301.676L424.926 302.456L386.273 260.816C356.61 234.82 318.518 220.484 279.079 220.473H229.865C209.745 220.473 190.229 221.338 174.577 208.633L151.857 190.194C135.718 177.087 115.564 169.93 94.7757 169.925H-6.75378Z" fill="#F5BBBB"/>
<path d="M214.139 301.692L239.531 221.949L258.979 301.692H214.139Z" fill="#59221D"/>
<path d="M247.73 255.569L239.985 266.136V301.567H238.296V293.101L224.229 269.998L224.907 267.866L238.296 289.855V225.821L239.529 221.949L239.985 223.817V263.363L247.206 253.428L247.73 255.569Z" fill="white"/>
<path d="M869.049 301.53L882.718 267.555L893.786 301.53H869.049Z" fill="#59221D"/>
<path d="M996.637 232.084L1013.46 301.527H972.74L996.637 232.084Z" fill="#F3B304"/>
<path d="M1008.73 281.997L997.48 292.602V301.432H995.791V281.676L986.52 261.478L987.317 259.164L995.791 277.626V234.537L996.635 232.084L997.48 235.57V290.277L1008.27 280.105L1008.73 281.997Z" fill="white"/>
<path d="M806.914 197.015L846.32 301.736H772.014L806.914 197.015Z" fill="#59221D"/>
<path d="M819.739 231.098L807.887 247.651V301.729C807.873 301.978 807.764 302.212 807.583 302.382C807.401 302.553 807.162 302.648 806.913 302.648C806.664 302.648 806.424 302.553 806.243 302.382C806.062 302.212 805.953 301.978 805.939 301.729V280.393L785.531 261.16L786.207 259.133L805.932 277.714V199.94L806.905 197.015L807.881 199.602V244.303L818.905 228.902L819.739 231.098Z" fill="#F3B304"/>
<path d="M853.561 248.175L879.419 302.128H823.555L853.561 248.175Z" fill="#F3B304"/>
<path d="M862.853 267.562L854.406 281.393V302.125H852.717V249.692L853.561 248.175L854.406 249.935V278.157L861.985 265.748L862.853 267.562Z" fill="white"/>
<path d="M950.373 218.287L972.854 302.516H924.346L950.373 218.287Z" fill="#59221D"/>
<path d="M960.539 256.383L961.093 258.454V258.458L951.345 267.94V302.358H949.397V288.541L933.85 271.754L934.488 269.69L949.397 285.669V221.442L950.373 218.287L951.345 221.936V265.221L960.539 256.383Z" fill="#F3B304"/>
<path d="M1036.27 -41.8597V1.09443L1034.58 1.94575V-14.8137L1027.95 -21.0803L1028.53 -22.8606L1034.58 -17.1379V-41.6368L1035.42 -44.2549L1036.27 -41.8597Z" fill="white"/>
<path d="M135.104 301.692L164.823 184.795L196.079 301.692H135.104Z" fill="#59221D"/>
<path d="M180.713 244.226L165.798 263.502L164.785 301.676C164.77 301.924 164.661 302.158 164.48 302.329C164.299 302.5 164.059 302.595 163.81 302.595C163.561 302.595 163.322 302.5 163.14 302.329C162.959 302.158 162.85 301.924 162.836 301.676L163.849 254.962L151.629 236.679L152.274 234.135L163.849 251.458V188.623L164.825 184.789L165.798 188.438V222.683L172.691 214.237L173.313 216.561L165.798 225.791V260.336L180.082 241.874L180.713 244.226Z" fill="#F3B304"/>
<path d="M966.016 -30.7524V-1.96658" stroke="#59221D" stroke-width="5" stroke-miterlimit="10" stroke-linecap="round"/>
<path d="M633.433 296.953C644.888 296.953 654.175 286.818 654.175 274.315C654.175 261.813 644.888 251.678 633.433 251.678C621.978 251.678 612.691 261.813 612.691 274.315C612.691 286.818 621.978 296.953 633.433 296.953Z" fill="#98C8DB"/>
<path d="M633.434 273.998V301.064" stroke="#59221D" stroke-width="5" stroke-miterlimit="10" stroke-linecap="round"/>
<path d="M476.019 305.35C476.892 291.297 489.998 280.68 505.286 281.632C520.575 282.585 532.266 294.742 531.39 308.799L476.019 305.35Z" fill="#F3B304"/>
<path d="M653.561 301.336L704.454 301.262H709.02L749.966 301.204C754.009 297.252 756.956 292.317 758.517 286.883C760.078 281.449 760.2 275.702 758.871 270.207C757.542 264.711 754.807 259.655 750.935 255.536C747.063 251.416 742.187 248.374 736.785 246.708C731.383 245.042 725.641 244.808 720.122 246.031C714.602 247.254 709.496 249.891 705.303 253.683C701.11 257.476 697.975 262.293 696.204 267.663C694.434 273.032 694.09 278.77 695.206 284.313C691.424 282.246 687.23 281.049 682.927 280.808C678.625 280.566 674.323 281.287 670.334 282.918C666.345 284.549 662.77 287.048 659.868 290.235C656.967 293.422 654.812 297.215 653.561 301.339V301.336Z" fill="#F3B304"/>
<path d="M725.367 301.153V281.158" stroke="#59221D" stroke-width="5" stroke-miterlimit="10" stroke-linecap="round"/>
<path d="M-2.7034 264.508V204.382H10.5884C17.3135 204.414 23.8309 206.842 29.0819 211.272L42.4283 222.386C45.2696 224.782 48.7953 226.095 52.4333 226.112H60.5909C69.3107 226.112 77.5551 230.682 83.0009 238.53L88.7842 246.87H99.7531C108.206 246.87 115.785 252.452 114.314 264.515L-2.7034 264.508Z" fill="white" stroke="#F3B304" stroke-width="5" stroke-linecap="round" stroke-linejoin="round"/>
<path d="M1171.04 242.753H1108.27L1149.33 275.036V301.903H1212.11V275.036L1171.04 242.753Z" fill="#F3B304"/>
<path d="M1108.27 243.642L1073.49 268.779L1073.63 301.457H1148.45V274.785L1108.27 243.642Z" fill="white" stroke="#F3B304" stroke-width="5" stroke-linecap="round" stroke-linejoin="round"/>
<path d="M1112.41 267.59H1118.79V273.978H1112.41V267.59Z" fill="#59221D"/>
<path d="M1102.98 267.59H1109.37V273.978H1102.98V267.59Z" fill="#59221D"/>
<path d="M1112.41 276.674H1118.79V283.062H1112.41V276.674Z" fill="#59221D"/>
<path d="M1102.98 276.674H1109.37V283.062H1102.98V276.674Z" fill="#59221D"/>
<path d="M981.74 301.011H1050.79L1016.33 266.198H1016.19L981.74 301.011Z" fill="#98C8DB"/>
<path d="M1016.33 266.198L1050.79 301.011H1110.32L1075.86 266.198H1016.33Z" fill="#59221D"/>
<path d="M1343.21 300.552H1307.04V227.031H1411.85L1343.21 300.552Z" fill="#98C8DB"/>
<path d="M1398.99 196.556V226.923H1310.82V194.799L1359.02 161.23L1398.99 196.556Z" fill="white" stroke="#F3B304" stroke-width="5" stroke-linecap="round" stroke-linejoin="round"/>
<path d="M1359.41 160.45H1244.09L1195.5 194.803H1310.82L1359.41 160.45Z" fill="#F3B304"/>
<path d="M1310.82 194.803H1195.5V226.923H1310.82V194.803Z" fill="#59221D"/>
<path d="M1227.73 135.042L1227.69 135.137L1213.68 161.23V251.983H1169.57V161.23L1183.62 135.042H1227.73Z" fill="#F3B304"/>
<path d="M1243.69 161.23V251.983H1213.68V161.23L1227.68 135.917L1243.69 161.23Z" fill="white" stroke="#F3B304" stroke-width="5" stroke-linecap="round" stroke-linejoin="round"/>
<path d="M1228.69 171.486C1230.78 171.486 1232.48 169.827 1232.48 167.78C1232.48 165.733 1230.78 164.074 1228.69 164.074C1226.59 164.074 1224.89 165.733 1224.89 167.78C1224.89 169.827 1226.59 171.486 1228.69 171.486Z" fill="#59221D"/>
<path d="M1228.69 193.323C1230.78 193.323 1232.48 191.664 1232.48 189.617C1232.48 187.57 1230.78 185.911 1228.69 185.911C1226.59 185.911 1224.89 187.57 1224.89 189.617C1224.89 191.664 1226.59 193.323 1228.69 193.323Z" fill="#59221D"/>
<path d="M1228.69 215.16C1230.78 215.16 1232.48 213.501 1232.48 211.454C1232.48 209.408 1230.78 207.749 1228.69 207.749C1226.59 207.749 1224.89 209.408 1224.89 211.454C1224.89 213.501 1226.59 215.16 1228.69 215.16Z" fill="#59221D"/>
<path d="M1280.7 251.982H1213.68V302.24H1280.7V251.982Z" fill="#59221D"/>
<path d="M1342.18 252.476V301.903H1280.7V252.412L1310.82 227.261L1342.18 252.476Z" fill="white" stroke="#F3B304" stroke-width="5" stroke-miterlimit="10" stroke-linecap="round"/>
<path d="M1310.6 259.543H1303.48V266.671H1310.6V259.543Z" fill="#59221D"/>
<path d="M1321.13 259.543H1314V266.671H1321.13V259.543Z" fill="#59221D"/>
<path d="M1310.6 269.681H1303.48V276.809H1310.6V269.681Z" fill="#59221D"/>
<path d="M1321.13 269.681H1314V276.809H1321.13V269.681Z" fill="#59221D"/>
<path d="M1280.7 252.074H1213.57L1243.7 225.754H1310.82L1280.7 252.074Z" fill="#F3B304"/>
<path d="M1281.87 279.725V302.241H1213.57V279.725H1213.68L1246.12 251.719L1281.87 279.725Z" fill="white"/>
<path d="M1213.67 280.501H1136.37V302.237H1213.67V280.501Z" fill="#F3B304"/>
<path d="M1245.82 251.982L1245.73 252.057L1213.29 280.062H1137.1L1169.63 251.982H1245.82Z" fill="white" stroke="#F3B304" stroke-width="5" stroke-linecap="round" stroke-linejoin="round"/>
<path d="M1181.4 252.057L1148.96 280.063" stroke="#F3B304" stroke-width="5" stroke-linecap="round" stroke-linejoin="round"/>
<path d="M1193.78 252.057L1161.33 280.063" stroke="#F3B304" stroke-width="5" stroke-linecap="round" stroke-linejoin="round"/>
<path d="M1206.16 252.057L1173.71 280.063" stroke="#F3B304" stroke-width="5" stroke-linecap="round" stroke-linejoin="round"/>
<path d="M1218.54 252.057L1186.09 280.063" stroke="#F3B304" stroke-width="5" stroke-linecap="round" stroke-linejoin="round"/>
<path d="M1230.92 252.449L1198.47 280.451" stroke="#F3B304" stroke-width="5" stroke-linecap="round" stroke-linejoin="round"/>
<path d="M436.563 301.636H383.785V432.67H436.563V301.636Z" fill="white" stroke="#F3B304" stroke-width="5" stroke-linecap="round" stroke-linejoin="round"/>
<path d="M458.864 300.785H437.346V433.525H458.864V300.785Z" fill="#59221D"/>
<path d="M59.7832 121.954V121.278C64.1234 109.404 75.7929 100.901 89.5058 100.901C93.6363 100.895 97.7296 101.681 101.564 103.218C101.939 103.372 102.346 103.431 102.75 103.39C103.154 103.35 103.541 103.211 103.879 102.987C104.217 102.762 104.494 102.459 104.688 102.102C104.881 101.745 104.984 101.347 104.989 100.941V100.901C104.985 97.2421 105.656 93.614 106.968 90.1986C111.436 78.5573 122.984 70.2671 136.528 70.2671C150.072 70.2671 161.613 78.5573 166.082 90.1986C166.187 90.4621 166.285 90.729 166.379 90.9993C166.761 90.7256 167.146 90.4554 167.541 90.1986C172.794 86.7729 178.93 84.949 185.201 84.949C191.472 84.949 197.607 86.7729 202.86 90.1986C211.233 95.7085 216.739 105.019 216.739 115.583V115.627C216.746 115.956 216.845 116.276 217.026 116.551C217.206 116.827 217.46 117.046 217.759 117.184C218.057 117.323 218.389 117.374 218.715 117.334C219.042 117.293 219.35 117.162 219.606 116.954C225.905 111.856 234.349 108.738 243.631 108.738C255.658 108.738 266.26 113.971 272.637 121.957L59.7832 121.954Z" fill="#C1DEE9"/>
<path d="M1063.26 191.544V191.142C1060.67 184.08 1053.71 179.023 1045.52 179.023C1043.06 179.019 1040.62 179.487 1038.33 180.401C1038.11 180.492 1037.86 180.527 1037.62 180.503C1037.38 180.479 1037.15 180.397 1036.95 180.263C1036.75 180.13 1036.58 179.949 1036.47 179.737C1036.35 179.525 1036.29 179.288 1036.29 179.047V179.023C1036.29 176.847 1035.89 174.689 1035.11 172.658C1032.44 165.734 1025.55 160.804 1017.47 160.804C1009.39 160.804 1002.5 165.734 999.836 172.658C999.774 172.814 999.715 172.973 999.659 173.134C999.431 172.971 999.201 172.81 998.966 172.658C995.832 170.62 992.171 169.536 988.429 169.536C984.688 169.536 981.027 170.62 977.893 172.658C972.897 175.935 969.613 181.472 969.613 187.754V187.78C969.608 187.976 969.549 188.167 969.441 188.33C969.334 188.494 969.182 188.625 969.004 188.707C968.826 188.789 968.628 188.82 968.433 188.796C968.238 188.772 968.054 188.693 967.902 188.57C964.143 185.538 959.106 183.684 953.568 183.684C946.392 183.684 940.066 186.796 936.262 191.546L1063.26 191.544Z" fill="#C1DEE9"/>
</g>
<defs>
<clipPath id="clip0">
<rect width="1400" height="301" fill="white"/>
</clipPath>
</defs>
</svg>
