<svg width="260" height="160" viewBox="0 0 260 160" fill="none" xmlns="http://www.w3.org/2000/svg">
<g clip-path="url(#clip0)">
<path fill-rule="evenodd" clip-rule="evenodd" d="M37.8069 125.327C37.8069 125.327 44.5706 123.432 51.4227 126.899C56.1105 129.27 60.7578 134.152 63.492 143.653C63.7837 144.665 64.8416 145.25 65.8541 144.959C66.8666 144.668 67.4519 143.61 67.1602 142.598C64.0232 131.697 58.523 126.216 53.1475 123.496C44.9057 119.326 36.7652 121.657 36.7652 121.657C35.7526 121.945 35.1625 123 35.4494 124.013C35.7364 125.026 36.7943 125.615 37.8069 125.327ZM95.8693 84.0115C96.7116 86.854 97.7733 92.4223 95.7489 98.4967C93.8455 104.211 89.2263 110.451 78.8946 115.151C77.9378 115.587 76.8047 115.163 76.3686 114.205C75.9325 113.247 76.3564 112.115 77.3132 111.679C86.3171 107.583 90.4674 102.272 92.1291 97.2913C93.8153 92.2251 92.9432 87.5818 92.2547 85.2243L95.8693 84.0115ZM94.4538 138.422L90.1318 139.802C88.167 137.896 85.8928 135.478 84.0088 132.57C83.4383 131.687 83.6917 130.505 84.5764 129.933C85.4587 129.361 86.6429 129.615 87.2134 130.498C89.4358 133.932 92.1477 136.51 94.4538 138.422ZM99.6361 47.3003C99.6361 47.3003 101.345 54.1097 97.6916 60.8614C95.1916 65.4784 90.1815 69.989 80.6053 72.4616C79.5851 72.725 78.9707 73.7662 79.234 74.7854C79.4972 75.8046 80.539 76.4183 81.5593 76.155C92.5472 73.3182 98.1809 67.9741 101.048 62.6764C105.445 54.5563 103.335 46.3599 103.335 46.3599C103.075 45.3397 102.035 44.7221 101.015 44.9816C99.9944 45.2412 99.3752 46.2801 99.6361 47.3003ZM135.148 112.852C135.148 112.852 130.846 118.401 123.274 119.697C118.099 120.583 111.455 119.43 103.596 113.427C102.758 112.788 101.559 112.948 100.919 113.785C100.281 114.621 100.441 115.819 101.278 116.458C110.295 123.346 117.979 124.474 123.92 123.457C133.024 121.899 138.172 115.179 138.172 115.179C138.815 114.345 138.66 113.147 137.825 112.505C136.99 111.862 135.791 112.018 135.148 112.852ZM121.159 134.818C122.759 136.418 124.356 138.314 125.925 140.551C126.528 141.413 126.318 142.603 125.455 143.207C124.593 143.812 123.402 143.602 122.797 142.74C120.991 140.162 119.154 138.091 117.319 136.44L121.159 134.818ZM137.16 51.7475L137.132 56.8001C132.484 61.5257 131.673 67.3187 131.673 67.3187C131.531 68.3618 130.569 69.0927 129.523 68.95C128.479 68.8075 127.75 67.845 127.892 66.802C127.892 66.802 129.016 58.4138 136.141 52.538C136.47 52.2693 136.807 52.0053 137.16 51.7475ZM133.134 156.672C132.886 155.261 132.753 153.745 132.799 152.143C132.964 146.122 135.574 138.812 144.096 131.321C144.887 130.626 146.094 130.703 146.791 131.494C147.486 132.284 147.407 133.49 146.616 134.185C139.19 140.714 136.757 147 136.614 152.247C136.584 153.363 136.655 154.43 136.798 155.435L133.134 156.672ZM155.129 65.7429C155.079 68.3509 154.907 71.7398 153.572 74.8564C151.202 80.3934 146.08 86.2295 135.398 90.0576C134.406 90.4129 133.311 89.8969 132.955 88.9059C132.602 87.9149 133.117 86.822 134.109 86.4667C143.421 83.1304 147.997 78.1812 150.065 73.3552C151.016 71.1331 151.319 68.5966 151.451 66.6533L155.129 65.7429ZM182.69 108.587L179.067 109.812C177.939 106.046 176.141 103.25 174.089 101.183C168.68 95.7345 161.663 95.4029 161.663 95.4029C160.61 95.3565 159.793 94.465 159.84 93.4133C159.886 92.3618 160.779 91.5456 161.83 91.592C161.83 91.592 170.292 91.9432 176.798 98.4957C179.194 100.908 181.351 104.167 182.69 108.587ZM197.687 127.799L194.061 129.957L194.014 129.984C188.603 126.742 183.815 125.987 179.826 126.467C172.199 127.384 167.624 132.712 167.624 132.712C166.943 133.513 165.735 133.609 164.935 132.926C164.133 132.243 164.037 131.038 164.721 130.237C164.721 130.237 170.197 123.782 179.369 122.679C184.426 122.071 190.651 123.055 197.687 127.799ZM215.214 65.4207C214.841 67.9146 214.033 70.7431 212.431 73.5439C209.441 78.773 203.686 83.9847 192.633 86.5649C191.608 86.8043 190.58 86.1667 190.341 85.1415C190.101 84.1165 190.739 83.0898 191.765 82.8504C201.398 80.6014 206.511 76.2088 209.118 71.651C210.849 68.6232 211.474 65.5577 211.64 63.1135C213.258 63.9706 214.424 64.7862 215.214 65.4207ZM208.992 120.389L207.704 121.281C206.342 120.303 204.988 119.11 203.737 117.657C199.807 113.091 196.819 105.926 198.084 94.6534C198.202 93.6073 199.147 92.8533 200.193 92.9707C201.24 93.0879 201.994 94.0327 201.877 95.0788C200.774 104.904 203.205 111.189 206.631 115.169C207.672 116.379 208.798 117.373 209.929 118.188L208.992 120.389Z" fill="#CDCDCD" fill-opacity="0.81"/>
<path fill-rule="evenodd" clip-rule="evenodd" d="M-103.496 78.3829C-104.074 81.2904 -105.31 84.8903 -107.9 88.2557C-110.399 91.5005 -114.159 94.5632 -119.862 96.5232L-120.582 92.7239C-116.047 91.0603 -112.979 88.5988 -110.926 85.9299C-109.55 84.1421 -108.629 82.276 -108.016 80.5317L-103.496 78.3829ZM-102.193 95.3272C-102.193 95.3272 -95.4294 93.4323 -88.5773 96.8993C-83.8895 99.2699 -79.2422 104.152 -76.508 113.653C-76.2163 114.665 -75.1584 115.25 -74.1459 114.959C-73.1334 114.668 -72.5481 113.61 -72.8398 112.598C-75.9768 101.697 -81.477 96.2159 -86.8525 93.4957C-95.0943 89.3263 -103.235 91.6574 -103.235 91.6574C-104.247 91.9447 -104.838 93.0002 -104.551 94.0129C-104.264 95.0256 -103.206 95.6145 -102.193 95.3272ZM-44.1307 54.0115C-43.2884 56.854 -42.2267 62.4223 -44.2511 68.4966C-46.1545 74.2112 -50.7737 80.4509 -61.1054 85.1507C-62.0622 85.5867 -63.1953 85.1629 -63.6314 84.2047C-64.0675 83.2467 -63.6436 82.1148 -62.6868 81.6787C-53.6829 77.5827 -49.5326 72.2717 -47.8709 67.2912C-46.1847 62.2251 -47.0568 57.5818 -47.7453 55.2243L-44.1307 54.0115ZM-45.5462 108.422L-49.8682 109.802C-51.833 107.896 -54.1072 105.478 -55.9912 102.57C-56.5617 101.687 -56.3083 100.505 -55.4236 99.933C-54.5413 99.3612 -53.3571 99.6146 -52.7866 100.498C-50.5642 103.931 -47.8523 106.51 -45.5462 108.422ZM-21.3639 20.3003C-21.3639 20.3003 -19.6548 27.1097 -23.3084 33.8614C-25.8084 38.4784 -30.8185 42.989 -40.3946 45.4616C-41.4149 45.7249 -42.0292 46.7661 -41.766 47.7853C-41.5028 48.8045 -40.461 49.4183 -39.4407 49.1549C-28.4528 46.3181 -22.819 40.9741 -19.9521 35.6763C-15.5553 27.5563 -17.6645 19.3598 -17.6645 19.3598C-17.9254 18.3396 -18.9649 17.722 -19.9852 17.9816C-21.0056 18.2411 -21.6248 19.2801 -21.3639 20.3003ZM-4.85174 82.8522C-4.85174 82.8522 -9.15436 88.4014 -16.7257 89.6973C-21.9008 90.5833 -28.5449 89.4301 -36.4044 83.4272C-37.2415 82.788 -38.4406 82.9482 -39.0809 83.7847C-39.7188 84.6211 -39.559 85.819 -38.7219 86.4582C-29.7049 93.3456 -22.0211 94.4737 -16.0805 93.457C-6.97591 91.8987 -1.82792 85.1793 -1.82792 85.1793C-1.18518 84.3454 -1.34019 83.1466 -2.17501 82.5045C-3.00984 81.8622 -4.20901 82.0181 -4.85174 82.8522ZM-18.8413 104.818C-17.2411 106.418 -15.644 108.314 -14.0753 110.551C-13.4719 111.413 -13.6821 112.603 -14.5446 113.207C-15.4071 113.811 -16.5976 113.602 -17.2033 112.74C-19.0086 110.162 -20.8457 108.091 -22.6809 106.44L-18.8413 104.818ZM-2.84032 21.7474L-2.86842 26.8C-7.5159 31.5257 -8.32719 37.3187 -8.32719 37.3187C-8.46906 38.3617 -9.43136 39.0927 -10.4772 38.95C-11.5206 38.8075 -12.2503 37.845 -12.1084 36.8019C-12.1084 36.8019 -10.984 28.4137 -3.85861 22.538C-3.53043 22.2692 -3.1926 22.0053 -2.84032 21.7474ZM27.6242 161.5C27.3762 160.089 27.2429 158.573 27.2891 156.971C27.4535 150.95 30.0642 143.64 38.5859 136.149C39.3772 135.454 40.5839 135.531 41.2811 136.322C41.976 137.112 41.8974 138.318 41.1061 139.014C33.68 145.542 31.2474 151.828 31.1043 157.076C31.0738 158.191 31.1448 159.258 31.2884 160.263L27.6242 161.5ZM15.1292 35.7428C15.0787 38.3509 14.9069 41.7397 13.572 44.8563C11.2018 50.3934 6.07985 56.2294 -4.60248 60.0576C-5.59449 60.4128 -6.68902 59.8968 -7.0447 58.9059C-7.398 57.9149 -6.8826 56.8219 -5.89059 56.4667C3.42095 53.1304 7.99674 48.1812 10.0651 43.3552C11.0163 41.1331 11.3189 38.5965 11.4507 36.6532L15.1292 35.7428ZM42.6904 78.5865L39.0665 79.8122C37.9392 76.0458 36.1411 73.2496 34.0893 71.183C28.6805 65.7345 21.663 65.4028 21.663 65.4028C20.6097 65.3564 19.7934 64.465 19.8396 63.4132C19.8858 62.3618 20.7795 61.5455 21.8304 61.592C21.8304 61.592 30.2918 61.9431 36.7985 68.4957C39.1943 70.908 41.3508 74.1668 42.6904 78.5865ZM57.6874 97.7989L54.061 99.9573L54.0141 99.9843C48.6033 96.7421 43.8147 95.987 39.8261 96.4668C32.1988 97.3838 27.6242 102.712 27.6242 102.712C26.9425 103.513 25.7349 103.609 24.935 102.926C24.1327 102.243 24.0372 101.038 24.7212 100.237C24.7212 100.237 30.1971 93.7824 39.3689 92.6794C44.426 92.0713 50.6512 93.0553 57.6874 97.7989ZM75.2141 35.4206C74.8409 37.9146 74.033 40.7431 72.4315 43.5438C69.4411 48.773 63.6857 53.9847 52.6332 56.5649C51.6077 56.8043 50.5804 56.1666 50.3409 55.1414C50.1014 54.1164 50.7394 53.0897 51.7652 52.8503C61.3978 50.6014 66.5114 46.2087 69.1177 41.6509C70.8492 38.6232 71.4738 35.5576 71.64 33.1135C73.2581 33.9705 74.4238 34.7862 75.2141 35.4206ZM68.9916 90.3885L67.7038 91.2811C66.3424 90.303 64.9881 89.1102 63.7371 87.6566C59.8068 83.0905 56.8189 75.9263 58.0842 64.6533C58.2016 63.6072 59.1468 62.8533 60.1935 62.9707C61.2402 63.0878 61.9945 64.0326 61.877 65.0787C60.7744 74.9035 63.2053 81.1892 66.6305 85.1686C67.672 86.3786 68.7982 87.3727 69.9288 88.1884L68.9916 90.3885Z" fill="#CDCDCD" fill-opacity="0.81"/>
<path fill-rule="evenodd" clip-rule="evenodd" d="M166.504 28.3829C165.926 31.2904 164.69 34.8903 162.1 38.2557C159.601 41.5005 155.841 44.5632 150.138 46.5232L149.418 42.7239C153.953 41.0603 157.021 38.5988 159.074 35.9299C160.45 34.1421 161.371 32.276 161.984 30.5317L166.504 28.3829ZM167.807 45.3272C167.807 45.3272 174.571 43.4323 181.423 46.8993C186.111 49.2699 190.758 54.1518 193.492 63.6529C193.784 64.6646 194.842 65.2496 195.854 64.9587C196.867 64.6676 197.452 63.6101 197.16 62.5984C194.023 51.697 188.523 46.2159 183.147 43.4957C174.906 39.3263 166.765 41.6574 166.765 41.6574C165.753 41.9447 165.162 43.0002 165.449 44.0129C165.736 45.0256 166.794 45.6145 167.807 45.3272ZM225.869 4.01145C226.712 6.854 227.773 12.4223 225.749 18.4966C223.845 24.2112 219.226 30.4509 208.895 35.1507C207.938 35.5867 206.805 35.1629 206.369 34.2047C205.933 33.2467 206.356 32.1148 207.313 31.6787C216.317 27.5827 220.467 22.2717 222.129 17.2912C223.815 12.2251 222.943 7.5818 222.255 5.22429L225.869 4.01145ZM248.636 -29.6997C248.636 -29.6997 250.345 -22.8903 246.692 -16.1386C244.192 -11.5216 239.182 -7.01103 229.605 -4.53843C228.585 -4.27506 227.971 -3.23385 228.234 -2.21465C228.497 -1.19545 229.539 -0.581715 230.559 -0.84508C241.547 -3.68188 247.181 -9.02594 250.048 -14.3237C254.445 -22.4437 252.335 -30.6402 252.335 -30.6402C252.075 -31.6604 251.035 -32.278 250.015 -32.0184C248.994 -31.7589 248.375 -30.7199 248.636 -29.6997ZM265.148 32.8522C265.148 32.8522 260.846 38.4014 253.274 39.6973C248.099 40.5833 241.455 39.4301 233.596 33.4272C232.759 32.788 231.559 32.9482 230.919 33.7847C230.281 34.6211 230.441 35.819 231.278 36.4582C240.295 43.3456 247.979 44.4737 253.92 43.457C263.024 41.8987 268.172 35.1793 268.172 35.1793C268.815 34.3454 268.66 33.1466 267.825 32.5045C266.99 31.8622 265.791 32.0181 265.148 32.8522ZM267.16 -28.2526L267.132 -23.2C262.484 -18.4743 261.673 -12.6813 261.673 -12.6813C261.531 -11.6383 260.569 -10.9073 259.523 -11.05C258.479 -11.1925 257.75 -12.155 257.892 -13.1981C257.892 -13.1981 259.016 -21.5863 266.141 -27.462C266.47 -27.7308 266.807 -27.9947 267.16 -28.2526ZM263.134 76.6718C262.886 75.2607 262.753 73.7452 262.799 72.1431C262.964 66.1222 265.574 58.8119 274.096 51.3208C274.887 50.6256 276.094 50.7029 276.791 51.4935C277.486 52.2839 277.407 53.4901 276.616 54.1854C269.19 60.7142 266.757 67 266.614 72.2473C266.584 73.363 266.655 74.4296 266.798 75.4352L263.134 76.6718ZM285.129 -14.2572C285.079 -11.6491 284.907 -8.26028 283.572 -5.14366C281.202 0.393382 276.08 6.22944 265.398 10.0576C264.406 10.4128 263.311 9.89684 262.955 8.90589C262.602 7.91489 263.117 6.82194 264.109 6.46666C273.421 3.13037 277.997 -1.81883 280.065 -6.64484C281.016 -8.86692 281.319 -11.4035 281.451 -13.3468L285.129 -14.2572ZM312.69 28.5865L309.067 29.8122C307.939 26.0458 306.141 23.2496 304.089 21.183C298.681 15.7345 291.663 15.4028 291.663 15.4028C290.61 15.3564 289.793 14.465 289.84 13.4132C289.886 12.3618 290.78 11.5455 291.83 11.592C291.83 11.592 300.292 11.9431 306.799 18.4957C309.194 20.908 311.351 24.1668 312.69 28.5865ZM327.687 47.7989L324.061 49.9573L324.014 49.9843C318.603 46.7421 313.815 45.987 309.826 46.4668C302.199 47.3838 297.624 52.7119 297.624 52.7119C296.943 53.5127 295.735 53.6087 294.935 52.9258C294.133 52.2427 294.037 51.0379 294.721 50.237C294.721 50.237 300.197 43.7824 309.369 42.6794C314.426 42.0713 320.651 43.0553 327.687 47.7989ZM345.214 -14.5794C344.841 -12.0854 344.033 -9.25691 342.432 -6.45617C339.441 -1.22705 333.686 3.9847 322.633 6.56489C321.608 6.80428 320.58 6.16661 320.341 5.14141C320.101 4.11645 320.739 3.08973 321.765 2.85033C331.398 0.601378 336.511 -3.79127 339.118 -8.34906C340.849 -11.3768 341.474 -14.4424 341.64 -16.8865C343.258 -16.0295 344.424 -15.2138 345.214 -14.5794ZM338.992 40.3885L337.704 41.2811C336.342 40.303 334.988 39.1102 333.737 37.6566C329.807 33.0905 326.819 25.9263 328.084 14.6533C328.202 13.6072 329.147 12.8533 330.193 12.9707C331.24 13.0878 331.994 14.0326 331.877 15.0787C330.774 24.9035 333.205 31.1892 336.631 35.1686C337.672 36.3786 338.798 37.3727 339.929 38.1884L338.992 40.3885Z" fill="#CDCDCD" fill-opacity="0.81"/>
<path fill-rule="evenodd" clip-rule="evenodd" d="M318.251 20.6087C316.212 18.4576 313.986 15.3695 312.734 11.3122C311.528 7.39825 311.199 2.55958 312.892 -3.22815L316.41 -1.62199C315.149 3.04144 315.387 6.96696 316.381 10.1846C317.046 12.3403 318.037 14.1697 319.107 15.6776L318.251 20.6087ZM303.665 11.8877C303.665 11.8877 301.307 18.504 294.519 22.0961C289.877 24.5544 283.208 25.5294 273.872 22.2751C272.878 21.9291 271.789 22.4549 271.442 23.4495C271.095 24.4442 271.62 25.5328 272.615 25.8789C283.326 29.6129 290.977 28.2875 296.302 25.4697C304.465 21.1485 307.263 13.1564 307.263 13.1564C307.613 12.1638 307.092 11.0725 306.1 10.722C305.107 10.3714 304.016 10.8952 303.665 11.8877ZM303.868 83.1492C301.061 82.1954 295.901 79.8467 292.111 74.6862C288.545 69.8323 286.118 62.4579 288.247 51.309C288.444 50.276 289.444 49.5957 290.478 49.793C291.512 49.9902 292.192 50.9899 291.995 52.0229C290.14 61.7391 292.079 68.1944 295.186 72.4271C298.348 76.7291 302.642 78.6985 304.965 79.4977L303.868 83.1492ZM318.243 121.203C318.243 121.203 311.697 118.666 308.294 111.785C305.969 107.078 305.179 100.383 308.691 91.1366C309.065 90.1515 308.569 89.0487 307.585 88.6751C306.601 88.3014 305.498 88.7976 305.124 89.7826C301.095 100.391 302.205 108.077 304.875 113.477C308.965 121.755 316.875 124.767 316.875 124.767C317.858 125.143 318.963 124.651 319.34 123.668C319.717 122.685 319.227 121.579 318.243 121.203ZM257.639 98.5628C257.639 98.5628 255.594 91.8456 258.908 84.916C261.173 80.1792 265.951 75.4208 275.39 72.4706C276.396 72.1563 276.957 71.0848 276.644 70.0791C276.33 69.0753 275.259 68.5139 274.254 68.8283C263.424 72.2127 258.066 77.8345 255.466 83.2716C251.48 91.6046 253.994 99.6877 253.994 99.6877C254.303 100.694 255.371 101.26 256.378 100.949C257.384 100.638 257.949 99.5692 257.639 98.5628ZM306.365 135.491L302.256 132.55C301.082 126.027 296.821 122.019 296.821 122.019C296.051 121.301 296.01 120.093 296.731 119.322C297.449 118.552 298.657 118.512 299.426 119.231C299.426 119.231 305.625 124.992 306.308 134.203C306.338 134.626 306.358 135.054 306.365 135.491ZM223.027 71.6144C224.323 72.2268 225.637 72.9931 226.918 73.956C231.739 77.5671 236.2 83.9198 237.394 95.203C237.505 96.2505 236.745 97.1909 235.697 97.3037C234.651 97.4146 233.711 96.6538 233.6 95.6063C232.559 85.7734 228.831 80.1576 224.63 77.0106C223.737 76.3414 222.825 75.7834 221.921 75.32L223.027 71.6144ZM284.562 142.079C282.462 140.532 279.795 138.435 278.021 135.545C274.869 130.413 273.062 122.861 276.106 111.929C276.388 110.914 277.442 110.319 278.456 110.601C279.469 110.884 280.064 111.936 279.781 112.951C277.128 122.48 278.526 129.074 281.272 133.549C282.537 135.609 284.433 137.321 285.943 138.55L284.562 142.079ZM233.668 139.84L234.76 136.174C238.486 137.429 241.807 137.575 244.68 137.094C252.251 135.824 256.574 130.286 256.574 130.286C257.22 129.453 258.42 129.301 259.252 129.947C260.083 130.591 260.234 131.792 259.589 132.624C259.589 132.624 254.416 139.329 245.309 140.857C241.956 141.42 238.05 141.299 233.668 139.84ZM209.323 140.99L209.655 136.783L209.66 136.729C215.431 134.184 218.813 130.71 220.725 127.177C224.38 120.42 222.672 113.609 222.672 113.609C222.412 112.59 223.031 111.548 224.05 111.29C225.071 111.029 226.11 111.647 226.369 112.668C226.369 112.668 228.477 120.866 224.081 128.991C221.657 133.47 217.259 137.985 209.323 140.99ZM250.129 191.32C248.308 189.575 246.465 187.282 245.104 184.357C242.561 178.896 241.63 171.188 245.906 160.675C246.302 159.699 247.416 159.229 248.392 159.625C249.367 160.021 249.836 161.135 249.44 162.111C245.713 171.274 246.347 177.985 248.563 182.745C250.035 185.907 252.177 188.187 254.076 189.734C252.442 190.56 251.103 191.041 250.129 191.32ZM208.845 154.498L208.86 152.931C210.445 152.385 212.201 151.968 214.11 151.786C220.107 151.214 227.682 152.911 236.154 160.454C236.941 161.154 237.01 162.361 236.31 163.148C235.61 163.935 234.403 164.005 233.617 163.305C226.233 156.731 219.697 155.086 214.47 155.585C212.881 155.736 211.419 156.082 210.1 156.534L208.845 154.498Z" fill="#CDCDCD" fill-opacity="0.81"/>
<path fill-rule="evenodd" clip-rule="evenodd" d="M168.251 -85.3913C166.212 -87.5424 163.986 -90.6305 162.734 -94.6878C161.528 -98.6018 161.199 -103.44 162.892 -109.228L166.41 -107.622C165.149 -102.959 165.387 -99.0331 166.381 -95.8154C167.046 -93.6597 168.037 -91.8303 169.107 -90.3224L168.251 -85.3913ZM153.665 -94.1123C153.665 -94.1123 151.307 -87.496 144.519 -83.904C139.877 -81.4456 133.208 -80.4707 123.872 -83.7249C122.878 -84.0709 121.789 -83.5451 121.442 -82.5505C121.095 -81.5558 121.62 -80.4672 122.615 -80.1212C133.326 -76.3872 140.977 -77.7125 146.302 -80.5303C154.465 -84.8515 157.263 -92.8436 157.263 -92.8436C157.613 -93.8362 157.092 -94.9275 156.1 -95.278C155.107 -95.6286 154.016 -95.1049 153.665 -94.1123ZM153.868 -22.8508C151.061 -23.8046 145.901 -26.1533 142.111 -31.3138C138.545 -36.1677 136.118 -43.5421 138.247 -54.691C138.444 -55.724 139.444 -56.4043 140.478 -56.207C141.512 -56.0099 142.192 -55.0101 141.995 -53.9772C140.14 -44.261 142.079 -37.8057 145.186 -33.573C148.348 -29.2709 152.642 -27.3015 154.965 -26.5023L153.868 -22.8508ZM168.243 15.2033C168.243 15.2033 161.697 12.6665 158.294 5.78475C155.969 1.07756 155.179 -5.61747 158.691 -14.8635C159.065 -15.8485 158.569 -16.9513 157.585 -17.325C156.601 -17.6986 155.498 -17.2024 155.124 -16.2174C151.095 -5.60853 152.205 2.07696 154.875 7.4768C158.965 15.7555 166.875 18.7665 166.875 18.7665C167.858 19.1427 168.963 18.6507 169.34 17.6678C169.717 16.6849 169.227 15.5794 168.243 15.2033ZM107.639 -7.43718C107.639 -7.43718 105.594 -14.1544 108.908 -21.084C111.173 -25.8208 115.951 -30.5792 125.39 -33.5294C126.396 -33.8437 126.957 -34.9152 126.644 -35.921C126.33 -36.9248 125.259 -37.4861 124.254 -37.1717C113.424 -33.7873 108.066 -28.1655 105.466 -22.7284C101.48 -14.3954 103.993 -6.31226 103.993 -6.31226C104.303 -5.30598 105.371 -4.7403 106.378 -5.05107C107.384 -5.36171 107.949 -6.43077 107.639 -7.43718ZM156.365 29.4906L152.256 26.55C151.082 20.0268 146.821 16.0192 146.821 16.0192C146.051 15.3011 146.01 14.0933 146.731 13.3219C147.449 12.5523 148.657 12.5124 149.426 13.2306C149.426 13.2306 155.625 18.9924 156.308 28.2027C156.338 28.6258 156.358 29.0541 156.365 29.4906ZM73.0274 -34.3856C74.3227 -33.7732 75.6369 -33.0069 76.9182 -32.044C81.7388 -28.4329 86.1996 -22.0802 87.3945 -10.797C87.5051 -9.74952 86.7452 -8.8091 85.6971 -8.69635C84.6505 -8.58544 83.7111 -9.34622 83.6005 -10.3937C82.5585 -20.2266 78.8314 -25.8424 74.63 -28.9894C73.7367 -29.6586 72.825 -30.2166 71.921 -30.68L73.0274 -34.3856ZM134.562 36.0794C132.462 34.5322 129.795 32.435 128.021 29.5454C124.869 24.4129 123.062 16.8612 126.106 5.92933C126.388 4.91428 127.442 4.31865 128.456 4.6005C129.469 4.88433 130.064 5.93625 129.781 6.9513C127.128 16.48 128.526 23.0737 131.272 27.5492C132.537 29.609 134.433 31.3207 135.943 32.5505L134.562 36.0794ZM83.6683 33.8404L84.7604 30.174C88.4863 31.4286 91.8074 31.5753 94.6795 31.0935C102.251 29.824 106.574 24.2863 106.574 24.2863C107.22 23.4532 108.42 23.3015 109.252 23.9465C110.083 24.5915 110.234 25.7924 109.589 26.6235C109.589 26.6235 104.416 33.3289 95.309 34.8572C91.9561 35.4201 88.0502 35.2989 83.6683 33.8404ZM59.3228 34.9898L59.6548 30.7827L59.6598 30.7289C65.4313 28.1836 68.813 24.7102 70.7245 21.1768C74.3804 14.4202 72.6721 7.60859 72.6721 7.60859C72.4119 6.58962 73.0309 5.54824 74.0504 5.28954C75.0714 5.02898 76.1101 5.64674 76.369 6.66769C76.369 6.66769 78.4765 14.8655 74.0807 22.9905C71.6569 27.4704 67.2587 31.9846 59.3228 34.9898ZM37.1286 45.3199C35.308 43.5751 33.4653 41.2821 32.1035 38.3573C29.5612 32.8963 28.6298 25.1879 32.9056 14.6745C33.3024 13.699 34.4162 13.2285 35.3915 13.625C36.3666 14.0213 36.8364 15.1352 36.4395 16.1109C32.7132 25.2738 33.3465 31.9852 35.5625 36.7449C37.0345 39.907 39.1767 42.1872 41.0761 43.7342C39.4421 44.5604 38.103 45.0411 37.1286 45.3199Z" fill="#CDCDCD" fill-opacity="0.81"/>
<path d="M145.2 77.9765C146 75 136.4 73.1671 134 64.7506C134.267 63.6819 136.32 61.0634 139.2 62.3459C142.08 63.6284 156 74.7703 156 77.9765C156 81.1828 148 90 148 90C148 90 124 91.5 131 89C138 86.5 144.4 80.953 145.2 77.9765Z" fill="#12C35A"/>
<path fill-rule="evenodd" clip-rule="evenodd" d="M152.473 30.4225L151.859 25.5115L147.206 23.548L143.259 26.5349L142.646 21.6239L137.992 19.6604L134.046 22.6473L133.432 17.7363L130.117 16.3373L110.318 63.2583L112.913 64.3533L118.107 60.4222L118.914 66.8855L122.127 68.2409L127.32 64.3098L128.128 70.7731L131.34 72.1285L136.534 68.1974L137.341 74.6607L140.556 76.0173L160.355 29.0963L156.419 27.4356L152.473 30.4225Z" fill="#B7C9EC"/>
<path d="M118.941 87.5045H144.925V144.196H118.941V87.5045Z" fill="#12C35A"/>
<path fill-rule="evenodd" clip-rule="evenodd" d="M106.012 159.755C98.8632 131.992 105.233 86.4397 116.791 77.8051C116.791 77.8051 124.893 68.6539 128.788 63.842C128.788 63.842 136.906 58.0203 135.389 69.062C135.389 69.062 132.253 79.5546 126.422 85.9298C126.422 85.9298 134.689 88.6856 127.386 107.324L122.093 126.086V135.928L143.199 118.763C143.199 118.763 138.848 115.645 143.199 110.702C143.199 110.702 137.903 107.071 143.199 102.923C143.199 102.923 136.411 100.486 141.105 94.4888C141.105 94.4888 131.867 90.3985 141.105 82.8521C141.105 82.8521 147.729 76.3087 150.588 79.7211C151.78 81.1437 152.705 83.6176 149.777 86.8363C149.777 86.8363 155.774 87.7493 152.44 95.5332C153.523 94.9868 158.416 98.6297 153.279 104.076C153.279 104.076 161.833 106.222 150.588 115.874C150.588 115.874 149.777 137.503 152.221 159.988C127.386 159.988 124.062 159.988 106.012 159.755Z" fill="#12C35A"/>
<path d="M153.77 105.249C154.221 104.93 154.328 104.306 154.008 103.855C153.689 103.405 153.065 103.298 152.614 103.617L153.77 105.249ZM143.744 111.126L143.166 110.31L143.134 110.333L143.104 110.358L143.744 111.126ZM142.751 119.8C143.192 120.131 143.819 120.042 144.151 119.6C144.482 119.158 144.392 118.531 143.951 118.2L142.751 119.8ZM152.614 103.617L143.166 110.31L144.322 111.942L153.77 105.249L152.614 103.617ZM143.104 110.358C142.211 111.102 141.013 112.529 140.571 114.242C140.345 115.119 140.312 116.095 140.65 117.082C140.989 118.072 141.674 118.992 142.751 119.8L143.951 118.2C143.138 117.59 142.73 116.982 142.542 116.434C142.354 115.884 142.36 115.315 142.508 114.742C142.814 113.555 143.702 112.462 144.384 111.894L143.104 110.358Z" fill="black"/>
<path d="M152.459 97.06C152.953 96.8128 153.153 96.212 152.906 95.7181C152.658 95.2243 152.058 95.0243 151.564 95.2716L152.459 97.06ZM140.215 102.071L139.767 101.177L139.729 101.196L139.692 101.219L140.215 102.071ZM140.54 111.627C141.034 111.874 141.635 111.674 141.882 111.18C142.129 110.686 141.929 110.085 141.435 109.838L140.54 111.627ZM151.564 95.2716L139.767 101.177L140.662 102.965L152.459 97.06L151.564 95.2716ZM139.692 101.219C138.316 102.062 137.181 103.946 137.03 105.932C136.952 106.955 137.131 108.043 137.701 109.057C138.273 110.074 139.206 110.959 140.54 111.627L141.435 109.838C140.407 109.324 139.795 108.7 139.445 108.077C139.093 107.451 138.972 106.767 139.024 106.084C139.133 104.659 139.973 103.392 140.738 102.924L139.692 101.219Z" fill="black"/>
<path d="M128.556 100.737C130.591 105.09 126.295 117.539 121.576 114.435C117.895 112.014 124.371 104.476 135.965 108.285" stroke="black" stroke-width="2" stroke-linecap="round"/>
<path d="M150.371 88.9285C150.884 88.7234 151.134 88.1414 150.928 87.6286C150.723 87.1159 150.141 86.8664 149.629 87.0715L150.371 88.9285ZM135.936 93.625L135.565 92.6965L135.561 92.6982L135.936 93.625ZM136.697 103.911C137.2 104.139 137.792 103.915 138.02 103.412C138.248 102.909 138.025 102.317 137.521 102.089L136.697 103.911ZM149.629 87.0715L135.565 92.6965L136.307 94.5535L150.371 88.9285L149.629 87.0715ZM135.561 92.6982C133.404 93.5716 131.977 95.6162 132 97.8854C132.023 100.203 133.54 102.482 136.697 103.911L137.521 102.089C134.882 100.895 134.014 99.2151 134 97.8653C133.986 96.467 134.871 95.1355 136.311 94.5518L135.561 92.6982Z" fill="black"/>
</g>
<defs>
<clipPath id="clip0">
<rect width="260" height="160" fill="white"/>
</clipPath>
</defs>
</svg>
