<svg width="137" height="144" viewBox="0 0 137 144" fill="none" xmlns="http://www.w3.org/2000/svg">
<rect width="137" height="144" fill="white"/>
<path d="M54.5283 79.1989C57.6675 79.2202 59.7769 77.0611 59.7698 74.1847C59.7769 71.4361 57.8167 69.4474 55.2669 69.4474C53.7044 69.4474 52.3266 70.2074 51.6306 71.4574H51.5311C51.5382 68.3963 52.6604 66.5355 54.6775 66.5355C55.9275 66.5355 56.7726 67.2599 57.0425 68.375H59.6348C59.3223 66.0241 57.426 64.2557 54.6775 64.2557C51.1831 64.2557 48.9743 67.1676 48.9743 72.1392C48.9672 77.473 51.7371 79.1847 54.5283 79.1989ZM54.5141 77.0682C52.9587 77.0682 51.8223 75.7827 51.8152 74.2628C51.8294 72.7358 53.0084 71.4574 54.5496 71.4574C56.0908 71.4574 57.2201 72.679 57.213 74.2415C57.2201 75.8324 56.0553 77.0682 54.5141 77.0682ZM62.503 79H65.2374L71.4164 66.706V64.4545H61.5087V66.6562H68.6891V66.7557L62.503 79ZM81.2856 76.2727C81.2856 77.9631 82.3652 79.4048 84.3609 79.4048C86.3495 79.4048 87.4362 77.9631 87.4362 76.2727V75.5057C87.4362 73.8011 86.378 72.3736 84.3609 72.3736C82.3936 72.3736 81.2856 73.8153 81.2856 75.5057V76.2727ZM73.8922 67.9489C73.8922 69.6392 74.9717 71.0668 76.9745 71.0668C78.9561 71.0668 80.0427 69.6534 80.0427 67.9489V67.1818C80.0427 65.4773 78.9845 64.0497 76.9745 64.0497C75.0143 64.0497 73.8922 65.4773 73.8922 67.1818V67.9489ZM74.6947 79H76.4774L86.4774 64.4545H84.6947L74.6947 79ZM83.1393 75.5057C83.1393 74.7528 83.466 73.9929 84.3609 73.9929C85.2984 73.9929 85.5683 74.7528 85.5683 75.5057V76.2727C85.5683 77.0256 85.27 77.7713 84.3609 77.7713C83.4518 77.7713 83.1393 77.0185 83.1393 76.2727V75.5057ZM75.7601 67.1818C75.7601 66.4361 76.0726 65.669 76.9745 65.669C77.912 65.669 78.1748 66.429 78.1748 67.1818V67.9489C78.1748 68.7017 77.8836 69.4474 76.9745 69.4474C76.0655 69.4474 75.7601 68.7017 75.7601 67.9489V67.1818Z" fill="black"/>
<path d="M69.3479 22.0185C61.4602 21.8058 53.6342 23.4629 46.5097 26.8543C39.3852 30.2457 33.1644 35.2751 28.3561 41.5313C23.5478 47.7875 20.2884 55.0929 18.8444 62.8502C17.4004 70.6074 17.8128 78.5963 20.0479 86.1637C22.2831 93.731 26.2774 100.662 31.7044 106.39C37.1314 112.118 43.837 116.48 51.2729 119.119C58.7087 121.759 66.6638 122.601 74.4876 121.578C82.3114 120.554 89.7819 117.693 96.2881 113.229L94.0251 109.93C88.0393 114.037 81.1665 116.67 73.9686 117.611C66.7707 118.553 59.452 117.778 52.611 115.35C45.77 112.921 39.6009 108.908 34.6081 103.639C29.6152 98.369 25.9404 91.9925 23.8841 85.0306C21.8278 78.0686 21.4484 70.7189 22.7768 63.5822C24.1053 56.4455 27.1039 49.7245 31.5276 43.9688C35.9513 38.2131 41.6743 33.586 48.2289 30.4659C54.7835 27.3459 61.9834 25.8213 69.24 26.017L69.3479 22.0185Z" fill="#E8F1EC"/>
<path d="M22.8957 93.5776C26.7601 101.655 32.7227 108.547 40.1608 113.533C47.5989 118.518 56.2394 121.415 65.1796 121.92C74.1198 122.425 83.0316 120.52 90.9839 116.404C98.9362 112.288 105.637 106.112 110.387 98.5207C115.136 90.9297 117.76 82.2025 117.984 73.2508C118.208 64.2992 116.024 55.4516 111.66 47.6325C107.297 39.8134 100.913 33.3097 93.1765 28.8009C85.44 24.2921 76.6347 21.9436 67.6804 22.0008L67.706 26.0007C75.9439 25.9481 84.0448 28.1087 91.1623 32.2568C98.2799 36.4049 104.153 42.3883 108.168 49.5819C112.182 56.7755 114.192 64.9152 113.986 73.1507C113.78 81.3863 111.366 89.4153 106.996 96.399C102.626 103.383 96.4613 109.065 89.1452 112.852C81.8291 116.639 73.6302 118.391 65.4052 117.927C57.1803 117.462 49.231 114.797 42.388 110.21C35.5449 105.623 30.0593 99.2828 26.5041 91.8513L22.8957 93.5776Z" fill="#A74602"/>
</svg>
