<svg width="316" height="128" viewBox="0 0 316 128" fill="none" xmlns="http://www.w3.org/2000/svg">
<rect width="316" height="128" fill="white"/>
<path d="M15.5 96C23.6667 100.833 36.5 111.614 51 107C62 103.5 84 58.5 91 44.5C98 30.5 103.972 27.0001 108.5 27C124 26.9998 139.5 84 156.5 86.0002C177.853 88.5126 183 65.0002 203 65.0002C212.055 65.0002 232.931 81.5002 251 81.5002C263.5 81.5002 291.167 72.0002 302.5 65.0002" stroke="#668DDB"/>
<circle cx="16" cy="96" r="2.5" fill="white" stroke="#668DDB"/>
<circle cx="46" cy="108" r="2.5" fill="white" stroke="#668DDB"/>
<circle cx="108" cy="27" r="2.5" fill="white" stroke="#668DDB"/>
<circle cx="159" cy="86" r="2.5" fill="white" stroke="#668DDB"/>
<circle cx="202" cy="65" r="2.5" fill="white" stroke="#668DDB"/>
<circle cx="251" cy="82" r="2.5" fill="white" stroke="#668DDB"/>
<circle cx="301" cy="66" r="2.5" fill="white" stroke="#668DDB"/>
</svg>
