<svg width="454" height="434" viewBox="0 0 454 434" fill="none" xmlns="http://www.w3.org/2000/svg">
<g clip-path="url(#clip0)">
<rect width="454" height="434" fill="white"/>
<path d="M429 433C429 406.473 423.775 380.206 413.624 355.698C403.472 331.19 388.593 308.922 369.836 290.164C351.078 271.407 328.81 256.528 304.302 246.376C279.794 236.225 253.527 231 227 231C200.473 231 174.206 236.225 149.698 246.376C125.19 256.528 102.922 271.407 84.1644 290.164C65.407 308.922 50.5278 331.19 40.3763 355.698C30.2249 380.206 25 406.473 25 433L227 433H429Z" fill="#B9CCF1"/>
<path fill-rule="evenodd" clip-rule="evenodd" d="M266.568 433.725C266.568 433.725 266.393 381.49 280.829 360.413C280.829 360.413 296.961 337.476 301.435 330.231C301.435 330.231 304.191 323.563 307.139 320.146C307.842 319.344 308.844 318.864 309.91 318.82C310.978 318.776 312.015 319.174 312.782 319.918C315.869 322.908 320.191 330.688 316.574 349.988L350.194 334.181C350.194 334.181 361.172 298.969 370.586 300.023C370.586 300.023 374.404 299.771 373.491 316.875C373.491 316.875 378.683 308.919 383.341 312.02C383.341 312.02 388.498 316.717 383.874 338.667C383.874 338.667 393.137 332.424 394.361 339.722C394.668 341.546 394.173 343.411 393.008 344.846C388.46 350.31 373.365 367.871 355.072 382.808L353.532 433.262L266.568 433.725Z" fill="white"/>
<path fill-rule="evenodd" clip-rule="evenodd" d="M312.194 368.216C313.26 363.9 314.065 359.455 313.966 358.828C313.884 358.342 314.212 357.883 314.695 357.801C315.181 357.719 315.641 358.047 315.723 358.533C315.834 359.162 315.257 363.417 314.323 367.783L314.317 367.806C315.398 367.654 316.484 367.59 317.574 367.602C320.877 367.628 324.2 368.357 327.383 369.484C328.145 369.763 328.534 370.606 328.256 371.364C327.978 372.123 327.137 372.512 326.379 372.237C323.512 371.151 320.514 370.416 317.521 370.328C316.232 370.29 314.947 370.369 313.673 370.591C313.052 373.08 312.35 375.344 311.664 376.673C310.859 378.243 309.278 380.073 307.594 380.591C306.259 381.001 304.818 380.752 303.506 379.139C302.2 377.537 302.297 375.847 303.087 374.295C304.045 372.424 306.197 370.773 307.729 369.947C309.181 369.162 310.675 368.597 312.194 368.216ZM311.415 371.148C310.569 371.417 309.732 371.76 308.906 372.184C307.711 372.796 305.989 373.988 305.222 375.414C304.836 376.134 304.733 376.925 305.328 377.689C305.653 378.105 305.969 378.363 306.314 378.445C306.704 378.539 307.09 378.416 307.456 378.208C308.423 377.663 309.26 376.585 309.755 375.666C310.311 374.641 310.88 373.004 311.415 371.148Z" fill="#573240"/>
<path fill-rule="evenodd" clip-rule="evenodd" d="M345.565 338.866L346.391 335.843L349.762 334.204L348.254 340.139C348.166 340.465 347.966 340.75 347.693 340.946L328.259 354.842C327.601 355.312 326.687 355.159 326.216 354.503C325.746 353.846 325.899 352.929 326.554 352.459L345.565 338.866Z" fill="#573240"/>
<path fill-rule="evenodd" clip-rule="evenodd" d="M357.39 345.197C362.488 325.727 368.875 316.626 372.655 312.673C372.778 312.544 373.056 312.28 373.056 312.28L372.91 316.86C372.91 316.86 372.69 317.115 372.579 317.261C369.094 321.838 364.272 330.444 360.207 345.999C360.213 346.283 360.137 346.57 359.985 346.813C359.797 347.296 359.373 347.636 358.884 347.727L336.058 363.645C335.396 364.107 334.482 363.946 334.02 363.282C333.557 362.62 333.718 361.706 334.383 361.244L357.39 345.197Z" fill="#573240"/>
<path fill-rule="evenodd" clip-rule="evenodd" d="M384.819 334.839C384.819 334.839 341.941 369.372 341.923 369.501C341.821 370.303 341.261 370.962 341.797 371.568C342.333 372.174 343.258 372.23 343.865 371.694C343.906 371.521 384.155 338.692 384.155 338.692" fill="#573240"/>
<path fill-rule="evenodd" clip-rule="evenodd" d="M354.452 382.886C354.452 382.886 342.824 393.758 336.142 400.004C335.374 400.722 335.114 401.832 335.486 402.815C335.855 403.799 336.78 404.464 337.828 404.499C344.396 404.725 353.767 405.044 353.767 405.044L354.452 382.886Z" fill="#573240"/>
<path d="M372.152 142.396L328.906 245.407L162.063 196.881L206.43 91.2006L370.493 138.919C371.974 139.349 372.749 140.974 372.152 142.396Z" fill="#F6ACC1"/>
<path d="M347.769 132.309C345.789 131.733 343.693 132.734 342.895 134.634L338.425 145.28C334.938 153.587 325.776 157.958 317.125 155.442L184.557 116.884C174.384 113.925 169.059 102.764 173.16 92.995L176.38 85.3255C176.991 83.8706 178.596 83.105 180.111 83.5457L347.769 132.309Z" fill="#FCD4D0"/>
<path d="M242.838 270.503C271.53 278.848 301.689 261.894 310.199 232.635C318.709 203.377 302.348 172.893 273.655 164.548C244.963 156.202 214.804 173.156 206.295 202.415C197.785 231.673 214.146 262.157 242.838 270.503Z" fill="#573240"/>
<path d="M251.283 242.605C261.381 245.542 271.994 239.576 274.989 229.279C277.984 218.982 272.226 208.254 262.129 205.318C252.031 202.381 241.418 208.347 238.423 218.644C235.428 228.94 241.186 239.668 251.283 242.605Z" fill="#F6ACC1"/>
<path d="M264.477 161.877C235.784 153.532 205.625 170.486 197.115 199.744C188.605 229.004 204.967 259.487 233.66 267.832C262.352 276.178 292.51 259.225 301.02 229.965C309.53 200.707 293.169 170.223 264.477 161.877ZM243.766 233.085C234.106 230.276 228.6 220.013 231.464 210.164C234.329 200.316 244.481 194.607 254.14 197.416C263.798 200.225 269.306 210.489 266.442 220.337C263.577 230.186 253.424 235.894 243.766 233.085Z" fill="#A9D8D5"/>
<path d="M269.424 173.466L264.99 172.176C264.495 172.032 264.211 171.515 264.354 171.02L264.372 170.959C264.516 170.464 265.034 170.18 265.529 170.324L269.963 171.613C270.458 171.757 270.742 172.275 270.599 172.77L270.581 172.831C270.437 173.325 269.919 173.61 269.424 173.466Z" fill="white"/>
<path d="M271.059 194.499L266.624 193.209C266.13 193.065 265.845 192.548 265.989 192.053L266.007 191.992C266.151 191.497 266.669 191.212 267.163 191.356L271.598 192.646C272.093 192.79 272.377 193.308 272.233 193.803L272.216 193.864C272.072 194.359 271.554 194.643 271.059 194.499Z" fill="#573240"/>
<path d="M237.342 172.434L232.904 173.711C232.409 173.854 231.892 173.568 231.749 173.072L231.732 173.011C231.589 172.516 231.875 171.999 232.37 171.857L236.809 170.579C237.304 170.437 237.821 170.723 237.963 171.218L237.981 171.279C238.123 171.775 237.837 172.291 237.342 172.434Z" fill="white"/>
<path d="M292.473 198.255L288.972 201.268C288.581 201.604 287.992 201.56 287.656 201.169L287.615 201.121C287.279 200.73 287.323 200.141 287.714 199.805L291.214 196.793C291.605 196.457 292.194 196.501 292.53 196.891L292.571 196.94C292.908 197.33 292.863 197.919 292.473 198.255Z" fill="white"/>
<path d="M255.547 186.94L251.109 188.217C250.614 188.36 250.097 188.074 249.955 187.579L249.937 187.518C249.794 187.022 250.08 186.506 250.575 186.363L255.014 185.086C255.509 184.943 256.026 185.229 256.168 185.724L256.186 185.786C256.328 186.281 256.042 186.798 255.547 186.94Z" fill="white"/>
<path d="M249.673 171.883L248.136 167.527C247.964 167.042 248.219 166.509 248.705 166.337L248.765 166.316C249.251 166.145 249.784 166.399 249.955 166.885L251.493 171.241C251.664 171.726 251.409 172.259 250.923 172.431L250.863 172.452C250.377 172.623 249.844 172.368 249.673 171.883Z" fill="#573240"/>
<path d="M281.552 196.141L280.015 191.785C279.843 191.3 280.098 190.767 280.584 190.595L280.644 190.574C281.13 190.403 281.663 190.657 281.834 191.143L283.372 195.499C283.543 195.985 283.288 196.518 282.802 196.689L282.742 196.71C282.256 196.881 281.723 196.627 281.552 196.141Z" fill="#FF6E00"/>
<path d="M225.434 181.339L222.797 177.547C222.503 177.124 222.607 176.543 223.03 176.248L223.082 176.212C223.506 175.918 224.087 176.022 224.381 176.445L227.018 180.237C227.312 180.66 227.208 181.241 226.785 181.535L226.732 181.572C226.309 181.866 225.728 181.762 225.434 181.339Z" fill="#FF6E00"/>
<path d="M282.596 184.289L279.959 180.497C279.665 180.074 279.769 179.493 280.192 179.199L280.245 179.162C280.668 178.868 281.249 178.972 281.543 179.396L284.18 183.187C284.474 183.61 284.37 184.192 283.947 184.486L283.895 184.522C283.472 184.816 282.89 184.712 282.596 184.289Z" fill="white"/>
<path d="M238.7 184.028L240.726 179.878C240.952 179.415 241.51 179.223 241.973 179.449L242.031 179.477C242.494 179.703 242.686 180.261 242.46 180.724L240.434 184.875C240.208 185.338 239.649 185.53 239.186 185.304L239.129 185.276C238.666 185.05 238.474 184.491 238.7 184.028Z" fill="#F1B104"/>
<path d="M228.823 197.915L230.849 193.765C231.075 193.302 231.633 193.11 232.097 193.336L232.154 193.364C232.617 193.59 232.809 194.148 232.583 194.611L230.557 198.762C230.331 199.224 229.772 199.417 229.309 199.191L229.252 199.163C228.789 198.937 228.597 198.378 228.823 197.915Z" fill="#F1B104"/>
<path d="M256.317 177.675L260.599 175.943C261.077 175.75 261.62 175.981 261.814 176.458L261.838 176.518C262.031 176.995 261.8 177.539 261.322 177.732L257.041 179.464C256.563 179.657 256.019 179.426 255.826 178.949L255.802 178.89C255.609 178.412 255.84 177.868 256.317 177.675Z" fill="#FF6E00"/>
<path d="M269.645 183.748L271.671 179.597C271.897 179.134 272.456 178.942 272.919 179.168L272.976 179.196C273.439 179.422 273.631 179.981 273.405 180.444L271.379 184.594C271.153 185.057 270.595 185.249 270.131 185.023L270.074 184.995C269.611 184.769 269.419 184.211 269.645 183.748Z" fill="#F1B104"/>
<path d="M272.17 252.307L275.845 249.51C276.255 249.198 276.84 249.277 277.152 249.687L277.191 249.738C277.503 250.148 277.424 250.733 277.014 251.045L273.339 253.843C272.929 254.154 272.344 254.075 272.032 253.665L271.993 253.615C271.681 253.204 271.76 252.619 272.17 252.307Z" fill="white"/>
<path d="M256.713 240.479L260.388 237.681C260.798 237.369 261.383 237.449 261.695 237.858L261.734 237.909C262.046 238.319 261.967 238.905 261.557 239.217L257.882 242.014C257.472 242.326 256.887 242.247 256.575 241.837L256.536 241.786C256.224 241.376 256.303 240.791 256.713 240.479Z" fill="#573240"/>
<path d="M292.086 227.134L293.7 222.806C293.88 222.324 294.417 222.078 294.9 222.258L294.96 222.281C295.443 222.461 295.688 222.998 295.508 223.481L293.894 227.808C293.714 228.291 293.177 228.536 292.694 228.356L292.634 228.334C292.152 228.154 291.906 227.617 292.086 227.134Z" fill="white"/>
<path d="M271.684 206.099L273.298 201.771C273.478 201.288 274.015 201.043 274.498 201.223L274.557 201.245C275.04 201.425 275.285 201.963 275.105 202.445L273.492 206.773C273.312 207.255 272.775 207.501 272.292 207.321L272.232 207.299C271.749 207.119 271.504 206.581 271.684 206.099Z" fill="white"/>
<path d="M240.284 259.762L239.945 255.156C239.907 254.642 240.293 254.195 240.807 254.157L240.87 254.153C241.384 254.115 241.831 254.501 241.869 255.015L242.208 259.621C242.246 260.134 241.86 260.582 241.346 260.62L241.283 260.624C240.769 260.662 240.322 260.276 240.284 259.762Z" fill="white"/>
<path d="M269.596 233.137L271.21 228.81C271.39 228.327 271.927 228.082 272.41 228.262L272.469 228.284C272.952 228.464 273.198 229.001 273.018 229.484L271.404 233.811C271.224 234.294 270.687 234.54 270.204 234.36L270.144 234.337C269.661 234.157 269.416 233.62 269.596 233.137Z" fill="white"/>
<path d="M285.195 237.372L289.61 238.728C290.103 238.879 290.379 239.401 290.228 239.893L290.21 239.954C290.058 240.446 289.536 240.723 289.044 240.572L284.629 239.217C284.136 239.066 283.86 238.544 284.011 238.051L284.03 237.99C284.181 237.498 284.702 237.221 285.195 237.372Z" fill="#573240"/>
<path d="M237.99 239.99L242.405 241.345C242.898 241.497 243.174 242.018 243.023 242.511L243.005 242.572C242.853 243.064 242.332 243.341 241.839 243.19L237.424 241.835C236.931 241.684 236.655 241.162 236.806 240.669L236.824 240.608C236.976 240.116 237.498 239.839 237.99 239.99Z" fill="#573240"/>
<path d="M246.73 248.567L251.146 249.923C251.638 250.074 251.915 250.596 251.764 251.088L251.745 251.149C251.594 251.642 251.072 251.918 250.579 251.767L246.164 250.412C245.672 250.261 245.395 249.739 245.546 249.246L245.565 249.185C245.716 248.693 246.238 248.416 246.73 248.567Z" fill="#FF6E00"/>
<path d="M292.013 212.264L296.629 212.4C297.145 212.415 297.55 212.845 297.535 213.36L297.533 213.423C297.518 213.939 297.088 214.344 296.573 214.328L291.956 214.192C291.441 214.177 291.036 213.748 291.051 213.233L291.053 213.169C291.068 212.654 291.498 212.249 292.013 212.264Z" fill="#FF6E00"/>
<path d="M275.484 212.967L280.1 213.103C280.615 213.118 281.02 213.547 281.005 214.063L281.003 214.126C280.988 214.641 280.558 215.047 280.043 215.031L275.427 214.895C274.912 214.88 274.507 214.45 274.522 213.935L274.524 213.872C274.539 213.357 274.969 212.951 275.484 212.967Z" fill="#FF6E00"/>
<path d="M255.638 256.456L260.254 256.592C260.769 256.608 261.175 257.037 261.16 257.552L261.158 257.616C261.142 258.131 260.713 258.536 260.198 258.521L255.581 258.385C255.066 258.37 254.661 257.94 254.676 257.425L254.678 257.361C254.693 256.846 255.123 256.441 255.638 256.456Z" fill="white"/>
<path d="M281.958 221.327L284.089 225.425C284.327 225.882 284.149 226.445 283.692 226.683L283.635 226.712C283.178 226.95 282.615 226.772 282.377 226.315L280.246 222.217C280.009 221.76 280.187 221.197 280.644 220.959L280.7 220.93C281.158 220.692 281.721 220.87 281.958 221.327Z" fill="#F1B104"/>
<path d="M276.586 239.268L275.431 243.74C275.302 244.238 274.793 244.538 274.294 244.41L274.233 244.394C273.734 244.265 273.434 243.756 273.563 243.257L274.718 238.785C274.847 238.286 275.356 237.986 275.854 238.115L275.916 238.131C276.415 238.26 276.715 238.769 276.586 239.268Z" fill="#FF6E00"/>
<path d="M263.777 246.368L265.908 250.466C266.145 250.923 265.968 251.486 265.51 251.724L265.454 251.753C264.997 251.991 264.433 251.813 264.196 251.356L262.065 247.258C261.827 246.801 262.005 246.238 262.462 246L262.519 245.971C262.976 245.733 263.539 245.911 263.777 246.368Z" fill="#F1B104"/>
<path d="M205.652 216.622L206.447 221.172C206.535 221.68 206.196 222.163 205.688 222.252L205.626 222.262C205.118 222.351 204.635 222.012 204.546 221.504L203.751 216.954C203.663 216.447 204.002 215.963 204.51 215.875L204.573 215.864C205.08 215.775 205.564 216.115 205.652 216.622Z" fill="white"/>
<path d="M223.264 208.334L224.058 212.884C224.147 213.392 223.807 213.875 223.3 213.964L223.237 213.975C222.729 214.063 222.246 213.724 222.157 213.216L221.363 208.666C221.274 208.159 221.614 207.676 222.121 207.587L222.184 207.576C222.692 207.487 223.175 207.827 223.264 208.334Z" fill="#573240"/>
<path d="M218.851 245.882L221.952 249.304C222.298 249.686 222.269 250.276 221.887 250.622L221.84 250.665C221.458 251.011 220.868 250.982 220.522 250.6L217.421 247.177C217.075 246.795 217.104 246.205 217.486 245.859L217.533 245.816C217.915 245.471 218.505 245.5 218.851 245.882Z" fill="white"/>
<path d="M215.258 184.992L219.504 186.809C219.977 187.011 220.197 187.56 219.994 188.033L219.969 188.092C219.767 188.566 219.218 188.785 218.745 188.583L214.499 186.766C214.025 186.563 213.805 186.015 214.008 185.541L214.033 185.482C214.236 185.009 214.784 184.789 215.258 184.992Z" fill="white"/>
<path d="M223.861 223.149L226.962 226.572C227.308 226.954 227.278 227.544 226.897 227.89L226.849 227.933C226.467 228.278 225.878 228.249 225.532 227.868L222.431 224.445C222.085 224.063 222.114 223.473 222.496 223.127L222.543 223.084C222.925 222.738 223.515 222.767 223.861 223.149Z" fill="white"/>
<path d="M212.928 235.054L209.695 238.352C209.334 238.72 208.744 238.726 208.376 238.365L208.33 238.32C207.962 237.959 207.956 237.369 208.317 237.001L211.551 233.703C211.911 233.335 212.502 233.33 212.87 233.69L212.915 233.735C213.283 234.096 213.289 234.686 212.928 235.054Z" fill="#573240"/>
<path d="M220.671 195.75L217.437 199.048C217.076 199.415 216.486 199.421 216.118 199.06L216.072 199.016C215.704 198.655 215.699 198.064 216.059 197.696L219.293 194.399C219.654 194.031 220.244 194.025 220.612 194.386L220.658 194.431C221.026 194.791 221.031 195.382 220.671 195.75Z" fill="#FF6E00"/>
<path d="M232.088 252.653L229.845 256.69C229.594 257.14 229.026 257.302 228.576 257.052L228.52 257.021C228.07 256.771 227.908 256.203 228.158 255.753L230.401 251.716C230.652 251.265 231.22 251.103 231.67 251.353L231.726 251.384C232.176 251.634 232.338 252.202 232.088 252.653Z" fill="#FF6E00"/>
<path d="M208.695 198.434L206.452 202.471C206.202 202.922 205.634 203.084 205.184 202.834L205.128 202.802C204.677 202.552 204.515 201.984 204.765 201.534L207.009 197.497C207.259 197.046 207.827 196.884 208.277 197.134L208.333 197.165C208.784 197.416 208.946 197.984 208.695 198.434Z" fill="white"/>
<path d="M228.663 239.558L224.044 239.566C223.529 239.567 223.111 239.15 223.11 238.635L223.11 238.571C223.109 238.056 223.526 237.637 224.041 237.636L228.659 237.628C229.174 237.627 229.593 238.044 229.594 238.559L229.594 238.623C229.595 239.139 229.178 239.557 228.663 239.558Z" fill="#F1B104"/>
<path d="M215.202 226.538L211.762 223.456C211.379 223.112 211.346 222.522 211.69 222.139L211.733 222.091C212.076 221.707 212.666 221.675 213.05 222.019L216.49 225.101C216.874 225.444 216.906 226.034 216.562 226.418L216.52 226.465C216.176 226.849 215.586 226.881 215.202 226.538Z" fill="#FF6E00"/>
<path d="M215.721 209.959L209.236 209.971L209.24 211.9L215.724 211.889L215.721 209.959Z" fill="#F1B104"/>
<path d="M328.788 245.373L260.518 225.517L238.285 301.955L306.555 321.811L328.788 245.373Z" fill="#F6ACC1"/>
<path d="M260.517 225.517L74.2324 171.336L52.0002 247.774L238.285 301.955L260.517 225.517Z" fill="#FCD4D0"/>
<path d="M151.915 41.9868C121.837 33.2385 90.2207 51.0126 81.3001 81.6832C72.379 112.356 89.5305 144.314 119.609 153.062C149.687 161.811 181.304 144.037 190.225 113.364C199.145 82.6935 181.994 50.7352 151.915 41.9868ZM130.747 114.767C121.634 112.116 116.437 102.434 119.14 93.1397C121.843 83.8455 131.424 78.4599 140.536 81.1103C149.651 83.7613 154.848 93.4453 152.145 102.739C149.442 112.033 139.862 117.418 130.747 114.767Z" fill="#573240"/>
<path d="M144.537 39.8405C114.458 31.0921 82.8418 48.8662 73.9212 79.5368C65.0001 110.209 82.1516 142.168 112.23 150.916C142.309 159.664 173.925 141.89 182.846 111.218C191.767 80.5472 174.615 48.5889 144.537 39.8405ZM122.825 114.488C112.701 111.543 106.927 100.786 109.93 90.4609C112.933 80.1354 123.577 74.1521 133.701 77.0966C143.826 80.0417 149.601 90.8002 146.597 101.126C143.594 111.451 132.951 117.433 122.825 114.488Z" fill="#FF6E00"/>
<path d="M148.447 53.387L143.586 51.973C143.091 51.8291 142.806 51.3115 142.95 50.8167L143.005 50.6284C143.149 50.1337 143.667 49.8493 144.161 49.9932L149.023 51.4072C149.518 51.5511 149.802 52.0688 149.658 52.5635L149.604 52.7518C149.459 53.2463 148.942 53.5309 148.447 53.387Z" fill="white"/>
<path d="M165.228 102.783L160.367 101.369C159.872 101.225 159.588 100.708 159.732 100.213L159.786 100.025C159.93 99.53 160.448 99.2457 160.943 99.3896L165.804 100.804C166.299 100.947 166.583 101.465 166.439 101.96L166.385 102.148C166.241 102.643 165.723 102.927 165.228 102.783Z" fill="#A9D8D5"/>
<path d="M177.942 99.9796L172.879 99.9859C172.364 99.9866 171.945 99.5694 171.945 99.054L171.945 98.858C171.944 98.3429 172.361 97.9246 172.876 97.924L177.939 97.9178C178.454 97.9172 178.873 98.3344 178.873 98.8495L178.873 99.0455C178.874 99.5609 178.457 99.9791 177.942 99.9796Z" fill="#573240"/>
<path d="M105.035 83.3558L100.173 81.9417C99.6787 81.7978 99.3943 81.2802 99.5382 80.7854L99.593 80.5972C99.7369 80.1024 100.255 79.818 100.749 79.962L105.611 81.376C106.106 81.5199 106.39 82.0375 106.246 82.5323L106.191 82.7205C106.048 83.2151 105.53 83.4997 105.035 83.3558Z" fill="white"/>
<path d="M159.491 92.698L155.202 90.0079C154.766 89.7341 154.634 89.1584 154.908 88.7219L155.012 88.5558C155.286 88.1193 155.861 87.9875 156.298 88.2611L160.587 90.9512C161.024 91.2249 161.155 91.8007 160.882 92.2372L160.777 92.4033C160.504 92.8399 159.928 92.9717 159.491 92.698Z" fill="#F1B104"/>
<path d="M94.2578 65.6248L89.3961 64.2108C88.9013 64.0669 88.617 63.5492 88.7609 63.0545L88.8156 62.8662C88.9596 62.3714 89.4772 62.0871 89.9719 62.231L94.8336 63.645C95.3284 63.7889 95.6127 64.3065 95.4688 64.8013L95.4141 64.9896C95.27 65.4841 94.7524 65.7687 94.2578 65.6248Z" fill="#F1B104"/>
<path d="M148.225 73.7978L143.363 72.3838C142.868 72.2399 142.584 71.7222 142.728 71.2275L142.782 71.0392C142.926 70.5444 143.444 70.2601 143.939 70.404L148.8 71.818C149.295 71.9619 149.58 72.4795 149.436 72.9743L149.381 73.1625C149.237 73.6573 148.719 73.9416 148.225 73.7978Z" fill="#573240"/>
<path d="M172.978 75.5353L169.475 71.8799C169.118 71.508 169.131 70.9174 169.503 70.5608L169.644 70.4251C170.016 70.0687 170.607 70.0812 170.964 70.4531L174.467 74.1085C174.823 74.4804 174.811 75.071 174.439 75.4276L174.297 75.5633C173.925 75.9199 173.335 75.9072 172.978 75.5353Z" fill="#F6ACC1"/>
<path d="M116.587 53.5301L111.722 54.9302C111.227 55.0728 110.71 54.7868 110.567 54.2917L110.513 54.1032C110.371 53.608 110.657 53.0912 111.152 52.9488L116.017 51.5487C116.512 51.4061 117.029 51.6921 117.172 52.1872L117.226 52.3758C117.368 52.8709 117.082 53.3878 116.587 53.5301Z" fill="white"/>
<path d="M174.304 84.0459L170.466 87.3484C170.076 87.6843 169.486 87.6403 169.151 87.2498L169.023 87.1011C168.687 86.7106 168.731 86.1216 169.121 85.7856L172.959 82.4831C173.35 82.1472 173.939 82.1912 174.275 82.5817L174.402 82.7304C174.738 83.1209 174.694 83.7099 174.304 84.0459Z" fill="white"/>
<path d="M134.982 70.2318L130.116 71.6319C129.621 71.7745 129.104 71.4885 128.962 70.9934L128.908 70.8049C128.765 70.3097 129.051 69.7929 129.546 69.6505L134.412 68.2504C134.907 68.1078 135.424 68.3938 135.566 68.8889L135.62 69.0774C135.763 69.5723 135.477 70.0892 134.982 70.2318Z" fill="white"/>
<path d="M121.626 65.4652L121.272 60.4146C121.236 59.9007 121.623 59.4549 122.137 59.4187L122.333 59.4049C122.847 59.369 123.293 59.7563 123.329 60.2703L123.683 65.3209C123.718 65.8348 123.331 66.2806 122.817 66.3168L122.621 66.3305C122.108 66.3667 121.662 65.9793 121.626 65.4652Z" fill="#F1B104"/>
<path d="M127.299 51.7371L125.614 46.9629C125.443 46.4771 125.698 45.9441 126.184 45.7727L126.368 45.7074C126.854 45.536 127.387 45.7908 127.559 46.2767L129.244 51.0512C129.415 51.537 129.16 52.07 128.674 52.2413L128.489 52.3066C128.004 52.4778 127.471 52.2231 127.299 51.7371Z" fill="#573240"/>
<path d="M163.51 81.0121L161.825 76.2376C161.654 75.7519 161.909 75.2189 162.394 75.0475L162.579 74.9822C163.065 74.8108 163.598 75.0655 163.77 75.5514L165.455 80.3259C165.626 80.8117 165.371 81.3447 164.885 81.5161L164.7 81.5814C164.214 81.7528 163.682 81.4981 163.51 81.0121Z" fill="#573240"/>
<path d="M101.872 60.2676L98.981 56.111C98.6869 55.688 98.7914 55.1068 99.2143 54.8124L99.3753 54.7006C99.7983 54.4064 100.38 54.5107 100.674 54.9338L103.564 59.0903C103.859 59.5134 103.754 60.0946 103.331 60.389L103.17 60.5008C102.747 60.795 102.166 60.6905 101.872 60.2676Z" fill="#A9D8D5"/>
<path d="M162.495 64.9863L159.604 60.8297C159.31 60.4066 159.414 59.8254 159.837 59.5311L159.998 59.4192C160.421 59.1251 161.003 59.2293 161.297 59.6524L164.188 63.809C164.482 64.2321 164.377 64.8133 163.954 65.1076L163.793 65.2195C163.37 65.5136 162.789 65.4093 162.495 64.9863Z" fill="#F1B104"/>
<path d="M87.5001 78.7158L85.6017 74.0221C85.4086 73.5445 85.6392 73.0008 86.1169 72.8075L86.2987 72.734C86.7763 72.5409 87.32 72.7715 87.5133 73.2492L89.4117 77.9428C89.6048 78.4205 89.3742 78.9642 88.8965 79.1575L88.7147 79.2309C88.2369 79.424 87.6932 79.1934 87.5001 78.7158Z" fill="#A9D8D5"/>
<path d="M108.814 68.4405L111.035 63.8907C111.261 63.4278 111.819 63.2356 112.283 63.4616L112.459 63.5476C112.922 63.7737 113.114 64.3322 112.888 64.7953L110.667 69.3451C110.441 69.8081 109.882 70.0002 109.419 69.7742L109.243 69.6881C108.78 69.4619 108.588 68.9034 108.814 68.4405Z" fill="#F6ACC1"/>
<path d="M131.838 59.2544L136.532 57.3561C137.009 57.1629 137.553 57.3935 137.746 57.8712L137.82 58.053C138.013 58.5306 137.782 59.0744 137.305 59.2677L132.611 61.166C132.133 61.3591 131.59 61.1286 131.396 60.6509L131.323 60.4691C131.13 59.9914 131.36 59.4475 131.838 59.2544Z" fill="#A9D8D5"/>
<path d="M95.6896 72.7618L100.383 70.8635C100.861 70.6704 101.405 70.901 101.598 71.3786L101.671 71.5604C101.865 72.0381 101.634 72.5818 101.156 72.7751L96.4626 74.6734C95.985 74.8666 95.4413 74.636 95.2479 74.1583L95.1745 73.9765C94.9814 73.4989 95.212 72.9551 95.6896 72.7618Z" fill="#573240"/>
<path d="M148.593 64.4128L150.814 59.863C151.04 59.4001 151.599 59.2079 152.062 59.4339L152.238 59.5199C152.701 59.746 152.893 60.3045 152.667 60.7675L150.446 65.3173C150.22 65.7804 149.661 65.9725 149.198 65.7465L149.022 65.6605C148.559 65.4344 148.367 64.8759 148.593 64.4128Z" fill="#F6ACC1"/>
<path d="M150.007 80.9335L154.298 78.2469C154.735 77.9735 155.311 78.106 155.584 78.5425L155.688 78.7089C155.961 79.1456 155.829 79.7213 155.392 79.9946L151.101 82.6812C150.664 82.9546 150.089 82.8223 149.815 82.3856L149.711 82.2192C149.438 81.7827 149.57 81.2068 150.007 80.9335Z" fill="#A9D8D5"/>
<path d="M108.824 138.475L113.664 139.963C114.156 140.114 114.433 140.636 114.281 141.128L114.224 141.316C114.072 141.808 113.55 142.085 113.058 141.933L108.218 140.445C107.726 140.294 107.45 139.772 107.601 139.28L107.659 139.092C107.81 138.6 108.332 138.323 108.824 138.475Z" fill="white"/>
<path d="M92.795 88.8279L97.6344 90.3159C98.1268 90.4673 98.4033 90.9893 98.2519 91.4816L98.1942 91.6691C98.0428 92.1617 97.5208 92.4379 97.0284 92.2867L92.189 90.7988C91.6966 90.6474 91.4202 90.1254 91.5716 89.633L91.6292 89.4455C91.7805 88.9529 92.3025 88.6765 92.795 88.8279Z" fill="#A9D8D5"/>
<path d="M80.0441 91.4375L85.1066 91.5086C85.6218 91.5157 86.0335 91.9392 86.0263 92.4545L86.0236 92.6506C86.0164 93.1658 85.5929 93.5775 85.0777 93.5703L80.0152 93.4993C79.5 93.4919 79.0883 93.0687 79.0954 92.5535L79.0982 92.3575C79.1055 91.8421 79.529 91.4304 80.0441 91.4375Z" fill="#573240"/>
<path d="M152.688 109.172L157.527 110.66C158.019 110.811 158.296 111.333 158.144 111.825L158.087 112.013C157.935 112.505 157.413 112.782 156.921 112.63L152.082 111.142C151.589 110.991 151.313 110.469 151.464 109.977L151.522 109.789C151.673 109.297 152.195 109.02 152.688 109.172Z" fill="white"/>
<path d="M98.381 99L102.629 101.755C103.061 102.035 103.184 102.613 102.904 103.045L102.797 103.21C102.517 103.642 101.939 103.765 101.507 103.485L97.2589 100.73C96.8267 100.449 96.7035 99.8717 96.984 99.4395L97.0908 99.2749C97.371 98.8429 97.9488 98.7196 98.381 99Z" fill="#F1B104"/>
<path d="M163.193 127.065L168.033 128.553C168.525 128.704 168.802 129.226 168.65 129.719L168.593 129.906C168.441 130.398 167.919 130.675 167.427 130.523L162.588 129.036C162.095 128.884 161.819 128.362 161.97 127.87L162.028 127.682C162.179 127.19 162.701 126.913 163.193 127.065Z" fill="#F1B104"/>
<path d="M109.358 118.07L114.197 119.557C114.689 119.709 114.966 120.231 114.814 120.723L114.757 120.911C114.605 121.403 114.083 121.68 113.591 121.528L108.752 120.04C108.259 119.889 107.983 119.367 108.134 118.874L108.192 118.687C108.343 118.195 108.865 117.918 109.358 118.07Z" fill="#573240"/>
<path d="M84.6321 115.955L88.0792 119.663C88.4299 120.04 88.4084 120.63 88.031 120.981L87.8874 121.115C87.5099 121.466 86.9198 121.444 86.5689 121.067L83.1218 117.358C82.7711 116.981 82.7927 116.391 83.1699 116.04L83.3136 115.906C83.691 115.556 84.2813 115.577 84.6321 115.955Z" fill="#F6ACC1"/>
<path d="M140.684 138.818L145.57 137.492C146.067 137.357 146.58 137.651 146.715 138.148L146.766 138.337C146.901 138.834 146.607 139.347 146.11 139.482L141.224 140.807C140.726 140.942 140.214 140.649 140.079 140.151L140.028 139.962C139.893 139.465 140.186 138.953 140.684 138.818Z" fill="white"/>
<path d="M83.4388 107.425L87.3265 104.181C87.7221 103.851 88.3105 103.904 88.6405 104.3L88.7662 104.451C89.0962 104.846 89.0432 105.434 88.6475 105.765L84.7598 109.008C84.3642 109.338 83.7759 109.285 83.4459 108.889L83.3202 108.739C82.9902 108.343 83.0432 107.755 83.4388 107.425Z" fill="white"/>
<path d="M122.543 121.837L127.429 120.511C127.927 120.376 128.439 120.67 128.574 121.167L128.625 121.357C128.76 121.854 128.467 122.366 127.969 122.501L123.083 123.827C122.586 123.962 122.073 123.668 121.938 123.171L121.887 122.981C121.752 122.484 122.046 121.972 122.543 121.837Z" fill="white"/>
<path d="M135.827 126.807L136.104 131.862C136.132 132.377 135.738 132.817 135.223 132.845L135.027 132.855C134.513 132.884 134.073 132.489 134.045 131.975L133.768 126.92C133.74 126.405 134.134 125.965 134.648 125.937L134.844 125.926C135.359 125.898 135.798 126.292 135.827 126.807Z" fill="#F1B104"/>
<path d="M129.942 140.447L131.554 145.246C131.718 145.735 131.455 146.263 130.966 146.427L130.781 146.49C130.292 146.654 129.763 146.391 129.599 145.903L127.987 141.103C127.823 140.614 128.086 140.086 128.575 139.922L128.76 139.859C129.249 139.695 129.778 139.958 129.942 140.447Z" fill="#573240"/>
<path d="M94.182 110.623L95.794 115.422C95.958 115.911 95.695 116.44 95.2067 116.604L95.0209 116.666C94.5324 116.83 94.0035 116.567 93.8395 116.079L92.2275 111.279C92.0635 110.791 92.3265 110.262 92.8148 110.098L93.0006 110.035C93.4891 109.872 94.0179 110.134 94.182 110.623Z" fill="#573240"/>
<path d="M155.499 132.305L158.326 136.506C158.613 136.933 158.5 137.513 158.073 137.8L157.91 137.91C157.483 138.198 156.903 138.084 156.615 137.657L153.788 133.456C153.5 133.029 153.614 132.449 154.041 132.162L154.204 132.052C154.631 131.765 155.211 131.878 155.499 132.305Z" fill="#A9D8D5"/>
<path d="M94.9536 126.662L97.7807 130.863C98.0685 131.29 97.9552 131.87 97.5277 132.157L97.3651 132.267C96.9376 132.555 96.358 132.441 96.0703 132.014L93.2432 127.814C92.9554 127.386 93.0688 126.807 93.4962 126.519L93.6588 126.409C94.0862 126.122 94.6658 126.235 94.9536 126.662Z" fill="#F1B104"/>
<path d="M170.151 114.079L171.977 118.801C172.163 119.281 171.924 119.821 171.444 120.007L171.261 120.078C170.781 120.264 170.24 120.025 170.055 119.545L168.228 114.822C168.042 114.342 168.281 113.802 168.761 113.616L168.944 113.545C169.425 113.359 169.965 113.598 170.151 114.079Z" fill="#A9D8D5"/>
<path d="M148.682 124.028L146.391 128.543C146.158 129.003 145.597 129.186 145.137 128.953L144.963 128.864C144.503 128.631 144.319 128.07 144.552 127.61L146.843 123.095C147.076 122.635 147.637 122.452 148.097 122.685L148.272 122.774C148.731 123.007 148.915 123.568 148.682 124.028Z" fill="#F6ACC1"/>
<path d="M125.52 132.861L120.798 134.688C120.317 134.874 119.777 134.635 119.591 134.154L119.52 133.971C119.335 133.491 119.573 132.951 120.054 132.765L124.776 130.938C125.257 130.752 125.797 130.991 125.983 131.472L126.053 131.655C126.239 132.135 126 132.675 125.52 132.861Z" fill="#A9D8D5"/>
<path d="M161.869 119.907L157.147 121.733C156.667 121.919 156.127 121.68 155.941 121.2L155.87 121.017C155.684 120.536 155.923 119.996 156.403 119.81L161.126 117.984C161.606 117.798 162.146 118.037 162.332 118.517L162.403 118.7C162.589 119.181 162.35 119.721 161.869 119.907Z" fill="#573240"/>
<path d="M108.846 127.448L106.555 131.963C106.322 132.423 105.761 132.607 105.301 132.374L105.127 132.285C104.667 132.052 104.484 131.49 104.717 131.031L107.007 126.515C107.24 126.056 107.801 125.872 108.261 126.105L108.436 126.194C108.895 126.427 109.079 126.989 108.846 127.448Z" fill="#F6ACC1"/>
<path d="M107.685 110.908L103.353 113.528C102.912 113.795 102.338 113.654 102.072 113.213L101.97 113.045C101.704 112.605 101.845 112.031 102.285 111.764L106.617 109.144C107.058 108.877 107.632 109.018 107.898 109.459L108 109.627C108.267 110.067 108.125 110.641 107.685 110.908Z" fill="#A9D8D5"/>
<path fill-rule="evenodd" clip-rule="evenodd" d="M191.881 433.725C191.881 433.725 192.056 381.49 177.62 360.413C177.62 360.413 161.488 337.476 157.014 330.231C157.014 330.231 154.259 323.563 151.31 320.146C150.607 319.344 149.606 318.864 148.54 318.82C147.471 318.776 146.434 319.174 145.667 319.918C142.581 322.908 138.259 330.688 141.875 349.988L108.256 334.181C108.256 334.181 97.2775 298.969 87.8632 300.023C87.8632 300.023 84.0448 299.771 84.9584 316.875C84.9584 316.875 79.7666 308.919 75.1077 312.02C75.1077 312.02 69.951 316.717 74.5747 338.667C74.5747 338.667 65.3127 332.424 64.0887 339.722C63.7812 341.546 64.2761 343.411 65.4415 344.846C69.9891 350.31 85.0843 367.871 103.377 382.808L104.917 433.262L191.881 433.725Z" fill="white"/>
<path fill-rule="evenodd" clip-rule="evenodd" d="M146.255 368.216C145.189 363.9 144.384 359.455 144.483 358.828C144.565 358.342 144.237 357.883 143.754 357.801C143.268 357.719 142.808 358.047 142.726 358.533C142.615 359.162 143.192 363.417 144.126 367.783L144.132 367.806C143.051 367.654 141.965 367.59 140.876 367.602C137.573 367.628 134.249 368.357 131.066 369.484C130.305 369.763 129.915 370.606 130.193 371.364C130.472 372.123 131.312 372.512 132.07 372.237C134.937 371.151 137.936 370.416 140.928 370.328C142.217 370.29 143.502 370.369 144.776 370.591C145.397 373.08 146.1 375.344 146.785 376.673C147.59 378.243 149.171 380.073 150.855 380.591C152.191 381.001 153.631 380.752 154.943 379.139C156.249 377.537 156.152 375.847 155.362 374.295C154.404 372.424 152.252 370.773 150.721 369.947C149.268 369.162 147.775 368.597 146.255 368.216ZM147.034 371.148C147.88 371.417 148.718 371.76 149.543 372.184C150.738 372.796 152.46 373.988 153.227 375.414C153.614 376.134 153.716 376.925 153.122 377.689C152.797 378.105 152.48 378.363 152.135 378.445C151.745 378.539 151.359 378.416 150.993 378.208C150.027 377.663 149.189 376.585 148.694 375.666C148.138 374.641 147.57 373.004 147.034 371.148Z" fill="#573240"/>
<path fill-rule="evenodd" clip-rule="evenodd" d="M112.884 338.866L112.058 335.843L108.687 334.204L110.195 340.139C110.283 340.465 110.483 340.75 110.756 340.946L130.19 354.842C130.849 355.312 131.763 355.159 132.233 354.503C132.703 353.846 132.55 352.929 131.895 352.459L112.884 338.866Z" fill="#573240"/>
<path fill-rule="evenodd" clip-rule="evenodd" d="M101.059 345.197C95.961 325.727 89.5744 316.626 85.7941 312.673C85.6711 312.544 85.3929 312.28 85.3929 312.28L85.5393 316.86C85.5393 316.86 85.7589 317.115 85.8702 317.261C89.3548 321.838 94.1777 330.444 98.2421 345.999C98.2362 346.283 98.3124 346.57 98.4646 346.813C98.6521 347.296 99.0767 347.636 99.5657 347.727L122.391 363.645C123.053 364.107 123.967 363.946 124.429 363.282C124.892 362.62 124.731 361.706 124.066 361.244L101.059 345.197Z" fill="#573240"/>
<path fill-rule="evenodd" clip-rule="evenodd" d="M73.63 334.839C73.63 334.839 116.508 369.372 116.526 369.501C116.629 370.303 117.188 370.962 116.652 371.568C116.116 372.174 115.191 372.23 114.585 371.694C114.544 371.521 74.2947 338.692 74.2947 338.692" fill="#573240"/>
<path fill-rule="evenodd" clip-rule="evenodd" d="M103.997 382.886C103.997 382.886 115.625 393.758 122.308 400.004C123.075 400.722 123.335 401.832 122.964 402.815C122.595 403.799 121.669 404.464 120.621 404.499C114.053 404.725 104.682 405.044 104.682 405.044L103.997 382.886Z" fill="#573240"/>
</g>
<defs>
<clipPath id="clip0">
<rect width="454" height="434" fill="white"/>
</clipPath>
</defs>
</svg>
