<svg width="408" height="239" viewBox="0 0 408 239" fill="none" xmlns="http://www.w3.org/2000/svg">
<g clip-path="url(#clip0)">
<rect opacity="0.01" x="9" y="154.887" width="390" height="38.6576" fill="white" fill-opacity="0.01"/>
<rect x="9" y="192.164" width="390" height="1.38063" fill="#12C35A"/>
<path d="M190.066 165.453H191.336C191.298 164.055 190.062 163.041 188.289 163.041C186.538 163.041 185.196 164.042 185.196 165.547C185.196 166.761 186.065 167.473 187.467 167.852L188.498 168.133C189.431 168.38 190.152 168.687 190.152 169.463C190.152 170.315 189.338 170.878 188.217 170.878C187.203 170.878 186.359 170.426 186.282 169.476H184.961C185.047 171.056 186.27 172.032 188.225 172.032C190.275 172.032 191.456 170.954 191.456 169.476C191.456 167.903 190.054 167.294 188.946 167.021L188.093 166.799C187.412 166.625 186.504 166.305 186.508 165.47C186.508 164.728 187.186 164.179 188.26 164.179C189.261 164.179 189.973 164.647 190.066 165.453ZM192.927 171.887H194.201V165.342H192.927V171.887ZM193.57 164.332C194.009 164.332 194.376 163.991 194.376 163.574C194.376 163.156 194.009 162.811 193.57 162.811C193.127 162.811 192.765 163.156 192.765 163.574C192.765 163.991 193.127 164.332 193.57 164.332ZM198.659 174.478C200.326 174.478 201.613 173.716 201.613 172.032V165.342H200.364V166.403H200.27C200.044 165.998 199.593 165.257 198.374 165.257C196.793 165.257 195.63 166.505 195.63 168.589C195.63 170.677 196.819 171.789 198.365 171.789C199.567 171.789 200.032 171.112 200.262 170.694H200.343V171.981C200.343 173.008 199.64 173.451 198.672 173.451C197.611 173.451 197.198 172.919 196.972 172.544L195.877 172.995C196.222 173.797 197.096 174.478 198.659 174.478ZM198.647 170.733C197.509 170.733 196.917 169.859 196.917 168.572C196.917 167.315 197.496 166.339 198.647 166.339C199.759 166.339 200.355 167.247 200.355 168.572C200.355 169.923 199.746 170.733 198.647 170.733ZM204.596 168.001C204.596 166.957 205.235 166.36 206.121 166.36C206.986 166.36 207.51 166.927 207.51 167.878V171.887H208.784V167.724C208.784 166.105 207.894 165.257 206.556 165.257C205.571 165.257 204.928 165.713 204.625 166.407H204.544V165.342H203.321V171.887H204.596V168.001ZM215.088 163.16H213.771V171.887H215.088V163.16ZM218.178 168.001C218.178 166.957 218.817 166.36 219.703 166.36C220.568 166.36 221.092 166.927 221.092 167.878V171.887H222.366V167.724C222.366 166.105 221.476 165.257 220.138 165.257C219.153 165.257 218.51 165.713 218.207 166.407H218.126V165.342H216.903V171.887H218.178V168.001Z" fill="black"/>
<rect x="322" y="191" width="43" height="4" fill="white"/>
<path fill-rule="evenodd" clip-rule="evenodd" d="M332.428 204.718C332.57 199.304 336.972 194.944 342.38 194.944C347.79 194.944 352.19 199.304 352.332 204.718H350.46C350.318 200.352 346.748 196.859 342.38 196.859C338.013 196.859 334.442 200.352 334.302 204.718H332.428ZM364.236 196.516C362.743 197.419 360.995 197.938 359.127 197.938C353.629 197.938 349.172 193.434 349.172 187.895C349.172 182.356 353.629 177.853 359.127 177.853C362.189 177.853 364.927 179.248 366.755 181.442L366.302 184.148C364.952 181.546 362.244 179.768 359.127 179.768C354.671 179.768 351.045 183.405 351.045 187.895C351.045 192.386 354.671 196.023 359.127 196.023C361.282 196.023 363.242 195.174 364.692 193.789L364.236 196.516ZM319.318 174.507C321.079 172.919 323.401 171.952 325.948 171.952C331.447 171.952 335.905 176.457 335.905 181.996C335.905 187.533 331.447 192.038 325.948 192.038C324.55 192.038 323.219 191.746 322.011 191.221L321.632 188.867C322.882 189.662 324.362 190.123 325.948 190.123C330.406 190.123 334.032 186.485 334.032 181.996C334.032 177.505 330.406 173.867 325.948 173.867C323.431 173.867 321.178 175.028 319.695 176.846L319.318 174.507ZM368.104 173.356C363.323 172.62 359.66 168.451 359.66 163.429C359.66 157.89 364.116 153.386 369.615 153.386C370.228 153.386 370.829 153.442 371.412 153.549L371.097 155.437C370.616 155.348 370.122 155.301 369.615 155.301C365.157 155.301 361.532 158.938 361.532 163.429C361.532 167.509 364.526 170.886 368.419 171.468L368.104 173.356ZM314.914 144.198C315.301 144.152 315.696 144.128 316.096 144.128C321.593 144.128 326.051 148.631 326.051 154.17C326.051 159.179 322.404 163.342 317.64 164.092L317.336 162.203C321.206 161.601 324.178 158.236 324.178 154.17C324.178 149.681 320.552 146.043 316.096 146.043C315.637 146.043 315.188 146.081 314.751 146.154L314.637 145.454C314.724 145.024 314.816 144.606 314.914 144.198ZM357.026 127.024C357.786 127.295 358.508 127.578 359.198 127.87C356.689 129.248 354.985 131.926 354.985 135.004C354.985 139.495 358.611 143.132 363.067 143.132C366.7 143.132 369.78 140.717 370.796 137.392C371.234 138.194 371.576 138.984 371.843 139.749C370.164 142.9 366.864 145.047 363.067 145.047C357.569 145.047 353.112 140.543 353.112 135.004C353.112 131.755 354.646 128.861 357.026 127.024ZM333.339 120.302C338.729 120.429 343.059 124.882 343.059 130.342C343.059 135.881 338.602 140.385 333.104 140.385C327.625 140.385 323.18 135.912 323.149 130.402C323.801 129.906 324.459 129.47 325.116 129.09C325.054 129.497 325.021 129.915 325.021 130.342C325.021 134.832 328.646 138.47 333.104 138.47C337.562 138.47 341.186 134.832 341.186 130.342C341.186 126.178 338.069 122.747 334.06 122.27L333.339 120.302ZM343.112 107.89C342.976 108.481 342.904 109.095 342.904 109.727C342.904 114.216 346.529 117.854 350.987 117.854C352.624 117.854 354.148 117.365 355.423 116.52L354.365 119.176C353.309 119.56 352.173 119.769 350.987 119.769C345.488 119.769 341.032 115.266 341.032 109.727C341.032 109.1 341.088 108.486 341.197 107.89H343.112Z" fill="#A1BEEF"/>
<path fill-rule="evenodd" clip-rule="evenodd" d="M343.883 151.424C348.295 151.424 351.888 154.986 351.888 159.386C351.888 163.787 348.295 167.349 343.883 167.349C343.367 167.349 342.947 167.779 342.947 168.307C342.947 168.836 343.367 169.264 343.883 169.264C349.341 169.264 353.759 164.831 353.759 159.386C353.759 153.94 349.341 149.508 343.883 149.508C343.367 149.508 342.947 149.937 342.947 150.466C342.947 150.994 343.367 151.424 343.883 151.424Z" fill="#A1BEEF"/>
<path fill-rule="evenodd" clip-rule="evenodd" d="M343.663 167.349C339.253 167.349 335.659 163.787 335.659 159.386C335.659 154.986 339.253 151.424 343.663 151.424C344.181 151.424 344.599 150.994 344.599 150.466C344.599 149.937 344.181 149.508 343.663 149.508C338.205 149.508 333.787 153.94 333.787 159.386C333.787 164.831 338.205 169.264 343.663 169.264C344.181 169.264 344.599 168.836 344.599 168.307C344.599 167.779 344.181 167.349 343.663 167.349Z" fill="#A1BEEF"/>
<path fill-rule="evenodd" clip-rule="evenodd" d="M357.951 108.848H339.722C339.206 108.848 338.785 108.418 338.785 107.889C338.785 107.361 339.206 106.932 339.722 106.932H359.369C359.684 106.932 359.977 107.093 360.151 107.362C360.324 107.63 360.353 107.97 360.229 108.265L353.015 125.53H353.594C359.461 125.53 365.027 128.176 368.809 132.761C372.591 137.346 374.204 143.403 373.217 149.316C369.358 172.417 363.936 204.878 363.936 204.878C363.859 205.338 363.469 205.674 363.013 205.674H339.722C339.206 205.674 338.785 205.246 338.785 204.717C338.785 204.189 339.206 203.759 339.722 203.759H362.224L371.37 148.992C372.265 143.636 370.805 138.148 367.378 133.995C363.952 129.841 358.909 127.446 353.594 127.446H351.596C351.282 127.446 350.988 127.283 350.815 127.016C350.642 126.746 350.613 126.407 350.736 126.111L357.951 108.848Z" fill="#3968BE"/>
<path fill-rule="evenodd" clip-rule="evenodd" d="M334.544 125.53L327.329 108.265C327.206 107.97 327.235 107.63 327.408 107.362C327.581 107.093 327.875 106.932 328.189 106.932H347.836C348.353 106.932 348.773 107.361 348.773 107.889C348.773 108.418 348.353 108.848 347.836 108.848H329.608L336.822 126.111C336.946 126.407 336.917 126.746 336.744 127.016C336.57 127.283 336.277 127.446 335.962 127.446H333.964C328.65 127.446 323.607 129.841 320.181 133.995C316.753 138.148 315.293 143.636 316.188 148.992L325.335 203.759H347.836C348.353 203.759 348.773 204.189 348.773 204.717C348.773 205.246 348.353 205.674 347.836 205.674H324.545C324.09 205.674 323.7 205.338 323.623 204.878C323.623 204.878 318.201 172.417 314.342 149.316C313.355 143.403 314.967 137.346 318.749 132.761C322.532 128.176 328.098 125.53 333.964 125.53H334.544Z" fill="#3968BE"/>
<path fill-rule="evenodd" clip-rule="evenodd" d="M343.781 107.055C343.844 106.731 343.912 106.407 343.983 106.085C344.348 104.436 344.752 102.789 345.281 101.183C346.134 98.589 346.187 98.5293 346.886 96.6731C347.27 95.6505 347.735 94.6618 348.205 93.679C354.058 81.4278 364.617 72.4915 377.115 67.9831C377.931 67.6887 384.405 65.7543 387.261 65.3035C387.997 65.1871 388.55 65.1862 388.818 65.2554C389.077 65.3223 389.252 65.4469 389.369 65.5684C389.589 65.7983 389.781 66.1834 389.567 66.7242C389.481 66.9434 389.208 67.3336 388.824 67.7506C388.171 68.4622 387.184 69.3612 387.069 69.4811C384.344 72.2928 382.015 75.4935 379.106 78.1173C376.365 80.5906 373.271 82.6358 369.994 84.2852C366.19 86.1993 358.715 88.8597 353.268 92.8222C351.366 94.2062 349.706 95.7434 348.587 97.4766C348.046 98.8209 347.559 100.189 347.124 101.575C347.119 101.632 346.098 105.204 345.81 106.507C345.769 106.69 345.73 106.872 345.693 107.055H343.781Z" fill="#EF7B58"/>
<path fill-rule="evenodd" clip-rule="evenodd" d="M348.816 97.4656C348.274 98.8099 353.384 83.6123 370.222 78.2589C380.547 74.9762 391.033 64.9133 389.597 65.5574C389.309 65.6868 390.009 66.1724 389.795 66.7132C389.71 66.9325 389.437 67.3226 389.053 67.7396C388.399 68.4512 387.413 69.3502 387.297 69.4701C384.573 72.2819 382.243 75.4825 379.335 78.1063C376.593 80.5797 373.499 82.6248 370.222 84.2742C366.418 86.1884 358.944 88.8487 353.497 92.8112C351.595 94.1952 349.934 95.7325 348.816 97.4656Z" fill="#F24D46"/>
<path fill-rule="evenodd" clip-rule="evenodd" d="M367.722 107.841C365.394 106.847 356.308 105.428 353.665 105.818C353.155 105.893 352.847 105.184 352.964 104.669C353.02 104.418 353.166 104.148 353.507 103.962C353.737 103.836 354.328 103.721 355.183 103.741C358.341 103.823 366.227 105.127 368.443 106.074C374.596 108.704 377.537 113.988 380.147 119.837C380.204 119.888 380.255 119.947 380.3 120.014C382.22 122.896 385.435 124.742 388.851 126.277C392.457 127.895 396.292 129.158 399.243 130.757C401.403 131.926 403.439 133.34 405.302 134.958C407.641 136.988 409.718 139.479 411.008 142.348C411.553 143.558 411.411 144.412 411.007 144.965C410.74 145.331 410.326 145.612 409.757 145.757C409.18 145.905 408.392 145.918 407.454 145.79C402.167 145.074 391.429 139.945 389.741 138.603C384.022 134.06 381.477 127.539 378.809 121.453C376.298 115.731 373.694 110.393 367.722 107.841ZM354.776 105.151L354.774 105.159L354.776 105.152V105.151Z" fill="#EF7B58"/>
<path fill-rule="evenodd" clip-rule="evenodd" d="M378.75 121.514C392.785 146.416 401.065 130.859 409.698 145.818C409.698 145.818 408.333 145.979 407.395 145.852C405.373 145.577 402.555 144.658 399.751 143.554C395.22 141.766 390.724 139.492 389.682 138.664C383.963 134.121 378.75 121.514 378.75 121.514Z" fill="#F24D46"/>
<path fill-rule="evenodd" clip-rule="evenodd" d="M330.522 106.981C330.285 106.406 330.035 105.835 329.771 105.271C328.802 103.196 327.627 101.282 326.264 99.539C326.207 99.4962 326.154 99.4459 326.108 99.3885C322.005 94.4087 317.231 94.1601 312.291 95.1603C306.978 96.2362 301.469 98.6836 296.295 98.8775C295.08 98.923 287.762 97.9816 284.798 96.806C284.124 96.5384 283.642 96.2309 283.388 95.9502C283.146 95.6835 283.034 95.4006 283.006 95.1317C282.985 94.9337 283.02 94.7376 283.113 94.5517C283.207 94.3661 283.443 94.1597 283.567 94.0783C285.888 92.5561 288.815 91.5583 291.35 90.5059C300.488 86.7136 309.9 85.3242 318.838 90.596C324.391 93.872 328.707 98.5467 331.461 104.445C331.851 105.279 332.21 106.125 332.546 106.981H330.522Z" fill="#EF7B58"/>
<path fill-rule="evenodd" clip-rule="evenodd" d="M283 95.9534C287.762 96.0229 290.466 96.844 296.388 94.7963C310.13 90.0435 315.195 88.536 317.809 94.7963C317.809 94.7963 313.911 94.7572 311.903 95.1635C306.59 96.2393 301.082 98.6868 295.907 98.8807C294.692 98.9262 287.374 97.9848 284.411 96.8092C283.736 96.5416 283 95.9534 283 95.9534Z" fill="#F24D46"/>
<path fill-rule="evenodd" clip-rule="evenodd" d="M349.605 107.063C349.637 106.827 350.041 106.602 350.237 106.442C352.832 104.333 355.566 102.57 358.423 101.166C359.094 100.837 360.038 100.405 360.895 100.054C367.796 97.2277 375.361 96.4169 383.378 97.799C386.461 98.3305 389.524 99.086 392.476 100.143C394.213 100.764 395.98 101.502 397.534 102.525C397.755 102.671 398.57 103.128 398.904 103.564C399.327 104.118 399.339 104.688 398.952 105.191C398.159 106.223 396.741 106.901 395.115 107.284C392.949 107.794 390.421 107.823 388.928 107.828C384.973 107.843 380.972 107.159 377.151 106.14C374.716 105.49 370.227 103.558 366.116 102.535C364.413 102.111 362.781 101.824 361.427 101.905C358.308 103.198 355.33 104.924 352.519 107.063H349.605Z" fill="#EF7B58"/>
<path fill-rule="evenodd" clip-rule="evenodd" d="M361.264 101.919C372.672 94.2815 381.846 111.289 398.789 105.206C400 104.771 396.578 106.915 394.952 107.299C392.786 107.808 390.258 107.837 388.765 107.842C384.81 107.858 380.809 107.173 376.987 106.154C374.553 105.505 370.064 103.572 365.953 102.549C364.25 102.125 362.618 101.838 361.264 101.919Z" fill="#F24D46"/>
<path fill-rule="evenodd" clip-rule="evenodd" d="M334.714 107.078L327.966 37.629C327.914 37.1032 328.29 36.6339 328.804 36.5815C329.318 36.5293 329.777 36.9138 329.829 37.4397L336.596 107.078H334.714ZM339.834 107.078V50.4647C339.834 49.9364 340.254 49.5073 340.77 49.5073C341.287 49.5073 341.706 49.9364 341.706 50.4647V107.078H339.834Z" fill="#EF7B58"/>
<path d="M328.979 40.8981C331.382 40.8981 333.329 38.9062 333.329 36.4491C333.329 33.9919 331.382 32 328.979 32C326.577 32 324.629 33.9919 324.629 36.4491C324.629 38.9062 326.577 40.8981 328.979 40.8981Z" fill="#FFD274"/>
<path d="M342.971 49.0896C344.269 47.9058 344.351 45.8369 343.154 44.4686C341.957 43.1002 339.934 42.9505 338.636 44.1343C337.338 45.318 337.256 47.3869 338.453 48.7552C339.65 50.1236 341.673 50.2733 342.971 49.0896Z" fill="#FFD274"/>
<path fill-rule="evenodd" clip-rule="evenodd" d="M41.6289 206.246V137.593C41.6289 134.289 44.2474 131.61 47.4774 131.61H47.4776V118.766C47.4776 116.436 48.3825 114.202 49.9932 112.555C51.4103 111.106 53.2714 110.215 55.2494 110.023V109.982H68.5468V110.023C70.5247 110.215 72.3858 111.106 73.8029 112.555C75.4136 114.202 76.3185 116.436 76.3185 118.766V131.61H76.3187C79.5488 131.61 82.1673 134.289 82.1673 137.593V206.246H41.6289Z" fill="#FFDB43"/>
<path d="M76.2999 128.609H47.459V131.601H76.2999V128.609Z" fill="white"/>
<path fill-rule="evenodd" clip-rule="evenodd" d="M67.9269 206.278C67.527 202.786 66.7493 199.14 65.3606 196.065C63.7121 192.415 61.1935 189.573 57.309 188.983C57.3055 189.423 57.2821 189.87 57.2378 190.325C57.0253 192.509 56.3598 195.222 54.6554 196.729C53.7228 197.552 52.805 197.828 51.9892 197.772C50.7594 197.689 49.6872 196.827 49.0498 195.557C48.0812 193.628 48.1562 190.81 50.0163 189.117C51.4565 187.805 53.3711 187.125 55.2966 186.993C54.2887 180.458 48.0387 176.31 41.6289 175.521V173.604C48.9971 174.456 56.1949 179.392 57.1923 187.036L57.2826 187.047C61.9879 187.634 65.0936 190.907 67.0604 195.262C68.5578 198.578 69.3868 202.524 69.8032 206.278H67.9269ZM55.437 188.9C53.9138 188.997 52.3984 189.511 51.2613 190.546C50.0698 191.632 50.0951 193.448 50.7155 194.683C51.0318 195.313 51.5022 195.821 52.1122 195.862C52.5227 195.889 52.962 195.694 53.4313 195.28C54.7884 194.08 55.2053 191.874 55.3746 190.135C55.4155 189.715 55.4361 189.303 55.437 188.9ZM82.1671 141.02V142.991C81.82 143.086 81.5294 143.174 81.4055 143.2C75.05 144.543 68.2944 149.902 69.0952 157.179C70.1453 156.539 71.3557 156.081 72.4925 155.932C74.0807 155.725 75.5032 156.125 76.3132 157.196C76.8478 157.905 77.1527 158.939 76.9748 160.393C76.7447 162.277 75.9364 163.254 74.9822 163.673C74.0432 164.085 72.8623 163.959 71.693 163.391C70.4213 162.772 69.1716 161.636 68.3276 160.381C68.2983 160.429 68.2708 160.477 68.2451 160.527C65.4508 165.818 66.6406 171.991 69.958 176.266C72.8152 179.946 77.2735 182.223 82.1671 181.265V183.214C76.6854 184.152 71.7027 181.593 68.4914 177.456C64.7324 172.613 63.4312 165.612 66.5976 159.617C66.801 159.231 67.0831 158.856 67.424 158.498C67.3795 158.339 67.3444 158.179 67.3195 158.023C65.9496 149.438 73.6194 142.892 81.0263 141.325C81.1951 141.288 81.6604 141.149 82.1671 141.02ZM69.6698 159.033C70.301 160.116 71.405 161.13 72.4967 161.661C73.1217 161.964 73.7414 162.134 74.2431 161.913C74.7304 161.699 74.9992 161.117 75.1169 160.156C75.2154 159.349 75.1281 158.76 74.8317 158.367C74.3948 157.79 73.5863 157.72 72.7295 157.831C71.6969 157.967 70.5675 158.414 69.6698 159.033ZM41.6289 153.033C46.6937 151.21 51.1154 147.685 53.4477 142.548C54.6049 139.998 55.2554 137.211 55.3119 134.399C55.3304 133.465 55.3267 132.505 55.1769 131.581L57.0709 131.585C57.1948 132.527 57.2027 133.496 57.1838 134.437C57.1222 137.514 56.4121 140.565 55.146 143.354C52.5027 149.177 47.4166 153.132 41.6289 155.051V153.033ZM76.3168 119.507C74.6288 121.4 72.4187 122.943 70.1325 123.785C67.5482 124.738 64.8819 124.794 62.7396 123.587C61.9492 123.142 61.2239 122.526 60.5998 121.711C55.4763 122.692 50.9082 118.77 49.1616 114.495C49.0821 114.302 49.0086 114.105 48.9412 113.911C49.394 113.272 49.9097 112.658 50.3679 112.227C50.4769 112.723 50.6854 113.258 50.8892 113.756C52.2493 117.085 55.6186 120.262 59.547 119.927C59.4481 119.708 59.3548 119.48 59.2669 119.244C59.0132 118.561 59.0121 117.649 59.2547 116.697C59.578 115.427 60.3214 114.078 61.2278 113.207C62.4838 111.999 64.0098 111.648 65.3654 112.88C66.6267 114.027 66.6471 115.682 65.8434 117.314C65.1421 118.739 63.794 120.118 62.4326 120.951C62.8007 121.347 63.2064 121.664 63.6428 121.91C65.3387 122.865 67.4515 122.738 69.4977 121.984C72.0781 121.033 74.5733 119.075 76.0832 116.749C76.2728 117.552 76.3273 118.478 76.3168 119.507ZM61.3753 119.395C62.475 118.775 63.5972 117.619 64.171 116.453C64.557 115.669 64.7272 114.862 64.1213 114.311C63.5871 113.824 63.0055 114.126 62.5104 114.602C61.8426 115.245 61.3049 116.244 61.0666 117.179C60.9348 117.697 60.8792 118.192 61.0173 118.564C61.1269 118.859 61.2464 119.135 61.3753 119.395Z" fill="white"/>
<path fill-rule="evenodd" clip-rule="evenodd" d="M98.7134 87.3108L93.7969 92.0118L110.003 212.944L213.16 217.281L347.368 212.944V197.535L213.16 200.822L117.805 197.535L98.7134 87.3108Z" fill="#3968BE"/>
<path fill-rule="evenodd" clip-rule="evenodd" d="M98.791 87.3109L249.331 98.4272L273.104 190.009L347.446 197.535L213.237 201.789L117.883 197.535L98.791 87.3109Z" fill="#628DDF"/>
<path fill-rule="evenodd" clip-rule="evenodd" d="M273.26 190.043L139.947 197.367L213.234 200.639L347.446 197.434V199.769L214.162 202.946V217.241L213.237 217.281L212.29 217.243V202.934L117.821 198.718C117.285 198.694 116.837 198.29 116.746 197.749L98.791 87.3109L101.04 87.477L118.841 196.426L120.051 196.48L272.618 188.158C272.841 189.025 273.086 189.968 273.104 190.009C273.107 190.017 273.161 190.028 273.26 190.043Z" fill="white"/>
<path fill-rule="evenodd" clip-rule="evenodd" d="M107.117 95.0809L124.561 189.974L265.622 184.222L244.217 102.729L107.117 95.0809Z" fill="white"/>
<path fill-rule="evenodd" clip-rule="evenodd" d="M132.347 210.942C132.324 210.854 132.314 210.762 132.317 210.666L132.573 202.606C132.575 202.539 132.585 202.472 132.6 202.408L134.433 202.486C134.443 202.545 134.447 202.606 134.445 202.669L134.188 210.73C134.185 210.838 134.164 210.94 134.128 211.038L132.347 210.942ZM128.946 210.76C128.934 210.693 128.929 210.624 128.931 210.554L129.188 202.494C129.191 202.414 129.202 202.339 129.222 202.266L131.043 202.342C131.056 202.411 131.062 202.483 131.059 202.556L130.803 210.616C130.8 210.699 130.787 210.781 130.765 210.857L128.946 210.76ZM125.551 210.577C125.546 210.533 125.545 210.487 125.546 210.441L125.803 202.381C125.805 202.291 125.82 202.205 125.846 202.124L127.651 202.199C127.669 202.277 127.677 202.36 127.674 202.443L127.417 210.503C127.416 210.562 127.408 210.62 127.397 210.677L125.551 210.577ZM122.161 210.396C122.16 210.374 122.16 210.352 122.161 210.329L122.417 202.269C122.421 202.167 122.439 202.071 122.47 201.982L124.259 202.057C124.281 202.144 124.292 202.235 124.289 202.331L124.032 210.391C124.031 210.427 124.028 210.462 124.023 210.495L122.161 210.396ZM118.775 210.214L119.032 202.156C119.036 202.044 119.058 201.937 119.095 201.838L120.865 201.913C120.893 202.009 120.907 202.112 120.904 202.218L120.647 210.278C120.646 210.291 120.646 210.302 120.645 210.315L118.775 210.214Z" fill="#628DDF"/>
<path fill-rule="evenodd" clip-rule="evenodd" d="M189.545 69.8114L186.347 81.7061L182.197 81.5864L183.253 68.4472L189.545 69.8114ZM157.871 69.8114L161.664 79.7974L157.871 81.7061L152.893 71.9817L157.871 69.8114ZM174.099 65.278L174.114 78.6854H169.765L168.185 66.1453L174.099 65.278Z" fill="#FFD376"/>
</g>
<defs>
<clipPath id="clip0">
<rect width="408" height="239" fill="white"/>
</clipPath>
</defs>
</svg>
