<svg width="82" height="82" viewBox="0 0 82 82" fill="none" xmlns="http://www.w3.org/2000/svg">
<mask id="mask0" mask-type="alpha" maskUnits="userSpaceOnUse" x="1" y="1" width="80" height="80">
<circle r="40" transform="matrix(-1 0 0 1 41 41)" fill="#C4C4C4"/>
</mask>
<g mask="url(#mask0)">
<mask id="mask1" mask-type="alpha" maskUnits="userSpaceOnUse" x="-15" y="-27" width="113" height="109">
<rect width="113" height="108.015" transform="matrix(-1 0 0 1 98 -27)" fill="#C4C4C4"/>
</mask>
<g mask="url(#mask1)">
<path d="M41.0576 35.3405C41.0576 35.3405 35.3499 33.1452 26.9391 29.1937C18.5283 25.2422 26.9391 41.4872 26.9391 41.4872C37.0374 42.5117 56.8636 47.195 54.6684 41.4872C54.2293 34.4624 52.9121 32.7061 58.9902 21.2907C60.0219 19.353 62.5714 13.862 57.234 12.9486C54.6684 12.5096 49.72 14.2658 46.2576 17.7782C42.7951 21.2907 43.2529 27.8765 41.0576 35.3405Z" fill="#12C35A"/>
<path d="M52.9121 34.9015H26.5688V64.7573L36.228 96.3693L55.5464 94.6131L52.9121 34.9015Z" fill="#12C35A"/>
<path d="M69.75 115.477C69.75 83.6366 60.3761 55.5371 54.6683 40.1701L38.8623 37.0967C38.8623 37.0967 39.3655 37.6712 45.9122 57.0051L51.8158 77.9289V88.9053L28.2779 69.7615C28.2779 69.7615 33.13 66.285 28.2779 60.7721C28.2779 60.7721 34.1843 56.7222 28.2779 52.0964C28.2779 52.0964 35.8479 49.3785 30.6127 42.6904C30.6127 42.6904 40.9158 38.1289 30.6127 29.7129C30.6127 29.7129 23.2252 22.4155 20.0368 26.221C18.7074 27.8076 17.6763 30.5666 20.9419 34.1562C20.9419 34.1562 14.2539 35.1744 17.972 43.8552C16.7635 43.2458 11.3071 47.3086 17.036 53.3821C17.036 53.3821 7.49634 55.776 20.0368 66.5396C20.0368 66.5396 28.9273 74.6879 28.2779 90.2225C27.9933 97.0309 27.0078 104.272 20.9419 115.477C48.6377 115.477 49.6202 115.737 69.75 115.477Z" fill="#12C35A"/>
<path fill-rule="evenodd" clip-rule="evenodd" d="M16.4159 54.1514C16.1356 54.5471 16.2291 55.0952 16.6249 55.3755L27.133 62.8187C27.9149 63.4789 28.9244 64.7248 29.278 66.0961C29.4521 66.7714 29.4622 67.4543 29.2343 68.1195C29.0071 68.7826 28.5194 69.4981 27.5815 70.2015C27.1936 70.4925 27.1149 71.0429 27.4059 71.4309C27.6969 71.8188 28.2473 71.8975 28.6353 71.6065C29.8048 70.7293 30.5356 69.7398 30.8957 68.6888C31.2551 67.6398 31.2214 66.5995 30.9786 65.6576C30.502 63.8094 29.2028 62.2574 28.2319 61.4483L28.2054 61.4262L17.64 53.9424C17.2443 53.6621 16.6962 53.7556 16.4159 54.1514Z" fill="black"/>
<path fill-rule="evenodd" clip-rule="evenodd" d="M17.9479 44.4941C17.6686 44.8905 17.7636 45.4384 18.1601 45.7176L29.3489 53.5994C30.1312 54.2595 31.0777 55.4252 31.4456 56.7115C31.6275 57.3475 31.6623 57.9911 31.491 58.6197C31.3209 59.244 30.931 59.9143 30.1658 60.5841C29.8009 60.9035 29.764 61.4582 30.0834 61.8232C30.4028 62.1881 30.9575 62.225 31.3225 61.9056C32.313 61.0386 32.9131 60.0808 33.1854 59.0815C33.4566 58.0865 33.3865 57.1111 33.1341 56.2287C32.6376 54.4926 31.4159 53.0357 30.447 52.2282L30.4196 52.2054L19.1715 44.2819C18.775 44.0026 18.2272 44.0976 17.9479 44.4941Z" fill="black"/>
<path fill-rule="evenodd" clip-rule="evenodd" d="M20.6025 34.8072C20.308 35.1925 20.3816 35.7436 20.7669 36.0381L31.128 43.9575L31.1503 43.9725C32.3501 44.778 33.4391 46.025 33.7815 47.33C33.9476 47.9631 33.939 48.6071 33.6912 49.2502C33.4415 49.8984 32.9244 50.6078 31.972 51.3221C31.584 51.613 31.5054 52.1635 31.7964 52.5514C32.0873 52.9394 32.6377 53.018 33.0257 52.727C34.1808 51.8608 34.937 50.9017 35.33 49.8815C35.7251 48.8561 35.7288 47.8317 35.4802 46.8843C34.9959 45.0381 33.5609 43.482 32.1522 42.5298L21.8334 34.6428C21.4481 34.3483 20.897 34.4219 20.6025 34.8072Z" fill="black"/>
<path fill-rule="evenodd" clip-rule="evenodd" d="M36.9185 39.1405C37.2442 37.5668 36.86 35.7365 35.1841 34.6113L34.2052 36.0694C35.1451 36.7005 35.4183 37.724 35.1988 38.7846C34.9702 39.8889 34.2478 40.8072 33.4888 41.1109C33.0385 41.2911 32.8196 41.8022 32.9998 42.2524C33.1799 42.7027 33.691 42.9216 34.1413 42.7415C35.5766 42.1671 36.6019 40.6706 36.9185 39.1405Z" fill="black"/>
<path fill-rule="evenodd" clip-rule="evenodd" d="M39.3763 45.4049C38.9422 45.1888 38.415 45.3655 38.1989 45.7997C37.4955 47.2128 37.3382 49.1795 37.5082 51.1743C37.5582 51.762 37.6376 52.363 37.7441 52.9671C35.8112 53.0103 33.65 53.3443 31.284 54.0579C30.8197 54.1979 30.5568 54.6878 30.6968 55.1521C30.8368 55.6165 31.3267 55.8793 31.791 55.7393C34.1726 55.0211 36.2889 54.7226 38.1263 54.7179C38.3572 55.604 38.6422 56.4754 38.9737 57.299C39.7392 59.2011 40.792 60.9462 42.0903 62.0001C42.7488 62.5347 43.5038 62.918 44.3396 63.0154C45.1878 63.1142 46.0395 62.9089 46.8569 62.3995C48.198 61.5637 48.7677 60.2208 48.5286 58.8038C48.2995 57.4461 47.3542 56.1312 45.9242 55.1131C44.3861 54.0181 42.2309 53.2166 39.5386 53.0129C39.4081 52.3421 39.3133 51.6736 39.258 51.0252C39.0983 49.1502 39.2804 47.5681 39.7711 46.5823C39.9872 46.1481 39.8105 45.621 39.3763 45.4049ZM39.9752 54.818C42.1108 55.0629 43.7642 55.7312 44.9056 56.5438C46.0817 57.381 46.6675 58.3294 46.7969 59.096C46.9162 59.8032 46.6716 60.4456 45.928 60.909C45.4088 61.2325 44.952 61.3186 44.5429 61.2709C44.1213 61.2218 43.6703 61.0207 43.1972 60.6366C42.2322 59.8532 41.3195 58.4238 40.6029 56.6433C40.3671 56.0574 40.1567 55.4439 39.9752 54.818Z" fill="black"/>
</g>
</g>
</svg>
